/* XPM */
static char *result[] = {
/* columns rows colors chars-per-pixel */
"64 64 64 1 ",
"  c black",
". c #16002D",
"X c #5A0000",
"o c #690000",
"O c #780000",
"+ c #2C005A",
"@ c #340069",
"# c #3C0078",
"$ c #007078",
"% c gray31",
"& c #777777",
"* c #870000",
"= c #960000",
"- c #A50000",
"; c #B40000",
": c #C30000",
"> c #D20000",
", c #E10000",
"< c #F00000",
"1 c red",
"2 c #440087",
"3 c #4C0096",
"4 c #5400A5",
"5 c #5C00B4",
"6 c #6400C3",
"7 c #6C00D2",
"8 c #7400E1",
"9 c #7C00F0",
"0 c #8400FF",
"q c #860FFF",
"w c #8B0FFF",
"e c #8D1EFF",
"r c #921EFF",
"t c #962DFF",
"y c #992DFF",
"u c #9D3CFF",
"i c #A03CFF",
"p c #A64BFF",
"a c #A74BFF",
"s c #AE5AFF",
"d c #00A8B4",
"f c #00B6C3",
"g c #00C4D2",
"h c #00D2E1",
"j c #00E0F0",
"k c #00EEFF",
"l c gray53",
"z c gray56",
"x c #9F9F9F",
"c c #A7A7A7",
"v c #AFAFAF",
"b c #B7B7B7",
"n c gray75",
"m c #C487FF",
"M c #CC96FF",
"N c #D3A5FF",
"B c gray78",
"V c gray81",
"C c #D7D7D7",
"Z c #DFDFDF",
"A c #E7E7E7",
"S c #EFEFEF",
"D c gray97",
"F c white",
/* pixels */
"000099NNMMaayr0wrrrraarrww0000000000000000000000ssiiyy00rrww0000",
"010090NNMMaayrwwrrrraarrww0000000000000000000000ssiiyy00rrww0000",
"000091yymm0090aass1301yyss0000000000000000wwwwwwwwrrrrrrrrNN0000",
"0000<1yymm0790aass<800yyss0001000000000000wwwwwwwwrrrrrrrrNN0000",
"0000<10010e,qsssr1<rrr000000000000000000yyww00000000000000000000",
"0011,10000u1tpss51<wrr000000000000000000yyww00000000000000000000",
"001>>10009,<0600:<<900100031000000000199446666668888889944000000",
"001:110008,,k8111;1900001171000000000,29446666668888889944000000",
"001,1:668<,1k<11:=<,9999917000000000#,68000000000000000066000000",
"001>1,167<,1kj1>1<<<99991180000000001j78000000000000000066000000",
"108,1=11<,<kkj1,11<,18001=5899000000<j18000000000000000088000000",
"008,1$1<-;<kkh<<k1<,1100<<>899000001<j18001000000000000088000000",
"014>kh1,<1<kkg,1k1<,<181,,=8@1000001,h19889900000000001099010000",
"011,jj1,,1jkkkk1k1,><11,<:>8@@000011jj19889900000010000099000000",
"01<<jkk<,kkkkkkkk1<h1<<1:,>100000111j<X0009918998818990099000000",
"00<<hkjk<kkkkkgkkk1f1<,1:><<0000011,kj,00091189181881=0099000000",
"00<>jkhk<kFFbbbbkkkj<<,<>><,00000k1jk<,01001000010009>8899000000",
"00<,kkjk,kFFbbbbkkkj,1g<,><<100>hkkkk<>000;1=00010009>1899100000",
"10,<kkkkkkSSCCnnDDkk*<j>:<><171>hkkkk<>001,1>00010000>1977880000",
"01<gkkkkkkSSCCnnDDkk1jj;;::<111<jkjk<>>011,1,00010001,19721-0000",
"011hkkkkkkVVFFFFAAkkkkjk,11<11<<hhk11>>111>,<00100011O107,1:0100",
"001gkkkkkkVVFFFFAAkkkkkkd111<1<1jjk11:>111,,,00001111d<17<,,1100",
"001dkCbb%%VVFFFFFFSSkkkkkk11,1<kjhk11,><11<:<0001111,g<111><1000",
"001fCCbb%%VVFFFFFFSSkkkkkk11<<,kjjk11>,<1,<<,1011111jg<111:<0000",
"001kFFzzDDFFFFFFFFDDkkkkkkkk1,<kgk111:,,1<<,<10:111<h,1<11>,0000",
"0011FFzzDDFFFFFFFFDDkkkkkkkk1,<kkk111>,<1>1>110>111<h<1<11:,0000",
"0001FFFFFFFFAASSFFFFAAkkkkkkkkkkkk11k,,<<<1>111>111jj,1,1k-<0000",
"0000FFFFFFFFAASSFFFFAAkkkkkkkkkkkkkkk><>=<1,<11>11jkj<11<k*<0101",
"0000FFFFFFFFFFbbBBFFFFVVDDkkkkkkkkkk1,1>111<,11>11jkg111,k<,0010",
"0000FFFFFFFFFFbbBBFFFFVVDDkkkkkkkkkk1>1;11h1<1k,11jhj111<k<<0110",
"000000FFFFFFFFFFFFFFFFFF&&SSkkkkkkkkk,1>=1j1<1k>1<kjh111jk,,9100",
"000000FFFFFFFFFFFFFFFFFF&&SSkkkkkkkkk>11,kh1<1j<1,kjj111jj1<8100",
"00000000000000FFFFFFFFFFFFCCCCDDkkkkkf1khkj11,h,,1khk11kkj112117",
"00000000000000FFFFFFFFFFFFCCCCDDkkkkkdkkkkk11hh,,1kgkk1kkd11>,o7",
"000000000000000000FFFFFFFFFFDDccZZkkkkkkkkk11df<:1kkkkkkkkkkg<,8",
"000000000000000000FFFFFFFFFFDDccZZkkkkkkkkk11kkk<1kkkkkkkkkkg<,8",
"0000000000000000000000FFFFFFFFFFSSVVkkkkkkkkkkkk,1kkkkkkkkkkkf<4",
"0000000000000000000000FFFFFFFFFFSSVVkkkkkkkkkkkh<kkkkkkkkkkkjg14",
"000000000000000000000000FFFFFFFFFFFFSSAkkkkkkkkhkkkkkkkkkkkkk>,0",
"000000000000000000000000FFFFFFFFFFFFSSAAkkkkkkkkkhgkkkkkkkkkk>,0",
"0000000000000000000000000000FFFFFFFFFFSSnnSSkkkkkkkkkkkkkkkkkk,0",
"0000000000000000000000000000FFFFFFFFFFSSnnSSkkkkkkkkkkkkkkkkkk,7",
"000000000000000000000000000000FFFFFFFFFFFFZZVVZZkkkkkkkkkkkkkk,w",
"000000000000000000000000000000FFFFFFFFFFFFZZVVZZkkkkkkkkkkkkkk,w",
"00000000000000000000000000000000FFFFFFFFFFFFFFSSvvSSCCZZkkkkkk,0",
"00000000000000000000000000000000FFFFFFFFFFFFFFSSvvSSCCZZkkkkkk,0",
"000000006677887777889900000000000000FFFFFFFFFFFFFFFFFFAAnnkkkk80",
"000000006677887777889900000000000000FFFFFFFFFFFFFFFFFFAAnnkkkkh0",
"000000000000000000..22..00000000000000FFFFFFFFFFFFFFFFFFbbcckkh0",
"000000000000000000..22..00000000000000FFFFFFFFFFFFFFFFFFbbccj,00",
"000000000000000000000000000000000000000000FFFFBFAAFFFFFFBBxxg,10",
"000000000000000000000000000000000000000000FFFFBBAAFFFFFFBBxxd100",
"008877888899998888889900000000000000000000FFFFFFSSllVVBBCCkdj000",
"008877888899998888889900000000000000000000FFFFFFSSllVVBBCB:>1000",
"006600007777880000008888000000000000000000FFFFFFFFFFkkkk<>000000",
"006600007777880000008888000000000000000000FFFFFFFFFFk11060000000",
"000099449900000000000099777700000000000000FFFFFFFFFF11>+00000055",
"000099449900000000000099777700000000000000FFFFFFFFFF000000000055",
"00008800000000000000000000770000000000000000FFFFFF00000000552299",
"00008800000000000000000000770000000000000000FFFFFF00000000552299",
"0000770000000000000000999900000000000000000000000000000066  0099",
"0000770000000000000000999900000000000000000000000000000066  0099",
"0000887700000000009999990000000000000000000000000000..5577007777",
"0000887700000000009999990000000000000000000000000000..5577007777"
};
