/* XPM */
static char *result[] = {
/* columns rows colors chars-per-pixel */
"64 64 63 1 ",
"  c black",
". c #16002D",
"X c #780000",
"o c #25004B",
"O c #340069",
"+ c #3C0078",
"@ c #006269",
"# c gray31",
"$ c #777777",
"% c gray50",
"& c #870000",
"* c #960000",
"= c #A50000",
"- c #B40000",
"; c #C30000",
": c #D20000",
"> c #E10000",
", c #F00000",
"< c red",
"1 c #440087",
"2 c #4C0096",
"3 c #5400A5",
"4 c #5C00B4",
"5 c #007E87",
"6 c #6400C3",
"7 c #6C00D2",
"8 c #7400E1",
"9 c #7C00F0",
"0 c #8400FF",
"q c #8B0FFF",
"w c #921EFF",
"e c #992DFF",
"r c #A03CFF",
"t c #A74BFF",
"y c #AE5AFF",
"u c #B569FF",
"i c #008C96",
"p c #009AA5",
"a c #00A8B4",
"s c #00B6C3",
"d c #00C4D2",
"f c #00D2E1",
"g c #00E0F0",
"h c #00EEFF",
"j c gray53",
"k c gray56",
"l c #979797",
"z c #9F9F9F",
"x c #A7A7A7",
"c c #AFAFAF",
"v c #B7B7B7",
"b c gray75",
"n c #C487FF",
"m c #CC96FF",
"M c #D3A5FF",
"N c gray78",
"B c gray81",
"V c #D7D7D7",
"C c #DFDFDF",
"Z c #E7E7E7",
"A c #EFEFEF",
"S c gray97",
"D c white",
/* pixels */
"000000MMmmtteeqqwwwwttwwqq0000000000000000000000yyrree00wwqq0000",
"000000MMmmtteeqqwwwwttwwqq0000000000000000000000yyrree00wwqq0000",
"000000eenn0000ttyy0000eeyy0000000000000000qqqqqqqqwwwwwwwwMM0000",
"000000eenn0000ttyy0000eeyy0000000000000000qqqqqqqqwwwwwwwwMM0000",
"0000000000uuyyyywweeww000000000000000000eeqq00000000000000000000",
"0000000000uuyyyywweeww000000000000000000eeqq00000000000000000000",
"0011000000000000000000000000000000000099336666668888889933000000",
"001100,000000000000000000000000000000099336666668888889933000000",
"00OO44668899883366889999990000000000++88000000000000000066000000",
"00OO44668<,9883366889999990000000000++88000000000000000066000000",
"008899OO<>=<0000007788009988990000009988000000000000000088000000",
"008899OO<>000000007:88009988990000009988000000000000000088000000",
"00338<33>,0<00<<000077888888OO0000000099889900000000000099000000",
"0033883<>,0073<<*00077888888OO0000000099889900000000000099000000",
"009988<<>><07<s-,079*<000000000000000000009988998888990099000000",
"00998<<<:,<<=<h<<0<>,<00<000000000000000009988998888990099000000",
"00<<0<<g<:DDvvvv<<,,><0<0000000000000000000000000000998899000000",
"000,0:>g<:DDvvvv:;<,><<00000000000000000000000000000998899000000",
"0008<>,gg>AAVVbbCS<g><000099771199999900000000000000009977880000",
"0000<,,hh,AAVVbbZS<f><000099771199999900000000000000009977880000",
"0000<>>hhhBBDDDDZChhh<00X000007700007777000000000000000077000000",
"00000:fhhhBBDDDDZChhh<088<00007700007777000000000000000077000000",
"0000VVxv##BBDDDDDSAh,006<,00008800000088880000000000000000000000",
"0000VVlv##BBDDDDDDCA>0>><>0<008800000088880000000000000000000000",
"0000DDkkSSDDDDDDDDSA,<:<<,00007700000000779900000000000000000000",
"0000DDkkSSDDDDDDDDSA,:,@<>000<7300000000779900000000000000000000",
"0000DDDDDDDDZZAADDDSbzpf<>00000:88990000002200000088oo0000000000",
"0000DDDDDDDDZZAADDDDZZsg:*<000<>8899000<002200000088oo0000000000",
"0000DDDDDDDDDDvvNNDDDDzvNSh<<<<>0099997<++9900000000667777000000",
"0000DDDDDDDDDDvvNNDDDDBBZAhh<<h<00<9997<++9900000000667777000000",
"000000DDDDDDDDDDDDDDDDDD$$AA<hh<000000<><00000000000007700229900",
"000000DDDDDDDDDDDDDDDDDD$$AA<hhh000000,;<00<00000000007700229900",
"00000000000000DDDDDDDDDDDDVVVVSS<00<<<;h<<00000000rrqq8899004477",
"00000000000000DDDDDDDDDDDDVVVVSS<<<<<:dh<<000000<0rrqq8899004477",
"000000000000000000DDDDDDDDDDSSxxCC;::,dh<<00<000uu00qqqq99880088",
"000000000000000000DDDDDDDDDDSSxxCC<<<<ahh>0000<0u<;0qqqq99880088",
"0000000000000000000000DDDDDDDDDDAABBhhghhX0010<0qq=<0000qqqq8833",
"0000000000000000000000DDDDDDDDDDAABBhhhhh-003<><qq9,=000<<qq8833",
"000000000000000000000000DDDDDDDDDDDDAAZZh><07<g,009,:qqq,800q000",
"000000000000000000000000DDDDDDDDDDDDAAZZhd<,,hh,<088<qqq:0000000",
"0000000000000000000000000000DDDDDDDDDDAAbbAN<hhg,090,000qq00<000",
"0000000000000000000000000000DDDDDDDDDDAAbbAAhhhh,0,<d<00qqqq00q0",
"000000000000000000000000000000DDDDDDDDDDDDCCBgxhg<><gi0000<h>00q",
"000000000000000000000000000000DDDDDDDDDDDDCCBBCCh<5hhf=;<<hh>00q",
"00000000000000000000000000000000DDDDDDDDDDDDDDAAccAAVVCC>hhh>000",
"00000000000000000000000000000000DDDDDDDDDDDDDDAAccAAVVCC<ghh><00",
"000000006677887777889900000000000000DDDDDDDDDDDDDDDDDDZZbbhh>&<0",
"000000006677887777889900000000000000DDDDDDDDDDDDDDDDDDZZbbhh<-<0",
"000000000000000000..11..00000000000000DDDDDDDDDDDDDDDDDDvvx>>,00",
"000000000000000000..11..00000000000000DDDDDDDDDDDDDDDDDDvvxj:,00",
"000000000000000000000000000000000000000000DDDDNNZZDDDDDDNNz%->00",
"000000000000000000000000000000000000000000DDDDNNZZDDDDDDNNzhp<00",
"008877888899998888889900000000000000000000DDDDDDAAjjBBNNVVhh>000",
"008877888899998888889900000000000000000000DDDDDDAAjjBBNNVV<,>000",
"006600007777880000008888000000000000000000DDDDDDDDDDhhhs>:880000",
"006600007777880000008888000000000000000000DDDDDDDDDD<,>000000000",
"000099339900000000000099777700000000000000DDDDDDDDDS>,<000000044",
"000099339900000000000099777700000000000000DDDDDDDDDV000000000044",
"00008800000000000000000000770000000000000000DDDDDD00000000441199",
"00008800000000000000000000770000000000000000DDDDDD00000000441199",
"0000770000000000000000999900000000000000000000000000000066  0099",
"0000770000000000000000999900000000000000000000000000000066  0099",
"0000887700000000009999990000000000000000000000000000..4477007777",
"0000887700000000009999990000000000000000000000000000..4477007777"
};
