/* XPM */
static char *result[] = {
/* columns rows colors chars-per-pixel */
"64 64 41 1 ",
"  c black",
". c #16002D",
"X c #25004B",
"o c #340069",
"O c #3C0078",
"+ c gray31",
"@ c #777777",
"# c #440087",
"$ c #4C0096",
"% c #5400A5",
"& c #5C00B4",
"* c #6400C3",
"= c #6C00D2",
"- c #7400E1",
"; c #7C00F0",
": c #8400FF",
"> c #8B0FFF",
", c #921EFF",
"< c #992DFF",
"1 c #A03CFF",
"2 c #A74BFF",
"3 c #AE5AFF",
"4 c #B569FF",
"5 c gray53",
"6 c gray56",
"7 c #9F9F9F",
"8 c #A7A7A7",
"9 c #AFAFAF",
"0 c #B7B7B7",
"q c gray75",
"w c #C487FF",
"e c #CC96FF",
"r c #D3A5FF",
"t c gray78",
"y c gray81",
"u c #D7D7D7",
"i c #DFDFDF",
"p c #E7E7E7",
"a c #EFEFEF",
"s c gray97",
"d c white",
/* pixels */
"::::::rree22<<>>,,,,22,,>>::::::::::::::::::::::3311<<::,,>>::::",
"::::::rree22<<>>,,,,22,,>>::::::::::::::::::::::3311<<::,,>>::::",
"::::::<<ww::::2233::::<<33::::::::::::::::>>>>>>>>,,,,,,,,rr::::",
"::::::<<ww::::2233::::<<33::::::::::::::::>>>>>>>>,,,,,,,,rr::::",
"::::::::::443333,,<<,,::::::::::::::::::<<>>::::::::::::::::::::",
"::::::::::443333,,<<,,::::::::::::::::::<<>>::::::::::::::::::::",
"::##::::::::::::::::::::::::::::::::::;;%%******------;;%%::::::",
"::##::::::::::::::::::::::::::::::::::;;%%******------;;%%::::::",
"::oo&&**--;;--%%**--;;;;;;::::::::::OO--::::::::::::::::**::::::",
"::oo&&**--;;--%%**--;;;;;;::::::::::OO--::::::::::::::::**::::::",
"::--;;oo##::::::::==--::;;--;;::::::;;--::::::::::::::::--::::::",
"::--;;oo##::::::::==--::;;--;;::::::;;--::::::::::::::::--::::::",
"::%%--%%::::::::::::==------oo::::::::;;--;;::::::::::::;;::::::",
"::%%--%%::::::::::::==------oo::::::::;;--;;::::::::::::;;::::::",
"::;;--::::::::::::::::::::::::::::::::::::;;--;;----;;::;;::::::",
"::;;--::::::::::::::::::::::::::::::::::::;;--;;----;;::;;::::::",
"::::::::::dd0000::::::::::::::::::::::::::::::::::::;;--;;::::::",
"::::::::::dd0000::::::::::::::::::::::::::::::::::::;;--;;::::::",
"::::::::::aauuqqss::::::::;;==##;;;;;;::::::::::::::::;;==--::::",
"::::::::::aauuqqss::::::::;;==##;;;;;;::::::::::::::::;;==--::::",
"::::::::::yyddddpp::::::::::::==::::====::::::::::::::::==::::::",
"::::::::::yyddddpp::::::::::::==::::====::::::::::::::::==::::::",
"::::uu00++yyddddddaa::::::::::--::::::----::::::::::::::::::::::",
"::::uu00++yyddddddaa::::::::::--::::::----::::::::::::::::::::::",
"::::dd66ssddddddddss::::::::::==::::::::==;;::::::::::::::::::::",
"::::dd66ssddddddddss::::::::::==::::::::==;;::::::::::::::::::::",
"::::ddddddddppaaddddpp::::::::::--;;::::::$$::::::--XX::::::::::",
"::::ddddddddppaaddddpp::::::::::--;;::::::$$::::::--XX::::::::::",
"::::dddddddddd00ttddddyyss::::::::;;;;==OO;;::::::::**====::::::",
"::::dddddddddd00ttddddyyss::::::::;;;;==OO;;::::::::**====::::::",
"::::::dddddddddddddddddd@@aa::::::::::::::::::::::::::==::$$;;::",
"::::::dddddddddddddddddd@@aa::::::::::::::::::::::::::==::$$;;::",
"::::::::::::::dddddddddddduuuuss::::::::::::::::::11>>--;;::&&==",
"::::::::::::::dddddddddddduuuuss::::::::::::::::::11>>--;;::&&==",
"::::::::::::::::::ddddddddddss88ii::::::::::::::44::>>>>;;--::--",
"::::::::::::::::::ddddddddddss88ii::::::::::::::44::>>>>;;--::--",
"::::::::::::::::::::::ddddddddddaayy==::::::::::>>>>::::>>>>--%%",
"::::::::::::::::::::::ddddddddddaayy==::::::::::>>>>::::>>>>--%%",
"::::::::::::::::::::::::ddddddddddddaapp::::::::::::>>>>::::>>::",
"::::::::::::::::::::::::ddddddddddddaapp::::::::::::>>>>::::>>::",
"::::::::::::::::::::::::::::ddddddddddaaqqaa::::::::::::>>>>::>>",
"::::::::::::::::::::::::::::ddddddddddaaqqaa::::::::::::>>>>::>>",
"::::::::::::::::::::::::::::::ddddddddddddiiyyii::::::::::::>>>>",
"::::::::::::::::::::::::::::::ddddddddddddiiyyii::::::::::::>>>>",
"::::::::::::::::::::::::::::::::ddddddddddddddaa99aauuii::::::::",
"::::::::::::::::::::::::::::::::ddddddddddddddaa99aauuii::::::::",
"::::::::**==--====--;;::::::::::::::ddddddddddddddddddppqq::::::",
"::::::::**==--====--;;::::::::::::::ddddddddddddddddddppqq::::::",
"::::::::::::::::::..##..::::::::::::::dddddddddddddddddd0088::::",
"::::::::::::::::::..##..::::::::::::::dddddddddddddddddd0088::::",
"::::::::::::::::::::::::::::::::::::::::::ddddttppddddddtt77::::",
"::::::::::::::::::::::::::::::::::::::::::ddddttppddddddtt77::::",
"::--==----;;;;------;;::::::::::::::::::::ddddddaa55yyttuu::::::",
"::--==----;;;;------;;::::::::::::::::::::ddddddaa55yyttuu::::::",
"::**::::====--::::::----::::::::::::::::::dddddddddd::::::::::::",
"::**::::====--::::::----::::::::::::::::::dddddddddd::::::::::::",
"::::;;%%;;::::::::::::;;====::::::::::::::dddddddddd::::::::::&&",
"::::;;%%;;::::::::::::;;====::::::::::::::dddddddddd::::::::::&&",
"::::--::::::::::::::::::::==::::::::::::::::dddddd::::::::&&##;;",
"::::--::::::::::::::::::::==::::::::::::::::dddddd::::::::&&##;;",
"::::==::::::::::::::::;;;;::::::::::::::::::::::::::::::**  ::;;",
"::::==::::::::::::::::;;;;::::::::::::::::::::::::::::::**  ::;;",
"::::--==::::::::::;;;;;;::::::::::::::::::::::::::::..&&==::====",
"::::--==::::::::::;;;;;;::::::::::::::::::::::::::::..&&==::===="
};
