/* XPM */
static char *result[] = {
/* columns rows colors chars-per-pixel */
"64 64 29 1 ",
"  c black",
". c #24054C",
"X c #2D005A",
"o c #350069",
"O c #3D0078",
"+ c #175352",
"@ c red",
"# c #450087",
"$ c #450C8F",
"% c #4D0096",
"& c #5500A5",
"* c #5D00B4",
"= c #6500C3",
"- c #6D00D2",
"; c #7500E1",
": c #6F00FF",
"> c #7D00F0",
", c #8500FF",
"< c #8C0FFF",
"1 c #931EFF",
"2 c #9A2DFF",
"3 c #A13CFF",
"4 c #A84BFF",
"5 c #AF5AFF",
"6 c #B669FF",
"7 c #279391",
"8 c #0089FF",
"9 c #C487FF",
"0 c white",
/* pixels */
",,,,,,,,,,,,,,,,,,,,,,,,,,,,,,,,,,,,,,,,,,,,,,,,,,,,,,,,,,,,,,,,",
",,,,,,,,,,,,,,,,,,,,,,, ,,,,,,,,, ,>%#-;;;----->,;-&=,,,,,,,,,,,",
",>----;;;-->,,,,,,,,,,, ,,,,,,,,, ,;##-;;;--->>;>;-&=,,,,,,,,,,,",
"-=----;>,>,<,12,,,,,,,, ,,,,,,,,,  ;>,,,,,1211,;>,,,,,,,,,,,,,,,",
"**,,,<111<11,,<,,,,,,,, ,,,,,,,,,  >,,<122221=%;,,,,,,,,,,,,,,,,",
"--,<111<>;> ,;<,,,,,,,,  ,,,,,,,>  2122122<,>**> ,,,,>==--;-;,,,",
">;,11<,>-;,  ,,,,,,<221  22<,,,<;  ,>,>*=>-#o=,, ,>>,>==--;-=;,,",
",>,,;;;;;>,  ,,,,,,<221   2<,,,<   ##&&#&;-#O-,,  ;;,,,,,,,,==,,",
",,,>;;;>,, :   ,,,,,,,,, . ,,,,  . %&---;>,,,,,,  >-;,,,,,,,--,,",
",,,,,,,,,, ::: ,,,,,,,,, .    , .. ->,,,,,,,,,, : ,;-;>,,,,,;;,,",
",,,,,,,,, ::$$: ,,,,,,,, .... .... ,,,,,,,,,,,, : ,,>;-;,,,,;;,,",
",,,,,,,,, :$$$$: ,,,,,,, ......... ,,,,,,,,,,, :: ,,,,;->,,,;;,,",
",,,,,,,,, :$$$$$: ,,,,,, .00...00. ,,,,,,,,,,, ::: ;,,,>-;,,;;,,",
",,,,,,,,, :$$$$$$: ,,,,, ......... ,,,,,,,,,  ::$: --;,,;-;-->,,",
",,,,,,,,, :$$$.$$$: ,,,, ......... ,,,,,,,,, :$$$: >&*,,,>;-;,,,",
",,,,,,,,, :$$$.$$$: ,,,, ......... ,,,,,,,, :$$$$: ,--,,,,,,,,,,",
",,,,,,,, :$$$$..$$:: ,,, ........  ,,,,,,,, :$.$$$: ,,,,,,,,,,,,",
",,,,,,,, :$$$....$$: ,,,, ......  ,,,,,,,, :$$..$$: ,,,,,,,,,,,,",
",,,,,,,, :$$$....$$:: ,,,  ..... ,,,,,,,, :$$...$$: ,,,,,,,,,,,,",
",,,,,,, ::$$......$$: ,,,, ..... ,,,,,,,, :$$...$$: ,,,,,,,,,,,,",
",,,,,,, ::$$......$$:: ,,,       ,,,,,,, :$$.....$: ,,,,,,>>,,,,",
",,,,,,, :$$$$.....$$$:: 77+++++++77,,,  :$$$....$$: ,,,,,,>>,,,,",
",,,,,, ::$$$$.....$$$$:77777777777777 :::$$$....$$: ,,,,,,,,,,,,",
",,,,,, :$$$$$.....$$$$:77777777777777 ::$$$$....$$: ,,,,,,,,,,,,",
",,,,, ::$$$$$$...$$$$$:77777777777777:$$$$$$....$$$: ,,,,,,,,,,,",
",,,,, ::$$::$$$..$$$$$:77777777777777:$$$$$$$..$$$$: ,,>>,,,,,,,",
",,,, ::$$:::$$$$.$$$$::77777777777777 :$$$$$$..$$$$: ,,;;,,,,,,,",
",,,, :$$:: :$$$$$$$$$: 7777777777777+ ::$$$$$.$$$$$: ,,>;>,,,,,,",
",,,, :$$:  :$$$$$$$$:: ++7777777777++  :$$$$$$$$$$$: ,,,--,,,,,,",
",,,, :$$:  :$$$$$$$$:  +++7777+7777++, :$$$$$$$$$$$: ,,,--,,,,,,",
",,, ::$:: ::$$$$$$$$:  ,++7+++++++7+,, :$$$$$$$$$:$$: ,>==-->,,,",
",,, ::$:  :$$$$$$$$$:  ,++777777777+,  :$$$$$$$$$::$: ;-**--;>,,",
",,, ::::  :$$$:::$$$: ,,++7+++++++7+,, :$$$$$$$$: :$: &*&-,,--,,",
",,, ::::  :$$$: :$$$: ,,++7+77777+7+,, :$$$$$$$$: :$: =*#-,,--,,",
",,, ::::  :$$:: :$$$:  ,++7+++++++7+,,  :$$$$:::: :::: =%-,,--,,",
",,, ::: , :$$:  :$$::  ,++7++777++7+, . ::$$$: ::  ::: ,o#,,--,,",
",,, ::: , :$$: ::$$:: , ++7+++++++7+  .  :$$$: ::  ::: 2&&1242,,",
",,, ::: 1 :$:: ::$$: ,, ++77+++++77, $$  :$$$: ::: ::: <>>1252>,",
",,, ::: < :$:: :$$$: ,, @88777887@@, ..  ::$$: :::  :: ;--,,,;;,",
",,, ::: ; :$:: :$$$: , @@8888@8888@ ... , :$:   ::  ::: =;,,,--,",
",,, ::: > :$:: :$$$: , @88888@8888@@$$. , :$: , :: , :: &=,,,--,",
",,> :: <; :$:  :$$:: , @8888@@8@888@.$$ , :$: , :: , :: &%;-;;;,",
",,; :: >- :::  :$$:: , @888@@@8@888@... , ::  , :: , :: -=;---=;",
",>; :: => :::  :$$: ,, 8888@@@@@8888 .. , :: ,,, : , :: ,,,,>;%o",
",;; :: -, :::  :$$: ,, 888@@@@@@8888@.. , :: ,,, ::  :: ,,,,,,=#",
",-- :: ,, :::  :$$: ,, 88@@@@8@@@888@ . , : ,,,, :: , :: ,,,,,,,",
",== :: ,, :::  :$$: ,, 88@@@88@88@88@ . , : ,,,, :: , :: ,,,,,,,",
",== :: ,, :::  :$$: ,, 88@@@88888@@88,  ,  ,,,,, :: , :: ,,,,,,,",
",;; :: ,, :: ,, :$: ,, 88@@8888888@88, ,,  ,,,,, :: , :: ,,,,,,,",
",,,, : ,, :: ,,  ::: , @88@8888888@@   ,,  ,,,,, :: ,, :  ,,,,,,",
",,,, : ,, :: ,,, :,: , @88888888888@  ,,,  ,,,,, :: ,, :: ,,,,,,",
",,,, : ,, :: ,,,  :: , @888888 8888@ ,,,,  ,,,,, :: ,, :: ,,,,,,",
",,,, : ,, :: ,,,, :: , @888888,8888@ ,,,,  ,,,,, :: ,,, : ,,,,,,",
",,,, : ,, :: ,,,, :: , @@88888,8888@ ,,,, ,,,,,, :: ,,, : ,,,,,,",
",,,, : ,, :: ,,,,  : , 8@@888@,@@@.. ,,,, ,,,,,, :: ,,, : ,,,,,,",
",,,, : =-, : ,,,,, : , ...... ,, ... ,,,, ,,,,,, : ,,,, : -=;,,,",
",,,-   ==, : ,,,,,,  , ...... ,,  .. ,,,, ,,,,,, : ,,,,   -=;,,,",
",,>=-  ,>= : ,,,,,,  , ...... ,,, .  ,,,,,,,,,,, : ,,,,, ,,,,,,,",
";*=>,  ,,* : ,,,,,,, ,, .... ,,,,   ,,,,,,,,,,,,,  ,,,,, ,,,,<11",
"=XO--- --*=  ,,,,,,,,,,  ... ,,,,,  ,,,,,,,,,,,,,  ,,,,, ,133211",
";&&---;-->,  ,,,,,,,,,,, .. ,,,,,,  ,,,,,,,,,,,,, ,,,,,,,,6931,,",
",,,,,,,,,,,  ,,,,,,,,,,,,   ,,,,,,,,,,,,,,,,,,,,, ,,,,,,,,99,,,,",
"11222463,,,  ,,,,,,,,,,,,  ,,,,,,,,,,,,,,,,,,,,,, ,,,,,,,,45<,,,",
"11222463,,,  ,,,,,,,,,,,,,,,,,,,,,,,,,,,,,,,,,,,, ,,,,,,,,<22143"
};
