/* XPM */
static char *result[] = {
/* columns rows colors chars-per-pixel */
"64 64 55 1 ",
"  c black",
". c #16002D",
"X c #25004B",
"o c #340069",
"O c #3C0078",
"+ c gray31",
"@ c #777777",
"# c #960000",
"$ c #A50000",
"% c #B40000",
"& c #C30000",
"* c #D20000",
"= c #E10000",
"- c #F00000",
"; c red",
": c #FF0F0F",
"> c #FF2D2D",
", c #FF3C3C",
"< c #440087",
"1 c #4C0096",
"2 c #5400A5",
"3 c #5C00B4",
"4 c #6400C3",
"5 c #6C00D2",
"6 c #7400E1",
"7 c #7C00F0",
"8 c #8400FF",
"9 c #8B0FFF",
"0 c #921EFF",
"q c #992DFF",
"w c #A03CFF",
"e c #A74BFF",
"r c #AE5AFF",
"t c #B569FF",
"y c #00B6C3",
"u c #00E0F0",
"i c #00EEFF",
"p c gray53",
"a c gray56",
"s c #9F9F9F",
"d c #A7A7A7",
"f c #AFAFAF",
"g c #B7B7B7",
"h c gray75",
"j c #C487FF",
"k c #CC96FF",
"l c #D3A5FF",
"z c gray78",
"x c gray81",
"c c #D7D7D7",
"v c #DFDFDF",
"b c #E7E7E7",
"n c #EFEFEF",
"m c gray97",
"M c white",
/* pixels */
"888888llkkeeqq990000ee00998888888888888888888888rrwwqq8800998888",
"888888llkkeeqq990000ee00998888888888888888888888rrwwqq8800998888",
"888888qqjj8888eerr8888qqrr88888888888888889999999900000000ll8888",
"888888qqjj8888eerr8888qqrr88888888888888889999999900000000ll8888",
"8888888888ttrrrr00qq00888888888888888888qq9988888888888888888888",
"8888888888ttrrrr00qq00888888888888888888qq9988888888888888888888",
"88<<888888888888888888888888888888888877224444446666667722888888",
"88<<888888888888888888888888888888888877224444446666667722888888",
"88oo33446677662244667777778888888888OO66888888888888888844888888",
"88oo33446677662244667777778888888888OO66888888888888888844888888",
"886677oo<<888888885566887766778888887766888888888888888866888888",
"886677oo<<888888885566887766778888887766888888888888888866888888",
"8822662288888888888855666666oo8888888877667788888888888877888888",
"8822662288888888888855666666oo8888888877667788888888888877888888",
"88776688;;367788888888888888888888888888887766776666778877888888",
"887766888-;;;;--888888888888888888888888887766776666778877888888",
"888888888%MMgggg-78888888888888888888888888888888888776677888888",
"88888888u%MMgggg;82888888888888888888888888888888888776677888888",
"888888886&nncchh;;,;8888887755<<77777788888888888888887755668888",
"888888888;nncchhmm-:8888887755<<77777788888888888888887755668888",
"888888888-xxMMMMbb;>88888888885588885555888888888888888855888888",
"888888888-xxMMMMbbiu;&;88888885588885555888888888888888855888888",
"8888ccgg++xxMMMMMMnn=#;88888886688888866668888888888888888888888",
"8888ccgg++xxMMMMMMnn=y=88888886688888866668888888888888888888888",
"8888MMaammMMMMMMMMmm;%-78888885588888888557788888888888888888888",
"8888MMaammMMMMMMMMmm;-577888885588888888557788888888888888888888",
"8888MMMMMMMMbbnnMMMMbb$86888888866778888881188888866XX8888888888",
"8888MMMMMMMMbbnnMMMMbb;=;**;;88866778888881188888866XX8888888888",
"8888MMMMMMMMMMggzzMMMMxhx;;**88888777755OO7788888888445555888888",
"8888MMMMMMMMMMggzzMMMMxxmm;;-*;;88777755OO7788888888445555888888",
"888888MMMMMMMMMMMMMMMMMM@@nni*;;88888888888888888888885588117788",
"888888MMMMMMMMMMMMMMMMMM@@nniu&;88;88888888888888888885588117788",
"88888888888888MMMMMMMMMMMMccccnz578888888888888888ww996677883355",
"88888888888888MMMMMMMMMMMMccccmm86=888888888888888ww996677883355",
"888888888888888888MMMMMMMMMMmmddvv;-888888888888tt88999977668866",
"888888888888888888MMMMMMMMMMmmddvv;-=;;888888888tt88999977668866",
"8888888888888888888888MMMMMMMMMMnnxx;-=:;88888889999888899996622",
"8888888888888888888888MMMMMMMMMMnnxxii-=-;8888889999888899996622",
"888888888888888888888888MMMMMMMMMMMMnnbb-;888*=88888999988889988",
"888888888888888888888888MMMMMMMMMMMMnnbbi-8;;-=88888999988889988",
"8888888888888888888888888888MMMMMMMMMMnnhhnn;;888888888899998899",
"8888888888888888888888888888MMMMMMMMMMnnhhnn;;888888888=99998899",
"888888888888888888888888888888MMMMMMMMMMMMvvxx;;-=7888;;88889999",
"888888888888888888888888888888MMMMMMMMMMMMvvxxvvi;;;;;;*;8889999",
"88888888888888888888888888888888MMMMMMMMMMMMMMnnffnnccvv;;888888",
"88888888888888888888888888888888MMMMMMMMMMMMMMnnffnnccvvii-88888",
"888888884455665555667788888888888888MMMMMMMMMMMMMMMMMMbbhh;;8888",
"888888884455665555667788888888888888MMMMMMMMMMMMMMMMMMbbhhi;;888",
"888888888888888888..<<..88888888888888MMMMMMMMMMMMMMMMMMggdd-888",
"888888888888888888..<<..88888888888888MMMMMMMMMMMMMMMMMMggdd;888",
"888888888888888888888888888888888888888888MMMMzzbbMMMMMMzzss;888",
"888888888888888888888888888888888888888888MMMMzzbbMMMMMMzzs;;888",
"886655666677776666667788888888888888888888MMMMMMnnppxxzzcc;;8888",
"886655666677776666667788888888888888888888MMMMMMnnppxxzzcc;;8888",
"884488885555668888886666888888888888888888MMMMMMMMMM;;iii;;88888",
"884488885555668888886666888888888888888888MMMMMMMMMM8;;;;;888888",
"888877227788888888888877555588888888888888MMMMMMMMMM888888888833",
"888877227788888888888877555588888888888888MMMMMMMMMM888888888833",
"88886688888888888888888888558888888888888888MMMMMM8888888833<<77",
"88886688888888888888888888558888888888888888MMMMMM8888888833<<77",
"8888558888888888888888777788888888888888888888888888888844  8877",
"8888558888888888888888777788888888888888888888888888888844  8877",
"8888665588888888887777778888888888888888888888888888..3355885555",
"8888665588888888887777778888888888888888888888888888..3355885555"
};
