/* XPM */
static char *result[] = {
/* columns rows colors chars-per-pixel */
"64 64 136 2 ",
"   c #000000",
".  c #090304",
"X  c #0B0905",
"o  c #030309",
"O  c #090909",
"+  c #080A10",
"@  c #0E0E1B",
"#  c #120D1D",
"$  c #0D1217",
"%  c #101010",
"&  c #11111A",
"*  c #300001",
"=  c #130C21",
"-  c #171324",
";  c #191425",
":  c #1C1429",
">  c #2D005A",
",  c #350069",
"<  c #3D0078",
"1  c #534C4C",
"2  c gray33",
"3  c #A51F2E",
"4  c #8C273B",
"5  c #9F2634",
"6  c #9C2934",
"7  c #922538",
"8  c #B0202F",
"9  c #A32635",
"0  c #A92635",
"q  c #A22934",
"w  c #A32639",
"e  c #A02A39",
"r  c #FD023C",
"t  c #BF0F41",
"y  c #903645",
"u  c #983143",
"i  c #973E48",
"p  c #983D48",
"a  c #FF0443",
"s  c #F30B45",
"d  c #DE3E43",
"f  c #E33B43",
"g  c #E93844",
"h  c #E6364B",
"j  c #E93748",
"k  c #E43B48",
"l  c #D04A54",
"z  c #E3424B",
"x  c #E24E4C",
"c  c #E44C50",
"v  c #EA4A51",
"b  c #450087",
"n  c #4D0096",
"m  c #5500A5",
"M  c #5C0AA8",
"N  c #5D00B4",
"B  c #6500C3",
"V  c #6D00D2",
"C  c #7500E1",
"Z  c #7D00F0",
"A  c #8500FF",
"S  c #8C0FFF",
"D  c #931EFF",
"F  c #9A2DFF",
"G  c #A13CFF",
"H  c #A84BFF",
"J  c #AF5AFF",
"K  c #B669FF",
"L  c #BD78FF",
"P  c #0097D6",
"I  c #0896D4",
"U  c #0696DE",
"Y  c #0997DF",
"T  c #039BDC",
"R  c #0A99DA",
"E  c #1A96D1",
"W  c #1695D8",
"Q  c #238DC7",
"!  c #239CC8",
"~  c #38D9D8",
"^  c #2CDEEA",
"/  c #3DDFEF",
"(  c #35DBF4",
")  c #37DEFC",
"_  c #0FE6ED",
"`  c #13E2F1",
"'  c #3CE4EA",
"]  c #2BE6F4",
"[  c #2EEAF6",
"{  c #24E6F8",
"}  c #2FE7FB",
"|  c #22EBF8",
" . c #34E6F4",
".. c #38E7F3",
"X. c #32E6F8",
"o. c #67D6DA",
"O. c #46D5E0",
"+. c #45E6EF",
"@. c #869AB7",
"#. c #8C9BB5",
"$. c #ACACAC",
"%. c #AFB3AB",
"&. c #B2B2B2",
"*. c #AEB7CA",
"=. c #B0B6CE",
"-. c #D9B9C7",
";. c #DBBBC9",
":. c #C487FF",
">. c #CC96FF",
",. c #D3A5FF",
"<. c #BBC8D7",
"1. c #BDC7D8",
"2. c #BECADB",
"3. c #A8DCEB",
"4. c #C1CBDD",
"5. c #CED4DF",
"6. c #C2CDE2",
"7. c #C6D3E2",
"8. c #CDD8E4",
"9. c #C9D4E8",
"0. c #D0D6E4",
"q. c #D5DAE6",
"w. c #D3DBE9",
"e. c #D9D8E8",
"r. c #E1DEE2",
"t. c #E9D2FF",
"y. c #DFE1EE",
"u. c gray88",
"i. c #E0E3ED",
"p. c #E4FEFD",
"a. c #F6F6F6",
"s. c #FFF7F7",
"d. c #F3F9F5",
"f. c #F5F6FA",
"g. c #FEF6FC",
"h. c #FEFEFE",
/* pixels */
"A A A A A A A A A A A A A A A A A A A A A A A A A A A A A A A A A A A A A A A A A A A A A A A A A A A A A A A A A A A A A A A A ",
"A A A A A A A A A A A B m V C A Z V V V V V C C C V b n Z A A A A A A A A A A A A A A A A A A A A A A A A A A A A A A A A A A A ",
"A A A A A A A A A A A B m V C Z C Z Z V V V C C C V b b C A A A A A A A A A A A A A A A A A A A A A A A Z V V C C C V V V V Z A ",
"A A A A A A A A A A A A A A A Z C A D D F D A A A A A Z C C Z A A A A A A A A A A A A A A A A A S F D A S A Z A Z C V V V V B V ",
"A A A A A A A A A A A A A A A A C n B D F F F F D S A A Z B V A A A A A A A A A A A A A A A A G H S A A D D S D D D S A A A N N ",
"A A A C V C V V B B Z A A A A A Z N N Z A S F F D F F D F A V Z A A A A A A A A A Z A A A A A H L S C A A Z C Z S D D D S A V V ",
"A A C B V C V V B B Z A Z Z A A A A B , b V Z B N Z A Z A S V C S A A A S F F D D D F F S A A C S F A A A A C V Z A S D D A C Z ",
"A A B B A A A A A A A A C C A A A A V < b V C m b m m b b B V Z S A A A S F F D D F F F S A A V V A A A A A Z C C C C C A A Z A ",
"A A V V A A A A A A A C V Z A A A A A A A A Z C V V V m n B Z A A A A A A A A A A A A A A A A A A A A A A A A A Z C C C Z A A A ",
"A A C C A A A A A Z C V C A A A A A A A A A A A A A A Z V V C C C C V m B A A A A A . o X o o . X   o X A A A A A A A A A A A A ",
"A A C C A A A A C V C Z A A A A A A A A A A A A A A A A Z C C C C C V m B A A A A A                     A A A A A A A A A A A A ",
"A A C C A A A Z V C A A A A A A A A A A A A A A A A                     A A       O h.h.i i f.f.p y 5.5.o   A A A A A A A A A A ",
"A A C C A A C V Z A A A C B V C C Z A A A A A A A A                     A A         h.h.6 5 i.y.9 6 =.*.    A A A A A A A A A A ",
"A A Z V V C V C A A C V V B V C C A A A A A A A A A         o   o       A A * *   o h.h.5 6 r.r.e 9 -.;.o   A A A A A A A A A A ",
"A A A C V C Z A A A N m Z A A A A A A A A A             ; ; - : ; :         z f   ; : - 3 5 g.h.q w q w e.q.    q q A A A A A A ",
"A A A A A A A A A A V V A A A A A A A A A A           o = = # # # =   o     l l + # & @ 8 3 g.s.4 u w q q.y.o   7 4 A A A A A A ",
"A A A A A A A A A A A A A A A A A A A A         ; - 4.4.4.4.2.4.4.4.4.4.  . . 8 A A A A f k s r h.g.e q     u.u.w.q.    A A A A ",
"A A A A A A A A A A A A A A A A A A A A         - ; 7.2.4.4.1.4.4.1.4.4.  o   f A A A A h k a a g.h.5 5 o   u.u.q.q.    A A A A ",
"A A A A A A A A A A A A A A A A A A A A         4.2.4.4.s.h.h.h.h.h.h.h.h.h.  . A A A A     q 5     f f .   h.h.h.h.    A A A A ",
"A A A A A A A A A A A A A A A A A A A A       . 4.2.<.2.h.h.h.h.g.h.h.h.h.h.    A A A A     3 6 . $ f d     h.h.f.d.o X A A A A ",
"A A A A Z Z A A A A A A A A A A A A         : : 4.<.<.1.<.<.h.h.<.2.1.2.h.h.  o A A A A A A t   A A     .       x c e.0.    A A ",
"A A A A Z Z A A A A A A A A A A A A         : : 4.4.o       h.h.o     o h.h.    A A A A A A     A A . o .     . c v q.8.    A A ",
"A A A A A A A A A A A A A A A A A A         : : 4.<.o   #.#.h.h.  . #.#.h.h.    A A A A A A     A A A A q q A A 6 9 q.w.    A A ",
"A A A A A A A A A A A A A A A A A A         ; : 4.<.O   #.#.h.h.  X @.#.h.h.    A A A A A A     A A A A 9 q A A 0 q w.8.    A A ",
"A A A A A A A A A A A A A A A A A A         : : 4.4.9.4.h.s.h.h.h.a.h.h.h.h.    A A A A A A     A A A A t A A A A f     .   A A ",
"A A A A A A A Z Z A A A A A A A A A         - : 4.4.2.4.h.h.h.h.h.h.h.h.h.h.    A A A A A A     A A A A A A A A A A         A A ",
"A A A A A A A C C A A A A A A A             ; @ O   4.2.h.h.h.h.h.h.h.h.- :   o A A A A A A     A A A A A A A A A A A A j f A A ",
"A A A A A A Z C Z A A A A A A A             ; -     2.4.h.h.h.h.h.h.h.h.: :     A A A A A A f   A A A A A A A A A A A A z g A A ",
"A A A A A A V V A A A A A A A A                     2.4.    h.h.    h.h.    A A A ..A A A A f   A A A A A A A A A A A A   t A A ",
"A A A A A A V V A A A A A A A A                     <.4.    h.h.o   h.h.    A A A A A A A ..    A A A A f A A A A A A A     A A ",
"A A A Z V V B B Z A A A A A A A                     o o     .               A A A A A A A ..    A A A A f A A A A A A A A A A A ",
"A A Z C V V N N V C A A ..A A A                                             A A A  .A  . .A     A A A A A A A A A A A A A A A A ",
"A A V V A A V m M m ' A A A A A         M M M M M M o                   M M A ..A A o. .X.A     A A A A A A A A A A A A A A A A ",
"A A V V A A V b N B [  .A ..A A         A  .A ' A A                     A ..A ..A A X.| A ..    A Z V C A A A A A A A A A A A A ",
"A A V V A A V n B A A  .A A A A     o   A  ... .A A O                   T A A  .' A O.~  .A     A Z B B Z A A A A A A A A A A A ",
"A A V V A A b , A H G  .' ..A       A A ' T  .A                 A A A A U P  .'  .A A  . .]     A A Z J J Z A A A A A A A f A A ",
"A A F H F D m m F H t.,... .A   o . A A ..U U U o               U U U U U U U ....A ]  .+.' .   A A A :.L C Z A A A A A A A A A ",
"A Z F J F D Z Z S A >.>.A X. .A A T A U U U X O                         U U U U .. .....A A     A A A S D Z Z D S A A A A A A A ",
"A C C A A A V V C C A A  .(  .A A U U U U  .o O                         U U U U  . .U U A A     A A A A ..S C S C , n Z A A A A ",
"A V V A A A C ..B C A A X. . .X.A U U U U U                                     .. .U U A  .h.h.4.2.A A S D C C C < b C A A A A ",
"A V V A A A B m C A A A [  .U U A A U U U U                                     U U U U A  .h.h.4.2.A A A  .Z Z D D D A Z A A A ",
"A C C C V C n m A A A A  .X.U U U U U U                                           X P P 6.6.h.h.4.<.A A A A ..C S F F G f Z A A ",
"C B V V V C B V A  .A A  . .[ U U U ..U                                             P P 2.4.h.h.4.2.A  . .A A V Z F G J f f A A ",
", n C Z A A A A A  .A A ..U U U U U U U                                         Y  .U U X. .6.2.6.2.A A  .A A Z B C G F f f Z A ",
"b B A A A A A ..A  .[ A .. .U U U U U U                                         U U U U X.X.4.2.6.2.A A [ ..A A V m V A f f C A ",
"A A A A A A A A A A  .U X.X.X.U Y U U U                                         U U U U [  .    A A A .. .( X.A A n b Z A f V A ",
"A A A A A A A A A  .U U (  .U U T R Y U                                         U U U Y ]  .    A A A .. .X. .A A B b n V B B A ",
"A A A A  .A A  .A A ( ] U U U U U T                                               Y U U W U o   B N ..]  .X.A A A A V m V B B A ",
"A A A A A A A  . .A { U U U U U X.U                                               U U U T U     B ..' [  .U A A A A A A A C C A ",
"A A A A A A ..]  .A p.U U Q U U  .U                                             U U U U U Y     A A [  .U U A A A A A A A A A A ",
"A A A A A A A [  . .} } U U U U  .X.                                            U U U U U X.    A U A  .U U A A A A A A A A A A ",
"A A A A A A A A }  . . .U ) + O O O a.a.                                        O % U U U X.    U U o. .U A A ..A A A A A A A A ",
"A A A A A A A A U U X.U U ]         h.h.                                            Y U X.T     U U U  .A X.A A A A A A A A A A ",
"A A A A A A (  .U U U %.U [ 1 2     $.&.                                            &.&.X.U     3.U U U X.X.A A A A A A A A A A ",
"A A A A A A  . .U U U U U  .U U                                                         U U   o P P U U X.U A A A A A A A A A A ",
"A A A C B V V V U ` U U U X.U U o o                                                   o U T .   E ! U U T U Z V B B n N A A A A ",
"A A A C B V V V _ U U U U  . .U U U                                                     } [     U U U U U C B B B B n b V A A A ",
"A A A A A A A A U U U U ^ ^  .U U U                                                 U U / ^ o   U U U U U B B Z A A A V B Z A A ",
"D D S A A A A A             X.X.                                                    U U o           U U U m N A A A A A Z B N C ",
"D D F G G D A A o           T I                                                   . P R o           U U A B N V V C V V V < > B ",
"A A D G :.K A A U U                                                                 o       U A         A A Z V V C V V V m m C ",
"A A A A :.:.A A U U                                                                                     A A A A A A A A A A A A ",
"A A A S J H A A                                                                                           A A A G K H F F F D D ",
"G H D F F S A A A o                                                                                       A A A G K H F F F D D "
};
