/* XPM */
static char *result[] = {
/* columns rows colors chars-per-pixel */
"64 64 129 2 ",
"   c #000000",
".  c #090304",
"X  c #0B0905",
"o  c #030309",
"O  c #090909",
"+  c #0E0E1B",
"@  c #120D1D",
"#  c #0D1217",
"$  c #101010",
"%  c #11111A",
"&  c #2D0000",
"*  c #300001",
"=  c #130C21",
"-  c #171324",
";  c #191425",
":  c #1C1429",
">  c #2D005A",
",  c #350069",
"<  c #3D0078",
"1  c #534C4C",
"2  c gray33",
"3  c #A51F2E",
"4  c #8C273B",
"5  c #9F2634",
"6  c #9C2934",
"7  c #922538",
"8  c #A32635",
"9  c #A92635",
"0  c #A22934",
"q  c #A32639",
"w  c #A02A39",
"e  c #FD023C",
"r  c #BF0F41",
"t  c #903645",
"y  c #983143",
"u  c #943D46",
"i  c #973E48",
"p  c #9B3C4A",
"a  c #FF0443",
"s  c #F30B45",
"d  c #DE3E43",
"f  c #E33B43",
"g  c #E93844",
"h  c #E6364B",
"j  c #E93748",
"k  c #E43B48",
"l  c #D04A54",
"z  c #E3424B",
"x  c #E24E4C",
"c  c #E44C50",
"v  c #EA4A51",
"b  c #450087",
"n  c #4D0096",
"m  c #5500A5",
"M  c #5C0AA8",
"N  c #5D00B4",
"B  c #6500C3",
"V  c #6D00D2",
"C  c #7500E1",
"Z  c #7D00F0",
"A  c #8500FF",
"S  c #8C0FFF",
"D  c #931EFF",
"F  c #9A2DFF",
"G  c #A13CFF",
"H  c #A84BFF",
"J  c #AF5AFF",
"K  c #B669FF",
"L  c #BD78FF",
"P  c #0096D6",
"I  c #0896D4",
"U  c #0499D6",
"Y  c #0696DE",
"T  c #039CDA",
"R  c #0A99DA",
"E  c #1A96D1",
"W  c #1695D8",
"Q  c #2CDEEA",
"!  c #37DEFC",
"~  c #0CE8F8",
"^  c #3CE4EA",
"/  c #2AE6F5",
"(  c #25E8F6",
")  c #2EEAF6",
"_  c #2EE7FB",
"`  c #22EBF8",
"'  c #35E6F2",
"]  c #38E7F3",
"[  c #34E4FB",
"{  c #67D1DD",
"}  c #46D5E0",
"|  c #73D7E0",
" . c #7ADBE2",
".. c #45E6EF",
"X. c #8C99AF",
"o. c #869AB7",
"O. c #8C9BB5",
"+. c #909CB9",
"@. c #ACACAC",
"#. c #B2B2B2",
"$. c #AEB7CA",
"%. c #B0B6CE",
"&. c #DBBBC9",
"*. c #C487FF",
"=. c #CC96FF",
"-. c #D3A5FF",
";. c #BBC8D7",
":. c #BDC7D8",
">. c #BECADB",
",. c #C1CBDD",
"<. c #CED4DF",
"1. c #DFDFDF",
"2. c #C2CDE2",
"3. c #C6D3E2",
"4. c #CDD8E4",
"5. c #C9D4E8",
"6. c #D5DAE6",
"7. c #DDDFE5",
"8. c #D3DBE9",
"9. c #E1DEE2",
"0. c #E9D2FF",
"q. c #DFE1EE",
"w. c #E0E3ED",
"e. c #F6F6F6",
"r. c #FFF7F7",
"t. c #F3F9F5",
"y. c #F5F6FA",
"u. c #FEF6FC",
"i. c #FEFEFE",
/* pixels */
"A A A A A A A A A A A A A A A A A A A A A A A A A A A A A A A A A A A A A A A A A A A A A A A A A A A A A A A A A A A A A A A A ",
"A A A A A A A A A A A B m V C A Z V V V V V C C C V b n Z A A A A A A A A A A A A A A A A A A A A A A A A A A A A A A A A A A A ",
"A A A A A A A A A A A B m V C Z C Z Z V V V C C C V b b C A A A A A A A A A A A A A A A A A A A A A A A Z V V C C C V V V V Z A ",
"A A A A A A A A A A A A A A A Z C A D D F D A A A A A Z C C Z A A A A A A A A A A A A A A A A A S F D A S A Z A Z C V V V V B V ",
"A A A A A A A A A A A A A A A A C n B D F F F F D S A A Z B V A A A A A A A A A A A A A A A A G H S A A D D S D D D S A A A N N ",
"A A A C V C V V B B Z A A A A A Z N N Z A S F F D F F D F A V Z A A A A A A A A A Z A A A A A H L S C A A Z C Z S D D D S A V V ",
"A A C B V C V V B B Z A Z Z A A A A B , b V Z B N Z A Z A S V C S A A A S F F D D D F F S A A C S F A A A A C V Z A S D D A C Z ",
"A A B B A A A A A A A A C C A A A A V < b V C m b m m b b B V Z S A A A S F F D D F F F S A A V V A A A A A Z C C C C C A A Z A ",
"A A V V A A A A A A A C V Z A A A A A A A A Z C V V V m n B Z A A A A A A A A A A A A A A A A A A A A A A A A A Z C C C Z A A A ",
"A A C C A A A A A Z C V C A A A A A A A A A A A A A A Z V V C C ' C V m B A A A A A o . o O . o O   o . A A A A A A A A A A A A ",
"A A C C A A A A C V C Z A A A A A A A A A A A A A A A A ' C C C C C V m B A A A A A                     A A A A A A A A A A A A ",
"A A C C A A A Z V C A A A A A A A A A A A A A A A A                     A A       O i.i.u i y.u.p t 4.<..   A A A A A A A A A A ",
"A A C C A A C V Z A A A C B V C C Z A A A A A ] A A                     A A         i.i.6 5 w.9.0 6 %.$.    A A A A A A A A A A ",
"A A Z V V C V C A A C V V B V C C Z A A A A A A ' A     o   o   o       ' A & *   o i.i.8 5 9.9.0 8 &.&.o   A A A A A A A A A A ",
"A A A C V C Z A A A N m Z A A A A A A A A A             ; ; ; ; ; :         z f o ; ; ; 8 8 u.i.0 q 0 q 6.8.    0 0 A A A A A A ",
"A A A A A A A A A A V V A A A A A A A A A ]     o     o = @ @ @ @ = o o     l l o % % + 3 3 u.r.4 y q 0 6.7.. o 7 4 A A A A A A ",
"A A A A A A A A A A A A A A A A A A A A         : - ,.,.,.,.>.,.,.,.,.,.    . r A A A A f k s e u.u.6 w o   q.1.q.<.    A A A A ",
"A A A A A A A A A A A A A A A A A A S '         = - 3.>.,.;.:.,.,.>.,.>..     f A A A A h z a a i.i.5 0 .   1.1.6.6.    A A A A ",
"A A A A A A A A A A A A A A A A A A A '         3.>.,.>.i.i.i.i.u.i.i.i.i.i.    ' A A A     0 5     f f     i.i.i.i.    A A A A ",
"A A A A A A A A A A A A A A A A A A ' '       . >.>.>.>.i.i.i.i.i.i.i.i.i.i.    A A A A     3 6   # f d     i.i.e.t.. . A A A A ",
"A A A A Z Z A A A A A A A A A A A A         ; : ,.>.:.;.;.>.i.i.>.>.>.;.i.i.  . A A A A A A r   A A     .       x x 6.4.    A A ",
"A A A A Z Z A A A A A A A A A A A A         : : ,.:..       i.i.      o i.i.    ' A A ' A A f   A A . .     . . c v 6.4.    A A ",
"A A A A A A A A A A A A A A A A ' A         ; : 2.:.o   O.O.i.i.o . +.X.i.i.  . A A A A A A     A A A A 0 0 A A 0 q 8.4.    A A ",
"A A A A A A A A A A A A A A A A ' '         : : ,.;..   O.O.i.i.  . o.O.i.i.    A ' A A A A     A A A A 9 0 A A 9 0 q.4.    A A ",
"A A A A A A A A A A A A A ' A A ' '         ; : ,.,.5.3.i.r.i.i.i.t.i.i.i.i.    ' ' A ' A A     A A A A r A A A A f     .   A A ",
"A A A A A A A Z Z A A A A ^ ' A ' ^         ; : ,.,.>.>.i.i.i.i.i.i.i.i.i.i.    ' ' ' ^ A A     A A A A f A A A A A         A A ",
"A A A A A A A C C A A ' A ' ' A             ; + O   ,.>.i.i.i.i.i.i.i.i.; -   . ' ' ' A ' A     A A A A A A A A A A A A j f A A ",
"A A A A A A Z C Z A A A A ' ' '             ; -     ,.>.i.i.i.i.i.i.i.i.: ;   o ' A ' ' ' A f   A A A A A A A A A A A A z g A A ",
"A A A A A A V V A A A A A A ' ^                     >.,.    i.i.    i.i.    ' ' A ' ' _ A A     A A A A A A A A A A A A   r A A ",
"A A A A A A V V A A A ' A A ' '                     >.,.    i.i..   i.i.    A ' ' ' [ ' A '     A A A A f A A A A A A A     A A ",
"A A A Z V V B B Z A A ' ' A A '                       o     .       .       A ' Y ' _ ' A '     A A A A f A A A A A A A A A A A ",
"A A Z C V V N N V C A ' ' A A ^                                             ' ' Y ' ' ' ' A     A ' A A A A A A A A A A A A A A ",
"A A V V A A V m N m ' ' ' A A '         ' ' ' ' ' ' .                   M M ' Y Y ' | ' ' A     A A A ' f A A A A A A A A A A A ",
"A A V V A A V b N B ' ' ' ' A A         ' ' R ' Y Y                     A ' Y Y R ' ) ` A '     A Z ' ' A A A A A A A A A A A A ",
"A A V V A A V n B A A ' ' ' A A     .   ' R Y Y Y Y O                   Y Y Y Y Y Y } ' A A     A ' ' B Z A A A A A A A A A A A ",
"A A V V A A b , A H H ' ' ^ A       Y A Y R Y Y                 A Y Y A Y Y Y Y Y Y ^ ' ( /     ' ^ ' J J Z A A A A A A A f A A ",
"A A F H F D m m ' H 0.-.' ' A   .   Y Y ' Y Y Y .               Y Y Y Y Y Y Y Y Y Y ' ' ..^ .   ' ' ' *.L C Z A A A A A A A A A ",
"A Z F J F D Z Z S A =.=.' ' ' R Y ' Y Y Y Y O O                         Y Y Y Y Y Y ] ' Y A     ' ^ ' S F A Z D S A A A A A A A ",
"A C C A A A V V ' C A A ' ' ' Y Y Y Y Y Y Y . O                         Y Y Y Y Y Y ' Y Y A     ' ) ' A ^ S V S C , n Z A A A A ",
"A V V A A A C ' ' C A ' ' ' Y ' Y Y Y Y Y Y                                     Y Y Y Y Y A i.i.,.>.A A S D C C C < b C A A A A ",
"A V V A A ' B m ' A A ' ' ' Y Y Y Y Y Y Y Y                                     Y Y Y Y Y Y i.i.,.>.A A A ' Z Z D D D A Z A A A ",
"A C C C V C ' m A _ A ' ' _ Y Y Y Y ' Y                                           X P P 2.,.i.i.,.,.A A ' A ' C S F F G f Z A A ",
"C B V V V C ' V A ' ' ' ' ' Y Y Y Y Y Y                                             P P 2.>.i.i.,.>.A ' ' A A V Z F G J f d A A ",
", n C Z A A ' A A A _ A R ' Y Y Y Y Y Y                                         Y ' Y Y ' Y ,.>.,.>.' ' A A A Z B C G F f f Z A ",
"b B A A A A ^ A A ' ' A Y Y Y Y Y Y Y Y                                         ] Y Y Y ' Y 2.>.,.>.' ' A ' A A V m V A f f C A ",
"A A A A A A ' ' A A ' [ Y Y Y Y Y R Y Y                                         Y Y Y ' _ Y     A A ' ' A ' ' A A n b Z A f V A ",
"A A A A A A A ' Y ' [ ' Y Y Y Y Y R Y Y                                         Y Y Y [ ) '     A A ' ' A _ ' A A B b n V B B A ",
"A A A A ^ A A ' Y Y ) _ Y Y Y Y Y Y                                             Y Y Y Y W R o   B N ' ' [ ' A A A A V m V B B A ",
"A A A A A A A ' Y Y Y Y Y Y Y Y Y Y                                             Y Y Y Y T R     Y Y ' ' [ _ A ' A A A A A C C A ",
"A A A A A A ' Y Y Y Y Y Y Y Y Y Y Y                                             Y Y Y Y Y Y     Y Y ' ) ' _ A A A A A A A A A A ",
"A A A A A A A Y Y Y Y Y Y Y Y Y Y Y                                             Y Y Y Y Y Y     Y ) ' [ _ ' A Y A A A A A A A A ",
"A A A A A A A A Y Y Y Y Y [ O O O O e.e.                                        O $ Y Y ' Y     Y Y Y { ' A A Y A A A A A A A A ",
"A A A A A A A Y Y Y Y Y / /         i.i.                                            Y Y ' Y     Y Y Y _ [ A Y Y A A A A A A A A ",
"A A A A A A ' _ Y Y Y Y  . .1 2     @.#.                                          o #.#.Y Y     Y Y Y Y ' R Y Y A A A A A A A A ",
"A A A A A A ' ' [ Y Y Y Y _ [ Y                                                         Y Y   o U Y Y Y Y Y Y Y A A A A A A A A ",
"A A A C B V V U ~ Y Y Y Y ! ' Y . .                                                     Y Y .   E Y Y Y Y Y Y V B B n N A A A A ",
"A A A C B V V Y Y Y Y Y [ ' Y Y Y Y                                                     [ ) o   Y Y Y Y Y Y Y B B B n b V A A A ",
"A A A A A A A Y Y Y Y Y Q Q Y Y Y Y                                                 Y Y ] Q o   Y Y Y Y Y Y B Z A A A V B Z A A ",
"D D S A A A A Y             Y Y                                                     Y Y             Y Y Y Y N A A A A A Z B N C ",
"D D F G G D A Y             I I                                                     U R o           Y Y Y B N V V C V V V < > B ",
"A A D G *.K A Y Y Y           o                                                     o       Y Y         Y A Z V V C V V V m m C ",
"A A A A *.*.A A Y Y                                                                                     Y A A A A A A A A A A A ",
"A A A S J H A A                                                                                           A A A G K H F F F D D ",
"G H D F F S A A A .                                                                                       A A A G K H F F F D D "
};
