/* XPM */
static char *result[] = {
/* columns rows colors chars-per-pixel */
"64 64 112 2 ",
"   c #000000",
".  c #090304",
"X  c #0B0905",
"o  c #030309",
"O  c #090909",
"+  c #080A10",
"@  c #0E0E1B",
"#  c #120D1D",
"$  c #0D1217",
"%  c #101010",
"&  c #11111A",
"*  c #300001",
"=  c #130C21",
"-  c #171324",
";  c #191425",
":  c #1C1429",
">  c #2D005A",
",  c #350069",
"<  c #3D0078",
"1  c #534C4C",
"2  c gray33",
"3  c #A51F2E",
"4  c #8B283B",
"5  c #9F2634",
"6  c #9C2934",
"7  c #922538",
"8  c #B0202F",
"9  c #A32635",
"0  c #A92635",
"q  c #A22934",
"w  c #A32639",
"e  c #A02A39",
"r  c #FD023C",
"t  c #BF0F41",
"y  c #903645",
"u  c #983143",
"i  c #973E48",
"p  c #FF0443",
"a  c #F30B45",
"s  c #DE3E43",
"d  c #E33B43",
"f  c #E93844",
"g  c #E6364B",
"h  c #E43B48",
"j  c #D04A54",
"k  c #E3424B",
"l  c #E24E4C",
"z  c #E44C50",
"x  c #EA4A51",
"c  c #450087",
"v  c #4D0096",
"b  c #5500A5",
"n  c #5D00B4",
"m  c #6500C3",
"M  c #6D00D2",
"N  c #7500E1",
"B  c #7D00F0",
"V  c #8500FF",
"C  c #8C0FFF",
"Z  c #931EFF",
"A  c #9A2DFF",
"S  c #A13CFF",
"D  c #A84BFF",
"F  c #AF5AFF",
"G  c #B669FF",
"H  c #BD78FF",
"J  c #0096D6",
"K  c #0896D4",
"L  c #0499D6",
"P  c #0696DE",
"I  c #0A99DA",
"U  c #1A96D1",
"Y  c #2ADFEB",
"T  c #3DDFEF",
"R  c #37DEFC",
"E  c #0CE8F8",
"W  c #2AE7F5",
"Q  c #2FE7FB",
"!  c #36E7F0",
"~  c #7ADBE2",
"^  c #869AB7",
"/  c #8B9AB6",
"(  c #A3A9A7",
")  c #ACACAC",
"_  c #B2B2B2",
"`  c #AEB7CA",
"'  c #B0B6CE",
"]  c #DBBBC9",
"[  c #C487FF",
"{  c #BBC8D7",
"}  c #BDC7D8",
"|  c #BECADC",
" . c #C1CBDD",
".. c #CED4DF",
"X. c #C2CDE2",
"o. c #C6D3E2",
"O. c #CDD8E4",
"+. c #C9D4E8",
"@. c #D0D6E4",
"#. c #D5DAE6",
"$. c #D3DBE9",
"%. c #D9D8E8",
"&. c #E1DEE2",
"*. c #DFE1EE",
"=. c gray88",
"-. c #E0E3ED",
";. c #F6F6F6",
":. c #FFF7F7",
">. c #F3F9F5",
",. c #F5F6FA",
"<. c #FEF6FC",
"1. c #FEFEFE",
/* pixels */
"V V V V V V V V V V V V V V V V V V V V V V V V V V V ! V V V V V V V V V V V V V V V V V V V V V V V V V V V V V V V V V V V V ",
"V V V V V V V V V V V m b M N V B M M M M M N N N M c ! ! V V V V ! V V V V V V V V V V V V V V V V V V V V V V V V V V V V V V ",
"V V V V V V V V V V V m b M N B N B B M M M N N N M c ! ! V V ! V ! V V V V V V V V V V V V V V V V V V B M M N N N M M M M B V ",
"V V V V V V V V V V V V V V V B N V Z Z A Z ! V V V V ! ! N ! ! V ! V V V V V V V V V V V V V V C A Z V C V B V B N M M M M m M ",
"V V V V V V V V V V V V V V V V N v ! Z A A ! A A C ! ! ! ! ! ! V ! V V ! V V V V V V V V V V D D C V V Z Z C Z Z Z C V V V n n ",
"V V V N M N M M m m B V V V V V V n n B V C ! ! Z Y ! ! ! ! ! ! V ! ! ! ! V V V V V V V V V V D H C N V V B N B C Z Z Z C V M M ",
"V V N m M N M M m m B V B B V V V ! m , c M ! ! ! ! ! ! ! ! ! ! ! ! ! ! ! ! ! Z Z Z ! A C V V N C A V V V V N M B V C Z Z V N B ",
"V V m m V V V V V V V V N N V V V ! ! < c ! ! ! ! ! ! ! ! K ! ! ! ! ! ! ! ! ! ! Z Z A A C V V M M V V V V V B N N N N N V V B V ",
"V V M M V V V V V V V N M B V V V V ! V ! ! ! ! ! ! ! ! P P P ! ! ! ! ! ! P ! ! V V V V V V V V V V V V V V V V B N N N B V V V ",
"V V N N V V V V V B N M N V V ! V ! ! ! ! ! P ! ! ! ! P P P P ! I ! P ! P P ! ! V V o . o . o . o   o . V V V V V V V V V V V V ",
"V V N N V V V V N M N B V V V V V ! ! ! ! ! P P ! P P P P P P P P P P P P P ! ! ! !             .       V V V V V V V V V V V V ",
"V V N N V V V B M N V V V V V V V ! ! ! ! P P P P P                     P P       O 1.1.i i ,.,.i y O....   V V V V V V V V V V ",
"V V N N V V N M B V V V N m M N ! ! ! ! ! P P P P P                     P P         1.1.6 5 -.*.q 5 ' `     V V V V V V V V V V ",
"V V B M M N M N V V N M M m M ! ! ! ! ! ! P P P P P     o     o o       ! P * *   o 1.1.5 6 &.&.q 9 ] ] o   V V V V V V V V V V ",
"V V V N M N B ! V V n b B V V ! ! ! ! ! ! P             ; ; - : ; :         k d   ; : - 3 5 <.1.q w q w #.#.    5 5 V V V V V V ",
"V V V V V V V V V V M M V V V ! ! ! ! P P P           o = # # = # =   o     j j + # & @ 8 3 <.:.4 u w q #.*.o . 7 4 V V V V V V ",
"V V V V V V V V ! V V V V V ! ! ! P ! P         - -  . . . .|  . . . . .    . t ! ! ! ! d h a r 1.<.6 e     =.&.$.#.    V V V V ",
"V V V V V V V V ! V V V V V ! ! ! P ! P         = : o.|  . .}  . .}  .| .     d ! ! ! ! g d p p 1.<.5 q O   =.=.$.#.    V V V V ",
"V V V V V V V V ! V ! V V ! ! ! ! P P P          .| X. .:.1.1.1.1.1.1.1.1.1.    ! ! P !     q 5     d d     1.1.1.1.    V V V V ",
"V V V V V V V V ! V ! V V ! ! ! ! P P P       .  .| { | :.1.1.1.1.1.1.1.1.1.    ! ! P !     3 6 . $ d s     1.1.,.>.O . V V V V ",
"V V V V B B V V ! V ! ! ! ! ! ! ! P         : :  .} | | | | 1.1.| | | | 1.1.  . ! ! P ! ! !     ! V     .       l l $.@.    V V ",
"V V ! V B B V V ! V ! I ! ! ! P ! P         : : X.}         1.1.    o o 1.1.    ! P P ! ! !     ! ! o . .     . z x %.O.    V V ",
"V V V V V V V V ! V ! P P ! ! P ! P         : :  .} o       1.1.  o     1.1.    P P P ! ! !     ! ! V V q 9 ! V q 0 #.$.    V V ",
"V V V V ! V ! V ! ! ! P P ! ! P ! P         ; : X.{ O   / / 1.1.  . ^ / 1.1.  o P P P ! ! !     ! ! ! V 0 6 ! V 0 6 $.O.    V V ",
"V V V V ! V ! V ! ! ! P P P ! P P P         : :  . .+. .1.:.1.1.1.<.1.1.1.1.    P P P P ! !     ! ! ! ! t V ! ! V d         V V ",
"V V V V ! V ! ! ! ! ! P P P ! P P P         - :  . .|  .1.1.1.1.1.1.1.1.1.1.    P P P P ! !     ! ! ! ! ! ! ! ! ! V         V V ",
"V V V V ! V ! ! ! ! ! P P P P P             ; @ O    .| 1.1.1.1.1.1.1.1.- -   . P P P P ! !     ! P ! ! ! ! ! ! ! V V V f d V V ",
"V V V V ! V ! ! ! ! ! P P P P P             ; -      .| 1.1.1.1.1.1.1.1.: :   o P P P P P P     ! P ! ! ! ! ! ! ! V V V k f V V ",
"V V V V ! ! ! ! ! ! ! P P P P P                     |  .    1.1.    1.1.    ! P P P P P P P     P P P ! ! P ! ! ! V V V   t V V ",
"V V V V ! ! ! P ! ! ! ! P P P P                     {  .    1.1..   1.1.    P P P P P P P P     P P P P ! P ! ! ! V ! V     V V ",
"V V V B ! ! ! P ! ! ! P P P P P                     o o     .               P P P P P P P P     P P P P P P ! ! ! ! ! V V ! V V ",
"V V B N ! ! ! P ! ! ! P P P P P                                             P P P P P P P P     P P P P P P ! P ! P ! ! V V V V ",
"V V M M ! ! ! P P ! ! ! P P P P         P P P P P P .                   P P P P P P P P ! P     ! P P P P P ! P P P ! ! ! V V V ",
"V V M ! ! ! ! P P P P ! P P P P         P P P P P P                     P P P P P P P P P P     P P P P P P P P P ! ! ! ! V V V ",
"V V M ! ! ! ! ! P ! P P P P P P     .   P P P P P P O                 P P P P P P P P P P P     P P P P P P P P P ! ! ! ! V V V ",
"V V M ! ! P ! ! P P P P P P P       P P P P P P                 P P P P P P P P P P P P P W     P P P P P P P P P P ! ! V d ! V ",
"V V A ! ! P ! ! P P ! P P P P o . o P P P P P P .               P P P P P P P P P P P P P P .   P P P P P P P P P P ! ! ! V V V ",
"V V A ! ! P ! ! ! P ! P P P ! P P ! P P P P O O                         P P P P P P P P P P     P P P P P P P P P P ! ! V ! V V ",
"V ! N ! ! ! ! ! P P P ! P P ! P P P P P P P . O                         P P P P P P P ! P P     ! P P P P P P P P P ! ! ! ! V V ",
"V ! M ! ! ! P P P P P P P P P ! P P P P P P                                     P P P ! P P 1.1. .| P P P P P P P ! ! ! ! V V V ",
"V ! ! ! ! ! P P P P P P P P P P P P P P P P                                     P P P ! P P 1.1. . .P P P P P P P ! ! ! ! V V V ",
"V ! ! ! ! L P P P P P P P P P P P P P P                                           X J J X.| 1.1. . .P P P P P P P ! P ! ! B ! V ",
"N ! ! ! P P P ! P ! P P P P P P P P P P                                             J J X.| 1.1. .| P P P P P P P P P ! ! d ! V ",
", v ! ! P P P P P ! P P P P P P P P P P                                         P ! P P ! P  .|  .| P P P P P P P P P ! ! ! ! V ",
"c m ! ! P P P P P P P P P P P ! P P P P                                         ! P P P Q P | | | X.P P P P P P P P P ! ! ! ! V ",
"V V ! ! P P P P P P P P P P P P P P P P                                         P P P P ! P o   P P ! P P P P P P P ! ! ! ! ! V ",
"V V ! ! P P P P P P P P ! P ! P P P P P                                         P P P P P ! o   P ! P P P P P P P P ! P ! ! ! V ",
"V V V ! P P P ! P P P P P P P P P P                                             P P P P P P     ! P P P P P P P P P P P ! ! m V ",
"V ! V ! P P P P P P P P P P P P P P                                             P P P P P L o   P P P P P P P P P P P ! ! N N V ",
"V ! ! ! ! P P P P P P P P P P P P P                                             P P P P P P     P P P P P P P P P ! P ! ! V ! V ",
"V ! ! ! ! P P P P P P P P ! P P P P                                             P P P P P P     P P P P P P P P P P P ! V V V V ",
"V V ! ! ! ! ! ! P P P P P R O O O O ;.;.                                        O % P P ! P     P P P P P P P P P P P ! V ! V V ",
"V V V ! ! ! P P P P P P W P         1.1.                                            P P ! P     P P P P P P P P P P ! ! ! ! V V ",
"V V V V ! ! ! P P P ( P P ~ 1 2     ) _                                           . _ _ P P     P P P P P P P P P P ! ! ! ! V V ",
"V V V V V V ! ! P P P P P R Q P                                                         P P   o J P P P ! P P P P ! ! ! ! V V V ",
"V V V ! m M M P E P P P P P ! P . .                                                   o P P .   U P P P P P P P P ! ! ! V V V V ",
"V V V N m ! M P P P P P P P P P P P                                                     Q W o   P P P P P P P P ! ! ! c M V V V ",
"V V V V V ! ! P P P P P P P P P P P                                                 P P T Y o   P P P P P ! P ! ! ! V M m B V V ",
"Z Z C V V V ! P             P P                                                     P P             P P P P P ! ! V V V B m n N ",
"Z Z A S S A ! P             I K                                                   . J I o           P P P P ! M M N M M M < > m ",
"V V Z S [ G ! ! P P                                                                 o       P P         P ! B M M N M M b b b N ",
"V V V V [ [ V ! P P                                                                                     ! ! V V V V V V d d V V ",
"V V V C F D V V                                                                                           V V V S G D A d s A Z ",
"S D Z A A C V V V .                                                                                       V V V S G D A A A Z Z "
};
