/* XPM */
static char *result[] = {
/* columns rows colors chars-per-pixel */
"64 64 142 2 ",
"   c #000001",
".  c #080303",
"X  c #000B05",
"o  c #0B0905",
"O  c #030309",
"+  c #080508",
"@  c #090909",
"#  c #080A10",
"$  c #0E0E1B",
"%  c #120D1D",
"&  c #101010",
"*  c #11111A",
"=  c #2D0000",
"-  c #300001",
";  c #130C21",
":  c #171324",
">  c #191425",
",  c #1C1429",
"<  c #2D005A",
"1  c #350069",
"2  c #3D0078",
"3  c #1D4A56",
"4  c #164F58",
"5  c #534C4C",
"6  c gray33",
"7  c #A51F2E",
"8  c #8C283B",
"9  c #9F2634",
"0  c #9C2934",
"q  c #922538",
"w  c #B0202F",
"e  c #A32635",
"r  c #A92635",
"t  c #A22934",
"y  c #A32639",
"u  c #C0063B",
"i  c #FD023C",
"p  c #BF0F41",
"a  c #963846",
"s  c #973E48",
"d  c #AF3E5E",
"f  c #FD0344",
"g  c #F30B45",
"h  c #FF0149",
"j  c #DE3E43",
"k  c #E43C44",
"l  c #E93748",
"z  c #B14662",
"x  c #D04A54",
"c  c #E3424B",
"v  c #E24E4C",
"b  c #E74B51",
"n  c #450087",
"m  c #4D0096",
"M  c #5500A5",
"N  c #5C0AA8",
"B  c #5D00B4",
"V  c #6500C3",
"C  c #6D00D2",
"Z  c #7500E1",
"A  c #7D00F0",
"S  c #8500FF",
"D  c #8C0FFF",
"F  c #931EFF",
"G  c #9A2DFF",
"H  c #A13CFF",
"J  c #A84BFF",
"K  c #AF5AFF",
"L  c #B669FF",
"P  c #BD78FF",
"I  c #58B3B6",
"U  c #0097D6",
"Y  c #0896D4",
"T  c #0499D6",
"R  c #0696DE",
"E  c #0997DF",
"W  c #039BDB",
"Q  c #0A99DA",
"!  c #1097D7",
"~  c #1896D5",
"^  c #238DC7",
"/  c #239CC8",
"(  c #0198E0",
")  c #38D9D8",
"_  c #2CDEEA",
"`  c #35DBF4",
"'  c #36DEFC",
"]  c #0FE6ED",
"[  c #0CE8F8",
"{  c #13E2F1",
"}  c #3CE4EA",
"|  c #2BE6F4",
" . c #2EEAF6",
".. c #2EE7FB",
"X. c #25E9F9",
"o. c #34E4F3",
"O. c #38E7F3",
"+. c #34E4FB",
"@. c #38E8FF",
"#. c #67D4DC",
"$. c #46D5E0",
"%. c #73D7E0",
"&. c #7ADBE2",
"*. c #45E6EF",
"=. c #41E1FF",
"-. c #869AB7",
";. c #8C9BB5",
":. c #909CB9",
">. c #A8ABAA",
",. c #AFB3AB",
"<. c #B2B2B2",
"1. c #AEB7CA",
"2. c #B0B6CE",
"3. c #DABAC8",
"4. c #C487FF",
"5. c #CC96FF",
"6. c #D3A5FF",
"7. c #BBC8D7",
"8. c #BDC7D8",
"9. c #BFCADC",
"0. c #A8DCEB",
"q. c #C1CBDD",
"w. c #CED4DF",
"e. c #DFDFDF",
"r. c #C2CDE2",
"t. c #C9D5E5",
"y. c #D0D6E4",
"u. c #D5DAE6",
"i. c #DDDFE5",
"p. c #D3DBE9",
"a. c #E1DEE2",
"s. c #E9D2FF",
"d. c #DFE1EE",
"f. c gray88",
"g. c #E0E3ED",
"h. c #E4FEFD",
"j. c #F6F6F6",
"k. c #FFF7F7",
"l. c #F3F9F5",
"z. c #F5F6FA",
"x. c #FEF6FC",
"c. c #FEFEFE",
/* pixels */
"S S S S S S S S S S S S S S S S S S S S S S S S S S S S S S S S S S S S S S S S S S S S S S S S S S S S S S S S S S S S S S S S ",
"S S S S S S S S S S S V M C Z S A C C C C C Z Z Z C n m A S S S S S S S S S S S S S S S S S S S S S S S S S S S S S S S S S S S ",
"S S S S S S S S S S S V M C Z A Z A A C C C Z Z Z C n n Z S S S S S S S S S S S S S S S S S S S S S S S A C C Z Z Z C C C C A S ",
"S S S S S S S S S S S S S S S A Z S F F G F S S S S S A Z Z A S S S S S S S S S S S S S S S S S D G F S D S A S A Z C C C C V C ",
"S S S S S S S S S S S S S S S S Z m V F G G G G F D S S A V C S S S S S S S S S S S S S S S S H J D S S F F D F F F D S S S B B ",
"S S S Z C Z C C V V A S S S S S A B B A S D G G F G G F G S C A S S S S S S S S S S S S S S S J P D Z S S A Z A D F F F D S C C ",
"S S Z V C Z C C V V A S A A S S S S V 1 n C A V B A S A S D C Z D S S S D G G F F F G G D S S Z D G S S S S Z C A S D F F S Z A ",
"S S V V S S S S S S S S Z Z S S S S C 2 n C Z M n M M n n V C A D S S S D G G F F F G G D S S C C S S S S S A Z Z Z Z Z S S A S ",
"S S C C S S S S S S S Z C A S S S S S S S S A Z C C C M m V A S S S S S S S S S S S S S S S S S S S S S S S S S A Z Z Z A S S S ",
"S S Z Z S S S S S A Z C Z S S S S S S S S S S S S S S A C C Z Z Z Z C M V S S S S S O . O + . X . . X + S S S S S S S S S S S S ",
"S S Z Z S S S S Z C Z A S S S S S S S S S S S S S S S S A Z Z Z Z Z C M V S S S S S                     S S S S S S S S S S S S ",
"S S Z Z S S S A C Z S S S S S S S S S S S S S S S S                     S S       @ c.c.s s z.x.s a t.w..   S S S S S S S S S S ",
"S S Z Z S S Z C A S S S Z V C Z Z A S S S S S S S S                     S S         c.c.q 9 g.i.y 0 2.1.    S S S S S S S S S S ",
"S S A C C Z C Z S S Z C C V C Z Z S S S S S S S S S     O   O   O       S S = -   O c.c.e 9 a.a.t 9 3.3.O   S S S S S S S S S S ",
"S S S Z C Z A S S S B M A S S S S S S S S S             : > > > > ,         c k O > > : 7 9 c.c.e e y y u.u.    t y S S S S S S ",
"S S S S S S S S S S C C S S S S S S S S S S           O ; % ; ; % ; O O     x x + * * $ w 7 x.k.8 a y y u.d.O . q 8 S S S S S S ",
"S S S S S S S S S S S S S S S S S S S S         : : q.q.8.q.9.q.q.q.q.q.    . p S S S S k k g i c.c.0 y     a.e.p.u.    S S S S ",
"S S S S S S S S S S S S S S S S S S S S         : > w.7.q.8.8.q.q.8.q.q.        S S S S l c f f x.c.9 9 +   a.f.u.u.    S S S S ",
"S S S S S S S S S S S S S S S S S S S S         r.9.q.9.c.c.c.c.c.c.c.c.c.c.  O S S S S     t 9     k k     c.c.c.c.    S S S S ",
"S S S S S S S S S S S S S S S S S S S S       + q.9.7.9.c.c.c.c.c.c.c.c.c.c.    S S S S     7 0   & k j X   c.c.z.l.+ . S S S S ",
"S S S S A A S S S S S S S S S S S S         > , q.8..       c.c.        c.c.  . S S S S S S p   S S     .       v v p.y.    S S ",
"S S S S A A S S S S S S S S S S S S         , , r.8.O       c.c.      O c.c.    S S S S S S     S S . .     . . b b u.y.    S S ",
"S S S S S S S S S S S S S S S S S S         > , q.8.O   ;.;.c.c.  + :.;.c.c.    S S S S S S     S S S S t t S S t e p.t.    S S ",
"S S S S S S S S S S S S S S S S S S         > , q.7.+   ;.;.c.c.  . -.;.c.c.    S S S S S S     S S S S r t S S r t d.y.    S S ",
"S S S S S S S S S S S S S S S S S S         > , q.q.t.r.c.k.c.c.c.x.c.c.c.c.    S S S S S S     S S S S p S S S S S     .   S S ",
"S S S S S S S A A S S S S S S S S S         > , q.q.9.q.c.c.c.c.c.c.c.c.c.c.    S S S S S S     S S S S S S S S S S         S S ",
"S S S S S S S Z Z S S S S S S S             > $ . X q.9.c.c.c.c.c.c.c.c.> :   . S S S S S S     S S S S S S S S S S S S l j S S ",
"S S S S S S A Z A S S S S S S S             > :     q.9.c.c.c.c.c.c.c.c., >   O S S S S S S     S S S S S S S S S S S S c l S S ",
"S S S S S S C C S S S S S S S S                     9.r.    c.c.    c.c.    S S S S S S S S     S S S S S S S S S S S S   p S S ",
"S S S S S S C C S S S S S S S S                     8.q.    c.c..   c.c.    S S S S S S S S     S S S S S S S S S S S S     S S ",
"S S S A C C V V A S S S S S S S                       O                     S S S S S S S S     S S S S S S S S S S S S S S S S ",
"S S A Z C C B B C Z S S S S S S                                             S S S S S o.o.S     S S S S S S S S S S S S S S S S ",
"S S C C S S C M B M V S S S S S         N N N N N N .                   N N S S S S %.o...S     S S S S S S S S S S S S z d S S ",
"S S C C S S C n B V V S S S S S         S S S S S S                     S S S S S S o.X.S S     S A C Z S S S S S S S S h f S S ",
"S S C C S S C m V S S S S S S S     X   S S S S S S o                   S S S S S S $.) S S     S A V V A S S S S S S S w p S S ",
"S S C C S S n 1 S J H D S S S       S S S S S O.                S S S S S S O.S S S S S X.|     S S A K K A S S S S S S u p S S ",
"S S G J G F M M G J s.6.S S S O . O S S S S S O..               S S S S S S S S S S S S *.} .   S S S 4.P Z A S S S S S S p S S ",
"S A G K G F A A D S 5.5.S o.o.S S S S S S S + +                         S R S S S S O.O.S S     S S S D F A A F D S S S S S S S ",
"S Z Z S S S C C Z Z S S S o.o.S S S S S S S + o                         S S O.S S S @.X.S S     S S S S F D Z D Z 1 m S S S S S ",
"S C C S S S Z V V Z S S S S O.o.S S S S O.S                                     S S   O.S S c.c.q.9.S S D F Z Z Z 2 n Z S S S S ",
"S C C S S S V M Z S S S S S E E S S S S W O.                                    S S X . S S c.c.r.9.S S S D A A F F F S A S S S ",
"S Z Z Z C Z m M S S S S S S ( (     S S                                           o U U r.r.c.c.q.9.S S S S A Z D G G H D A S S ",
"Z V C C C Z V C S S S S S S W !     S S                                             U U 9.9.c.c.q.9.S S S S S C A G H K D Z S S ",
"1 m Z A S S S S S S S S S S     S S S S                                         S S S o.o.S r.9.r.9.S S S S S A V Z H G A Z A S ",
"n V S S S S S S S S S S S S     S S S S                                         S S R R o.S q.9.9.9.S S S S S S C M C S S Z Z S ",
"S S S S S S S S S S O.  o.o.S S W Q S E                                         S S R R  .o.    S S S S S ` o.S S m n A S C C S ",
"S S S S S S S S S S O.  o.o.S S W Q S S                                         O.S R Q  .o.O   S S S S S o.o.S S V n m C V V S ",
"S S S S S S S S S S ` | O   S S S S                                                 O O.! Q     V B V Z o.O.S S S S C M C V V S ",
"S S S S S S S S S S X.R R   S S S S                                                   O.W Q     V B V Z o...S S S S S S S Z Z S ",
"S S S S S S S S S S h.W R ^ S S O.S                                             S W     S S     S S S S X O.S S S S S S S S S S ",
"S S S S S S S S S S S S E R S S S O.                                            S S     S S     S S S S     S S S S S S S S S S ",
"S S S S S S S S @ @ S S ' ' # @ @ @ j.j.                                        @ & S S S S     S S #.#.S S S S S S S S S S S S ",
"S S S S S S S S     S S | |         c.c.                                            S S O.S     S R R ..S S S S S S S S S S S S ",
"S S S S S S o.o.4 3 >.,.&.&.5 6     >.<.                                          . <.<.S S     0.R W I S S S S S S S S S S S S ",
"S S S S S S o.o.+.| O   S o.o.S                                                         O.S   O T U O.  S S S S S S S S S S S S ",
"S S S Z V C C C [ {     S o.o.S . .                                                     S S .   ~ / . . S S A C V V m B S S S S ",
"S S S Z V C C C ] R R Z O.o.    S S                                                     +.| O   S S S S S Z V V V V m n C S S S ",
"S S S S S S S S =.R R S _ _ R R S S                                                 E E O._ O   S S S S A V V A S S S C V A S S ",
"F F D S S S S S O           R R                                                     ( (             S S A M B S S S S S A V B Z ",
"F F G H H G S S             Q Y                                                     Y Q O           S S S V B C C Z C C C 2 < V ",
"S S F H 4.L S S S S           O                                                     O       S S         S S A C C Z C C C M M Z ",
"S S S S 4.4.S S S S                                                                                     S S S S S S S S S S S S ",
"S S S D K J S S                                                                                           S S S H L J G G G F F ",
"H J F G G D S S S .                                                                                       S S S H L J G G G F F "
};
