/* XPM */
static char *result[] = {
/* columns rows colors chars-per-pixel */
"64 64 112 2 ",
"   c #000000",
".  c #090203",
"X  c #0B0905",
"o  c #030309",
"O  c #090909",
"+  c #080A10",
"@  c #0E0E1B",
"#  c #120D1D",
"$  c #0D1217",
"%  c #101010",
"&  c #11111A",
"*  c #300001",
"=  c #130C21",
"-  c #171324",
";  c #191425",
":  c #1C1429",
">  c #2D005A",
",  c #3D0078",
"<  c #534C4C",
"1  c gray33",
"2  c #A51F2E",
"3  c #8C273B",
"4  c #9F2634",
"5  c #9C2934",
"6  c #922538",
"7  c #B0202F",
"8  c #A32635",
"9  c #A92635",
"0  c #A22934",
"q  c #A32639",
"w  c #A02A39",
"e  c red",
"r  c #FD023C",
"t  c #BF0F41",
"y  c #903645",
"u  c #983143",
"i  c #973E48",
"p  c #9B3C4A",
"a  c #FF0443",
"s  c #F30B45",
"d  c #DE3E43",
"f  c #E33B43",
"g  c #E93844",
"h  c #E6364B",
"j  c #E43B48",
"k  c #D04A54",
"l  c #E3424B",
"z  c #E24E4C",
"x  c #E44C50",
"c  c #EA4A51",
"v  c #450087",
"b  c #4D0096",
"n  c #5500A5",
"m  c #5D00B4",
"M  c #6500C3",
"N  c #6D00D2",
"B  c #7500E1",
"V  c #7D00F0",
"C  c #8500FF",
"Z  c #8C0FFF",
"A  c #931EFF",
"S  c #9A2DFF",
"D  c #A13CFF",
"F  c #A84BFF",
"G  c #AF5AFF",
"H  c #B669FF",
"J  c #BD78FF",
"K  c #0197D6",
"L  c #0896D4",
"P  c #0696DE",
"I  c #0A99DA",
"U  c #1A96D1",
"Y  c #2ADFEB",
"T  c #3DDFEF",
"R  c #37DEFC",
"E  c #0CE8F8",
"W  c #2AE7F5",
"Q  c #2FE7FB",
"!  c #36E7F0",
"~  c #7ADBE2",
"^  c #6BFFF5",
"/  c #A3A9A7",
"(  c #B2B2B2",
")  c #AEB7CA",
"_  c #B0B6CE",
"`  c #D9B9C7",
"'  c #DBBBC9",
"]  c #C487FF",
"[  c #BBC8D7",
"{  c #BDC7D8",
"}  c #BFCADC",
"|  c #C2CBDD",
" . c #CED4DF",
".. c #DFDFDF",
"X. c #C2CEE3",
"o. c #C6D3E2",
"O. c #CDD8E4",
"+. c #C9D4E8",
"@. c #D0D6E4",
"#. c #D5DAE6",
"$. c #DDDFE5",
"%. c #D3DBE9",
"&. c #D9D8E8",
"*. c #E1DEE2",
"=. c #DFE1EE",
"-. c gray88",
";. c #E0E3ED",
":. c #FFF7F7",
">. c #F3F9F5",
",. c #F5F6FA",
"<. c #FEF6FC",
"1. c #FEFEFE",
/* pixels */
"C C C C C C C C C C C C C C C C C C C C C C C C C ! C ! C C C C C C C C C C C C C C C C C C C C C C C C C C C C C C C C C C C C ",
"C C C C C C C C C C C M n N B C V N N N N N B B B ! v ! ! C C C C ! C C C C C C C C C C C C C C C C C C C C C C C C C C C C C C ",
"C C C ! C C C C C C C ! n N B ^ ^ V V N e N B B B ! ! ! ! C C ! C ! C C e C C C C C C ! C C C C C C C C V N ! B B B N N N N V C ",
"C C C ! ! C C C C C C ! C C C ^ ^ C A e e A ! C C ! ! ! ! B ! ! C ! C C e e C C C C C ! C C C C Z S A C Z C ! C V B N N N N M N ",
"C C C C ! ! C C C C C ! C C C C ^ b ! e e S ! S A ! ! ! ! ! ! ! C ! C C e e C C C C C ! C C C D F Z C C A A ! A A A Z C C C m m ",
"C C C B ! ! N N M M V ! C C C C ^ m m e e Z ! ! A ! ! ! ! ! ! ! C ! ! ! e e e C C C C ! ! C C F J Z B C C V ! V Z A A A Z C N N ",
"C C B M N ! ! N M M V ! ! V C C ^ ! M e e N ! ! ! ! ! ! ! ! ! ! ! ! ! ! e e e A A A ! S ! C C B Z S C C C C ! N V C Z A ! C B V ",
"C C M M C ! C ! C C C ! ! B C C ^ ^ ! e e ! ! ! ! ! ! ! ! P ! ! ! ! ! ! e e e ! S ! ! S ! C C N N C C C C C ! B B B B B ! C V C ",
"C C N N C C ! C ! C C ! ! V C C ^ ^ ! e e e ! ! ! ! ! ! P P P ! ! ! ! ! e e e ! ! ! C C ! C C C C C C C C C ! C V B B B ! ! C C ",
"C C B B C C ! C ! V B N ! C C ! ^ ^ ! e e e P ! ! ! ! P P P P ! P ! P e e e e ! C C   O ! o O . O   o O C C ! C C C C C ! ! C C ",
"C C B B C C ! C B N B V ! C C C ^ ^ ! e e e e P ! P P P P P P P P P P e e e e ! ! !                     C C ! C C C C C ! ! C C ",
"C C B B C C ! V N B C C ! C C C ^ ^ ! e e e e e P P                 e e e e e     O 1.1.i i ,.,.p y  . .O   ! ! C C C C ! ! ! C ",
"C C B B C C ! N V C C C ! ! N B ^ ! ^ ! e e e e e e                 e   e e e       1.,.5 5 ;.*.8 5 _ )     ! ! C C C C ! ! ! C ",
"C C V N N B ! B C C B N ! ! N ^ ^ ! ^ ! e e e e e e e     . o   o       e e e *   o 1.1.q 4 *.*.0 4 ` ' o   C ! C C C C ! C ! C ",
"C C C B N B ! ! C C m n ! ! C ^ ^ ! ^ ! e e e e         - ; ; ; ; ;       e e j . ; ; : 8 4 1.1.0 q 0 q &.#.    5 0 C C ! C ! C ",
"C C C C C C ! C C C N N ^ ! ! ^ ^ ! ! P P e e .       o = = = = # = o o     k k o & & @ 7 2 <.:.3 u q 0 #.=.  O 6 3 C C ! C ! ! ",
"C C ! C C C ! C ! C C C ^ C ! ^ ^ P ! P         ; - | | | | | } | | | X.    . t ! ! ! ! f j s r 1.<.w 0     $...%.#.    ! C ! ! ",
"C C ! C C C ! C ! C C C ^ C ! ^ ^ P ! P         = ; o.e | e { e { | e {   e   f ! ! ! ! h j a a 1.1.4 4 O   ..-.#.#.    ! C C ! ",
"C C ! C C C ! C ! C ! C ^ ! ! ^ ^ P P P         e } | e 1.e e e e 1.e 1.e e   . ! ! ^ !     0 4     g f .   1.1.1.1.    ! C C ! ",
"C C ! C C C ! C ! C ! C ^ ! ^ ^ ^ P P P     . . e e { e e e e e e e e 1.e e     ! ! ^ !     2 5   $ f d     1.1.,.>.o X C C C ! ",
"C C ! C V V ! C ! C ! ! ^ ! ^ ! ^ P         ; : X.e e e e e e e e e e e e e     ! ! ^ ! ! !     ! C     .       z z #.@.    C ! ",
"C C ! C V V ! C ! C ! P ^ ! ^ P ^ P         ; : | e e e e e e 1.e e e e e e   o ! P ^ ! ! !     ! !   O       O x c #.%.    C ! ",
"C C ! ! C C ! C ! C ! ^ ^ ! ^ P ^ P         ; : | { e e e e e 1.e e e e e e     P P ^ ! ! !     ^ ^ C C 9 0 ! C 4 8 #.%.    C ! ",
"C ! C ! ! C ! C ! ! ! ^ ^ ! ^ P ! P         : : X.[ e e e e e 1.e e e e e 1.    P P ^ ! ! !     ! ^ ! C 9 0 ! C 9 0 %.O.    C ! ",
"C ! C ! ! C ! C ! ! ! ^ ^ P ^ P P P         ; : | | +.o.1.:.1.1.,.1.1.1.1.1.    P P ^ P ! !     ! ^ ! ! t C ! ! C f         C ! ",
"C ! C ! ! C ! ! ! ! ! ^ P ^ ^ P P P         ; : | | } } 1.1.1.1.1.1.1.1.1.1.  O P P ^ P ! !     ! ^ ! ! ! ! ! ^ ! C         C ! ",
"C ! C ! ! C ! ! ! ! ! ^ P ^ ^ P             ; @ O   | } 1.1.1.1.1.1.1.1.; ;     P P ^ P ! !     ! ^ ! ! ! ! ! ^ ! C C ! g f C ! ",
"C ! C C ! C ! ! ! ! ! ^ P ^ ^ P             ; -     | } 1.1.1.1.1.1.1.1.: ;     P P ^ P P P     ! ^ ^ ! ! ! ! ^ ! C ! ! l g C ! ",
"C ! C ^ ! ! ! ! ! ! ! ^ P ^ ^ P                     } X.    1.1.    1.1.    ! P P P ^ P P P     P ^ ^ ! ! P ! ^ ! C ! C   t C ! ",
"C ! C ^ ! ! ! P ! ! ! ^ P ^ ^ P                     { |     1.1.O   1.1.    P P ^ ^ ^ P P P     P ^ ^ P ! P ! ^ ^ C ! C     C ! ",
"C ! C ^ ^ ! ! P ! ! ! ! P ^ ^ P                       o               o     P P ^ ^ P P P P     P ^ ^ P P P ! ^ ^ ! ! C C ! C ! ",
"C ! V ^ ^ ! ! P ! ! ! P P P ^ P                                             P P ^ P P P P P     P ^ P ^ P P ! ^ ^ P ! ! C C C ! ",
"C ! N ^ ! ^ ! P P ! P P P P P P         P P P P P P O                   P P P P ^ P P P ! P     ! ^ P ^ P P ^ P ^ P ! ! ! C ! C ",
"C ! N ^ ! ^ ! P P P P P P P P P         P ^ P P P P                     P P ^ P ^ P P P P P     P ^ P P ^ P ^ P ^ ! ! ! ! C ! C ",
"C ! N ^ ! ! ^ ! P ! P P P P P P     O   P ^ P P P P O                 P P P ^ P ^ P P P P P     P ^ P P ^ P ^ P ^ ! ! ! ! C ! C ",
"C ! N ! ^ P ^ ! P P P P P P P       P P P ^ P P                 P P P P P P ^ P ^ ^ P P P W     P ^ P P ^ P ^ P ^ P ! ! C f ! C ",
"C ! S ! ^ P ! ^ P P ! P P P P . O   P P P ^ P P O               P P P P P P ^ P P ^ P P P P .   P ^ P P P P ^ P ^ P ! ! ! C ! C ",
"C ! S ! ^ P ! ^ ! P ! P P P P P P ! P P P ^ O O                         P P ^ P P P P P P P     P P P P P P ^ P ^ ^ ! ! C ! ! C ",
"C ! B ! ^ ! ! ^ P P P ^ P P P P P P P P P P O O                         P P P P P P P ! P P     ! P P P P P ^ P ^ ^ ! ! ! ! ! C ",
"! ! N ! ^ ! P ^ P P P ^ P P P P P P P P P P                                     P P P ! P P 1.1.| } P P P ^ P P ^ ^ ! ! ! C ! C ",
"! ! ! ! ! ^ P ^ P P P ^ P P P P P P P P P P                                     P P P ! P P 1.1.| } P P P ^ P P ^ ^ ! ! ! C ! C ",
"! ! ! ! ! ^ P P ^ P P ^ P P P                                                     X     X.} 1.1.| | P P P ^ P P ^ ^ P ! ! V ! C ",
"! ! ! ! P ^ P ! ^ ! P ^ P P P P                                                         X.} 1.1.| } P P P P P P ^ ^ P ! ! ! ! C ",
"! ! ! ! P ^ P P P ^ P ^ P P P P                                                 P ! P P ! P | } | } P P P P P P ^ ^ ^ ! ! ! ! C ",
"! ! ! ! P P ^ P P P ^ ^ P P P P                                                 ! P P P ! P X.} X.} P P P P P P ^ ^ ^ ! ! ! ! C ",
"! C ! ! P P ^ P P P ^ ^ P P P P P   P P                                         P P P ^ Q P     P P ! P P P P P ^ ^ ^ ! ! ! ! C ",
"! C ! ! P P ^ P P P ^ ^ ! P P P P ^ P P                                         P P P ^ P !     P ! P P P P P P ^ ^ ^ P ! ! ! C ",
"! ! ! ! P P ^ ! P P P ^ P P P P P ^                                             P P P ^ P I o   ! P P P P P P P ^ ^ ^ P ! ! ! C ",
"! ! ! ! P P P ^ P P P P P P P P P P                                             P P P ^ P K     P P P P P P P P ^ ^ ^ ! ! ! ! C ",
"C ! ! ! ! P P ^ P P P P P P P P P P                                             P P P ^ P P .   P P P P P P P P ^ ^ ^ ! ! ! ! C ",
"C ! ! ! ! P P P ^ P P P P ! P P P P                                             P P P P P P     P P P P P P P P ^ P ^ ! ! ! C C ",
"C C ! ! ! ! ! ! ^ P P P P R + O O                                               O % P P ! P     P P P P P P P P ^ ^ P ! C ! C C ",
"! C ! ! ! ! P P P ^ P P W P                                                         P P ! P     P P P P P P P P ^ ^ ! ! ! ! C C ",
"! C ! ! ! ! ! P P ^ / P P ~ < 1                                                   o ( ( P P     P P P P P P P P ^ ^ ! ! ! ! C C ",
"C ! ! ! ! C ! ! P ^ P P P ! ! P                               e e e                     P P   + K P P P ! P P P ^ ! ! ! ! C C C ",
"C C ! ! M ! ! P E ^ P P P P R P O                           e e e e e                   P P     U P P P P P P P ^ ! ! ! C C C C ",
"C C C ! M ! ! ! P P ^ P P P P P P P                           e e e                     Q W     P P P P P P P P ! ! ! v N C C C ",
"C C C ! ! ! ! ! P P P P P P P P P P                             e e                 P P T Y o   P P P P P ! P ! ! ! C N M V C C ",
"A A Z C ! ! ! ! o           P P                                   e                 P P o           P P P P P ! ! C C C V M m B ",
"A A S D D A ! P             I L                                                   . K I o           P P P P ! N N B N N N , > M ",
"C C A D ] H ! ! P P           .                                                     o       P P         P ! V N N B N N n n n B ",
"C C C C ] ] C ! P P                                                                                     ! ! C C C C C C f f C C ",
"C C C Z G F C C                                                                                           C C C D H F S f f A A ",
"D F A S S Z C C C O                                                                                       C C C D H F S S S A A "
};
