/* XPM */
static char *result[] = {
/* columns rows colors chars-per-pixel */
"64 64 24 1 ",
"  c black",
". c #2D005A",
"X c #350069",
"o c #3D0078",
"O c red",
"+ c #450087",
"@ c #4D0096",
"# c #5500A5",
"$ c #5D00B4",
"% c #6500C3",
"& c #6D00D2",
"* c #7500E1",
"= c #7D00F0",
"- c #8500FF",
"; c #8C0FFF",
": c #931EFF",
"> c #9A2DFF",
", c #A13CFF",
"< c #A84BFF",
"1 c #AF5AFF",
"2 c #B669FF",
"3 c #BD78FF",
"4 c #00F9FF",
"5 c #C487FF",
/* pixels */
"----------------------------------------------------------------",
"-----------------------------------=@+&***&&&&&=-*&#%-----------",
"-=&&&&***&&=-----------------------*++&***&&&==*=*&#%-----------",
"&%&&&&*=-=-;-:>------------------=**=-----:>::-*=---------------",
"$$---;:::;::--;------------------&%=--;:>>>>:%@*----------------",
"&&-;:::;=*=--*;-----------------=&->:>>:>>;-=$$=-----=%%&&*&*---",
"=*-::;-=&*---------;>>:::>>;---;*&;-=-=$%=&+X%----==-=%%&&*&%*--",
"-=--*****=---------;>>:::>>;---;=&%++##+#*&+o&----**--------%%--",
"---=***=-------------------------=%@#&&&*=--------=&*-------&&--",
"---------------------------%       &=--------------*&*=-----**--",
"---------------------------- 44444  ----------------=*&*----**--",
"--------------------------- 4444444  -----------------*&=---**--",
"--------------------------- 44444444 ---------=**&%*---=&*--**--",
"--------------------------  44444444  --------=**&%&&*--*&*&&=--",
"-------------------------- 444444444-  ------------=#$---=*&*---",
"-------------------------  444444444444 ------------&&----------",
"------------------------- 44444444444444 -----------------------",
"------------------------ 4444444444444444 ----------------------",
"-----------------------  44444444444444444 ---------------------",
"----------------------  4444444444444444444 --------------------",
"--------------------- 444444444444444444444 --------------==----",
"--------------------- 44444444444444444O4444 -------------==----",
"-------------------- 4444OO44444444444OO4444  ------------------",
"-------------------- 4444OO44444444444O444444 ------------------",
"-------------------- 44444OO444444444OO444444  -----------------",
"------------------- 4444444O444444444O44444444 --------==-------",
"------------------  4444444O4444444444444444444 -------**-------",
"------------------ 4444444444444444444444444444 -------=*=------",
"----------------- 444444444444444444444444444444 -------&&------",
"----------------- 444444444444444444444444444444  ------&&------",
"----------------- 4444444444444444444444444444444 -----=%%&&=---",
"---------------- 444444444              4444444444 ---*&$$&&*=--",
"---------------- 444444                   44444444 --%#$#&--&&--",
"------------*&=- 444              O         444444 --%%$+&--&&--",
"-----------=%%=- 4            OOO O          44444 ----%@&--&&--",
"----------=11=-- 4444           O OO         44444  ;,<-X+--&&--",
"---------=*35-      444       44444444     444 44     <>##:><>--",
"-------;:==:;-        444444444      444444            ;==:>1>=-",
"----=@X*;*;:-                                           &&---**-",
"----*+o***:-                                             *---&&-",
"---=-:::==;                                               ---&&-",
"--=;,>>;*=                                                *&***-",
"--*;1,>=&-                                                *&&&%*",
"-=*=>,*%=-                                                --=*@X",
"-**--&#&-----                                             ----%+",
"-&&-=+@--------                                          -------",
"-%%&@+%----------                                       --------",
"-%%&#&-------------                                    ---------",
"-**--------------------                             ------------",
"-------------------------                      -----------------",
"----------------------------------------------------------------",
"----------------------------------------------------------------",
"----------------------------------------------------------------",
"----------------------------------------------------------------",
"----------------------------------------------------------------",
"----$@%%&-----------------------------------------------&&&%*---",
"---&+@%%%-----------------------------------------------&&&%*---",
"--=%&---=%%-----------------------------------------------------",
"*$%=-----$#--------------------------------------------------;::",
"%.o&&&*&&$%-----------------------------------------------:,,>::",
"*##&&&*&&=------------------------------------------------25,:--",
"----------------------------------------------------------55----",
"::>>><2,--------------------------------------------------<1;---",
"::>>><2,--------------------------------------------------;>>:<,"
};
