/* XPM */
static char *result[] = {
/* columns rows colors chars-per-pixel */
"64 64 24 1 ",
"  c black",
". c #2D005A",
"X c #350069",
"o c #3D0078",
"O c red",
"+ c #450087",
"@ c #4D0096",
"# c #5500A5",
"$ c #5D00B4",
"% c #6500C3",
"& c #6D00D2",
"* c #7500E1",
"= c #7D00F0",
"- c #8500FF",
"; c #8C0FFF",
": c #931EFF",
"> c #9A2DFF",
", c #A13CFF",
"< c #A84BFF",
"1 c #AF5AFF",
"2 c #B669FF",
"3 c #BD78FF",
"4 c #00F9FF",
"5 c #C487FF",
/* pixels */
"----------------------------------------------------------------",
"----------------------------  -----=@+&***&&&&&=-*&#%-----------",
"-=&&&&***&&=---------------    ----*++&***&&&==*=*&#%-----------",
"&%&&&&*=-=-;-:>------------ 444  =**=-----:>::-*=---------------",
"$$---;:::;::--;----------- 44444  %=--;:>>>>:%@*----------------",
"&&-;:::;=*=--*;---------  44444444  :>>:>>;-=$$=-----=%%&&*&*---",
"=*-::;-=&*---------;>>:: 44444444444 -=$%=&+X%----==-=%%&&*&%*--",
"-=--*****=---------;>>:  444444444444  +#*&+o&----**--------%%--",
"---=***=--------------- 44444444444444 &*=--------=&*-------&&--",
"----------------------- 444444444444444 -----------*&*=-----**--",
"----------------------  4444444444444444 -----------=*&*----**--",
"---------------------- 444444444444444444 ------------*&=---**--",
"---------------------  444444444444444444 ----=**&%*---=&*--**--",
"--------------------- 44444444444444444444 ---=**&%&&*--*&*&&=--",
"--------------------- 44444444444444444444  -------=#$---=*&*---",
"-------------------- 4444444444444444444444 --------&&----------",
"-------------------- 4444444444444444444444 --------------------",
"------------------- 444444444444444444444444 -------------------",
"------------------- 444444444444444444444444 -------------------",
"------------------- O44444444444444444444OO44 ------------------",
"------------------ 4OO444444444444444444OO4444 -----------==----",
"------------------ 44OO4444444444444444OOO4444 -----------==----",
"------------------ 44OOO444444444444444OO444444 ----------------",
"----------------- 4444OO44444444444444OO4444444 ----------------",
"----------------- 4444OOO444444444444OOO44444444 ---------------",
"---------------- 444444OOO44444444444OO444444444 ------==-------",
"---------------- 4444444OO44444444444OO444444444 ------**-------",
"---------------- 4444444OO44444444444OO4444444444 -----=*=------",
"---------------- 44444444O44444444444O44444444444 ------&&------",
"---------------- 44444444444444444444O44444444444 ------&&------",
"--------------- 444444444444444444444444444444444 -----=%%&&=---",
"--------------- 4444444444              4444444444 ---*&$$&&*=--",
"--------------- 4444444           O       44444444 --%#$#&--&&--",
"------------*&=- 444          OO  O         444444 --%%$+&--&&--",
"-----------=%%=- 4             O   O         44444 ----%@&--&&--",
"----------=11=-- 444           O O O          4444  ;,<-X+--&&--",
"---------=*35-     44          O OOOO          44     <>##:><>--",
"-------;:==:;-       44        OO OOO         44       ;==:>1>=-",
"----=@X*;*;:-          444     OO  OOO       44         &&---**-",
"----*+o***:-             444   OO   OO     44            *---&&-",
"---=-:::==;                 44  O         4               ---&&-",
"--=;,>>;*=                   44444   44444                *&***-",
"--*;1,>=&-                       44444                    *&&&%*",
"-=*=>,*%=-                                                --=*@X",
"-**--&#&-----                                             ----%+",
"-&&-=+@--------                                          -------",
"-%%&@+%----------                                       --------",
"-%%&#&-------------                                    ---------",
"-**--------------------                             ------------",
"-------------------------                      -----------------",
"----------------------------------------------------------------",
"----------------------------------------------------------------",
"----------------------------------------------------------------",
"----------------------------------------------------------------",
"----------------------------------------------------------------",
"----$@%%&-----------------------------------------------&&&%*---",
"---&+@%%%-----------------------------------------------&&&%*---",
"--=%&---=%%-----------------------------------------------------",
"*$%=-----$#--------------------------------------------------;::",
"%.o&&&*&&$%-----------------------------------------------:,,>::",
"*##&&&*&&=------------------------------------------------25,:--",
"----------------------------------------------------------55----",
"::>>><2,--------------------------------------------------<1;---",
"::>>><2,--------------------------------------------------;>>:<,"
};
