/* XPM */
static char *result[] = {
/* columns rows colors chars-per-pixel */
"64 64 30 1 ",
"  c black",
". c #010101",
"X c #24054C",
"o c #2D005A",
"O c #350069",
"+ c #3D0078",
"@ c #175352",
"# c red",
"$ c #450087",
"% c #450C8F",
"& c #4D0096",
"* c #5500A5",
"= c #5D00B4",
"- c #6500C3",
"; c #6D00D2",
": c #7500E1",
"> c #6F00FF",
", c #7D00F0",
"< c #8500FF",
"1 c #8C0FFF",
"2 c #931EFF",
"3 c #9A2DFF",
"4 c #A13CFF",
"5 c #A84BFF",
"6 c #AF5AFF",
"7 c #B669FF",
"8 c #279391",
"9 c #0089FF",
"0 c #C487FF",
"q c white",
/* pixels */
"<<<<<<<<<<<<<<<<<<<<<< <<<<<<<< <<<<<<<<<<<<<<<<<<<<<<<<<<<<<<<<",
"<<<<<<<<<<<<<<<<<<<<<< <<<<<<<<  <<,&$;:::;;;;;,<:;*-<<<<<<<<<<<",
"<,;;;;:::;;,<<<<<<<<<<  <<<<<<<  <<:$$;:::;;;,,:,:;*-<<<<<<<<<<<",
";-;;;;:,<,<1<23<<<<<<<  <<<<<<<  ,::,<<<<<2322<:,<<<<<<<<<<<<<<<",
"==<<<1222122<<1<<<<<< X <<<<<<< X -,<<1233332-&:<<<<<<<<<<<<<<<<",
";;<12221,:,<<: <<<<<< XX <<<<<< X <32332331<,= ,<<<<<,--;;:;:<<<",
",:<221<,;:<<<  <<<<13 XX 331<<< X 1<,<,=-,;$O- <<<,,<,--;;:;-:<<",
"<,<<:::::,<<<  <<<<13 XX    <  XX  $$**$*:;$+;  <<::<<<<<<<<--<<",
"<<<,:::,<<<< >> <<<<< XXXXXX  XXXX &*;;;:,<<<<  <<,;:<<<<<<<;;<<",
"<<<<<<<<<<<< >> <<<<<  XXXXXXXXXXX ;,<<<<<<<<< > <<:;:,<<<<<::<<",
"<<<<<<<<<<< >%>  <<<<< XXXXXXXXXXX <<<<<<<<<<< > <<<,:;:<<<<::<<",
"<<<<<<<<<< >%%%>  <<<< XXqqXXXqqXX <<<<<<<<<< >>> <<<<:;,<<<::<<",
"<<<<<<<<<<>%%X%%> <<<<< XXXXXXXXXX <<<<<<<<<< >%> -:<<<,;:<<::<<",
"<<<<<<<<< >%%X%%%> <<<< XXXXXXXXXX <<<<<<<<< >>%>> ;;:<<:;:;;,<<",
"<<<<<<<< >>%XXX%%%> <<<< XXXXXXXXX <<<<<<<< >>%%%>> *=<<<,:;:<<<",
"<<<<<<< >>%%XXX%%%>  <<< XXXXXXXXX <<<<<<< >>%%%%%> ;;<<<<<<<<<<",
"<<<<<< >>%%%XXX%%%%> <<<<XXXXXXXX <<<<<<<  >>%%X%%>> <<<<<<<<<<<",
"<<<<<< >%%%XXXXX%%%>  <<< XXXXXX <<<<<<<< >>%%%XX%%>> <<<<<<<<<<",
"<<<<< >>%%%XXXXX%%%>>  <<< XXXXX<<<<<<<< >>%%%XXX%%%>> <<<<<<<<<",
"<<<< >>%%%%XXXXXX%%%>> <<< XXXXX<<<<<<< >>%%%%XXXX%%>> <<<<<<<<<",
"<<<< >%%%%%XXXXXX%%%%>  88@@@@@@@88<<< >>%%%%XXXXX%%%>> <<,,<<<<",
"<<< >>%%%%%XXXXXX%%%%>>88888888888888 >>%%%%%XXXXX%%%%> <<,,<<<<",
"<<< >%%%%%%%XXXXX%%%%%>88888888888888>>>%%%%%%XXX%%%%%>  <<<<<<<",
"<<< >%%%%%%%XXXXX%%%%%>88888888888888>>%%%%%%%%X%%%%%%>> <<<<<<<",
"<< >>%%%%%%%%XXXX%%%%%>88888888888888>%%%%%%%%%X%%%%%%>>  <<<<<<",
"<< >%%%%%%%%%%%XX%%%%%>88888888888888>%%%%%%%%%%%%%%%%%>> <<<<<<",
"<< >%%%%%%%%%%%%X%%%%%>8888888888888@>%%%%%%%%%%%>>>%%%%> <<<<<<",
"<< >%%%%%%%%%%%%%%%%%%%@@8888888888@@>%%%%%%%%%%%> >>>%%>> <<<<<",
"< >>%%%%%%%%%%%%%%%%%%%@@@8888@8888@@>%%%%%%%%%%%>>  >%%>> <<<<<",
"< >%%%%%%%%%%%%%%%%%%%%<@@8@@@@@@@8@>>%%%%%%%%%%%%>  >>%%> <<<<<",
"< >%%%%%%%>%%%%%%%%%%%%>@@888888888@>%%%%%%%%%%%%%> <<>>%> ;,<<<",
"< >%%%%%%%>%%%>%%%%%% %>@@8@@@@@@@8@>%%%%%%%%%%%%%> << >>>> :,<<",
"< >%%>>>%%>>>>>%%%>>  >>@@8@88888@8@>%%%%%>>>>>>%%>> -*  >> ;;<<",
"< >%>< >%%>>> >%%%>    >@@8@@@@@@@8@>>>>%%>    >>%%> --=  >> ;<<",
" >>>>< >%%%>  >%%%> << >@@8@@888@@8@>XX>>%>> <  >>%> <<-& >> ;<<",
" >>>>< >%%%> ,>%%> <<< >@@8@@@@@@@8@>XX >>%>> << >>%> 5<O >> ;<<",
" >> << >%%%> <>%%> <<<< @@88@@@@@88<>XX<  %%> <<< >>> 53* >> 3<<",
" >> << >%%> 1 >%%> <<<< #99888998##>>%%.< >%>> <<< >> <1,, > 3,<",
" >> ,& >%%> < >%> <<<<<##9999#9999#>>XX.< >%%> <<<  > ::;; > ::<",
" >> :$ >%> << >%> <<<<<#99999#9999##XXX.<< >%> <<<< >> --: > ;;<",
" >> <2 >%> << >%> <<<<<#9999##9#999#%%X.<<< >> <<<< >> :*- > ;;<",
" >> 43 >>> << >%> <<<<<#999###9#999#X%%.<<< >>> <<<<>> <*& > ::<",
" > 164 >> <<< >>> <<<<<9999#####9999XXX.<<<< >> <<<< > <;-: > -:",
" > ,34 >> <<< >> <<<<<<999######9999#XX.<<<< >> <<<< > <<<< > &O",
" > <<; >> <<< >> <<<<<<99####9###999#XX.<<<<< > <<<< > <<<<<  -$",
"<  <,$ > <<<< > <<<<<<<99###99#99#99#XX.<<<<< > <<<< > <<<<<  <<",
"<  ;&$ > <<<<   <<<<<< 99###99999##99XX.<<<<<<  <<<< > <<<<<  <<",
"<  ;*; > <<<<<  <<<<<< 99##9999999#99X.<<<<<<<  <<<< > <<<<<<  <",
"<  <<<  <<<<<< <<<<<<< #99#9999999##< <<<<<<<<  <<<< > <<<<<<  <",
"<  <<<  <<<<<< <<<<<<< #99999999999#< <<<<<<<<  <<<<  <<<<<<<  <",
"<  <<<  <<<<<<<<<<<<<< #999999 9999#< <<<<<<<<  <<<<< <<<<<<<  <",
"<  <<<  <<<<<<<<<<<<<< #999999 9999#< <<<<<<<<< <<<<< <<<<<<<  <",
"<  <<< <<<<<<<<<<<<<<< ##99999<9999# <<<<<<<<<< <<<<< <<<<<<<< <",
"<< <<< <<<<<<<<<<<<<<<<9##999#<###<< <<<<<<<<<<<<<<<< <<<<<<<< <",
"<<<<<< <<<<<<<<<<<<<<<< XXXXX << XXX <<<<<<<<<<<<<<<< <<<<<<<< <",
"<<<<=& -;<<<<<<<<<<<<<<XXXXXX<<< XXX<<<<<<<<<<<<<<<<< <<;;;-:< <",
"<<<;$& --<<<<<<<<<<<<<<XXXXXX<<<  XX<<<<<<<<<<<<<<<<< <<;;;-:< <",
"<<,-;< <,--<<<<<<<<<<<<XXXXXX<<<< X <<<<<<<<<<<<<<<<< <<<<<<<<<<",
":=-,<< <<=*<<<<<<<<<<<<<XXXX<<<<<  <<<<<<<<<<<<<<<<<< <<<<<<<122",
"-o+;;; ;;=-<<<<<<<<<<<<<<XXX<<<<<< <<<<<<<<<<<<<<<<<< <<<<244322",
":**;;; ;;,<<<<<<<<<<<<<<<XX<<<<<<<<<<<<<<<<<<<<<<<<<< <<<<7042<<",
"<<<<<<<<<<<<<<<<<<<<<<<<<<<<<<<<<<<<<<<<<<<<<<<<<<<<<<<<<<00<<<<",
"22333574<<<<<<<<<<<<<<<<<<<<<<<<<<<<<<<<<<<<<<<<<<<<<<<<<<561<<<",
"22333574<<<<<<<<<<<<<<<<<<<<<<<<<<<<<<<<<<<<<<<<<<<<<<<<<<133254"
};
