/* XPM */
static char *result[] = {
/* columns rows colors chars-per-pixel */
"64 64 108 2 ",
"   c #000000",
".  c #090200",
"X  c #030309",
"o  c #090909",
"O  c #080A10",
"+  c #0E0E1B",
"@  c #120D1D",
"#  c #0D1217",
"$  c #101010",
"%  c #11111A",
"&  c #300001",
"*  c #130C21",
"=  c #171324",
"-  c #191425",
";  c #1C1429",
":  c #2D005A",
">  c #3D0078",
",  c #534C4C",
"<  c gray33",
"1  c #A51F2E",
"2  c #8B283B",
"3  c #9F2634",
"4  c #9C2934",
"5  c #922538",
"6  c #A32635",
"7  c #A92635",
"8  c #A22934",
"9  c #A32639",
"0  c red",
"q  c #FD023C",
"w  c #BF0F41",
"e  c #903645",
"r  c #983143",
"t  c #943D46",
"y  c #973E48",
"u  c #9B3C4A",
"i  c #FF0443",
"p  c #F30B45",
"a  c #DE3E43",
"s  c #E33B43",
"d  c #E93844",
"f  c #E93748",
"g  c #E43B48",
"h  c #D04A54",
"j  c #E3424B",
"k  c #E24E4C",
"l  c #E44C50",
"z  c #EA4A51",
"x  c #E9F036",
"c  c #450087",
"v  c #4D0096",
"b  c #5500A5",
"n  c #5D00B4",
"m  c #6500C3",
"M  c #6D00D2",
"N  c #7500E1",
"B  c #7D00F0",
"V  c #8500FF",
"C  c #8C0FFF",
"Z  c #931EFF",
"A  c #9A2DFF",
"S  c #A13CFF",
"D  c #A84BFF",
"F  c #AF5AFF",
"G  c #B669FF",
"H  c #BD78FF",
"J  c #0896D4",
"K  c #0499D6",
"L  c #0696DE",
"P  c #0A99DA",
"I  c #1A96D1",
"U  c #2ADFEB",
"Y  c #37DEFC",
"T  c #0CE8F8",
"R  c #2AE7F5",
"E  c #2FEAF6",
"W  c #2FE7FB",
"Q  c #36E7F0",
"!  c #7ADBE2",
"~  c #6BFFF5",
"^  c #A3A9A7",
"/  c #B2B2B2",
"(  c #AEB7CA",
")  c #D9B9C7",
"_  c #DBBBC9",
"`  c #C487FF",
"'  c #BDC7D8",
"]  c #BFCADC",
"[  c #C1CBDD",
"{  c #CED4DF",
"}  c #DFDFDF",
"|  c #C2CEE4",
" . c #C6D3E2",
".. c #CDD8E4",
"X. c #D0D6E4",
"o. c #D5DAE6",
"O. c #DDDFE5",
"+. c #D3DBE9",
"@. c #D9D8E8",
"#. c #E1DEE2",
"$. c #DFE1EE",
"%. c gray88",
"&. c #E0E3ED",
"*. c #FFF7F7",
"=. c #F3F9F5",
"-. c #F5F6FA",
";. c #FEF6FC",
":. c #FEFEFE",
/* pixels */
"V V V V V V V V V V V V V V V V V V V V V V V V V V V V V V V V V V V V Q V Q V V V V V V V V V V V V V V V V V V V V V V V V V ",
"V V V V V V V V V V V V V V V V V V V V V V V V V V V V V V Q V V V V Q Q c Q N N N M M M M M B V N M b m V V V V V V V V V V V ",
"V B M M M M N N N Q M B V V V V V V V V Q V V V V V V 0 V V Q V Q V V Q Q Q Q N N N M 0 M B B ~ ~ N M b Q V V V V V V V Q V V V ",
"M m M M M M N B V Q V C V Z A C V V V V Q V V V V V 0 0 V V Q V Q Q N Q Q Q Q V V Q Z 0 0 Z V ~ ~ V V V Q V V V V V V Q Q V V V ",
"n n V V V C Z Z Z Q Z Z V V C D S V V V Q V V V V V 0 0 V V Q V Q Q Q Q Q Q Q Z A Q A 0 0 Q v ~ V V V V Q V V V V V Q Q V V V V ",
"M M V C Z Z Z C B Q B V V N C H D V V Q Q V V V V 0 0 0 Q Q Q ~ ~ ~ ~ ~ ~ Q Q Z Q Q C 0 0 n n ~ V V V V Q B m m M M Q Q N V V V ",
"B N V Q Z C V B M Q V V ~ V A C N V ~ ~ A Q Z Z x x 0 0 Q Q Q Q Q Q Q Q Q Q Q Q Q Q M 0 0 m Q ~ V V B Q Q B m m M Q Q M m N V V ",
"V B V Q N N N N N Q V V ~ ~ V M M V ~ ~ ~ ~ Q Z x 0 0 0 Q Q Q Q Q Q L Q Q Q Q Q Q Q Q 0 0 Q ~ ~ V V N Q Q V V V Q V Q V m m V V ",
"V V Q Q N N N B V Q V ~ ~ ~ ~ ~ ~ ~ ~ Q V V Q Q x 0 0 0 Q Q Q Q Q L L L Q Q Q Q Q Q 0 0 0 x ~ ~ V V B Q Q V V Q V Q V V M M V V ",
"V V Q Q V V V V V Q V ~   o o     o o Q o   V V x 0 0 0 0 x Q L Q L L L L Q Q Q Q L 0 0 0 x ~ ~ Q V V Q M N B ~ V Q V V N N V V ",
"V V ~ Q V V V V V Q V V                     Q Q Q 0 0 0 0 x L L L L L L L L L Q L 0 0 0 0 x ~ ~ V V V Q B N M N ~ Q V V N N V V ",
"V Q ~ Q V V V V Q Q   o X.{ e u ;.-.y t :.:.o     0 0 0 0 0                 L L 0 0 0 0 x x ~ ~ V V V Q ~ V N M ~ Q V V N N V V ",
"V Q ~ Q V V V V Q Q     ( ( 4 9 $.&.3 3 :.:.      0 0 0   0                 0 0 0 0 0 0 x ~ Q ~ N M Q Q ~ V V B ~ Q V V N N V V ",
"V Q ~ Q V V V V Q V X X _ ) 3 9 #.#.6 6 -.;.X X & 0 0 0       X X   X     0 0 0 0 0 0 0 x ~ Q ~ ~ M Q Q ~ N V V ~ Q N M M B V V ",
"V Q ~ Q V V 6 6     X.@.9 6 6 6 :.:.6 6 = = - X g 0 0       ; - - - - -         0 0 0 0 Q ~ Q ~ ~ V Q Q ~ ~ V V ~ Q N M N V V V ",
"Q Q ~ Q V V 2 5 o   $.+.6 9 r 2 *.;.1 7 % % # o h h     X X * @ * * @ * X   .     0 0 L L Q Q ~ ~ Q Q ~ ~ ~ V ~ ~ Q V V V V Q V ",
"Q ~ ~ Q     @.$.O.}   X 6 4 ;.:.q p g g Q Q Q Q w .     [ [ [ [ ] ] [ [ [ [ = ;         L Q L ~ ~ Q V ~ ~ ~ V ~ ~ Q V V V Q Q V ",
"Q ~ ~ Q     X...%.%.  . 3 3 :.:.i i g f Q Q Q Q j   0   [ 0 ] ] 0 ] 0 [ 0  .- *         L Q L ~ ~ Q V ~ ~ ~ V ~ ~ Q V V V Q Q V ",
"Q ~ ~ ~     :.:.:.:.    g s .   3 8     Q ~ Q Q   x 0 0 x 0 :.0 0 0 0 x 0 [ ] 0 .       L L L ~ ~ Q Q ~ ~ ~ V ~ ~ ~ V V V Q Q V ",
"Q ~ ~ ~   o =.-.:.:.    a s #   4 6     Q ~ Q Q   x 0 0 x 0 0 0 0 0 0 0 0 ' 0 x x       L L L ~ ~ ~ Q ~ V ~ V ~ ~ ~ V V Q Q Q V ",
"Q ~     X.+.k k       .   . V Q     Q Q Q ~ Q Q     0 0 0 0 0 0 0 0 0 0 0 0 0 x ; -         L ~ Q ~ L ~ Q Q ~ ~ ~ ~ B B Q Q Q V ",
"Q ~     o.o.z l o       o   Q Q     Q Q Q ~ L Q X   0 0 0 0 0 0 :.0 0 0 0 0 0 [ ; ;         L ~ L ~ L ~ L Q L ~ ~ ~ B Q Q Q Q V ",
"Q ~     +.o.7 6 V Q 8 8 V V ~ ~     Q Q Q ~ L L   x 0 0 0 0 0 0 :.0 0 0 0 0 [ [ ; -         L ~ L L L L ~ Q ~ L ~ ~ Q Q Q Q Q V ",
"Q ~     ..+.4 7 V Q 3 7 V Q ~ Q     Q Q Q ~ L L   x x 0 0 0 0 0 x x 0 0 0 x x | ; -         L Q L L Q L ~ Q ~ L ~ ~ ~ Q Q V Q V ",
"Q ~   .     d V Q Q V w Q Q ~ Q     Q Q L ~ L L     x x x :.;.:.:.x *.:.x x ] [ ; -         L L L L L L ~ Q L L V Q ~ Q Q ~ Q V ",
"Q ~         V Q ~ Q Q Q Q Q ~ Q     Q Q L ~ L L     :.:.:.:.:.:.:.:.:.:.] ] [ [ ; - .       L L L ~ ~ L ~ L L L Q Q ~ ~ Q ~ Q V ",
"Q ~ s f Q V V Q ~ Q Q Q Q Q ~ Q     Q Q L ~ L L     - - :.:.:.:.:.:.:.:.] [ X o + -             L ~ ~ L ~ L L L Q Q ~ Q Q ~ Q V ",
"Q ~ d j Q Q V Q ~ Q Q Q Q ~ ~ Q     L L L ~ L L     ; ; :.:.:.:.:.:.:.:.] ]     = -             L ~ ~ L ~ L L L Q Q ~ Q V ~ Q V ",
"Q ~ w   V Q V Q ~ Q L Q Q ~ ~ L     L L L ~ L L L Q     :.:.    :.:.    [ ]                     L ~ ~ L ~ L L L Q Q ~ Q ~ ~ Q V ",
"Q ~     ~ ~ V ~ ~ Q L Q L ~ ~ L     L L L ~ ~ ~ L L     :.:.  o :.:.    [ ]                     L ~ ~ L L Q Q L L Q ~ Q ~ ~ Q V ",
"Q ~ Q ~ ~ ~ Q ~ ~ Q L L L ~ ~ L     L L L L ~ ~ L L               o     X                       L ~ L L L Q Q L L Q Q L ~ ~ Q V ",
"Q ~ ~ ~ ~ Q L ~ ~ Q L L ~ L ~ L     L L L L L ~ L L                                             L ~ L L L L Q L L Q Q P ~ ~ Q V ",
"V ~ ~ ~ Q Q L ~ L ~ L L ~ L ~ Q     L Q L L L ~ L L L L                   o L L L L L L         L L L L L L Q L L Q ~ L ~ ~ Q V ",
"~ ~ ~ ~ Q Q Q ~ L ~ L ~ L L ~ L     L L L L L ~ L ~ L L                     L L L L ~ L         L L L L L L L L L Q ~ L L ~ Q V ",
"~ ~ ~ ~ Q Q Q ~ L ~ L ~ L L ~ L     L L L L L ~ L ~ L L L                 o L L L L ~ L   o     L L L L L L Q L L ~ Q L L ~ Q V ",
"~ ~ ~ ~ ~ Q L ~ L ~ L ~ L L ~ L     R L L L ~ ~ L ~ L L L L L L                 L L ~ L L L       L L L L L L L L ~ L L L ~ Q V ",
"~ ~ ~ ~ ~ Q L ~ L ~ L L L L ~ L   . L L L L ~ L L ~ L L L L L L               o L L ~ L L L   o o L :.:.:.L L L L Q L ~ L ~ Q V ",
"~ ~ ~ ~ ~ Q ~ ~ L ~ L L L L L L     L L L L L L L ~ L L                         o o ~ L L L Q L L :.:.:.:.L L Q L Q L ~ L ~ Q V ",
"~ ~ ~ ~ ~ Q ~ L L ~ L L L L L Q     L L Q L L L L L L L                         o o L L L L L L     :.:.:.L L L ~ Q L ~ L ~ Q V ",
"V ~ ~ ~ ~ Q ~ L L L ~ L L L ] [ :.:.L L Q L L L                                     L L L             L ~ L L L ~ L L ~ L ~ Q Q ",
"V Q V ~ ~ Q ~ L L L ~ L L L ] [ :.:.L L Q L L L                                     L L L           L L ~ L L L ~ L L Q L ~ Q Q ",
"V Q B ~ ~ L ~ L L L ~ L L L ] | :.:.[ |     o                                                     L L L ~ L L ~ L L ~ Q L Q Q Q ",
"V Q Q ~ ~ L L L L L L L L L ] ] :.:.' |     .                                                   L L L L ~ L Q ~ Q L ~ L Q Q Q Q ",
"V Q Q ~ Q L L L L L L L L L ] [ ] [ L Q L L Q L                                               L L L L L ~ L ~ L L L ~ L Q Q Q Q ",
"V Q Q ~ Q L L L L L L L L L | ] ] [ L W L L L Q                                           L ~ L Q L L L ~ ~ L L L ~ L L Q Q Q Q ",
"V Q Q ~ Q L L L L L L L L Q L L     L E ~ L L L                                         L L ~ L L L L L ~ ~ L L L ~ L L Q Q V Q ",
"V Q Q Q ~ L ~ L L L L L L L Q L     Q L ~ L L L                                         L L ~ L L Q L Q ~ ~ L L L ~ L L Q Q V Q ",
"V Q Q Q ~ L L L L L L L L L L Q   X P L ~ L L L                                           . ~ L L L L L ~ L L L Q ~ L P Q Q Q Q ",
"V Q Q Q Q ~ L ~ L L L L L L L L     L L ~ L L L                                             L L L L L L L L L L ~ L L L Q Q Q Q ",
"V Q Q Q Q ~ L ~ L L L L L L L L     L L ~ L L L                                             L L L L L L L L L L ~ L L L Q Q Q V ",
"V V Q Q Q ~ L L L L L L L L L L     L L L L L L   x 0 0 0                                   L L L L Q L L L L ~ L L L Q Q Q Q V ",
"V V Q V Q L ~ L L L L L L L L L     L Q L L $ o     0 0 0 0 0                                 o o O Y L L L L ~ Q Q Q Q Q Q V V ",
"V V Q Q Q Q ~ L L L L L L L L L     L Q L L           0 0 0 0 0                                     L R L L ~ L L L Q Q Q Q V Q ",
"V V Q Q Q Q ~ ~ L L L L L L L L o   L L / /           0 0 0 0 0 0                               < , ! L L ^ ~ L L Q Q Q Q Q V Q ",
"V V V Q Q Q Q ~ L L L Q L L L K X   L L .             x 0 0 0 0 0                               L Y Q L L L ~ L Q Q V Q Q Q Q V ",
"V V V V Q Q Q ~ L L L L L L L I     L L X                 0 0 0 0 0                           X L W L L L L ~ T L Q Q m Q Q V V ",
"V V V M c Q Q Q L L L L L L L L     R W .                   0 0 0                           L L L L L L L ~ L L Q Q Q m Q V V V ",
"V V B m M V Q Q Q L Q L L L L L   O U Q L L                 0 0                             L L L L L L L L L L Q Q Q Q Q V V V ",
"N n m B V V V Q Q L L L L L             L L                 0                                   L L           X Q Q Q Q V C Z Z ",
"m : > M M M N M M Q L L L L           X P L                                                     J P           o L Q Z S S A Z Z ",
"N b b b M M N M M B Q L         L L       X                                                     X           L L Q Q G ` S Z V V ",
"V V s s V V V V V V Q Q                                                                                     L L Q V ` ` V V V V ",
"Z Z s s A D G S V V V                                                                                           V V D F C V V V ",
"Z Z A A A D G S V V V                                                                                         V V V C A A Z D S "
};
