/* XPM */
static char *result[] = {
/* columns rows colors chars-per-pixel */
"64 64 11 1 ",
"  c black",
". c #060606",
"X c #0E0E0E",
"o c #161616",
"O c #1E1E1E",
"+ c gray15",
"@ c gray18",
"# c gray21",
"$ c #3E3E3E",
"% c #464646",
"& c None",
/* pixels */
"&&&&&&&&&&&&&&&&&&&&&&&&&&&&&&&&&&&&&&&&&&&&&&&&&&&&&&&&&&&&&&&&",
"&&&&&&&&&&&&&&&&&&&&&&&&&&&&&&&&&&&&&&&&&&&&&&&&&&&&&&&&&&&&&&&&",
"&&&&&&&&&&&&&&&&&&&&&&&&&&&&&&&&&&&&&&&&&&&&&&&&&&&&&&&&&&&&&&&&",
"&&&&&&&&&&&&&&&&&&&&&&&&&&&&          &&&&&&&&&&&&&&&&&&&&&&&&&&",
"&&&&&&&&&&&&&&&&&&&&&&&&&   %$@@   o#@   &&&&&&&&&&&&&&&&&&&&&&&",
"&&&&&&&&&&&&&&&&&&&&&&&  %%%%@@%   @#%%##  &&&&&&&&&&&&&&&&&&&&&",
"&&&&&&&&&&&&&&&&&&&&&& ##%%. O#%  @@@%%@O@# &&&&&&&&&&&&&&&&&&&&",
"&&&&&&&&&&&&&&&&&&&&  %oo%%  O%#  $@@%%+.o@   &&&&&&&&&&&&&&&&&&",
"&&&&&&&&&&&&&&&&&&& @@%oo%@oO@OXX+%@@%#XXO@OX@ &&&&&&&&&&&&&&&&&",
"&&&&&&&&&&&&&&&&&& #@@%oo%OO%@X.o#%##%O.@@@OO%@ &&&&&&&&&&&&&&&&",
"&&&&&&&&&&&&&&&&& O%##%oo%Oo$@@OX#%@++  %$#OO$$@ &&&&&&&&&&&&&&&",
"&&&&&&&&&&&&&&&& o@%@@%oo%+O@O@@X+%+Xo .%%@oo@%@@ &&&&&&&&&&&&&&",
"&&&&&&&&&&&&&&&& X#%@@%oo%###oOo O%@o@oo%%@+oo$$@ &&&&&&&&&&&&&&",
"&&&&&&&&&&&&&&& o @%$#$OO$oO%@Oo.XO@+@oo%%$@XX#O.  &&&&&&&&&&&&&",
"&&&&&&&&&&&&&& #O +%%##OoX +%#+#@..+oo+@%%%O.+#.. $ &&&&&&&&&&&&",
"&&&&&&&&&&&&&& $#oO%%@@@O  %%Oo$+  X.  o$%%Oo#OX@ @ &&&&&&&&&&&&",
"&&&&&&&&&&&&& +@@oo%%@+#O o%%oo%o  XO  .@@++@+  @ @% &&&&&&&&&&&",
"&&&&&&&&&&&&& X@@oo%%#O++.o$#O@%OOOO+O@oXOoo+OX.+ #% &&&&&&&&&&&",
"&&&&&&&&&&&& oX#$OO%%@ooooO@@O@%@oX+oo%@oooOoooX+ $%% &&&&&&&&&&",
"&&&&&&&&&&&& Oo@%OO%%@oOXO$#$@@%@ X# .%%$XX#.   O %%% &&&&&&&&&&",
"&&&&&&&&&&&& OO@%oo%%@.O++%%%##%o     %%#O++    + %## &&&&&&&&&&",
"&&&&&&&&&&& @O+#%+O$%O oo+%%$#$  &&&&&  @@$@+   @ %+o# &&&&&&&&&",
"&&&&&&&&&&& @Oo+%#O@$..+o@%%@  &&&&&&&&   %%%  .+#$@o@ &&&&&&&&&",
"&&&&&&&&&&& #+ .%$O+@ o#+#%% &&&&&&&&&& && %%X X+##+o@ &&&&&&&&&",
"&&&&&&&&&&& #@ .%%OO@O+@+@% &&&&&&&&&&& &&& %@  @%#Oo@ &&&&&&&&&",
"&&&&&&&&&&  @#.X$O X#$@@@@% &&&&&&&&&&&&&&& %@ .#%+O+@% &&&&&&&&",
"&&&&&&&&&&  @o X@X  +%@+#$ &&&&&&&&&&&&&&&&& #+XO%OO@@% &&&&&&&&",
"&&&&&&&&&&  #. o+@. O%@o@ &&&&&&&&&&&&&&&&&&& @  #+###% &&&&&&&&",
"&&&&&&&&&&  @X OO@. @#@+@ &&&&&&&&&&&&&&&&&&& @X .O%++% &&&&&&&&",
"&&&&&&&&&& @@  o XX O@@@@ &&&&&&&&&&&&&&&&&&& +. .+%oo% &&&&&&&&",
"&&&&&&&&&& #+.o+ .O.o+@@ &&&&&&&&&&&&&&&&&&&&    o@$.X% &&&&&&&&",
"&&&&&&&&&& @Xo#%X.o oO@@ &&&&&&&&&&&&&&&&&&&&  o o@+ X% &&&&&&&&",
"&&&&&&&&&& @  #%  +.XO#@ &&&&&&&&&&&&&&&&&&&&  + X#o O% &&&&&&&&",
"&&&&&&&&&& #  @%XX%@OXO@ &&&&&&&&&&&&&&&&&&&&  o X#OX+% &&&&&&&&",
"&&&&&&&&&& @o o$oO%@@. o &&&&&&&&&&&&&&&&&&&&  o.o@OoO# &&&&&&&&",
"&&&&&&&&&& @@XX@o+$##o O &&&&&&&&&&&&&&&&&&&&  Oo.XoX O &&&&&&&&",
"&&&&&&&&&& $#Xo@O+#@@@O# &&&&&&&&&&&&&&&&&&&&& Xo  oX.+ &&&&&&&&",
"&&&&&&&&&&& @ o#OO#@@@o@ &&&&&&&&&&&&&&&&&&&&& Oo .  O  &&&&&&&&",
"&&&&&&&&&&& @ X#Oo@##@o@ &&&&&&&&&&&&&&&&&&&&& $  O  +  &&&&&&&&",
"&&&&&&&&&&& $  +OO@@@#+#  &&&&&&&&&&&&&&&&&&& @$  $  @  &&&&&&&&",
"&&&&&&&&&&& %. oO+#@@OX#  &&&&&&&&&&&&&&&&&&& #@o@$  #  &&&&&&&&",
"&&&&&&&&&&&  o oO@#Xo+X@  &&&&&&&&&&&&&&&&&&& O.o#+ o & &&&&&&&&",
"&&&&&&&&&&&  @OX +# .%@@ % &&&&&&&&&&&&&&&&& oo @$o o & &&&&&&&&",
"&&&&&&&&&&&  #OX o+ o%#o %# &&&&&&&&&&&&&&& OOoX$#O.O & &&&&&&&&",
"&&&&&&&&&&& & OOOoX  $#X $@ &&&&&&&&&&&&&&& @o o#@@@ &&&&&&&&&&&",
"&&&&&&&&&&& & ++o    @@+ +@o &&&&&&&&&&&&& $#  #@@@@ &&&&&&&&&&&",
"&&&&&&&&&&& && #   X o@@ o+ X  &&&&&&&&&  %@+  @++  &&&&&&&&&&&&",
"&&&&&&&&&&& && %o Oo X+$$Oo  #%  &&&&&  %$+ooo+OOO  &&&&&&&&&&&&",
"&&&&&&&&&&& &&& #+OoOXX@#+.Xo+$%%     %%$@X.O+@@#o &&&&&&&&&&&&&",
"&&&&&&&&&&& &&&& #o...O@@O  XO#%%##$#$%%@o  O@@oo &&&&&&&&&&&&&&",
"&&&&&&&&&&& &&&& $X.Xo#$$@.  o#$%##%##%%X  oOooXo &&&&&&&&&&&&&&",
"&&&&&&&&&&&&&&&&& @OXO##%%o  o@##@#%##$@X  @o .+  &&&&&&&&&&&&&&",
"&&&&&&&&&&&&&&&&&& @ o$#$%O ..X@#@+   @@+X.+X.+ &&&&&&&&&&&&&&&&",
"&&&&&&&&&&&&&&&&&&& .O%$#$@Oo X@@++   @%X @#@+ && &&&&&&&&&&&&&&",
"&&&&&&&&&&&&&&&&&&&   #%$@O@#oO#@@#@o X+.X#%  &&& &&&&&&&&&&&&&&",
"&&&&&&&&&&&&&&&&&&& && %%#.o%O.@%#++O.Xo+%% &&&&& &&&&&&&&&&&&&&",
"&&&&&&&&&&&&&&&&&&& &&&  @XX@X XO+@#$%+O$  &&&&&& &&&&&&&&&&&&&&",
"&&&&&&&&&&&&&&&&&&& &&&&&   @+o.o+@##+   &&&&&&&& &&&&&&&&&&&&&&",
"&&&&&&&&&&&&&&&&&&& &&&&&&&&          &&&&&&&&&&&&&&&&&&&&&&&&&&",
"&&&&&&&&&&&&&&&&&&&&&&&&&&&&&&&&&&&&&&&&&&&&&&&&&&&&&&&&&&&&&&&&",
"&&&&&&&&&&&&&&&&&&&&&&&&&&&&&&&&&&&&&&&&&&&&&&&&&&&&&&&&&&&&&&&&",
"&&&&&&&&&&&&&&&&&&&&&&&&&&&&&&&&&&&&&&&&&&&&&&&&&&&&&&&&&&&&&&&&",
"&&&&&&&&&&&&&&&&&&&&&&&&&&&&&&&&&&&&&&&&&&&&&&&&&&&&&&&&&&&&&&&&",
"&&&&&&&&&&&&&&&&&&&&&&&&&&&&&&&&&&&&&&&&&&&&&&&&&&&&&&&&&&&&&&&&"
};
