/* XPM */
static char *result[] = {
/* columns rows colors chars-per-pixel */
"64 64 11 1 ",
"  c black",
". c #060606",
"X c #0E0E0E",
"o c #161616",
"O c #1E1E1E",
"+ c gray15",
"@ c gray18",
"# c gray21",
"$ c #3E3E3E",
"% c #464646",
"& c None",
/* pixels */
"&&&&&&&&&&&&&&&&&&&&&&&&&&&&&&&&&&&&&&&&&&&&&&&&&&&&&&&&&&&&&&&&",
"&&&&&&&&&&&&&&&&&&&&&&&&&&&&&&&&&&&&&&&&&&&&&&&&&&&&&&&&&&&&&&&&",
"&&&&&&&&&&&&&&&&&&&&&&&&&&&&&&&&&&&&&&&&&&&&&&&&&&&&&&&&&&&&&&&&",
"&&&&&&&&&&&&&&&&&&&&&&&&&&&&&&&&&&&&&&&&&&&&&&&&&&&&&&&&&&&&&&&&",
"&&&&&&&&&&&&&&&&&&&&&&&&&&&&&&&&&&&&&&&&&&&&&&&&&&&&&&&&&&&&&&&&",
"&&&&&&&&&&&&&&&&&&&&&&&&&&&&&&&&&&&&&&&&&&&&&&&&&&&  &&&&&&&&&&&",
"&&&&&&&&&&&&&&&&&&&&&&&&&&&&&&&&&&&&&&&&&&&&&&&&&&  &&&&&&&&&&&&",
"&&&&&&&&&&&&&&&&&&&&&&&&&&&&&&&&&&&               & &&&&&&&&&&&&",
"&&&&&&&&&&&&&&&&&&&&&&&            +%%%XX%%%%  %%@ &&&&&&&&&&&&&",
"&&&&&&&&&&&&&&&&&&&&&   %%%%%%%$##oO%%%XX%%%%  %# &&&&&&&&&&&&&&",
"&&&&&&&&&&&&&&&&&&&&& $@@oX@@#$#$%#@$%%OO%%%%@@@O &&&&&&&&&&&&&&",
"&&&&&&&&&&&&&&&&&&&&& O+@  @@OO+#%$+@%%XX%%%%#Oo &&&&&&&&&&&&&&&",
"&&&&&&&&&&&&&&&&&&&&& +$%..$#++@+#%#@$%OO%%%#OX &&&&&&&&&&&&&&&&",
"&&&&&&&&&&&&&&&&&&&&&  $%oX##$%%#O@%@+$$@@##@O &&&&&&&&&&&&&&&&&",
"&&&&&&&&&&&&&&&&&&&&   #@.o$%%%   O+Ooo+@@##$# &&&&&&&&&&&&&&&&&",
"&&&&&&&&&&&&&&&&&&&& Oo@X O%%% &&&    oo+#%%%# &&&&&&&&&&&&&&&&&",
"&&&&&&&&&&&&&&&&&&&& +++oO@%%% &&&&&&   OO#%% &&&&&&&&&&&&&&&&&&",
"&&&&&&&&&&&&&&&&&&&& @@#Oo@%% &&&&&&&&&  +o@@ &&&&&&&&&&&&&&&&&&",
"&&&&&&&&&&&&&&&&&&&& ##%O.@%% &&&&&&&&&&& o  &&&&&&&&&&&&&&&&&&&",
"&&&&&&&&&&&&&&&&&&&& @@%# X%% &&&&&&&&&&&& o &&&&&&&&&&&&&&&&&&&",
"&&&&&&&&&&&&&&&&&&&& @@%%..%% &&&&&&&&&&&&& &&&&&&&&&&&&&&&&&&&&",
"&&&&&&&&&&&&&&&&&&&& @@%%Oo$% &&&&&&&&&&&&&&&&&&&&&&&&&&&&&&&&&&",
"&&&&&&&&&&&&&&&&&&&& @@%%. #  &&&&&&&&&&&&&&&&&&&&&&&&&&&&&&&&&&",
"&&&&&&&&&&&&&&&&&&&& @@%%O   &&&&&&&&&&&&&&&&&&&&&&&&&&&&&&&&&&&",
"&&&&&&&&&&&&&&&&&&&& @@%%#  #    &&&&&&&&&&&&&&&&&&&&&&&&&&&&&&&",
"&&&&&&&&&&&&&&&&&&& ###%%++$#$%%   &&&&&&&&&&&&&&&&&&&&&&&&&&&&&",
"&&&&&&&&&&&&&&&&&&& @##%%OO%##%%%%   &&&&&&&&&&&&&&&&&&&&&&&&&&&",
"&&&&&&&&&&&&&&&&&&& @+@%%++%$#$%%%OO  &&&&&&&&&&&&&&&&&&&&&&&&&&",
"&&&&&&&&&&&&&&&&&&& @ .%#@$%%#@$%%XX%%  &&&&&&&&&&&&&&&&&&&&&&&&",
"&&&&&&&&&&&&&&&&&&& # .         ++O@%OO  &&&&&&&&&&&&&&&&&&&&&&&",
"&&&&&&&&&&&&&&&&&&&&   &&&&&&&&&  X$%..% &&&&&&&&&&&&&&&&&&&&&&&",
"&&&&&&&&&&&&&&&&&&& &&&&&&&&&&&&&&  %OO%% &&&&&&&&&&&&&&&&&&&&&&",
"&&&&&&&&&&&&&&&&&&&&&&&&&&&&&&&&&&&& @@%%  &&&&&&&&&&&&&&&&&&&&&",
"&&&&&&&&&&&&&&&&&&&&&&&&&&&&&&&&&&&&&  %%%  &&&&&&&&&&&&&&&&&&&&",
"&&&&&&&&&&&&&&&&&&&&&&&&&&&&&&&&&&&&&&& %@@ &&&&&&&&&&&&&&&&&&&&",
"&&&&&&&&&&&&&&&&&&&&&&&&&&&&&&&&&&&&&&&& .O% &&&&&&&&&&&&&&&&&&&",
"&&&&&&&&&&&&&&&&  &&&&&&&&&&&&&&&&&&&&&& o@% &&&&&&&&&&&&&&&&&&&",
"&&&&&&&&&&&&&&&&  &&&&&&&&&&&&&&&&&&&&&&& #%% &&&&&&&&&&&&&&&&&&",
"&&&&&&&&&&&&&&&&   &&&&&&&&&&&&&&&&&&&&&& #$% &&&&&&&&&&&&&&&&&&",
"&&&&&&&&&&&&&&&&&  &&&&&&&&&&&&&&&&&&&&&& ##% &&&&&&&&&&&&&&&&&&",
"&&&&&&&&&&&&&&&&&& &&&&&&&&&&&&&&&&&&&&&& ##% &&&&&&&&&&&&&&&&&&",
"&&&&&&&&&&&&&&&&&&  &&&&&&&&&&&&&&&&&&&&& $#$ &&&&&&&&&&&&&&&&&&",
"&&&&&&&&&&&&&&&&&&& &&&&&&&&&&&&&&&&&&&&& %@@ &&&&&&&&&&&&&&&&&&",
"&&&&&&&&&&&&&&&&&&& &&&&&&&&&&&&&&&&&&&&& %@@ &&&&&&&&&&&&&&&&&&",
"&&&&&&&&&&&&&&&&&&&  &&&&&&&&&&&&&&&&&&  %%@  &&&&&&&&&&&&&&&&&&",
"&&&&&&&&&&&&&&&&&&&  &&&&&&&&&&&&&&&&&& %%%@ &&&&&&&&&&&&&&&&&&&",
"&&&&&&&&&&&&&&&&&&& # &&&&&&&&&&&&&&   O%%%  &&&&&&&&&&&&&&&&&&&",
"&&&&&&&&&&&&&&&&&&& #               %%++%%% &&&&&&&&&&&&&&&&&&&&",
"&&&&&&&&&&&&&&&&&&& @% %%#o+%%%%%%%%%%++%%  &&&&&&&&&&&&&&&&&&&&",
"&&&&&&&&&&&&&&&&&&& @%%%$#+@%%%%%%%%%%@@%  &&&&&&&&&&&&&&&&&&&&&",
"&&&&&&&&&&&&&&&&&&& #%%$#$@@%++%%%%%%$#$% &&&&&&&&&&&&&&&&&&&&&&",
"&&&&&&&&&&&&&&&&&&& #%%##%@@#.o%%%%%$@#% &&&&&&&&&&&&&&&&&&&&&&&",
"&&&&&&&&&&&&&&&&&&& #%#@$%@@@O+#%%$@+@  &&&&&&&&&&&&&&&&&&&&&&&&",
"&&&&&&&&&&&&&&&&&&& @%@@%%#@@#OX@##@@$ &&&&&&&&&&&&&&&&&&&&&&&&&",
"&&&&&&&&&&&&&&&&&&& @$#$%%%#O@@O@#$%  &&&&&&&&&&&&&&&&&&&&&&&&&&",
"&&&&&&&&&&&&&&&&&&& @+@%%%%@O#%%    &&&&&&&&&&&&&&&&&&&&&&&&&&&&",
"&&&&&&&&&&&&&&&&&&& .@#%%%%+    &&&&&&&&&&&&&&&&&&&&&&&&&&&&&&&&",
"&&&&&&&&&&&&&&&&&&   %%%%   &&&&&&&&&&&&&&&&&&&&&&&&&&&&&&&&&&&&",
"&&&&&&&&&&&&&&&&&&   %   &&&&&&&&&&&&&&&&&&&&&&&&&&&&&&&&&&&&&&&",
"&&&&&&&&&&&&&&&&&&    &&&&&&&&&&&&&&&&&&&&&&&&&&&&&&&&&&&&&&&&&&",
"&&&&&&&&&&&&&&&&&&  &&&&&&&&&&&&&&&&&&&&&&&&&&&&&&&&&&&&&&&&&&&&",
"&&&&&&&&&&&&&&&&&& &&&&&&&&&&&&&&&&&&&&&&&&&&&&&&&&&&&&&&&&&&&&&",
"&&&&&&&&&&&&&&&&&&&&&&&&&&&&&&&&&&&&&&&&&&&&&&&&&&&&&&&&&&&&&&&&",
"&&&&&&&&&&&&&&&&&&&&&&&&&&&&&&&&&&&&&&&&&&&&&&&&&&&&&&&&&&&&&&&&"
};
