/* XPM */
static char *result[] = {
/* columns rows colors chars-per-pixel */
"64 64 11 1 ",
"  c black",
". c #060606",
"X c #0E0E0E",
"o c #161616",
"O c #1E1E1E",
"+ c gray15",
"@ c gray18",
"# c gray21",
"$ c #3E3E3E",
"% c #464646",
"& c None",
/* pixels */
"&&&&&&&&&&&&&&&&&&&&&&&&&&&&&&&&&&&&&&&&&&&&&&&&&&&&&&&&&&&&&&&&",
"&&&&&&&&&&&&&&&&&&&&&&&&&&&&&&&&&&&&&&&&&&&&&&&&&&&&&&&&&&&&&&&&",
"&&&&&&&&&&&&&&&&&&&&&&&&&&&&&&&&&&&&&&&&&&&&&&&&&&&&&&&&&&&&&&&&",
"&&&&&&&&&&&&&&&&&&&&&&&&&&&&&&&&&&&&&&&&&&&&&&&&&&&&&&&&&&&&&&&&",
"&&&&&&&&&&&&&&&&&&&&&&&&&&&&&&&&&&&&&&&&&&&&&&      &&&&&&&&&&&&",
"&&&&&&&&&&&&&&&&&&&&&&&&&&&&&&&&&&&&&&&          &&&&&&&&&&&&&&&",
"&&&&&&&&&&&&&&&&&&&&&&&&&&&&&&&&&&&&&&       &&&&&&&&&&&&&&&&&&&",
"&&&&&&&&&&&&&&&&&&&&&&&&&&&&&&&&&&&&&     &&&&&&&&&&&&&&&&&&&&&&",
"&&&&&&&&&&&&&&&&&&&&&&&&&&&&&&&&&&   %%  &&&&&&&&&&&&&&&&&&&&&&&",
"&&&&&&&&&&&&&&&&&&&&&&&&&&&&&&&&&  .%% &&&&&&&&&&&&&&&&&&&&&&&&&",
"&&&&&&&&&&&&&&&&&&&&&&&&&&&&&&&  @oo% &&&&&&&&&&&&&&&&&&&&&&&&&&",
"&&&&&&&&&&&&&&&&&&&&&&&&&&&&&& %##OO &&&&&&&&&&&&&&&&&&&&&&&&&&&",
"&&&&&&&&&&&&&&&&&&&&&&&&&&&&  %$#$O &&&&&&&&&&&&&&&&&&&&&&&&&&&&",
"&&&&&&&&&&&&&&&&&&&&&&&&&&& %%#@$$+ &&&&&&&&&&&&&&&&&&&&&&&&&&&&",
"&&&&&&&&&&&&&&&&&&&&&&&&&& O%%@@%+ &&&&&&&&&&&&&&&&&&&&&&&&&&&&&",
"&&&&&&&&&&&&&&&&&&&&&&&&& +@%%##%  &&&&&&&&&&&&&&&&&&&&&&&&&&&&&",
"&&&&&&&&&&&&&&&&&&&&&&&&& #%%#@$% &&&&&&&&&&&&&&&&&&&&&&&&&&&&&&",
"&&&&&&&&&&&&&&&&&&&&&&&& ##%%@@%% &&&&&&&&&&&&&&&&&&&&&&&&&&&&&&",
"&&&&&&&&&&&&&&&&&&&&&&& %@@%%##%% &&&&&&&&&&&&&&&&&&&&&&&&&&&&&&",
"&&&&&&&&&&&&&&&&&&&&&&& +o@%$#$% &&&&&&&&&&&&&&&&&&&&&&&&&&&&&&&",
"&&&&&&&&&&&&&&&&&&&&&&&  X#%##% &&&&&&&&&&&&&&&&&&&&&&&&&&&&&&&&",
"&&&&&&&&&&&&&&&&&&&&&&   o@%@@% &&&&&&&&&&&&&&&&&&&&&&&&&&&&&&&&",
"&&&&&&&&&&&&&&&&&&&&&& +Oo@%@@  &&&&&&&&&&&&&&&&&&&&&&&&&&&&&&&&",
"&&&&&&&&&&&&&&&&&&&&&& #@o@%## &&&&&&&&&&&&&&&&&&&&&&&&&&&&&&&&&",
"&&&&&&&&&&&&&&&&&&&&& ###O@$#$ &&&&&&&&&&&&&&&&&&&&&&&&&&&&&&&&&",
"&&&&&&&&&&&&&&&&&&&&& ##@O### &&&&&&&&&&&&&&&&&&&&&&&&&&&&&&&&&&",
"&&&&&&&&&&&&&&&&&&&&& ##. @@@ &&&&&&&&&&&&&&&&&&&&&&&&&&&&&&&&&&",
"&&&&&&&&&&&&&&&&&&&& %#@  @@@ &&&&&&&&&&&&&&&&&&&&&&&&&&&&&&&&&&",
"&&&&&&&&&&&&&&&&&&&& %#OX.+## &&&&&&&&&&&&&&&&&&&&&&&&&&&&&&&&&&",
"&&&&&&&&&&&&&&&&&&&& %#OO.o## &&&&&&&&&&&&&&&&&&&&&&&&&&&&&&&&&&",
"&&&&&&&&&&&&&&&&&&&& %#OO  ## &&&&&&&&&&&&&&&&&&&&&&&&&&&&&&&&&&",
"&&&&&&&&&&&&&&&&&&&& %@o+  @@ &&&&&&&&&&&&&&&&&&&&&&&&&&&&&&&&&&",
"&&&&&&&&&&&&&&&&&&&& %@o@@@@@ &&&&&&&&&&&&&&&&&&&&&&&&&&&&&&&&&&",
"&&&&&&&&&&&&&&&&&&&& %#O@@@$$ &&&&&&&&&&&&&&&&&&&&&&&&&&&&&&&&&&",
"&&&&&&&&&&&&&&&&&&&& .#O@@@%%% &&&&&&&&&&&&&&&&&&&&&&&&&&&&&&&&&",
"&&&&&&&&&&&&&&&&&&&&  O.@$@#%% &&&       &&&&&&&&&&&&&&&&&&&&&&&",
"&&&&&&&&&&&&&&&&&&&  #+o#%#@$%    %%%%%%    &&&&&&&&&&&&&&&&&&&&",
"&&&&&&&&&&&&&&&&&&& ##%@@%%$#$%%%%%%%%%%%%%  &&&&&&&&&&&&&&&&&&&",
"&&&&&&&&&&&&&&&&&&& @@%@@%%%$#$#+@@@#@++++XO  &&&&&&&&&&&&&&&&&&",
"&&&&&&&&&&&&&&&&&&& @@%@@%%%%#+++@@@#@++++XO%  &&&&&&&&&&&&&&&&&",
"&&&&&&&&&&&&&&&&&&& ##%@@%%%%$@#         %%%%%  &&&&&&&&&&&&&&&&",
"&&&&&&&&&&&&&&&&&&& @@%##%%%    &&&&&&&&  %%%%%  &&&&&&&&&&&&&&&",
"&&&&&&&&&&&&&&&&&& %@@%@@%  &&&&&&&&&&&&&&  %%%% &&&&&&&&&&&&&&&",
"&&&&&&&&&&&&&&&&&& %##%@.  &&&&&&&&&&&&&&&&  OO% &&&&&&&&&&&&&&&",
"&&&&&&&&&&&&&&&&&& %@@%  o &&&&&&&&&&&&&&&&& ooO  &&&&&&&&&&&&&&",
"&&&&&&&&&&&&&&&&&& %@@ #O@ &&&&&&&&&&&&&&&&&  #oo &&&&&&&&&&&&&&",
"&&&&&&&&&&&&&&&&&& %## @o@ &&&&&&&&&&&&&&&&&& #@@ &&&&&&&&&&&&&&",
"&&&&&&&&&&&&&&&&&& %##%#+# &&&&&&&&&&&&&&&&&& #XX &&&&&&&&&&&&&&",
"&&&&&&&&&&&&&&&&&& %##%%## &&&&&&&&&&&&&&&&&  @OO &&&&&&&&&&&&&&",
"&&&&&&&&&&&&&&&&&& %++%%@@ &&&&&&&&&&&&&&&&& @@%% &&&&&&&&&&&&&&",
"&&&&&&&&&&&&&&&&&&  ++%%@@ &&&&&&&&&&&&&&&& %##% &&&&&&&&&&&&&&&",
"&&&&&&&&&&&&&&&&&&& @@%%# &&&&&&&&&&&&&&&&  %##% &&&&&&&&&&&&&&&",
"&&&&&&&&&&&&&&&&&&& @@%%# &&&&&&&&&&&&&&&  @@+# &&&&&&&&&&&&&&&&",
"&&&&&&&&&&&&&&&&&&& @@%%@ &&&&&&&&&&&&   %#o    &&&&&&&&&&&&&&&&",
"&&&&&&&&&&&&&&&&&&&& @%%@              @%%%@  &&&&&&&&&&&&&&&&&&",
"&&&&&&&&&&&&&&&&&&&& #%%##%%%##%%%%%$@@$%%%%  &&&&&&&&&&&&&&&&&&",
"&&&&&&&&&&&&&&&&&&&&&  $@#%%%++%%%%$++$%%%% &&&&&&&&&&&&&&&&&&&&",
"&&&&&&&&&&&&&&&&&&&&&&  @$%%%@@%%%%@O#     &&&&&&&&&&&&&&&&&&&&&",
"&&&&&&&&&&&&&&&&&&&&&&&&              &&&&&&&&&&&&&&&&&&&&&&&&&&",
"&&&&&&&&&&&&&&&&&&&&&&&&&&&&&&&&&&&&&&&&&&&&&&&&&&&&&&&&&&&&&&&&",
"&&&&&&&&&&&&&&&&&&&&&&&&&&&&&&&&&&&&&&&&&&&&&&&&&&&&&&&&&&&&&&&&",
"&&&&&&&&&&&&&&&&&&&&&&&&&&&&&&&&&&&&&&&&&&&&&&&&&&&&&&&&&&&&&&&&",
"&&&&&&&&&&&&&&&&&&&&&&&&&&&&&&&&&&&&&&&&&&&&&&&&&&&&&&&&&&&&&&&&",
"&&&&&&&&&&&&&&&&&&&&&&&&&&&&&&&&&&&&&&&&&&&&&&&&&&&&&&&&&&&&&&&&"
};
