/* XPM */
static char *result[] = {
/* columns rows colors chars-per-pixel */
"64 64 11 1 ",
"  c black",
". c #060606",
"X c #0E0E0E",
"o c #161616",
"O c #1E1E1E",
"+ c gray15",
"@ c gray18",
"# c gray21",
"$ c #3E3E3E",
"% c #464646",
"& c None",
/* pixels */
"&&&&&&&&&&&&&&&&&&&&&&&&&&&&&&&&&&&&&&&&&&&&&&&&&&&&&&&&&&&&&&&&",
"&&&&&&&&&&&&&&&&&&&&&&&&&&&&&&&&&&&&&&&&&&&&&&&&&&&&&&&&&&&&&&&&",
"&&&&&&&&&&&&&&&&&&&&&&&&&&&&&&&&&&     &&&&&&&&&&&&&&&&&&&&&&&&&",
"&&&&&&&&&&&&&&&&&&&&&&&&&&&&&     +.XoO    &&&&&&&&&&&&&&&&&&&&&",
"&&&&&&&&&&&&&&&&&&&&&&&&&&   %%%$###$%#+@$%   &&&&&&&&&&&&&&&&&&",
"&&&&&&&&&&&&&&&&&&&&&&&&  #@@@@+O@$%%%$@+#%%%   &&&&&&&&&&&&&&&&",
"&&&&&&&&&&&&&&&&&&&&&&  +@#@@@. +@@#@@$#O@%%%OO  &&&&&&&&&&&&&&&",
"&&&&&&&&&&&&&&&&&&&&& %@ .@#$%..%#  @@@#+O$%%@@% &&&&&&&&&&&&&&&",
"&&&&&&&&&&&&&&&&&&&  %%X  @@@$OO%%%% %#@OX@%%##% &&&&&&&&&&&&&&&",
"&&&&&&&&&&&&&&&&&&& %%%o +%$#@.       %$O  $%##%% &&&&&&&&&&&&&&",
"&&&&&&&&&&&&&&&&&&& %%%++%%%%  &&&&&&& %@  #%##%% &&&&&&&&&&&&&&",
"&&&&&&&&&&&&&&&&&&& %%%@@%%%  &&&&&&&&& #+O@%@@%%% &&&&&&&&&&&&&",
"&&&&&&&&&&&&&&&&&&  %%%##%%  &&&&&&&&&&  +oO%@@%%% &&&&&&&&&&&&&",
"&&&&&&&&&&&&&&&&& % .@%@@% &&&&&&&&&&&&&  XX$@@%%% &&&&&&&&&&&&&",
"&&&&&&&&&&&&&&&&& %  O%@@% &&&&&&&&&&&&&& oO#@@o @ &&&&&&&&&&&&&",
"&&&&&&&&&&&&&&&& %%X @$##% &&&&&&&&&&&&&& @@@@@  O &&&&&&&&&&&&&",
"&&&&&&&&&&&&&&&& %%OO@@@@ &&&&&&&&&&&&&&& @@@@@X + &&&&&&&&&&&&&",
"&&&&&&&&&&&&&&&& %%@@#@+@ &&&&&&&&&&&&&&& @####O O &&&&&&&&&&&&&",
"&&&&&&&&&&&&&&&& %%##%#+# &&&&&&&&&&&&&&  #@@@@# X &&&&&&&&&&&&&",
"&&&&&&&&&&&&&&&& %%##%#O@ &&&&&&&&&&&&&& X#++@@@ . &&&&&&&&&&&&&",
"&&&&&&&&&&&&&&&& %%##%$O+ &&&&&&&&&&&&&  +#+@@@@X+ &&&&&&&&&&&&&",
"&&&&&&&&&&&&&&&&& %##%%+. &&&&&&&&&&&&& @@#o+@@@@  &&&&&&&&&&&&&",
"&&&&&&&&&&&&&&&&& %++%%o   &&&&&&&&&&&  @@$O+####  &&&&&&&&&&&&&",
"&&&&&&&&&&&&&&&&& %..@@o    &&&&&&&&&  %++%##@@% & &&&&&&&&&&&&&",
"&&&&&&&&&&&&&&&&& %O  +#o+%  &&&&&&&  %%++%##@@% &&&&&&&&&&&&&&&",
"&&&&&&&&&&&&&&&&& %%oX$%##%%%       .%%%#+#++## &&&&&&&&&&&&&&&&",
"&&&&&&&&&&&&&&&&& %%%$@+XX+XO%OO%%%  %%%%   @@@ &&&&&&&&&&&&&&&&",
"&&&&&&&&&&&&&&&&&  %$@++XX+XO%@@%%%  %%%%X  $@ &&&&&&&&&&&&&&&&&",
"&&&&&&&&&&&&&&&&&  %#@$%@@%%%%##%%%..%%%%%++## &&&&&&&&&&&&&&&&&",
"&&&&&&&&&&&&&&&&&   #$%%@@%%%$oO%%%  %%%%%OO# &&&&&&&&&&&&&&&&&&",
"&&&&&&&&&&&&&&&&& &  %%%##%%%@  %%%  %%%%@o  &&&&&&&&&&&&&&&&&&&",
"&&&&&&&&&&&&&&&&& &&&     %%$+  #$%..%%%%    &&&&&&&&&&&&&&&&&&&",
"&&&&&&&&&&&&&&&&& &&&&&&   #O+XX#$%@@%    && &&&&&&&&&&&&&&&&&&&",
"&&&&&&&&&&&&&&&&&&&&&&&   +O+@+@%%%OO%o.   &&&&&&&&&&&&&&&&&&&&&",
"&&&&&&&&&&&&&&&&&&&&&  %   @%#O@%%%oo%$++$%  &&&&&&&&&&&&&&&&&&&",
"&&&&&&&&&&&&&&&&&&&&& %%X o%%#O@%%%OO%%$@#%@  &&&&&&&&&&&&&&&&&&",
"&&&&&&&&&&&&&&&&&&&& %%%+O$%%#O@%%%##%%%##%++  &&&&&&&&&&&&&&&&&",
"&&&&&&&&&&&&&&&&&&& ##%$@O@%+OXo%%%%%%%%$@#@@%  &&&&&&&&&&&&&&&&",
"&&&&&&&&&&&&&&&&&&  @@%##++%+         %%%@@@@%% &&&&&&&&&&&&&&&&",
"&&&&&&&&&&&&&&&&&& %##%@OO    &&&&&&&& %%@@##%% &&&&&&&&&&&&&&&&",
"&&&&&&&&&&&&&&&&&  %##%@  &&&&&&&&&&&&&   @+@%% &&&&&&&&&&&&&&&&",
"&&&&&&&&&&&&&&&&& @%@@#@  &&&&&&&&&&&&&&& #O@%%% &&&&&&&&&&&&&&&",
"&&&&&&&&&&&&&&&&  +%@@@ & &&&&&&&&&&&&&&& $O+%%% &&&&&&&&&&&&&&&",
"&&&&&&&&&&&&&&&& ##%#+ && &&&&&&&&&&&&&&&  +O$%% &&&&&&&&&&&&&&&",
"&&&&&&&&&&&&&&&& ##$# &&&&&&&&&&&&&&&&&&&  #+#%% &&&&&&&&&&&&&&&",
"&&&&&&&&&&&&&&& %@@#+ &&&&&&&&&&&&&&&&&&&  @o  @ &&&&&&&&&&&&&&&",
"&&&&&&&&&&&&&&& %@@#O &&&&&&&&&&&&&&&&&&       O% &&&&&&&&&&&&&&",
"&&&&&&&&&&&&&&& %##o &&&&&&&&&&&&&&&&&&&&& . @OO% &&&&&&&&&&&&&&",
"&&&&&&&&&&&&&&& %##O &&&&&&&&&&&&&&&&&&&&& %%%+O$ &&&&&&&&&&&&&&",
"&&&&&&&&&&&&&&  %##% &&&&&&&&&&&&&&&&&&&& %%%%#@@ &&&&&&&&&&&&&&",
"&&&&&&&&&&&&&& %%##% &&&&&&&&&&&&&&&&&&&& %%%%@@# &&&&&&&&&&&&&&",
"&&&&&&&&&&&&&& %%@@%% &&&&&&&&&&&&&&&&&& +%$$%@@% &&&&&&&&&&&&&&",
"&&&&&&&&&&&&&& %%oo%% &&&&&&&&&&&&&&&&& +++o#%@@ &&&&&&&&&&&&&&&",
"&&&&&&&&&&&&&& %%  X@%  &&&&&&&&&&&&&  %@@oX$%++  &&&&&&&&&&&&&&",
"&&&&&&&&&&&&&& %%X  O%%%   &&&&&&&&   %%+O@#%%X & &&&&&&&&&&&&&&",
"&&&&&&&&&&&&&&& %#@@+#%%%%%        %%%%%+O$%%% && &&&&&&&&&&&&&&",
"&&&&&&&&&&&&&&& %%%%++%%%%#++ @@@$%%%%%$oO%%% &&& &&&&&&&&&&&&&&",
"&&&&&&&&&&&&&&&  %%%#O@%%$+O  $@@##$%%$#oO%  &&&&&&&&&&&&&&&&&&&",
"&&&&&&&&&&&&&&&   %%%OO%%@+$%%%%%$@#%$#$   &&&&&&&&&&&&&&&&&&&&&",
"&&&&&&&&&&&&&&& &   %ooOX+#%%%%%%%$      &&&&&&&&&&&&&&&&&&&&&&&",
"&&&&&&&&&&&&&&& &&&                &&&&&&&&&&&&&&&&&&&&&&&&&&&&&",
"&&&&&&&&&&&&&&& &&&&&&&&&&&&&&&&&&&&&&&&&&&&&&&&&&&&&&&&&&&&&&&&",
"&&&&&&&&&&&&&&&&&&&&&&&&&&&&&&&&&&&&&&&&&&&&&&&&&&&&&&&&&&&&&&&&",
"&&&&&&&&&&&&&&&&&&&&&&&&&&&&&&&&&&&&&&&&&&&&&&&&&&&&&&&&&&&&&&&&"
};
