/* XPM */
static char *result[] = {
/* columns rows colors chars-per-pixel */
"64 64 4 1 ",
"  c black",
". c #323131",
"X c #595656",
"o c None",
/* pixels */
"oooooooooooooooooooooooooooooooooooooooooooooooooooooooooooooooo",
"oooooooooooooooooooooooooooooooooooooooooooooooooooooooooooooooo",
"oooooooooooooooooooooooooooooooooooooooooooooooooooooooooooooooo",
"oooooooooooooooooooooooooooooooooooooooooooooooooooooooooooooooo",
"oooooooooooooooooooooooooooooooooooooooooooooooooooooooooooooooo",
"oooooooooooooooooooooooooooooooooooooooooooooooooooooooooooooooo",
"oooooooooooooooooooooooooooooooooooooooooooooooooooooooooooooooo",
"oooooooooooooooooooooooooooooooooooooooooooooooooooooooooooooooo",
"oooooooooooooooooooooooooooooooooooooooooooooooooooooooooooooooo",
"oooooooooooooooooooooooooooooooooooooooooooooooooooooooooooooooo",
"ooooooooooooo    ooooooooooooooooooooooooooooooooooo   ooooooooo",
"ooooooooooooo ... ooooooooooooooooooooooooooooooooo  . ooooooooo",
"oooooooooooo .... ooooooooooooooooooooooooooooooooo .. ooooooooo",
"ooooooooooo ..... ooooooooooooooooooooooooooooooooo .. ooooooooo",
"oooooooo  o ..... ooooooooooooooooooooooooooooooooo ..      oooo",
"oooooooo .  .... ooooooooooooooooo       oooooooooo ....... oooo",
"oooooooo ........  oooooooooo     XXXXXXX  ooooooo  ........ ooo",
"oooooooo  ......... ooooooo  XXXXXXXXXXXXXX  ooo  .......... ooo",
"ooooooooo     ......  oo   XXXXXXXXXXXXXXXXXX   .... ....... ooo",
"ooooooooooooo   ......  XXXXXXXXXXXXXXXXXXXXXX ...     ...   ooo",
"ooooooooooooooo  ....  XXXXXXXXXXXXXXXXXXXXXXX .  ooooo    ooooo",
"oooooooooooooooo   . XXXXXXXXXXXXXXXXXXXXXXXXXX oooooooooooooooo",
"oooooooooooooooooo  XXXXXXXXXXXXXXXXXXXXXXXXXXXX ooooooooooooooo",
"oooooooooooooooooo  XXXXXXXXXXXXXXXXXXXXXXXXXXXX ooooooooooooooo",
"oooooooooooooooooo XXXXXXXXXXXXXXXXXXXXXXXXXXXXX  oooooooooooooo",
"o                  XXXXXXX        XXX                          o",
"o                 XXXXX          XXX          XX               o",
"o  oooooooooooooo XXXXX  ooooooo XXX oooooooo XXX ooooooooooo  o",
"o  oooooooooooooo XXXXXX ooooooo XXX oooooooo XX  ooooooooooo  o",
"o  ooooooooooooooo XXXXX oooooo XXXX  oooooo XXX oooooooooooo  o",
"o  ooooooooooooooo XXXXXX ooooo XXXXX oooooo X   oooooooooooo  o",
"o  ooooooooooooooo  XXXXX  oooo XXXXX oooooo   oooooooooooooo  o",
"o  oooooooooooooooo  XXXXX      XXXXXX  oo  X . ooooooooooooo  o",
"o  oooooooooooooooo   XXXXXXXXXXXXXXXXX    XX .. oooooooooooo  o",
"o                   ..   XXXXXXXXXXXXXXXXXXX  ...              o",
"o                 .....    XXXXXXXXXXXXXXXX  .....             o",
"oooooooooooooooo .....  ooo  XXXXXXXXXXXXX  o .....  ooooooooooo",
"oooooooooooooooo ...  oooooo XXXXXXXXXX   oooo .....      oooooo",
"oooooooooo    o ..   oooooooo XXXXXXXXX oooooo  ......... oooooo",
"ooooooooo .... ... oooooooooo XXXXXXXX ooooooooo ........ oooooo",
"ooooooooo ........ oooooooooo XXXXXXXX oooooooooo  ....   oooooo",
"ooooooooo ........ oooooooooo XXXXXXXX  oooooooooo  ... oooooooo",
"ooooooooo ..... .. ooooooooo  XXXXXXXXX ooooooooooo ... oooooooo",
"ooooooooo       .. oooooooo  XXX XXX XXX oooooooooo ... oooooooo",
"ooooooooooooooo  . ooooooo  XXXX XXX XXXX ooooooooo  .  oooooooo",
"oooooooooooooooo  oooooooo XXXXX XXX XXXX  ooooooooo   ooooooooo",
"ooooooooooooooooooooooooo XXXXXX XXX XXXXX  oooooooooooooooooooo",
"ooooooooooooooooooooooooo XX XXX XXX XXX XX oooooooooooooooooooo",
"oooooooooooooooooooooooo  XX XXX XXX XXX XX  ooooooooooooooooooo",
"ooooooooooooooooooooooooo                   oooooooooooooooooooo",
"oooooooooooooooooooooooooooooooooooooooooooooooooooooooooooooooo",
"oooooooooooooooooooooooooooooooooooooooooooooooooooooooooooooooo",
"oooooooooooooooooooooooooooooooooooooooooooooooooooooooooooooooo",
"oooooooooooooooooooooooooooooooooooooooooooooooooooooooooooooooo",
"oooooooooooooooooooooooooooooooooooooooooooooooooooooooooooooooo",
"oooooooooooooooooooooooooooooooooooooooooooooooooooooooooooooooo",
"oooooooooooooooooooooooooooooooooooooooooooooooooooooooooooooooo",
"oooooooooooooooooooooooooooooooooooooooooooooooooooooooooooooooo",
"oooooooooooooooooooooooooooooooooooooooooooooooooooooooooooooooo",
"oooooooooooooooooooooooooooooooooooooooooooooooooooooooooooooooo",
"oooooooooooooooooooooooooooooooooooooooooooooooooooooooooooooooo",
"oooooooooooooooooooooooooooooooooooooooooooooooooooooooooooooooo",
"oooooooooooooooooooooooooooooooooooooooooooooooooooooooooooooooo",
"oooooooooooooooooooooooooooooooooooooooooooooooooooooooooooooooo"
};
