/* XPM */
static char *result[] = {
/* columns rows colors chars-per-pixel */
"64 64 109 2 ",
"   c #000000",
".  c #090200",
"X  c #0B0905",
"o  c #030309",
"O  c #090909",
"+  c #0E0E1B",
"@  c #120D1D",
"#  c #0D1217",
"$  c #11111A",
"%  c #300001",
"&  c #130C21",
"*  c #171324",
"=  c #191425",
"-  c #1C1429",
";  c #2D005A",
":  c #3D0078",
">  c #534C4C",
",  c gray33",
"<  c #A51F2E",
"1  c #8C273B",
"2  c #8B283B",
"3  c #9F2634",
"4  c #9C2934",
"5  c #922538",
"6  c #B0202F",
"7  c #A32635",
"8  c #A92635",
"9  c #A22934",
"0  c #A32639",
"q  c red",
"w  c #FD023C",
"e  c #BF0F41",
"r  c #903645",
"t  c #983143",
"y  c #943D46",
"u  c #973E48",
"i  c #9B3C4A",
"p  c #FF0443",
"a  c #F30B45",
"s  c #DE3E43",
"d  c #E33B43",
"f  c #E93844",
"g  c #E6364B",
"h  c #E93748",
"j  c #E43B48",
"k  c #D04A54",
"l  c #E3424B",
"z  c #E24E4C",
"x  c #E44C50",
"c  c #EA4A51",
"v  c #E9F036",
"b  c #450087",
"n  c #4D0096",
"m  c #5500A5",
"M  c #5D00B4",
"N  c #6500C3",
"B  c #6D00D2",
"V  c #7500E1",
"C  c #7D00F0",
"Z  c #8500FF",
"A  c #8C0FFF",
"S  c #931EFF",
"D  c #9A2DFF",
"F  c #A13CFF",
"G  c #A84BFF",
"H  c #AF5AFF",
"J  c #B669FF",
"K  c #BD78FF",
"L  c #0896D4",
"P  c #0499D6",
"I  c #0696DE",
"U  c #0A99DA",
"Y  c #1A96D1",
"T  c #2ADFEB",
"R  c #3DDFEF",
"E  c #37DEFC",
"W  c #0CE8F8",
"Q  c #2AE7F5",
"!  c #2FE7FB",
"~  c #36E7F0",
"^  c #7ADBE2",
"/  c #6BFFF5",
"(  c #A3A9A7",
")  c #B2B2B2",
"_  c #AEB7CA",
"`  c #D9B9C7",
"'  c #DBBBC9",
"]  c #C487FF",
"[  c #BDC7D8",
"{  c #BFCADC",
"}  c #C1CBDD",
"|  c #CED4DF",
" . c #C2CEE4",
".. c #C6D3E2",
"X. c #CDD8E4",
"o. c #D0D6E4",
"O. c #D5DAE6",
"+. c #DDDFE5",
"@. c #D3DBE9",
"#. c #D9D8E8",
"$. c #E1DEE2",
"%. c #DFE1EE",
"&. c gray88",
"*. c #E0E3ED",
"=. c #FFF7F7",
"-. c #F3F9F5",
";. c #F5F6FA",
":. c #FEF6FC",
">. c #FEFEFE",
/* pixels */
"Z Z Z Z Z Z Z Z Z Z Z Z Z Z Z Z Z Z Z Z Z Z Z Z Z ~ Z ~ Z Z Z Z Z Z Z Z Z Z Z Z Z Z Z Z Z Z Z Z Z Z Z Z Z Z Z Z Z Z Z Z Z Z Z Z ",
"Z Z Z Z Z Z Z Z Z Z Z N m B V Z C B B B B B V V V ~ b ~ ~ Z Z Z Z ~ Z Z Z Z Z Z Z Z Z Z Z Z Z Z Z Z Z Z Z Z Z Z Z Z Z Z Z Z Z Z ",
"Z Z Z ~ Z Z Z Z Z Z Z ~ m B V / / C C B q B V V V ~ ~ ~ ~ Z Z ~ Z ~ Z Z q Z Z Z Z Z Z ~ Z Z Z Z Z Z Z Z C B ~ V V V B B B B C Z ",
"Z Z Z ~ ~ Z Z Z Z Z Z ~ Z Z Z / / Z S q q S ~ Z Z ~ ~ ~ ~ V ~ ~ Z ~ Z Z q q Z Z Z Z Z ~ Z Z Z Z A D S Z A Z ~ Z C V B B B B N B ",
"Z Z Z Z ~ ~ Z Z Z Z Z ~ Z Z Z Z / n ~ q q D ~ D S ~ ~ ~ ~ ~ ~ ~ Z ~ Z Z q q Z Z Z Z Z ~ Z Z Z F G A Z Z S S ~ S S S A Z Z Z M M ",
"Z Z Z V ~ ~ B B N N C ~ Z Z Z Z / M M q q A ~ ~ S ~ ~ / / / / / / ~ ~ ~ q q q Z Z Z Z ~ ~ Z Z G K A V Z Z C ~ C A S S S A Z B B ",
"Z Z V N B ~ ~ B N N C ~ ~ C Z Z / ~ N q q B ~ ~ ~ ~ ~ ~ ~ ~ ~ ~ ~ ~ ~ ~ q q v v S S ~ D / / Z V A D Z / Z Z ~ B C Z A S ~ Z V C ",
"Z Z N N Z ~ Z ~ Z Z Z ~ ~ V Z Z / / ~ q q ~ ~ ~ ~ ~ ~ ~ ~ I ~ ~ ~ ~ ~ ~ q q q v S ~ / / / / Z B B Z / / Z Z ~ V V V V V ~ Z C Z ",
"Z Z B B Z Z ~ Z ~ Z Z ~ ~ C Z Z / / v q q q ~ ~ ~ ~ ~ ~ I I I ~ ~ ~ ~ ~ q q q v ~ ~ Z Z ~ / / / / / / / / Z ~ Z C V V V ~ ~ Z Z ",
"Z Z V V Z Z ~ Z / C V B ~ Z Z ~ / / v q q q I ~ ~ ~ ~ I I I I ~ I ~ v q q q q v Z Z . o ~ o o . o . o O / Z ~ Z Z Z Z Z ~ ~ Z Z ",
"Z Z V V Z Z ~ / V B V C ~ Z Z Z / / v q q q q I ~ I I I I I I I I I v q q q q ~ ~ ~                     Z Z ~ Z Z Z Z Z ~ / Z Z ",
"Z Z V V Z Z ~ / B V Z / ~ Z Z Z / / v v q q q q I I                 q q q q q     O >.>.y u ;.:.i r | | o   ~ ~ Z Z Z Z ~ / ~ Z ",
"Z Z V V Z Z ~ / C Z Z / ~ ~ B V / ~ / v q q q q q q                 q   q q q       >.>.5 3 *.+.9 4 _ _     ~ ~ Z Z Z Z ~ / ~ Z ",
"Z Z C B B V ~ / Z Z V / ~ ~ B / / ~ / v q q q q q q q   o     o o       q q q % o o >.>.7 3 +.$.9 7 ` ' o   Z ~ Z Z Z Z ~ / ~ Z ",
"Z Z Z V B V ~ / Z Z / / ~ ~ Z / / ~ / ~ q q q q         * = = = = -       q q j   = = = 7 7 =.>.0 7 0 0 #.O.    7 9 Z Z ~ / ~ Z ",
"Z ~ Z Z Z Z ~ / / Z / / / ~ ~ / / ~ ~ I I q q         o & & & & @ & o o     k k o $ $ $ 6 < :.=.2 t 0 7 O.%.. o 5 1 Z Z ~ / ~ ~ ",
"Z ~ ~ Z Z Z ~ / / Z / / / Z ~ / / I ~ I         - * } } } } { } } } } }       e ~ ~ ~ ~ d j a w >.=.4 0     &.+.@.O.    ~ / / ~ ",
"Z ~ ~ Z Z Z ~ / / Z / / / Z ~ / / I ~ I         & = ..q } q [ q } { q { . q   d ~ ~ ~ ~ g j p p >.>.3 3 O   &.&.O.O.    ~ / / ~ ",
"Z ~ ~ Z Z Z / / / Z / / / ~ ~ / / I I I         q { } q v q q q q >.q v q q v . ~ ~ / ~     9 3     d d     >.>.>.>.    / / / ~ ",
"Z ~ ~ ~ Z Z / / / Z / Z / ~ / / / I I I       v v q [ q q q q q q q q v q q v   ~ ~ / ~     < 4 o # d s     >.>.;.-.O . / / / ~ ",
"Z ~ ~ ~ C C / / / / ~ ~ / I / ~ / I         - - v q q q q q q q q q q q q q     ~ ~ / ~ ~ ~     ~ Z     .       z z @.o.    / ~ ",
"Z ~ ~ ~ ~ C / / / I ~ I / I / I / I         - - } q q q q q q >.q q q q q q   o ~ I / ~ ~ ~     ~ ~ o . .   . o x c #.o.    / ~ ",
"Z ~ ~ ~ ~ ~ / / I / ~ / I I I I / I         = - } [ q q q q q >.q q q q q q v   I I / ~ ~ ~     / / Z Z 9 9 ~ Z 9 0 @.@.    / ~ ",
"Z ~ Z ~ ~ / / / I / ~ / I ~ I I ~ I         = -  .v v q q q v v q q q q q v v   I I / ~ ~ ~     ~ / ~ Z 8 3 ~ Z 8 9 @.X.    / ~ ",
"Z ~ / ~ ~ / ~ Z I I ~ / I I I I I I         = - } } v v >.=.v >.>.;.>.v v v     I I / I ~ ~     ~ / ~ ~ e Z ~ ~ Z d         / ~ ",
"Z ~ / ~ / / ~ ~ I I I / I / / I I I         = - } } { } >.>.>.>.>.>.>.>.>.>.  o I I / I ~ ~     ~ / ~ ~ ~ ~ ~ / ~ Z         / ~ ",
"Z ~ / ~ ~ / ~ ~ I I I / I / / I             = + O   } { >.>.>.>.>.>.>.>.* *     I I / I ~ ~     ~ / ~ ~ ~ ~ ~ / ~ Z Z ~ h d / ~ ",
"Z ~ / Z ~ / ~ ~ I I I / I / / I             = *     } { >.>.>.>.>.>.>.>.- -   . I I / I I I     ~ / / ~ ~ ~ ~ / ~ Z ~ ~ l f / ~ ",
"Z ~ / / ~ / ~ ~ I I I / I / / I                     { }     >.>.    >.>.    ~ I I I / I I I     I / / ~ ~ I ~ / ~ Z ~ Z   e / ~ ",
"Z ~ / / ~ / ~ I I ~ ~ I I / / I                     { }     >.>.o   >.>.    I I / / / I I I     I / / I ~ I ~ / / Z / /     / ~ ",
"Z ~ / / I ~ ~ I I ~ ~ I I I / I                     o       o               I I / / I I I I     I / / I I I ~ / / ~ / / / ~ / ~ ",
"Z ~ / / I ~ ~ I I ~ I I I I / I                                             I I / I I I I I     I / I / I I ~ / / I ~ / / / / ~ ",
"Z ~ / / I / ~ I I ~ I I I I I I         I I I I I I o                   I I I I / I I I ~ I     ~ / I / I I / I / I ~ ~ / / / Z ",
"Z ~ / I I / ~ I I I I I I I I I         I / I I I I                     I I / I / I I I I I     I / I I / I / I / ~ ~ ~ / / / / ",
"Z ~ / I I ~ / I I ~ I I I I I I     o   I / I I I I O                 I I I / I / I I I I I     I / I I / I / I / ~ ~ ~ / / / / ",
"Z ~ / I I I / I I I I I I I I       I I I / I I                 I I I I I I / I / / I I I Q     I / I I / I / I / I ~ / / / / / ",
"Z ~ / I / I ~ I I I I >.>.>.I . o . I I I / I I o               I I I I I I / I I / I I I I .   I / I I I I / I / I ~ / / / / / ",
"Z ~ / I / I ~ I ~ I I >.>.>.>.I I ~ I I I / X O                         I I / I I I I I I I     I I I I I I / I / / ~ / / / / / ",
"Z ~ / I / I ~ / I I I >.>.>.    I I I I I I o O                         I I I I I I I ~ I I     ~ I I I I I / I I / ~ / / / / / ",
"~ ~ / I / I I / I I I / I             I I I                                     I I I ~ I I >.>.} { I I I / I I I / ~ / / / / Z ",
"~ ~ / I ~ I I / I I I / I I           I I I                                     I I I ~ I I =.>.} { I I I / I I I / ~ / / Z ~ Z ",
"~ ~ ~ I ~ / I I / I I / I I I                                                     X      . .>.>.} } I I I / I I I / I / / C ~ Z ",
"~ ~ ~ ~ I / I ~ / ~ I / I I I I                                                          .[ >.>.} { I I I I I I I I I / / ~ ~ Z ",
"~ ~ ~ ~ I / I I I / I / I I I I I                                               I ~ I I ~ I  .[  .{ I I I I I I I I I ~ / ~ ~ Z ",
"~ ~ ~ ~ I I / I I I / / I I I ~ I / I                                           ~ I I I ~ I  .{ [ { I I I I I I I I I ~ / ~ ~ Z ",
"~ Z ~ ~ I I / I I I / / I I I I I / I I                                         I I I / ! I     I I ~ I I I I I I I I ~ / ~ ~ Z ",
"~ Z ~ ~ I I / I I I / / ~ I ~ I I / I I                                         I I I / I ~     I ~ I I I I I I I / I / ~ ~ ~ Z ",
"~ ~ ~ ~ I I / ~ I I I / I I I I I /                                             I I I / I U o   ~ I I I I I I I I I I / ~ ~ ~ Z ",
"~ ~ ~ ~ I I I / I I I I I I I I I I                                             I I I / I U     I I I I I I I I / I / ~ ~ ~ ~ Z ",
"Z ~ ~ ~ I I I / I I I I I I I I I I                                             I I I / I I     I I I I I I I I / I / ~ ~ ~ ~ Z ",
"Z ~ ~ ~ ~ I I I / I I I I ~ I I I I                                   q q q v   I I I I I I     I I I I I I I I I I / ~ ~ ~ Z Z ",
"Z Z ~ ~ ~ ~ ~ ~ / I I I I E O O O                                 q q q q q     O # I I ~ I     I I I I I I I I I / I ~ Z ~ Z Z ",
"~ Z ~ ~ ~ ~ I I I / I I Q I                                     q q q q q           I I ~ I     I I I I I I I I I / ~ ~ ~ ~ Z Z ",
"~ Z ~ ~ ~ ~ ~ I I / ( I I ^ > ,                               q q q q q q           ) ) I I     I I I I I I I I / / ~ ~ ~ ~ Z Z ",
"Z ~ ~ ~ ~ Z ~ ~ I / I I I E ! I                               q q q q q v               I I   o P I I I ~ I I I / ~ ~ ~ ~ Z Z Z ",
"Z Z ~ ~ N ~ ~ I W / I I I I ~ I o                           q q q q q                 o I I X   Y I I I I I I I / ~ ~ ~ Z Z Z Z ",
"Z Z Z ~ N ~ ~ ~ I I / I I I I I I I                           q q q                     ! ! o   I I I I I I I I ~ ~ ~ b B Z Z Z ",
"Z Z Z ~ ~ ~ ~ ~ I I I I I I I I I I                             q q                 I I R T o   I I I I I ~ I ~ ~ ~ Z B N C Z Z ",
"S S A Z ~ ~ ~ ~             I I                                   q                 I I             I I I I I ~ ~ Z Z Z C N M V ",
"S S D F F D ~ I             U L                                                     P U o           I I I I ~ B B V B B B : ; N ",
"Z Z S F ] J ~ ~ I I           o                                                     o       I I         I ~ C B B V B B m m m V ",
"Z Z Z Z ] ] Z ~ I I                                                                                     ~ ~ Z Z Z Z Z Z d d Z Z ",
"Z Z Z A H G Z Z                                                                                           Z Z Z F J G D d d S S ",
"F G S D D A Z Z Z o                                                                                       Z Z Z F J G D D D S S "
};
