/* XPM */
static char *result[] = {
/* columns rows colors chars-per-pixel */
"64 64 109 2 ",
"   c #000000",
".  c #090200",
"X  c #0B0905",
"o  c #030309",
"O  c #090909",
"+  c #080A10",
"@  c #0E0E1B",
"#  c #120D1D",
"$  c #0D1217",
"%  c #101010",
"&  c #11111A",
"*  c #300001",
"=  c #130C21",
"-  c #171324",
";  c #191425",
":  c #1D1429",
">  c #2D005A",
",  c #3D0078",
"<  c #534C4C",
"1  c gray33",
"2  c #A51F2E",
"3  c #8C273B",
"4  c #9F2634",
"5  c #9C2934",
"6  c #922538",
"7  c #A32635",
"8  c #A92635",
"9  c #A22934",
"0  c #A32639",
"q  c red",
"w  c #FD023C",
"e  c #BF0F41",
"r  c #903645",
"t  c #983143",
"y  c #943D46",
"u  c #9B3C4A",
"i  c #FF0443",
"p  c #F30B45",
"a  c #DE3E43",
"s  c #E33B43",
"d  c #E93844",
"f  c #E6364B",
"g  c #E93748",
"h  c #E43B48",
"j  c #D04A54",
"k  c #E3424B",
"l  c #E24E4C",
"z  c #E44C50",
"x  c #EA4A51",
"c  c #E9F036",
"v  c #450087",
"b  c #5500A5",
"n  c #5D00B4",
"m  c #6500C3",
"M  c #6D00D2",
"N  c #7500E1",
"B  c #7D00F0",
"V  c #8500FF",
"C  c #8C0FFF",
"Z  c #931EFF",
"A  c #9A2DFF",
"S  c #A13CFF",
"D  c #A84BFF",
"F  c #AF5AFF",
"G  c #B669FF",
"H  c #BD78FF",
"J  c #0197D6",
"K  c #0896D4",
"L  c #0499D6",
"P  c #0696DE",
"I  c #0A99DA",
"U  c #1A96D1",
"Y  c #2ADFEB",
"T  c #3DDFEF",
"R  c #37DEFC",
"E  c #0CE8F8",
"W  c #2AE7F5",
"Q  c #2FEAF6",
"!  c #2FE7FB",
"~  c #36E7F0",
"^  c #7ADBE2",
"/  c #6BFFF5",
"(  c #A3A9A7",
")  c #B2B2B2",
"_  c #AEB7CA",
"`  c #B0B6CE",
"'  c #DBBBC9",
"]  c #C487FF",
"[  c #BDC7D8",
"{  c #BECBDC",
"}  c #C1CBDD",
"|  c #CED4DF",
" . c #DFDFDF",
".. c #C2CEE4",
"X. c #C6D3E2",
"o. c #CDD8E4",
"O. c #D0D6E4",
"+. c #D5DAE6",
"@. c #D3DBE9",
"#. c #D9D8E8",
"$. c #E1DEE2",
"%. c #DFE1EE",
"&. c gray88",
"*. c #E0E3ED",
"=. c #FFF7F7",
"-. c #F3F9F5",
";. c #F5F6FA",
":. c #FEF6FC",
">. c #FEFEFE",
/* pixels */
"V V V V V V V V V V V V V V V V V V c c V V V V V ~ V ~ V V V V V V c V V V V V V V V V V V V V V V V V V V V V V V V V V V V V ",
"V V V V V V V V V V V m b M N V B c c c M M N N N ~ v ~ ~ V V V V ~ c c V V V V V V V V V V V V V V V V V V V V V V V V V V V V ",
"V V V ~ V V V V V V V ~ b M N / / c c M q M N N N ~ ~ ~ ~ V V ~ V ~ V c c V V V V V V ~ V V V V V V V V B M ~ N N N M M M M B V ",
"V V V ~ ~ V V V V V V ~ V V V / / c c c q Z ~ V V ~ ~ ~ ~ N ~ ~ V ~ V c c c V V V V V ~ V V V V C A Z V C V ~ V B N M M M M m M ",
"V V V V ~ ~ V V V V V ~ V V V V / c c q q A ~ A Z ~ ~ ~ ~ ~ ~ ~ V ~ V c q c c V V V V ~ V V V S D C V V Z Z ~ Z Z Z C V V V n n ",
"V V V N ~ ~ M M m m B ~ / V V V / n c q q C ~ ~ Z ~ ~ ~ ~ ~ ~ ~ V ~ ~ c q q c V V V V ~ ~ V V D H C N / V B ~ B C Z Z Z C V M M ",
"V V N m M ~ ~ M m m B ~ / B V V / ~ c q q M ~ ~ ~ ~ ~ ~ ~ ~ ~ ~ ~ ~ ~ c q q q A Z Z ~ A ~ V V N C A / / V V ~ M B V C Z ~ V N B ",
"V V m m V ~ V ~ V V V ~ / N V V / / c q q ~ ~ ~ ~ ~ ~ ~ ~ P ~ ~ ~ ~ ~ c q q q ~ A ~ ~ A ~ V V M M / / V / V ~ N N N N N ~ V B V ",
"V V M M V V ~ / ~ V V ~ / B V V / / c c q q ~ ~ ~ ~ ~ ~ P P P ~ ~ ~ ~ c q q q ~ ~ ~ V V ~ / / / / / V V / V ~ V B N N N ~ ~ V V ",
"V V N N V V ~ / ~ B N M / V V ~ / / ~ c q q P ~ ~ ~ ~ P P P P ~ P ~ P q q q q ~ V V . o ~ o . o o   X o V V ~ V V V V V ~ ~ V V ",
"V ~ N N V V ~ / N M N B / V V V / / ~ c q q q P ~ P P P P P P P P P P q q q q ~ ~ ~           o         V V ~ V V / V V ~ ~ V V ",
"V ~ N N V V / / M N V V / / V V / / ~ c q q q q P P                 q q q q q     O >.>.y y ;.>.u r | | o   ~ ~ / / V V ~ ~ ~ V ",
"V ~ ~ N V V / M B V V / ~ / M N / ~ / c q q q q q q                 q   q q q       >.>.4 5 *.$.8 5 ` _     ~ ~ / / V V ~ ~ ~ V ",
"V ~ ~ M M N / N V V N / / ~ M / / ~ / c q q q q q q q     o o     o     q q q * o o ;.>.0 5 $.$.9 4 ' ' o o V ~ / / V V ~ / ~ V ",
"V ~ ~ N M N / ~ V V n / / ~ V / / ~ / ~ q q q q         - ; ; - ; :     c q q h   ; ; ; 8 7 =.>.9 0 9 0 #.+.    9 9 / V ~ / ~ V ",
"V ~ ~ V V V / V V V M / / ~ ~ / / ~ ~ P P q q   c     o = # = - # = o o c   j j o & & & 2 2 :.=.3 t 0 9 +.%.  o 6 3 / V ~ / ~ ~ ",
"V ~ ~ ~ V V / V ~ V V / / V ~ / / P ~ P       c c - } c c } } { } c c } c c . e ~ ~ ~ ~ s h p w >.:.4 0 o    . .@.+.    ~ / / ~ ",
"V ~ ~ ~ V V / V ~ V / / / V ~ / / P ~ P       c = ; X.q c q [ q c c c {   q c s ~ ~ ~ ~ f h i i >.>.4 5 O    .&.+.+.    ~ / / ~ ",
"V ~ ~ ~ V V / V ~ V / V / ~ ~ / / P P P       c q { } q c q q q q c q c q q c c ~ ~ / ~     5 9     d s     >.>.>.>.    ~ / / ~ ",
"V ~ ~ ~ ~ V / V ~ / / V / ~ / / / P P P       c c q [ q q q q q q q q c q q c   ~ ~ / ~     2 4   $ s a     >.>.;.-.o X V V / ~ ",
"V ~ ~ V ~ / ~ / ~ V / ~ / ~ / ~ / P         ; : c q q q q q q q q q q q q q     ~ ~ / ~ ~ ~     ~ V     .       l l @.O.    / / ",
"V ~ ~ V B ~ ~ / ~ / ~ P / ~ / P / P         : : } q q q q q q c q q q q q q   o ~ P P ~ ~ ~     ~ ~ . o       O z x @.O.    / ~ ",
"V ~ ~ ~ V ~ ~ / / / ~ / / ~ / P / P         ; : } [ q q q q q c q q q q q q c   P P P ~ ~ ~     / / / / 8 9 ~ V 9 8 +.@.    / ~ ",
"V ~ V ~ ~ / ~ V / ~ P / / ~ / P ~ P         ; : ..c c q q q c c q q q q q c c   P P P ~ ~ ~     ~ / / / 8 9 ~ V 8 4 @.o.    / / ",
"V ~ / ~ ~ / ~ V ~ P P / / P / P P P         ; : } } c c >.=.c c c c >.c c c     P P P P ~ ~     ~ / ~ / e V / / V d         / / ",
"V ~ / / ~ / ~ ~ ~ P P / P / / P P P         ; : } } } { >.>.>.>.>.>.>.>.>.>.  o P P P P ~ ~     ~ / ~ ~ ~ ~ ~ / ~ /         / / ",
"V ~ / / ~ / ~ ~ ~ P P / P / / P             ; @ O   } { >.>.>.>.>.>.>.>.- -     P P P P ~ ~     ~ / ~ ~ ~ ~ ~ / / / / ~ g d / ~ ",
"V ~ / / ~ / ~ ~ ~ P P / P / / P             ; -     } { >.>.>.>.>.>.>.>.: :   . P P P P P P     ~ / / ~ ~ ~ ~ / / / ~ ~ k d / ~ ",
"V ~ / / ~ / ~ ~ P ~ P / P / / P                     { }     >.>.    >.>.o   ~ P P P P P P P     P / / ~ ~ P ~ / / / ~ V   e / ~ ",
"V ~ / / ~ / ~ P P P ~ / P / / P                     [ }     >.>.o   >.>.    P P / / P P P P     P / / P ~ P ~ / / / ~ /     / ~ ",
"V ~ V / / ~ ~ P ~ ~ P ~ P / / P                     o o                     P P / / P P P P     P / / P P P ~ / / ~ ~ / / / / ~ ",
"V ~ B / / P ~ P ~ ~ P P P P / P                                             P P / P P P P P     P / P / P P ~ / / P ~ ~ / / V ~ ",
"V ~ / / ~ P P P P ~ P P P P P P         P P P P P P o                   P P P P / P P P ~ P     ~ / P / P P / P / P ~ ~ ~ / ~ V ",
"V ~ / / ~ P P P P P P P P P P P         P / P P P P                     P P / P / P P P P P     P / P P / P / P P P ~ ~ ~ / ~ V ",
"/ ~ / / ~ P P P P ~ P P P P P P     o   P / P P P P O                 P P P / P / P P P P P     P / P P / P / P P P ~ ~ / / ~ V ",
"/ ~ / ~ P P / P P P P P P P P       P P P / P P                 P P P P P P / P / / P P P W     P / P P / P / P P P ~ ~ / / ~ V ",
"/ ~ / ~ P P ~ P P P P >.>.>.P . o . P P P / P P o               P P P P P P / P P / P P P P .   P / P P P P / P P P ~ ~ / / ~ V ",
"/ / / ~ P P ~ P ~ P P >.>.>.>.P P ~ P P P / X O                         P P / P P P P P P P o   P P P P P P / P P P P ~ / / ~ V ",
"/ / / ~ P ~ ~ P P P P >.>.>.    P P P P P P o O                         P P P P P P P ~ P P     ~ P P P P P P P P / P ~ / / ~ V ",
"/ / / ~ P ~ P P P P P / P             P P P                                     P P P ~ P P >.>.} { P P P P P P P / P ~ / / ~ V ",
"/ / / ~ P P P P P P P / P P           P P P                                     P P P ~ P P >.>.} { P P P P P P P / P ~ / / ~ V ",
"/ / ~ ~ P P P P / P P / P P P o                                                   X     ..} >.>.} } P P P P P P P / P ~ ~ / ~ V ",
"/ ~ ~ ~ P / P P / ~ P / P P P P                                                         ..{ >.>.} { P P P P P P P / P P ~ ~ ~ V ",
"/ ~ ~ P P / P P P / P / P P P P P                                               P ~ P P ~ P } { } { P P P P P P P / / P ~ ~ ~ V ",
"~ ~ ~ P P P / P P P / / P P P ~ P / P                                           ~ P P P ~ P } { ..{ P P P P P P P / / P ~ ~ ~ V ",
"~ V ~ P P P / P P P / / P P P P P / P P                                         P P P / ! P     P P ~ P P P P P P / P P ~ ~ ~ V ",
"~ V ~ P P P / P P P / / ~ P ~ P P / P P                                         P P P / P ~ o   P ~ P P P P P P P / P P ~ ~ ~ V ",
"~ ~ ~ P P P / P P P P / P P P P P /                                             P P P / P I o   ~ P P P P P P P P P P P ~ ~ ~ V ",
"~ ~ ~ P P P P P P P P P P P P P P P                                             P P P / P L o   P P P P P P P P P P P ~ ~ ~ ~ V ",
"V ~ ~ P ~ P P P P P P P P P P P P P                                             P P P / P P     P P P P P P P P P P / ~ ~ ~ ~ V ",
"V ~ ~ ~ ~ P P P / P P P P ~ P P P P                                 c q q q     P P P P P P     P P P P P P P P / P / ~ ~ ~ V V ",
"V V ~ ~ ~ ~ ~ ~ / P P P P R + X O                                 q q q q q     O % P P ~ P     P P P P P P P P P P P ~ V ~ V V ",
"~ V ~ ~ ~ ~ P P P / P P W P                                     q q q q q c         P P ~ P     P P P P P P P P P / ~ ~ ~ ~ V V ",
"~ V ~ ~ ~ ~ ~ P P / ( P P ^ < 1                               q q q q q c c       o ) ) P P     P P P P P P P P / / ~ ~ ~ ~ V V ",
"V ~ ~ ~ ~ V ~ ~ P / P P P W ~ P                               q q q q q c               P P   + J P P P ~ P P P / ~ ~ ~ ~ V V V ",
"V V ~ ~ m ~ ~ P E / P P P P R P o                           q q q q q                 . P P     U P P P P P P P / ~ ~ ~ V V V V ",
"V V V ~ m ~ ~ ~ P P / P P P P P P P                           q q q                     ! Q     P P P P P P P P ~ ~ ~ v M V V V ",
"V V V ~ ~ ~ ~ ~ P P P P P P P P P P                             q q                 P P T Y o   P P P P P ~ P ~ ~ ~ V M m B V V ",
"Z Z C V ~ ~ ~ ~ o           P P                                   q                 P P o           P P P P P ~ ~ V V V B m n N ",
"Z Z A S S A ~ P             I K o                                                   J I o           P P P P ~ M M N M M M , > m ",
"V V Z S ] G ~ ~ P P           o                                                     o o     P P         P ~ B M M N M M b b b N ",
"V V V V ] ] V ~ P P                                                                                     ~ ~ V V V V V V d s V V ",
"V V V C F D V V                                                                                           V V V S G D A s s A C ",
"S D Z A A C V V V o                                                                                       V V V S G D A A A C A "
};
