/* XPM */
static char *result[] = {
/* columns rows colors chars-per-pixel */
"64 64 11 1 ",
"  c black",
". c #060606",
"X c #0E0E0E",
"o c #161616",
"O c #1E1E1E",
"+ c gray15",
"@ c gray18",
"# c gray21",
"$ c #3E3E3E",
"% c #464646",
"& c None",
/* pixels */
"&&&&&&&&&&&&&&&&&&&&&&&&&&&&&&&&&&&&&&&&&&&&&&&&&&&&&&&&&&&&&&&&",
"&&&&&&&&&&&&&&&&&&&&&&&&&&&&&&&&&&&&&&&&&&&&&&&&&&&&&&&&&&&&&&&&",
"&&&&&&&&&&&&&&&&&&&&&&&&&&&&&&&&&&&&&&&&&&&&&&&&&&&&&&&&&&&&&&&&",
"&&&&&&&&&&&&&&&&&&&&&&&&&&&&&&&&&&&&&&&&&&&&&&&&&&&&&&&&&&&&&&&&",
"&&&&&&&&&&&&&&&&&&&&&&&&&&&&&&&&&&&&&&&&&&&&&&&&&&&&&&&&&&&&&&&&",
"&&&&&&&&&&&&&&&&&&&&&&&&&&&&&&&&&&&&&&&&&&&&&&&&&&&&&&&&&&&&&&&&",
"&&&&&&&&&&&&&&&&&&&&&&&&&&&&&&        &&&&&&&&&&&&&&&&&&&&&&&&&&",
"&&&&&&&&&&&&&&&&&&&&&&&&&&&   %%%%%%%   &&&&&&&&&&&&&&&&&&&&&&&&",
"&&&&&&&&&&&&&&&&&&&&&&&&&   .@@%%%%%%@@  &&&&&&&&&&&&&&&&&&&&&&&",
"&&&&&&&&&&&&&&&&&&&&&&&& $+ .XX%%%%%%++% &&&&&&&&&&&&&&&&&&&&&&&",
"&&&&&&&&&&&&&&&&&&&&&&  %##%%  %%%%%%##%% &&&&&&&&&&&&&&&&&&&&&&",
"&&&&&&&&&&&&&&&&&&&&&  o%##%%  +o@$%%@@%% &&&&&&&&&&&&&&&&&&&&&&",
"&&&&&&&&&&&&&&&&&&&&  ..$#$%%+++o@#@#OO%%% &&&&&&&&&&&&&&&&&&&&&",
"&&&&&&&&&&&&&&&&&&&& %@@##%%%XX%%%$@@oO%%% &&&&&&&&&&&&&&&&&&&&&",
"&&&&&&&&&&&&&&&&&&&& @#+@$%%%OO%%%%%$oO%%%% &&&&&&&&&&&&&&&&&&&&",
"&&&&&&&&&&&&&&&&&&& OO@o@%%%%%%%%%%%%. $%%% &&&&&&&&&&&&&&&&&&&&",
"&&&&&&&&&&&&&&&&&&& @@          %%%%%OX#%%% &&&&&&&&&&&&&&&&&&&&",
"&&&&&&&&&&&&&&&&&& %@@X  &&&&&&  %%%%%$#$%%% &&&&&&&&&&&&&&&&&&&",
"&&&&&&&&&&&&&&&&&  %@@% &&&&&&&& %%%%%%$#$@@ &&&&&&&&&&&&&&&&&&&",
"&&&&&&&&&&&&&&&&&  %@@% &&&&&&&&& ++%%%%@@OO &&&&&&&&&&&&&&&&&&&",
"&&&&&&&&&&&&&&&&&  %@@ &&&&&&&&&&  X%%%%#@O+  &&&&&&&&&&&&&&&&&&",
"&&&&&&&&&&&&&&&&&&& @@ &&&&&&&&&&& O%%%%%@o@% &&&&&&&&&&&&&&&&&&",
"&&&&&&&&&&&&&&&&&&& OO &&&&&&&&&&& O%%%%%@o@% &&&&&&&&&&&&&&&&&&",
"&&&&&&&&&&&&&&&&&&& @  &&&&&&&&&&& O%%%%%#O@% &&&&&&&&&&&&&&&&&&",
"&&&&&&&&&&&&&&&&&&&   &&&&&&&&&&&& O@%%%%$oO% &&&&&&&&&&&&&&&&&&",
"&&&&&&&&&&&&&&&&&&&&  &&&&&&&&&&&& @o+$%%%Oo$ &&&&&&&&&&&&&&&&&&",
"&&&&&&&&&&&&&&&&&&&&  &&&&&&&&&&&& %@o@%$$@O# &&&&&&&&&&&&&&&&&&",
"&&&&&&&&&&&&&&&&&&&&  &&&&&&&&&&&& %%OO%##@+# &&&&&&&&&&&&&&&&&&",
"&&&&&&&&&&&&&&&&&&&&&&&&&&&&&&&&&& %%@+$@@### &&&&&&&&&&&&&&&&&&",
"&&&&&&&&&&&&&&&&&&&&&&&&&&&&&&&&&& %%%@O+###$ &&&&&&&&&&&&&&&&&&",
"&&&&&&&&&&&&&&&&&&&&&&&&&&&&&&&&&& %$@XX#%@@% &&&&&&&&&&&&&&&&&&",
"&&&&&&&&&&&&&&&&&&&&&&&&&&&&&&&&&& $@+o+%%++% &&&&&&&&&&&&&&&&&&",
"&&&&&&&&&&&&&&&&&&&&&&&&&&&&&&&&&& #@$##%%@@% &&&&&&&&&&&&&&&&&&",
"&&&&&&&&&&&&&&&&&&&&&&&&&&&&&&&&&& O$%##%%##% &&&&&&&&&&&&&&&&&&",
"&&&&&&&&&&&&&&&&&&&&&&&&&&&&&&&&&& +%%@@%%$@ &&&&&&&&&&&&&&&&&&&",
"&&&&&&&&&&&&&&&&&&&&&&&&&&&&&&&&& %%%%@@%%%# &&&&&&&&&&&&&&&&&&&",
"&&&&&&&&&&&&&&&&&&&&&&&&&&&&&&&&& %%%%@@%%%  &&&&&&&&&&&&&&&&&&&",
"&&&&&&&&&&&&&&&&&&&&&&&&&&&&&&&&& %%%%@@%%% &&&&&&&&&&&&&&&&&&&&",
"&&&&&&&&&&&&&&&&&&&&&&&&&&&&&&&& %%%%%$$%%  &&&&&&&&&&&&&&&&&&&&",
"&&&&&&&&&&&&&&&&&&&&&&&&&&&&&&&& %%++%%%% &&&&&&&&&&&&&&&&&&&&&&",
"&&&&&&&&&&&&&&&&&&&&&&&&&&&&&&& %%%XX%%  &&&&&&&&&&&&&&&&&&&&&&&",
"&&&&&&&&&&&&&&&&&&&&&&&&&&&&&&& %%$oO%  &&&&&&&&&&&&&&&&&&&&&&&&",
"&&&&&&&&&&&&&&&&&&&&&&&&&&&&&& %%$#@#  &&&&&&&&&&&&&&&&&&&&&&&&&",
"&&&&&&&&&&&&&&&&&&&&&&&&&&&&&& %$#$%  &&&&&&&&&&&&&&&&&&&&&&&&&&",
"&&&&&&&&&&&&&&&&&&&&&&&&&&&&&  #@$%  &&&&&&&&&&&&&&&&&&&&&&&&&&&",
"&&&&&&&&&&&&&&&&&&&&&&&&&&&&& $@#%  &&&&&&&&&&&&&&&&&&&&&&&&&&&&",
"&&&&&&&&&&&&&&&&&&&&&&&&&&&& %##%  &&&&&&&&&&&&&&&&& &&&&&&&&&&&",
"&&&&&&&&&&&&&&&&&&&&&&&&&&&& #@$% &&&&&&&&&&&&&&&&&& &&&&&&&&&&&",
"&&&&&&&&&&&&&&&&&&&&&&&&&&& $@#%  &&&&&&&&&&&&&&&&&& &&&&&&&&&&&",
"&&&&&&&&&&&&&&&&&&&&&&&&&& %##   &&&&&&&&&&&&&&&&&& % &&&&&&&&&&",
"&&&&&&&&&&&&&&&&&&&&&&&&& %%## &&&&&&&&&&&&&&&&&&&  % &&&&&&&&&&",
"&&&&&&&&&&&&    &&&&&&&& %%%#  &&&&&&&&&&&&&&&&&&  %% &&&&&&&&&&",
"&&&&&&&&&&&&  %%   &&&  %%%%@ &&&&&&&&&&&&&       O%% &&&&&&&&&&",
"&&&&&&&&&&&&& ..%%      %%%%@  &&&&&&&&    %%%%%# X%% &&&&&&&&&&",
"&&&&&&&&&&&&&   %%%%@Xo# %  $$         %%%%%%%%%+X@%% &&&&&&&&&&",
"&&&&&&&&&&&&&   %%%%@Xo@@@  %%%%%%%%@+##$%%%%%%$@#%%% &&&&&&&&&&",
"&&&&&&&&&&&&& O O%%%%%%$@o X$%%%%%%%@+####@XX#%@@%%%% &&&&&&&&&&",
"&&&&&&&&&&&&& %Oo@+oX@%%%+  O#@@$%%%%%%%$#@X   o#%%%  &&&&&&&&&&",
"&&&&&&&&&&&&& %%$@+oX@%%%$+o+#@@@OoX+%%%%%%%@  +    &&&&&&&&&&&&",
"&&&&&&&&&&&&&                %%%#OoX+%%%%%       &&&&&&&&&&&&&&&",
"&&&&&&&&&&&&&&&&&&&&&&&&&&&&&             &&&&&&&&&&&&&&&&&&&&&&",
"&&&&&&&&&&&&&&&&&&&&&&&&&&&&&&&&&&&&&&&&&&&&&&&&&&&&&&&&&&&&&&&&",
"&&&&&&&&&&&&&&&&&&&&&&&&&&&&&&&&&&&&&&&&&&&&&&&&&&&&&&&&&&&&&&&&",
"&&&&&&&&&&&&&&&&&&&&&&&&&&&&&&&&&&&&&&&&&&&&&&&&&&&&&&&&&&&&&&&&"
};
