/* XPM */
static char *result[] = {
/* columns rows colors chars-per-pixel */
"64 64 11 1 ",
"  c black",
". c #060606",
"X c #0E0E0E",
"o c #161616",
"O c #1E1E1E",
"+ c gray15",
"@ c gray18",
"# c gray21",
"$ c #3E3E3E",
"% c #464646",
"& c None",
/* pixels */
"&&&&&&&&&&&&&&&&&&&&&&&&&&&&&&&&&&&&&&&&&&&&&&&&&&&&&&&&&&&&&&&&",
"&&&&&&&&&&&&&&&&&&&&&&&&&&&&&&&&&&&&&&&&&&&&&&&&&&&&&&&&&&&&&&&&",
"&&&&&&&&&&&&&&&&&&&&&&&&&&&&&&&&&&&&&&&&&&&&&&&&&&&&&&&&&&&&&&&&",
"&&&&&&&&&&&&&&&&&&&&&&&&&&&&&&&&&&&&&&&&&&&&&&&&&&&&&&&&&&&&&&&&",
"&&&&&&&&&&&&&&&&&&&&&&&&&&&&&&&&&&&&&&&&&&&&&&&&&&&&&&&&&&&&&&&&",
"&&&&&&&&&&&&&&&&&&&&&&&&&&&&&&         &&&&&&&&&&&&&&&&&&&&&&&&&",
"&&&&&&&&&&&&&&&&&&&&&&&&&&&   %%%$@#%%%  &&&&&&&&&&&&&&&&&&&&&&&",
"&&&&&&&&&&&&&&&&&&&&&&&&&  %$#@#%%##%%%%%  &&&&&&&&&&&&&&&&&&&&&",
"&&&&&&&&&&&&&&&&&&&&&&&& %$@@#O. O@@%%%%@@% &&&&&&&&&&&&&&&&&&&&",
"&&&&&&&&&&&&&&&&&&&&&&& $##@#$+X .X.@%%%OO@@  &&&&&&&&&&&&&&&&&&",
"&&&&&&&&&&&&&&&&&&&&&& #@#$%#@#$$o.oO#%%@@oo%  &&&&&&&&&&&&&&&&&",
"&&&&&&&&&&&&&&&&&&&&& %@@%%$@#%%%OX#@OXO##OO%%% &&&&&&&&&&&&&&&&",
"&&&&&&&&&&&&&&&&&&&& $##$$##$%%%%+X+#O  @@@@%%+ &&&&&&&&&&&&&&&&",
"&&&&&&&&&&&&&&&&&&&& +O$#+@$%%%%%#++@+ .O@##%%O. &&&&&&&&&&&&&&&",
"&&&&&&&&&&&&&&&&&&& %+.XO@$%%%%%%%$#@+o .++OOXo. &&&&&&&&&&&&&&&",
"&&&&&&&&&&&&&&&&&& %%$OX@          %$+X  ++OO  . &&&&&&&&&&&&&&&",
"&&&&&&&&&&&&&&&&& %%%%    ++++++++  $+.  O@@%o X &&&&&&&&&&&&&&&",
"&&&&&&&&&&&&&&&&& %          ++++++ +++O .@@%o o &&&&&&&&&&&&&&&",
"&&&&&&&&&&&&&&&&&     &&&&&&   ++++. #%$X O#%. o &&&&&&&&&&&&&&&",
"&&&&&&&&&&&&&&&&   &&&&&&&&&&& +..+   %%O  O%O +% &&&&&&&&&&&&&&",
"&&&&&&&&&&&&&&&& &&&&&&&&&&&&&&   +XX %%o.  %$+@% &&&&&&&&&&&&&&",
"&&&&&&&&&&&&&&&&&&&&&&&&&&&&&&&   +oo %%OO..%%@@ &&&&&&&&&&&&&&&",
"&&&&&&&&&&&&&&&&&&&&&&&&&&&&&&&& .+oo %%OO++%%@@ &&&&&&&&&&&&&&&",
"&&&&&&&&&&&&&&&&&&&&&&&&&&&&&&&& .+Oo %%oo@@%%@@ &&&&&&&&&&&&&&&",
"&&&&&&&&&&&&&&&&&&&&&&&&&&&&&&&& .++o %%XX##%%# &&&&&&&&&&&&&&&&",
"&&&&&&&&&&&&&&&&&&&&&&&&&&&&&&&& o++O #%OO++%% &&&&&&&&&&&&&&&&&",
"&&&&&&&&&&&&&&&&&&&&&&&&&&&&&&&&& ++  @%++@@% &&&&&&&&&&&&&&&&&&",
"&&&&&&&&&&&&&&&&&&&&&&&&&&&&&&&&& ++ ##%@@%%% &&&&&&&&&&&&&&&&&&",
"&&&&&&&&&&&&&&&&&&&&&&&&&&&&&&&&& ++ $#$%%%% &&&&&&&&&&&&&&&&&&&",
"&&&&&&&&&&&&&&&&&&&&&&&&&&&&&&&&& + %%$$%%% &&&&&&&&&&&&&&&&&&&&",
"&&&&&&&&&&&&&&&&&&&&&&&&&&&&&&&&& + %%%%%  &&&&&&&&&&&&&&&&&&&&&",
"&&&&&&&&&&&&&&&&&&&&&&&&&&&&&&&&&   %%%  &&&&&&&&&&&&&&&&&&&&&&&",
"&&&&&&&&&&&&&&&&&&&&&&&&&&&&&&&&   &         &&&&&&&&&&&&&&&&&&&",
"&&&&&&&&&&&&&&&&&&&&&&&&&&&&&&&&      %%%%%%%  &&&&&&&&&&&&&&&&&",
"&&&&&&&&&&&&&&&&&&&&&&&&&&&&&&&&      %%%%%%%@@ &&&&&&&&&&&&&&&&",
"&&&&&&&&&&&&&&&&&&&&&&&&&&&&&&&&&   +   %@@%%##% &&&&&&&&&&&&&&&",
"&&&&&&&&&&&&&&&&&&&&&&&&&&&&&&&&& +++++ %OO%%@@%% &&&&&&&&&&&&&&",
"&&&&&&&&&&&&&&&&&&&&&&&&&&&&&&&&&  ++++ %@@%%@@%% &&&&&&&&&&&&&&",
"&&&&&&&&&&&&&&&&&&&&&&&&&&&&&&&&&& +++++ ##%%##%% &&&&&&&&&&&&&&",
"&&&&&&&&&&&&&&&&&&&&&&&&&&&&&&&&&& +++++ ##%%@@%% &&&&&&&&&&&&&&",
"&&&&&&&&&&&&&&&&&&&&&&&&&&&&&&&&&& ..+++ ##%%@@%% &&&&&&&&&&&&&&",
"&&&&&&&&&&&&&&&&&&&&&&&&&&&&&&&&&&   +++ @@%%##%% &&&&&&&&&&&&&&",
"&&&&&&&&&&&&&&&&&&&&&&&&&&&&&&&&&& oo+++ @@%%##%% &&&&&&&&&&&&&&",
"&&&&&&&&&&&&&&&&&&&&&&&&&&&&&&&&&& oo+++ ##%%@@%% &&&&&&&&&&&&&&",
"&&&&&&&&&&&&&&&&&&&&&&&&&&&&&&&&&& oo+++ ##%@o@%% &&&&&&&&&&&&&&",
"&&&&&&&&&&&&&&&&&&&&&&&&&&&&&&&&&& XX+++ ##$Oo#%% &&&&&&&&&&&&&&",
"&&&&&&&&& &&&&&&&&&&&&&&&&&&&&&&& +XX+++ ###@@#%% &&&&&&&&&&&&&&",
"&&&&&&&&&  &&&&&&&&&&&&&&&&&&&&&& +..+++ ##@@##% &&&&&&&&&&&&&&&",
"&&&&&&&&&& &&&&&&&&&&&&&&&&&&&&& ++XX++ %#@@###% &&&&&&&&&&&&&&&",
"&&&&&&&&&&  &&&&&&&&&&&&&&&&&&&  ++++++ %+o#%@@ &&&&&&&&&&&&&&&&",
"&&&&&&&&&& # &&&&&&&&&&&&&&&&&  +++++  %%X.$%OO &&&&&&&&&&&&&&&&",
"&&&&&&&&&&    &&&&&&&&&&&&&&   ++++   %%%  %%@ &&&&&&&&&&&&&&&&&",
"&&&&&&&&&& XX  &&&&&&&&&&   &&     %%%+o#..%%  &&&&&&&&&&&&&&&&&",
"&&&&&&&&&& %@+$               %%%%%%%%+ .%%% &&&&&&&&&&&&&&&&&&&",
"&&&&&&&&&&  $@#%%%%%%%%%%%%%%%%%@O#%%%%o @%  &&&&&&&&&&&&&&&&&&&",
"&&&&&&&&&&&  $@#%%%%%%%%#+++#%%#OO#%%%%%oo &&&&&&&&&&&&&&&&&&&&&",
"&&&&&&&&&&& & @+$%%%%#OO+++OO++O@%%%%%%%@ &&&&&&&&&&&&&&&&&&&&&&",
"&&&&&&&&&&& &&  @$%%#+OO#%%$@++@$%%%%    &&&&&&&&&&&&&&&&&&&&&&&",
"&&&&&&&&&&&&&&&  O@#@#%%%%%%%        &&&&&&&&&&&&&&&&&&&&&&&&&&&",
"&&&&&&&&&&&&&&&& oX+         &&&&&&&&&&&&&&&&&&&&&&&&&&&&&&&&&&&",
"&&&&&&&&&&&&&&&&&   &&&&&&&&&&&&&&&&&&&&&&&&&&&&&&&&&&&&&&&&&&&&",
"&&&&&&&&&&&&&&&&&&&&&&&&&&&&&&&&&&&&&&&&&&&&&&&&&&&&&&&&&&&&&&&&",
"&&&&&&&&&&&&&&&&&&&&&&&&&&&&&&&&&&&&&&&&&&&&&&&&&&&&&&&&&&&&&&&&",
"&&&&&&&&&&&&&&&&&&&&&&&&&&&&&&&&&&&&&&&&&&&&&&&&&&&&&&&&&&&&&&&&"
};
