/* XPM */
static char *result[] = {
/* columns rows colors chars-per-pixel */
"64 64 11 1 ",
"  c black",
". c #060606",
"X c #0E0E0E",
"o c #161616",
"O c #1E1E1E",
"+ c gray15",
"@ c gray18",
"# c gray21",
"$ c #3E3E3E",
"% c #464646",
"& c None",
/* pixels */
"&&&&&&&&&&&&&&&&&&&&&&&&&&&&&&&&&&&&&&&&&&&&&&&&&&&&&&&&&&&&&&&&",
"&&&&&&&&&&&&&&&&&&&&&&&&&&&&&&&&&&&&&&&&&&&&&&&&&&&&&&&&&&&&&&&&",
"&&&&&&&&&&&&&&&&&&&&&&&&&&&&&&&&&&&&&&&&&&&&&&&&&&&&&&&&&&&&&&&&",
"&&&&&&&&&&&&&&&&&&&&&&&&&&&&&&&&&&&&&&&&&&&&&&&&&&&&&&&&&&&&&&&&",
"&&&&&&&&&&&&&&&&&&&&&&&&&&&&& &&&&&&&&      &&&&&&&&&&&&&&&&&&&&",
"&&&&&&&&&&&&&&&&&&&&&&&&&&&&&         %%$$%  &&&&&&&&&&&&&&&&&&&",
"&&&&&&&&&&&&&&&&&&&&&&&&&&&& +#%%%%%%%%%@@%  &&&&&&&&&&&&&&&&&&&",
"&&&&&&&&&&&&&&&&&&&&&&&&&&&& +#%%OO%%%%%@@% &&&&&&&&&&&&&&&&&&&&",
"&&&&&&&&&&&&&&&&&&&&&&&&&&&& +#$%XX%%%%%@@% &&&&&&&&&&&&&&&&&&&&",
"&&&&&&&&&&&&&&&&&&&&&&&&&&& @@##%++%%%%%@@% &&&&&&&&&&&&&&&&&&&&",
"&&&&&&&&&&&&&&&&&&&&&&&&&&& ##@@%@@%%@@%@@% &&&&&&&&&&&&&&&&&&&&",
"&&&&&&&&&&&&&&&&&&&&&&&&&& #@$++%##%%++%@@ &&&&&&&&&&&&&&&&&&&&&",
"&&&&&&&&&&&&&&&&&&&&&&&&&& @@%@@%@@%%@@%## &&&&&&&&&&&&&&&&&&&&&",
"&&&&&&&&&&&&&&&&&&&&&&&&& %##%++%@@%%@@%@@ &&&&&&&&&&&&&&&&&&&&&",
"&&&&&&&&&&&&&&&&&&&&&&&&& #@$%OO%##%%@@%@@ &&&&&&&&&&&&&&&&&&&&&",
"&&&&&&&&&&&&&&&&&&&&&&&&& @@%%##%# %%@@$#$ &&&&&&&&&&&&&&&&&&&&&",
"&&&&&&&&&&&&&&&&&&&&&&&& $#$%%%%   %%@@@@% &&&&&&&&&&&&&&&&&&&&&",
"&&&&&&&&&&&&&&&&&&&&&&&& @#%%%%  & %%@@@@% &&&&&&&&&&&&&&&&&&&&&",
"&&&&&&&&&&&&&&&&&&&&&&& #@$%%%  && #%##@@ &&&&&&&&&&&&&&&&&&&&&&",
"&&&&&&&&&&&&&&&&&&&&&& $#$%%%  &&& @%@@@@ &&&&&&&&&&&&&&&&&&&&&&",
"&&&&&&&&&&&&&&&&&&&&& %##%%%  &&& @@%++## &&&&&&&&&&&&&&&&&&&&&&",
"&&&&&&&&&&&&&&&&&&&&& #@$%%  &&&& #  #### &&&&&&&&&&&&&&&&&&&&&&",
"&&&&&&&&&&&&&&&&&&&& $+@%%% &&&&& $  %%## &&&&&&&&&&&&&&&&&&&&&&",
"&&&&&&&&&&&&&&&&&&&& @+$%@  &&&&& #o+%%## &&&&&&&&&&&&&&&&&&&&&&",
"&&&&&&&&&&&&&&&&&&& $@#%%O &&&&&& @o@%%## &&&&&&&&&&&&&&&&&&&&&&",
"&&&&&&&&&&&&&&&&&&& @@%%%@ &&&&&& @+#%%## &&&&&&&&&&&&&&&&&&&&&&",
"&&&&&&&&&&&&&&&&&&& O@%%%@ &&&&&& ###%%## &&&&&&&&&&&&&&&&&&&&&&",
"&&&&&&&&&&&&&&&&&& +O$%%% &&&&&&& @##%%$ &&&&&&&&&&&&&&&&&&&&&&&",
"&&&&&&&&&&&&&&&&&& +#OO%% &&&&&& @@##%%% &&&&&&&&&&&&&&&&&&&&&&&",
"&&&&&&&&&&&&&&&&&& @%X +%        #$##% % &&&&&&&&&&&&&&&&&&&&&&&",
"&&&&&&&&&&&&&&&&& ##%#  X#%%%oo%@@%@@   &&&&&&&&&&&&&&&&&&&&&&&&",
"&&&&&&&&&&&&&&&&& #$%%O   O%# X%@@%@@ & &&&&&&&&&&&&&&&&&&&&&&&&",
"&&&&&&&&&&&&&&&&  O%%%%%@  +++#%@@%## & &&&&&&&&&&&&&&&&&&&&&&&&",
"&&&&&&&&&&&&&&&& ++%%%%%%#  ###$@#%##  &&&&&&&&&&&&&&&&&&&&&&&&&",
"&&&&&&&&&&&&&&&&            %##@@%%##  &&&&&&&&&&&&&&&&&&&&&&&&&",
"&&&&&&&&&&&&&&&&&&&&&&&&&&&&    @%%@@  &&&&&&&&&&&&&&&&&&&&&&&&&",
"&&&&&&&&&&&&&&&&&&&&&&&&&&&&&&& #%%@@  &&&&&&&&&&&&&&&&&&&&&&&&&",
"&&&&&&&&&&&&&&&&&&&&&&&&&&&&&&& $%%@@  &&&&&&&&&&&&&&&&&&&&&&&&&",
"&&&&&&&&&&&&&&&&&&&&&&&&&&&&&&& %%%OO  &&&&&&&&&&&&&&&&&&&&&&&&&",
"&&&&&&&&&&&&&&&&&&&&&&&&&&&&&&& %%+X@ &&&&&&&&&&&&&&&&&&&&&&&&&&",
"&&&&&&&&&&&&&&&&&&&&&&&&&&&&&&& %%oo% &&&&&&&&&&&&&&&&&&&&&&&&&&",
"&&&&&&&&&&&&&&&&&&&&&&&&&&&&&&& %%++% &&&&&&&&&&&&&&&&&&&&&&&&&&",
"&&&&&&&&&&&&&&&&&&&&&&&&&&&&&&& %%++% &&&&&&&&&&&&&&&&&&&&&&&&&&",
"&&&&&&&&&&&&&&&&&&&&&&&&&&&&&&& %%@@% &&&&&&&&&&&&&&&&&&&&&&&&&&",
"&&&&&&&&&&&&&&&&&&&&&&&&&&&&&&& %%@@% &&&&&&&&&&&&&&&&&&&&&&&&&&",
"&&&&&&&&&&&&&&&&&&&&&&&&&&&&&&& %%@@% &&&&&&&&&&&&&&&&&&&&&&&&&&",
"&&&&&&&&&&&&&&&&&&&&&&&&&&&&&&& %%##% &&&&&&&&&&&&&&&&&&&&&&&&&&",
"&&&&&&&&&&&&&&&&&&&&&&&&&&&&&&& %%##% &&&&&&&&&&&&&&&&&&&&&&&&&&",
"&&&&&&&&&&&&&&&&&&&&&&&&&&&&&&& %%@@% &&&&&&&&&&&&&&&& &&&&&&&&&",
"&&&&&&&&&&&&&&&  &&&&&&&&&&&&&& %%@@% &&&&&&&&     &   &&&&&&&&&",
"&&&&&&&&&&&&&&&  &&&&&&&&&&&&&& +%##% &&&&&           &&&&&&&&&&",
"&&&&&&&&&&&&&&&  &&&&&&&&&&&&&& .$##% &    $#@O  %  &&&&&&&&&&&&",
"&&&&&&&&&&&&&&& & &&&&&&&&&&&&& O###%   #o X#$%oo% &&&&&&&&&&&&&",
"&&&&&&&&&&&&&&& & &&&&&&        ####%%%O .  #%%@  &&&&&&&&&&&&&&",
"&&&&&&&&&&&&&&&         o.o@##+O+OXoXO@.X#$+O+#   &&&&&&&&&&&&&&",
"&&&&&&&&&&&&&&&  + X+@#+O+O+##+O@O   O..%%%$@O. + &&&&&&&&&&&&&&",
"&&&&&&&&&&&&&&&& @+XX+#@#%$@##@$%$. O#.o%%%%%$oX# &&&&&&&&&&&&&&",
"&&&&&&&&&&&&&&&& @$#oo+@$%%#+O@%%%$+@+O$%%%%%%  % &&&&&&&&&&&&&&",
"&&&&&&&&&&&&&&&&    @  #%%%%O  %%%%#.         &&  &&&&&&&&&&&&&&",
"&&&&&&&&&&&&&&&&&&&                  &&&&&&&&&&&&&&&&&&&&&&&&&&&",
"&&&&&&&&&&&&&&&&&&&&&&&&&&&&&&&&&&&&&&&&&&&&&&&&&&&&&&&&&&&&&&&&",
"&&&&&&&&&&&&&&&&&&&&&&&&&&&&&&&&&&&&&&&&&&&&&&&&&&&&&&&&&&&&&&&&",
"&&&&&&&&&&&&&&&&&&&&&&&&&&&&&&&&&&&&&&&&&&&&&&&&&&&&&&&&&&&&&&&&",
"&&&&&&&&&&&&&&&&&&&&&&&&&&&&&&&&&&&&&&&&&&&&&&&&&&&&&&&&&&&&&&&&"
};
