/* XPM */
static char *result[] = {
/* columns rows colors chars-per-pixel */
"64 64 12 1 ",
"  c black",
". c #060606",
"X c #0E0E0E",
"o c #161616",
"O c #1E1E1E",
"+ c gray15",
"@ c gray18",
"# c gray21",
"$ c #3E3E3E",
"% c #464646",
"& c gray37",
"* c None",
/* pixels */
"****************************************************************",
"****************************************************************",
"****************************************************************",
"****************************************************************",
"***************                                     ************",
"*************** o@+&&%%@XoO+  #$+  @%%%@@%%%%%@Oo+% ************",
"*************** Oo X .+o+X    O#@##+@$%OO%@X+%O O$ *************",
"**************  XO    o+%  ..  #%%%#O+#Oo@. .+  o% *************",
"************** o @%%$   %. @#o O%%@+++#Oo+o.o+  +% *************",
"************** oX#$   **             $%@@##@@%@O# **************",
"**************   ##  *************** %%#+@$@@%+O$ **************",
"************* @.O$@# **************  %%#O@%@@%++ ***************",
"************* @+$%@@ ************** $oO+X@%@@$+ ****************",
"************* @@%%## ************** @.ooX#%@+@O ****************",
"************* @@%%# *************** @#+o#%%#+@@ ****************",
"************* ##%%# ************** @@%OO%%%@X+% ****************",
"************ @@@%%# ************** @##O@%%%+X@ *****************",
"************ #@@%%# ************** @%@O#%%%OO% *****************",
"************ @++%%# ************** ##@#@#%%OO ******************",
"***********  o@@%@ *************  @%OO%@@%$+@ ******************",
"***********   %%%@ *************  @X O%@@$#+ *******************",
"***********        *************  $. #%#@@#@ *******************",
"*****************  *************  %##%%%#O@ ********************",
"****************** *************  %##%%+  @ ********************",
"****************** *************  %##%%o  + ********************",
"******************************** %%@@%%@@%@ ********************",
"******************************** o%@@%%#O@ *********************",
"********************************  %##%%O.@ *********************",
"******************************** X###%$oO **********************",
"*******************************  X+##%#O@ **********************",
"*******************************  +@O+$#+@ **********************",
"*******************************  %#o+### ***********************",
"*******************************  %@+##$@ ***********************",
"******************************* %%@@##%@ ***********************",
"****************************** +%%#@#$% ************************",
"****************************** @%%@O#%% ************************",
"****************************** #%%Oo$%% ************************",
"****************************** %%%oo%% *************************",
"****************************** %%#o+%% *************************",
"***************************** #%$@O@%% *************************",
"***************************** #%##@@% **************************",
"***************************** @$#$@@% **************************",
"*****************************  +$%@@% **************************",
"*****************************  @%%##% **************************",
"**************************** %%++%@@ ***************************",
"**************************** %%OO%@@ ***************************",
"**************************** $%@@%## ***************************",
"***************************  +%@@%## ***************************",
"*************************** X+%@@$#$ ***************************",
"*************************** O@%++##% ***************************",
"*************************** O@%##@@% ***************************",
"*************************** O#%%%@@ ****************************",
"************************** @o@%%%@@ ****************************",
"************************** #+@$%%@@ ****************************",
"************************** ##@@%#@$ ****************************",
"************************** @@@@%@@% ****************************",
"************************** @@##%@+$ ****************************",
"************************* %@@##%@+$ ****************************",
"************************* %@@$#@@$% ****************************",
"************************* %++%+X@%  ****************************",
"************************* %@@%. X% *****************************",
"************************* %   O o% *****************************",
"************************    **     *****************************",
"*********************************  *****************************"
};
