/* XPM */
static char *result[] = {
/* columns rows colors chars-per-pixel */
"64 64 11 1 ",
"  c black",
". c #060606",
"X c #0E0E0E",
"o c #161616",
"O c #1E1E1E",
"+ c gray15",
"@ c gray18",
"# c gray21",
"$ c #3E3E3E",
"% c #464646",
"& c None",
/* pixels */
"&&&&&&&&&&&&&&&&&&&&&&&&&&&&&&&&&&&&&&&&&&&&&&&&&&&&&&&&&&&&&&&&",
"&&&&&&&&&&&&&&&&&&&&&&&&&&&&&&&&&&&&&&&&&&&&&&&&&&&&&&&&&&&&&&&&",
"&&&&&&&&&&&&&&&&&&&&&&&&&&&&&&&&&&&&&&&&&&&&&&&&&&&&&&&&&&&&&&&&",
"&&&&&&&&&&&&&&&&&&&&&&&&&&&                   &&&&&&&&&&&&&&&&&&",
"&&&&&&&&&&&&&&&&&&&&&&&&&&  $  %%%$##@XX+  .@%  &&&&&&&&&&&&&&&&",
"&&&&&&&&&&&&&&&&&&&&&&&&& O@#oo%$####$. .   +$%%  &&&&&&&&&&&&&&",
"&&&&&&&&&&&&&&&&&&&&&&&& ####++@O@$%$#    +##@#%%  &&&&&&&&&&&&&",
"&&&&&&&&&&&&&&&&&&&&&&& %####++X @ @@#oO#+@+@#+#%% &&&&&&&&&&&&&",
"&&&&&&&&&&&&&&&&&&&&&&& %##$#oO+O#  #%#@@#$Oo##+#% &&&&&&&&&&&&&",
"&&&&&&&&&&&&&&&&&&&&&& %%@@%@X+%%  &  $..$%#O+$@+$ &&&&&&&&&&&&&",
"&&&&&&&&&&&&&&&&&&&&& %%%@@%+o@$% &&&    %%%#@@@@#% &&&&&&&&&&&&",
"&&&&&&&&&&&&&&&&&&&&  O%. @%+O@# &&&&&& @oX$$@+@@#% &&&&&&&&&&&&",
"&&&&&&&&&&&&&&&&&&&& X.$  @%oo@@ &&&&&&  . #$#@#oO% &&&&&&&&&&&&",
"&&&&&&&&&&&&&&&&&&&& @O#@o@%XX   &&&&&&&  @$#$  Oo$ &&&&&&&&&&&&",
"&&&&&&&&&&&&&&&&&&&  #O+@o@%oo  &&&&&&&&& @%$#  #@# &&&&&&&&&&&&",
"&&&&&&&&&&&&&&&&&&& @@@ . X%   &&&&&&&&&&  %%$.X##$ &&&&&&&&&&&&",
"&&&&&&&&&&&&&&&&&&& @@%..  %   &&&&&&&&&&& %%%oo@@% &&&&&&&&&&&&",
"&&&&&&&&&&&&&&&&&&& ##%#+o+%% &&&&&&&&&&&& %%%$X.# &&&&&&&&&&&&&",
"&&&&&&&&&&&&&&&&&&&  #%%++%%% &&&&&&&&&&& @%%%%  % &&&&&&&&&&&&&",
"&&&&&&&&&&&&&&&&&&&& @%%@@%%  &&&&&&&&&&& @%@.O  % &&&&&&&&&&&&&",
"&&&&&&&&&&&&&&&&&&&& O%%@@%% &&&&&&&&&&  ###O o%%% &&&&&&&&&&&&&",
"&&&&&&&&&&&&&&&&&&&&  %%@@%%            %#@@###%% &&&&&&&&&&&&&&",
"&&&&&&&&&&&&&&&&&&&&  %%@@%% %%%%%$@  +@%+O$%##%% &&&&&&&&&&&&&&",
"&&&&&&&&&&&&&&&&&&&&&  %@o@%%@@%%%#@.X@@%  %%@@% &&&&&&&&&&&&&&&",
"&&&&&&&&&&&&&&&&&&&&&&  $+@%%OO%$###OOOo@  %#O@  &&&&&&&&&&&&&&&",
"&&&&&&&&&&&&&&&&&&&&&&&  %%%%OX@##$@XX.X@$%%O   &&&&&&&&&&&&&&&&",
"&&&&&&&&&&&&&&&&&&&&&&&&           + .o@$@.o  &&&&&&&&&&&&&&&&&&",
"&&&&&&&&&&&&&&&&&&&&&&&&&&&&&&&&&  OoO+$#+  &&&&&&&&&&&&&&&&&&&&",
"&&&&&&&&&&&&&&&&&&&&&&&&&&&&&&&&& @o@OO#+@ &&&&&&&&&&&&&&&&&&&&&",
"&&&&&&&&&&&&&&&&&&&&&&&&&&&&&&&& $@+#Oo@+ &&&&&&&&&&&&&&&&&&&&&&",
"&&&&&&&&&&&&&&&&&&&&&&&&&&&&&&& +####. O &&&&&&&&&&&&&&&&&&&&&&&",
"&&&&&&&&&&&&&&&&&&&&&&&&&&&&&&& oXoO@  X &&&&&&&&&&&&&&&&&&&&&&&",
"&&&&&&&&&&&&&&&&&&&&&&&&&&&&&& O  OXO+X &&&&&&&&&&&&&&&&&&&&&&&&",
"&&&&&&&&&&&&&&&&&&&&&&&&&&&&& @XX@#o+% &&&&&&&&&&&&&&&&&&&&&&&&&",
"&&&&&&&&&&&&&&&&&&&&&&&&&&&& %@ .%@O#% &&&&&&&&&&&&&&&&&&&&&&&&&",
"&&&&&&&&&&&&&&&&&&&&&&&&&&&& $@ .%@o@% &&&&&&&&&&&&&&&&&&&&&&&&&",
"&&&&&&&&&&&&&&&&&&&&&&&&&&&& @. +%@o@ &&&&&&&&&&&&&&&&&&&&&&&&&&",
"&&&&&&&&&&&&&&&&&&&&&&&&&&& o+ .@$#@# &&&&&&&&&&&&&&&&&&&&&&&&&&",
"&&&&&&&&&&&&&&&&&&&&&&&&&&  XOXO@@O@$ &&&&&&&&&&&&&&&&&&&&&&&&&&",
"&&&&&&&&&&&&&&&&&&&&&&&&&& +#Oo+#+o# &&&&&&&&&&&&&&&&&&&&&&&&&&&",
"&&&&&&&&&&&&&&&&&&&&&&&&&& #@oOO@++ &&&&&&&&&&&&&&&&&&&&&&&&&&&&",
"&&&&&&&&&&&&&&&&&&&&&&&&&& @@OOO@OO &&&&&&&&&&&&&&&&&&&&&&&&&&&&",
"&&&&&&&&&&&&&&&&&&&&&&&&& OO@#++@O+ &&&&&&&&&&&&&&&&&&&&&&&&&&&&",
"&&&&&&&&&&&&&&&&&&&&&&&& @oo@@.XoO$ &&&&&&&&&&&&&&&&&&&&&&&&&&&&",
"&&&&&&&&&&&&&&&&&&&&&&&& #+O#@XX . &&&&&&&&&&&&&&&&&&&&&&&&&&&&&",
"&&&&&&&&&&&&&&&&&&&&&&&& +@@$##@.O &&&&&&&&&&&&&&&&&&&&&&&&&&&&&",
"&&&&&&&&&&&&&&&&&&&&&&& @O+#$#$##% &&&&&&&&&&&&&&&&&&&&&&&&&&&&&",
"&&&&&&&&&&&&&&&&&&&&&&& #++$##%## &&&&&&&&&&&&&&&&&&&&&&&&&&&&&&",
"&&&&&&&&&&&&&&&&&&&&&& @@OO%##%## &&&&&&&&&&&&&&&&&&&&&&&&&&&&&&",
"&&&&&&&&&&&&&&&&&&&&&& @#  %##$#$ &&&&&&&&&&&&&&&&&&&&&&&&&&&&&&",
"&&&&&&&&&&&&&&&&&&&&&& @%  %#### &&&&&&&&&&&&&&&&&&&&&&&&&&&&&&&",
"&&&&&&&&&&&&&&&&&&&&&& @%  %@++@ &&&&&&&&&&&&&&&&&&&&&&&&&&&&&&&",
"&&&&&&&&&&&&&&&&&&&&& @@$..$+XO# &&&&&&&&&&&&&&&&&&&&&&&&&&&&&&&",
"&&&&&&&&&&&&&&&&&&&&& @#####+.+% &&&&&&&&&&&&&&&&&&&&&&&&&&&&&&&",
"&&&&&&&&&&&&&&&&&&&&& ##@$@@  @% &&&&&&&&&&&&&&&&&&&&&&&&&&&&&&&",
"&&&&&&&&&&&&&&&&&&&&& #@@%OO  $ &&&&&&&&&&&&&&&&&&&&&&&&&&&&&&&&",
"&&&&&&&&&&&&&&&&&&&&& @#$%  O@% &&&&&&&&&&&&&&&&&&&&&&&&&&&&&&&&",
"&&&&&&&&&&&&&&&&&&&&& O@%%  O$% &&&&&&&&&&&&&&&&&&&&&&&&&&&&&&&&",
"&&&&&&&&&&&&&&&&&&&&& O@%%+o     &&&&&&&&&&&&&&&&&&&&&&&&&&&&&&&",
"&&&&&&&&&&&&&&&&&&&&& @$    &&&&&&&&&&&&&&&&&&&&&&&&&&&&&&&&&&&&",
"&&&&&&&&&&&&&&&&&&&&    &&&&&&&&&&&&&&&&&&&&&&&&&&&&&&&&&&&&&&&&",
"&&&&&&&&&&&&&&&&&&&&  &&&&&&&&&&&&&&&&&&&&&&&&&&&&&&&&&&&&&&&&&&",
"&&&&&&&&&&&&&&&&&&&&&&&&&&&&&&&&&&&&&&&&&&&&&&&&&&&&&&&&&&&&&&&&",
"&&&&&&&&&&&&&&&&&&&&&&&&&&&&&&&&&&&&&&&&&&&&&&&&&&&&&&&&&&&&&&&&"
};
