/* XPM */
static char *result[] = {
/* columns rows colors chars-per-pixel */
"64 64 40 1 ",
"  c #1A052E",
". c #1D003C",
"X c #2C005A",
"o c #3C0078",
"O c #003378",
"+ c #006369",
"@ c #A50000",
"# c #B40000",
"$ c #C30000",
"% c #D20000",
"& c #E10000",
"* c #F00000",
"= c red",
"- c #003A87",
"; c #4C0096",
": c #5400A5",
"> c #5C00B4",
", c #004196",
"< c #0048A5",
"1 c #004FB4",
"2 c #6400C3",
"3 c #6C00D2",
"4 c #7400E1",
"5 c #7C00F0",
"6 c #0056C3",
"7 c #005DD2",
"8 c #0064E1",
"9 c #006BF0",
"0 c #0072FF",
"q c #8400FF",
"w c #A545FF",
"e c #008187",
"r c #009096",
"t c #009FA5",
"y c #00AEB4",
"u c #00BDC3",
"i c #00CCD2",
"p c #00DBE1",
"a c #00EAF0",
"s c #00F9FF",
/* pixels */
"qqqqqqqqqqqqqqqq33qq44qqqqqqss    rr55qqqqqqqqqq33qqqqqqqq55qqqq",
"qqqqqqqqqqqqqqqq33qq44qqqqqqss    rr55qqqqqqqqqq33qqqqqqqq55qqqq",
"qqqqqqqq>>qqqqqq55qqqq55qqssOO    77iiqqqqqqqqqq55qqqq55qq55qqqq",
"qqqqqqqq>>qqqqqq55qqqq55qqssOO    77iiqqqqqqqqqq55qqqq55qq55qqqq",
"qqqqqqqq>>qqqqqq55qqqq55iirr        uupp55qqqqqq3344335555qqqqqq",
"qqqqqqqq>>qqqqqq55qqqq55iirr        uupp55qqqqqq3344335555qqqqqq",
"qqqqqqqqqq4455qq55qq55ss00qq        qq99++qqqq4444qqqqqq55qqqqqq",
"qqqqqqqqqq4455qq55qq55ss00qq        qq99++qqqq4444qqqqqq55qqqqqq",
"qqqqqqqq..qqqq>>>>44ss00qqqq        qqqq99pp445555qqqq22qqqqqqqq",
"qqqqqqqq..qqqq>>>>44ss00qqqq        qqq&99pp445555qqqq22qqqqqqqq",
"qqqqqqqq33qq5533>>ss00qq&q99        00q&qq77rrqq44qqqq44qqqqqqqq",
"qqqqqqqq33qq5533>>ss00qq&q99        00q&qq77rrqq44qqqq44qqqqqqqq",
"qqqqqqqq44qq55>>ss,,qq**&8qq        qq11&@qq88ii22qqqq44qqqqqqqq",
"qqqqqqqq44qq55>>ss,,qq**88qq        qq11&&qq88ii22qqqq44qqqqqqqq",
"qqqqqqqq3355qq22ss6&qq**qq            qq=&qq88pp55qq33qqqqqq::qq",
"qqqqqqqq3355qq22ss6&&q**qq            qq==qq88pp55qq33qqqqqq::qq",
"qqqqqq5544qq55yy00qq&*00qq            qq00&&qq99tt445522qqqq>>qq",
"qqqqqq5544qq55yy00qq**00qq            qq00&&qq99tt445522qqqq>>qq",
"qqqq4444qqqqaass00qq00qq                qq88qq88++aaqq22qqqq44qq",
"qqqq4444qqqqaass00qq00qq                qq88qq88++aaqq22qqqq44qq",
"qq553355qqssaa00--qq00qq                qq66qq--77aass22XXqq22qq",
"qq553355qqssaa00--qq00qq                qq66qq--77aass22XXqq22qq",
"qq::2244ss00                  wwww                  00yy335555qq",
"qq::2244ss00                  wwww                  00yy335555qq",
"qq::44ppss0011**qq00          wwww          66qq==8800ttaa4444qq",
"qq::44ppss0011**qq00          wwww          66qq==&800ttaa4444qq",
"qqqqiiii0000$$<<qq008&                    ,&00qq00**8899ppiiqqqq",
"qqqqiiii0000$$<<qq008&                    ,&00qq00**8899ppiiqqqq",
"qqqqii770000<<99==qq8&&=                ##&&qq==0000888866uuqqqq",
"qqqqii770000<&99==qq88==                ##99qq==0000888866uuqqqq",
"qqqqpp66000066&%00qq8800                1100qq00==88117766ppqqqq",
"qqqqpp66000066&%00qq8800                1100qq0&==88117766ppqqqq",
"qq55iiee0000777&88qqqq99qq            qq00qqqq8&990088<<ttaaqqqq",
"qq55iiee0000777&88qqqq9&qq            qq00qqqq&8990088<<ttaaqqqq",
"qq5533iipp007700&&,,qq0&00            0&00qq99==000099yy++55qqqq",
"qq5533iipp007700&&,,qq0&00            0&00qq99==000099yy++55qqqq",
"qqqq33qqiipp7700==77qqq&&=            =&qqqq99==0088uuss22qqqqqq",
"qqqq33qqiipp7700==77qqqq&=            =&qqq&99==0088uuss22qqqqqq",
"qqqq44qqqquuaa888811##qq00qq        qq00qq**778888ssaaqq22qqqqqq",
"qqqq44qqqquuaa888811##qq00qq        qq00qq**778888ssaaqq22qqqqqq",
"qqqqqq33qq22iiuu006699qq00qq        qq00qq000000sspp22oo55qqqqqq",
"qqqqqq33qq22iiuu006699qq&0qq        qq00qq000000sspp22oo55qqqqqq",
"qqqqqq5544qq;;22--9988qq88qq        qq99qq00000055224422qqqqqqqq",
"qqqqqq5544qq;;22--9988qq88q&        &q99qq00000055224422qqqqqqqq",
"qqqqqqqq5544qqqq>>887700qqq&&q    q&&qqq0000005555445533qqqqqqqq",
"qqqqqqqq5544qqqq>>887700qqqq&q    &&qqqq0000005555445533qqqqqqqq",
"qqqqqqqq44qq555533qqpp9900qq&&    qqqq0000ss444444qq33qqqqqqqqqq",
"qqqqqqqq44qq555533qqpp9900qqq&    &qqq0000ss444444qq33qqqqqqqqqq",
"qqqqqqqqqq4444qq3355449900qqq&    &qqq0000555555qq5544qqqqqqqqqq",
"qqqqqqqqqq4444qq3355449900qqqq    &qqq0000555555qq5544qqqqqqqqqq",
"qqqqqqqqqqqq225544qq::>>aa66qq    qq00ss554444qqqq44qqqqqqqqqqqq",
"qqqqqqqqqqqq225544qq::>>aa66qq    qq00ss554444qqqq44qqqqqqqqqqqq",
"qqqqqqqqqqqqqq33;;44qqqq33pp00qqqq66ss>>2244qqqq5555qqqqqqqqqqqq",
"qqqqqqqqqqqqqq33;;44qqqq33pp00qqqq66ss>>2244qqqq5555qqqqqqqqqqqq",
"qqqqqqqqqqqqqqqqqq4455qqqquuaa9988iippqqqqqqqqqq55qqqqqqqqqqqqqq",
"qqqqqqqqqqqqqqqqqq4455qqqquuaa9988iippqqqqqqqqqq55qqqqqqqqqqqqqq",
"qqqqqqqqqqqqqqqqqqqq>>33qqqqttOO11tt55qq>>334444qqqqqqqqqqqqqqqq",
"qqqqqqqqqqqqqqqqqqqq>>33qqqqttOO11tt55qq>>334444qqqqqqqqqqqqqqqq",
"qqqqqqqqqqqqqqqqqqqqqq4433220066--,,qqqqqqqqqqqqqqqqqqqqqqqqqqqq",
"qqqqqqqqqqqqqqqqqqqqqq4433220066--,,qqqqqqqqqqqqqqqqqqqqqqqqqqqq",
"qqqqqqqqqqqqqqqqqqqqqqqqqqqq00ttaa88qqqqqqqqqqqqqqqqqqqqqqqqqqqq",
"qqqqqqqqqqqqqqqqqqqqqqqqqqqq00ttaa88qqqqqqqqqqqqqqqqqqqqqqqqqqqq",
"qqqqqqqqqqqqqqqqqqqqqqqqqqqqqqppaa22qqqqqqqqqqqqqqqqqqqqqqqqqqqq",
"qqqqqqqqqqqqqqqqqqqqqqqqqqqqqqppaa22qqqqqqqqqqqqqqqqqqqqqqqqqqqq"
};
