/* XPM */
static char *_e54702f36f94c36ae8b5271c17ac304kFbuc4LCOrC3NNQ9[] = {
/* columns rows colors chars-per-pixel */
"64 64 22 1 ",
"  c black",
". c #0F001E",
"X c #25004B",
"o c #2D005A",
"O c #350069",
"+ c #3D0078",
"@ c #450087",
"# c #4D0096",
"$ c #5500A5",
"% c #5D00B4",
"& c #6500C3",
"* c #6D00D2",
"= c #7500E1",
"- c #7D00F0",
"; c #8500FF",
": c #8C0FFF",
"> c #931EFF",
", c #9A2DFF",
"< c #A13CFF",
"1 c #AF5AFF",
"2 c #BD78FF",
"3 c #D3A5FF",
/* pixels */
";;;;;;;;;;;;;;;;;;;;;;;;;;;;;;;;..**--====****$$;;;;;;;;;;;;;;;;",
";;;;;;;;;;;;;;;;;;;;;;;;;;;;;;;;..**--====****$$;;;;;;;;;;;;;;;;",
";;%%++&&OO;;;;;;;;;;;;;;;;;;;;;;==**==;;;;;;;;;;&&;;;;;;;;;;;;;;",
";;%%++&&OO;;;;;;;;;;;;;;;;;;;;;;==**==;;;;;;;;;;&&;;;;;;;;;;;;;;",
";;XX;;;;$$;;;;;;;;;;;;;;;;;;;;;;;;;;==========**;;;;;;;;;;;;;;;;",
";;XX;;;;$$;;;;;;;;;;;;;;;;;;;;;;;;;;==========**;;;;;;;;;;;;;;;;",
"--==;;$$;;;;;;;;;;;;;;;;;;;;;;;;;;;;;;;;;;;;;;;;;;;;;;;;;;::::::",
"--==;;$$;;;;;;;;;;;;;;;;;;;;;;;;;;;;;;;;;;;;;;;;;;;;;;;;;;::::::",
";;;;@@**;;;;;;;;;;;;;;;;;;;;;;;;;;;;;;;;;;;;;;;;;;;;::::::;;;;;;",
";;;;@@**;;;;;;;;;;;;;;;;;;;;;;;;;;;;;;;;;;;;;;;;;;;;::::::;;;;;;",
";;;;;;;;;;;;;;;;;;;;;;;;;;;;;;;;;;;;;;;;;;;;;;;;>>>>;;;;;;;;;;;;",
";;;;;;;;;;;;;;;;;;;;;;;;;;;;;;;;;;;;;;;;;;;;;;;;>>>>;;;;;;;;;;;;",
";;;;;;;;;;;;;;;;;;;;;;;;;;;;;;;;;;;;;;;;;;;;;;::>>;;;;;;;;;;;;;;",
";;;;;;;;;;;;;;;;;;;;;;;;;;;;;;;;;;;;;;;;;;;;;;::>>;;;;;;;;;;;;;;",
";;;;;;;;;;;;;;;;;;;;**====--====&&%%;;;;;;;;;;<<;;;;;;;;;;;;;;;;",
";;;;;;;;;;;;;;;;;;;;**====--====&&%%;;;;;;;;;;<<;;;;;;;;;;;;;;;;",
";;;;;;;;;;;;;;;;;;----;;;;;;;;;;--==;;;;;;;;11>>;;;;;;;;;;;;;;;;",
";;;;;;;;;;;;;;;;;;----;;;;;;;;;;--==;;;;;;;;11>>;;;;;;;;;;;;;;;;",
";;;;;;;;;;;;;;====;;;;;;;;;;;;--;;;;;;;;;;;;22;;;;;;;;;;;;;;;;;;",
";;;;;;;;;;;;;;====;;;;;;;;;;;;--;;;;;;;;;;;;22;;;;;;;;;;;;;;;;;;",
";;;;$$==**;;;;&&;;;;----==--==;;;;;;;;;;;;;;33<<::::::>>::>>::>>",
";;;;$$==**;;;;&&;;;;----==--==;;;;;;;;;;;;;;33<<::::::>>::>>::>>",
";;;;$$;;==@@;;------;;;;;;;;;;;;;;;;;;;;;;;;;;;;;;%%******==--;;",
";;;;$$;;==@@;;------;;;;;;;;;;;;;;;;;;;;;;;;;;;;;;%%******==--;;",
";;;;$$;;;;&&;;;;;;;;;;;;;;;;;;;;;;;;;;;;;;;;%%;;;;;;;;;;;;;;##;;",
";;;;$$;;;;&&;;;;;;;;;;;;;;;;;;;;;;;;;;;;;;;;%%;;;;;;;;;;;;;;##;;",
";;;;oo;;;;&&;;;;;;;;;;;;;;;;;;;;;;;;;;;;;;;;##&&;;;;;;;;;;;;$$;;",
";;;;oo;;;;&&;;;;;;;;;;;;;;;;;;;;;;;;;;;;;;;;##&&;;;;;;;;;;;;$$;;",
";;;;--&&====;;;;;;>>,,>>>>>>>>::;;;;;;;;;;;;;;%%$$========&&&&;;",
";;;;--&&====;;;;;;>>,,>>>>>>>>::;;;;;;;;;;;;;;%%$$========&&&&;;",
";;;;;;;;;;;;;;;;==**;;;;;;;;;;::>>;;;;;;;;;;;;;;;;;;;;;;;;;;;;;;",
";;;;;;;;;;;;;;;;==**;;;;;;;;;;::>>;;;;;;;;;;;;;;;;;;;;;;;;;;;;;;",
";;;;;;;;;;;;;;;;;;;;;;;;;;;;;;;;;;,,::;;;;;;;;==****------**==;;",
";;;;;;;;;;;;;;;;;;;;;;;;;;;;;;;;;;,,::;;;;;;;;==****------**==;;",
";;;;;;;;;;;;;;;;;;;;;;;;;;;;;;;;;;;;>>>>;;;;====;;;;;;;;;;;;%%;;",
";;;;;;;;;;;;;;;;;;;;;;;;;;;;;;;;;;;;>>>>;;;;====;;;;;;;;;;;;%%;;",
";;;;;;;;;;;;;;;;&&--******;;;;;;;;;;;;<<22,,&&11;;;;;;;;;;;;--%%",
";;;;;;;;;;;;;;;;&&--******;;;;;;;;;;;;<<22,,&&11;;;;;;;;;;;;--%%",
";;;;;;;;;;;;;;;;;;;;;;;;;;====**;;;;;;;;;;;;--------------====--",
";;;;;;;;;;;;;;;;;;;;;;;;;;====**;;;;;;;;;;;;--------------====--",
";;;;;;;;;;;;;;;;;;**;;;;;;;;;;;;**%%**;;;;;;;;;;;;;;;;;;;;;;;;;;",
";;;;;;;;;;;;;;;;;;**;;;;;;;;;;;;**%%**;;;;;;;;;;;;;;;;;;;;;;;;;;",
";;;;;;;;;;;;;;;;;;--%%;;;;;;;;;;;;--##;;;;;;;;;;;;;;;;;;;;;;;;;;",
";;;;;;;;;;;;;;;;;;--%%;;;;;;;;;;;;--##;;;;;;;;;;;;;;;;;;;;;;;;;;",
";;;;;;;;;;;;;;;;;;;;==&&;;;;;;;;;;&&;;;;;;;;;;;;;;;;;;;;;;;;;;;;",
";;;;;;;;;;;;;;;;;;;;==&&;;;;;;;;;;&&;;;;;;;;;;;;;;;;;;;;;;;;;;;;",
";;;;;;;;;;;;;;;;;;;;;;;;**====**&&;;;;;;;;;;;;;;;;;;;;;;;;;;;;;;",
";;;;;;;;;;;;;;;;;;;;;;;;**====**&&;;;;;;;;;;;;;;;;;;;;;;;;;;;;;;",
";;;;;;;;;;;;;;;;;;;;;;;;;;;;;;;;;;;;;;;;;;--&&##==;;;;;;;;;;;;;;",
";;;;;;;;;;;;;;;;;;;;;;;;;;;;;;;;;;;;;;;;;;--&&##==;;;;;;;;;;;;;;",
";;;;;;;;==&&**==;;;;;;;;;;;;;;;;;;;;;;%%&&==;;;;**;;;;;;;;;;;;;;",
";;;;;;;;==&&**==;;;;;;;;;;;;;;;;;;;;;;%%&&==;;;;**;;;;;;;;;;;;;;",
";;;;;;==;;;;;;==**==@@;;;;;;;;;;;;;;;;;;;;;;;;;;**;;;;;;;;;;;;;;",
";;;;;;==;;;;;;==**==@@;;;;;;;;;;;;;;;;;;;;;;;;;;**;;;;;;;;;;;;;;",
";;;;--;;;;;;;;%%;;;;&&;;;;;;;;;;$$;;;;;;;;;;;;;;;;  ;;;;;;;;;;;;",
";;;;--;;;;;;;;%%;;;;&&;;;;;;;;;;$$;;;;;;;;;;;;;;;;  ;;;;;;;;;;;;",
";;;;--;;;;;;;;&&;;;;;;;;;;;;;;;;======--;;;;;;;;==**;;;;;;;;;;;;",
";;;;--;;;;;;;;&&;;;;;;;;;;;;;;;;======--;;;;;;;;==**;;;;;;;;;;;;",
";;==;;;;**&&++;;;;;;;;;;;;;;;;;;;;;;;;--========;;;;;;;;;;;;;;;;",
";;==;;;;**&&++;;;;;;;;;;;;;;;;;;;;;;;;--========;;;;;;;;;;;;;;;;",
";;%%;;;;;;;;;;;;;;;;;;;;;;;;;;;;;;;;;;;;;;;;;;;;;;;;;;;;;;;;;;;;",
";;%%;;;;;;;;;;;;;;;;;;;;;;;;;;;;;;;;;;;;;;;;;;;;;;;;;;;;;;;;;;;;",
";;;;;;;;;;;;;;;;;;;;;;;;;;;;;;;;;;;;;;;;;;;;;;;;;;;;;;;;;;;;;;;;",
";;;;;;;;;;;;;;;;;;;;;;;;;;;;;;;;;;;;;;;;;;;;;;;;;;;;;;;;;;;;;;;;"
};
