/* XPM */
static char *result[] = {
/* columns rows colors chars-per-pixel */
"64 64 123 2 ",
"   c #000000",
".  c #090304",
"X  c #0B0905",
"o  c #030309",
"O  c #090909",
"+  c #080A10",
"@  c #0E0E1B",
"#  c #120D1D",
"$  c #0D1217",
"%  c #101010",
"&  c #11111A",
"*  c #2D0000",
"=  c #300001",
"-  c #130C21",
";  c #171324",
":  c #191425",
">  c #1C1429",
",  c #2D005A",
"<  c #350069",
"1  c #3D0078",
"2  c #534C4C",
"3  c gray33",
"4  c #A51F2E",
"5  c #8C273B",
"6  c #8B283B",
"7  c #9F2634",
"8  c #9C2934",
"9  c #922538",
"0  c #B0202F",
"q  c #A32635",
"w  c #A92635",
"e  c #A22934",
"r  c #A32639",
"t  c #A02A39",
"y  c #FD023C",
"u  c #BF0F41",
"i  c #903645",
"p  c #983143",
"a  c #943D46",
"s  c #973E48",
"d  c #FF0443",
"f  c #F30B45",
"g  c #DE3E43",
"h  c #E33B43",
"j  c #E93844",
"k  c #E6364B",
"l  c #E43B48",
"z  c #D04A54",
"x  c #E3424B",
"c  c #E24E4C",
"v  c #E44C50",
"b  c #EA4A51",
"n  c #450087",
"m  c #4D0096",
"M  c #5500A5",
"N  c #5D00B4",
"B  c #6500C3",
"V  c #6D00D2",
"C  c #7500E1",
"Z  c #7D00F0",
"A  c #8500FF",
"S  c #8C0FFF",
"D  c #931EFF",
"F  c #9A2DFF",
"G  c #A13CFF",
"H  c #A84BFF",
"J  c #AF5AFF",
"K  c #B669FF",
"L  c #BD78FF",
"P  c #0096D6",
"I  c #0896D4",
"U  c #0499D6",
"Y  c #0696DE",
"T  c #039CDA",
"R  c #0A99DA",
"E  c #1695D8",
"W  c #2CDEEA",
"Q  c #3DDFEF",
"!  c #35DBF4",
"~  c #37DEFC",
"^  c #0CE8F8",
"/  c #2BE6F5",
"(  c #2EEAF6",
")  c #24E6F8",
"_  c #2FE7FB",
"`  c #36E7F0",
"'  c #7ADBE2",
"]  c #869AB7",
"[  c #8B9AB6",
"{  c #A3A9A7",
"}  c #ACACAC",
"|  c #B2B2B2",
" . c #B0B6CE",
".. c #D9B9C7",
"X. c #DBBBC9",
"o. c #C487FF",
"O. c #CC96FF",
"+. c #D3A5FF",
"@. c #BBC8D7",
"#. c #BDC7D8",
"$. c #BECADB",
"%. c #C1CBDD",
"&. c #CED4DF",
"*. c #DFDFDF",
"=. c #C2CDE2",
"-. c #C6D3E2",
";. c #CDD8E4",
":. c #C9D4E8",
">. c #D0D6E4",
",. c #D5DAE6",
"<. c #DDDFE5",
"1. c #D3DBE9",
"2. c #E1DEE2",
"3. c #E9D2FF",
"4. c #DFE1EE",
"5. c #E0E3ED",
"6. c #E4FEFD",
"7. c #F6F6F6",
"8. c #FFF7F7",
"9. c #F3F9F5",
"0. c #F5F6FA",
"q. c #FEF6FC",
"w. c #FEFEFE",
/* pixels */
"A A A A A A A A A A A A A A A A A A A A A A A A A A A A A A A A A A A A A A A A A A A A A A A A A A A A A A A A A A A A A A A A ",
"A A A A A A A A A A A B M V C A Z V V V V V C C C V n m Z A A A A A A A A A A A A A A A A A A A A A A A A A A A A A A A A A A A ",
"A A A A A A A A A A A B M V C Z C Z Z V V V C C C V n n C A A A A A A A A A A A A A A A A A A A A A A A Z V V C C C V V V V Z A ",
"A A A A A A A A A A A A A A A Z C A D D F D A A A A A Z C C Z A A A A A A A A A A A A A A A A A S F D A S A Z A Z C V V V V B V ",
"A A A A A A A A A A A A A A A A C m B D F F F F D S A A Z B V A A A A A A A A A A A A A A A A G H S A A D D S D D D S A A A N N ",
"A A A C V C V V B B Z A A A A A Z N N Z A S F F D F F D F A V Z A A A A A A A A A A A A A A A H L S C A A Z C Z S D D D S A V V ",
"A A C B V C V V B B Z A Z Z A A A A B < n V Z B N Z A Z A S V C S A A A S F F D D D F F S A A C S F A A A A C V Z A S D D A C Z ",
"A A B B A A A A A A A A C C A A A A V 1 n V C M n M M n n B ` Z S A A A S F ` D D F F F S A A V V A A A A A Z C C C C C A A Z A ",
"A A V V A A A A A A A C V Z A A A A A A A A ` C V V V ` m ` ` A A A A A A A A A A A A A A A A A A A A A A A A A Z C C C Z A A A ",
"A A C C A A A A A Z C V C A A A A A A A A A A A ` A A Z V ` ` C ` ` ` ` B A A A A A o . . o O   o . o . A A A A A A A A A A A A ",
"A A C C A A A A C V C Z A A A A A A A A A A A A ` A A ` ` ` ` ` ` ` ` ` ` A A A A A                     A A A A A A A A A A A A ",
"A A C C A A A Z V C A A A A A A A A A A A A A A ` A                     ` A       O w.w.a s 0.q.s i ;.&..   A A A A A A A A A A ",
"A A C C A A C V Z A A A C B V C C Z A ` A A A ` ` `                     ` `         w.w.9 7 5.<.e 8  . .    A A A A A A A A A A ",
"A A Z V V C V C A A C V V B V C C A A ` A ` ` ` ` `     .     o o       ` ` * =   o w.w.q 7 2.2.e e ..X.o   A A A A A A A A A A ",
"A A A C V C Z A A A N M Z A A A A ` A ` ` `             : : : : : >         x h . : > ; 4 8 w.w.r q t q ,.>.    7 t A A A A A A ",
"A A A A A A A A A A V V A A A A A ` ` ` ` `           o - - # # # - . o     z z o & & @ 0 4 q.8.6 p r q ,.4.o . 9 5 A A A A A A ",
"A A A A A A A A A A A A A A A A A ` ` `         > ; %.%.%.%.$.%.%.%.%.%.    . u A A ` A h l f y w.8.7 t o   4.*.4.&.    A A A A ",
"A A A A A A A A A A A A A A A A A ` ` `         - ; -.$.%.#.#.%.%.#.%.%.      h ` ` ` A k h d d w.w.7 7 .   *.*.,.,.    A A A A ",
"A A A A A A A A A A ` A A ` A A ` ` ` `         -.$.%.$.w.w.w.w.w.w.w.w.w.w.    ` ` ` A     t 7     h h     w.w.w.w.    A A A A ",
"A A A A A A A A A A ` A A A A A ` ` ` `     . . %.$.@.$.w.w.w.w.w.w.w.w.w.w.    ` ` ` A     4 8   $ h g     w.w.7.9.. . A A A A ",
"A A A A Z Z A A A A ` ` A A A A ` `         : > %.$.#.@.@.$.w.w.#.$.$.@.w.w.  . ` ` ` A ` ` u   A A     .       c c ,.;.    A A ",
"A A A A Z Z A A A A ` ` ` A A A ` `         : > %.#..       w.w.        w.w.    ` ` ` A ` `     A A . . .     . v b ,.;.    A A ",
"A A A A A A A A A A ` ` ` A A A ` `         : > =.#.o       w.w.o .     w.w.    ` ` A ` ` `     A A A A e e A A t w 1.;.    A A ",
"A A A A A A A A A ` ` ` ` ` A A ` `         > > %.@..   [ [ w.w.  . ] [ w.w.  . ` ` A ` ` A     A ` ` A w e A A w 7 4.;.    A A ",
"A A A A A A A A A ` ` ` ` ` A ` ` `         : > %.%.:.-.w.8.w.w.w.7.w.w.w.w.    ` ` A ` ` A     A A ` A u A A A A h         A A ",
"A A A A A A A Z Z ` ` ` Y ` ` ` ` `         : > %.%.$.$.w.w.w.w.w.w.w.w.w.w.    ` ` ` ` ` `     A ` ` A A A A A A A         A A ",
"A A A A A A A C C ` ` ` Y ` ` `             : @ O   %.$.w.w.w.w.w.w.w.w.: ;   . ` ` ` ` ` `     A ` ` A A A A ` A A A A j h A A ",
"A A A A A A Z C Z ` ` ` Y R ` `             : ;     %.$.w.w.w.w.w.w.w.w.: :   o ` ` ` ` R `     ` ` ` A A A A A A A A A x j A A ",
"A A A A A A ` V A ` ` ` Y Y Y `                     $.%.    w.w.    w.w.    ` ` ` ` ` Y Y `     ` A ` A A ` A ` A A A A   u A A ",
"A A A A A A V V A ` ` ` Y Y Y `                     $.%.    w.w..   w.w.    ` ` ` Y ` Y Y `     ` ` ` A h A A ` ` A A A     A A ",
"A A A Z V V B B Z A ` Y Y Y Y `                       o     .         o     ` ` Y Y Y Y ` `     ` ` ` A h ` A ` ` A A A A A A A ",
"A A Z C ` V N ` V C ` Y Y Y Y Y                                             ` Y Y Y Y Y ` `     ` ` ` A A A A ` ` ` A A A A A A ",
"A A V V ` A V M N M ` ` Y Y Y Y         ` Y Y Y Y ` .                   Y Y Y Y Y Y Y ` Y Y     ` ` ` ` A A ` ` ` ` A A A A A A ",
"A A V ` ` A V n N B ` ` Y Y Y Y         ` Y Y Y Y Y                     Y Y Y Y Y Y Y Y Y Y     ` ` ` ` A A ` ` ` ` A A A A A A ",
"A A V ` ` A V m ` A A ` Y Y Y Y     .   Y Y Y Y Y Y O                 Y Y Y Y Y Y Y Y Y Y Y     ` ` ` B Z ` ` ` ` ` A A A A A A ",
"A A V ` ` ` n < ` H G ` Y Y Y       Y Y Y Y Y Y                 Y Y Y Y Y Y Y Y Y Y ` Y Y Y     ` ` ` ` ` ` ` ` ` ` A A A h A A ",
"A A F ` ` ` M M ` ` 3.+.Y Y Y . . o Y Y Y Y Y Y .               Y Y Y Y Y Y Y Y Y Y Y Y Y Y .   ` ` ` Y L Y ` ` ` ` A A A A A A ",
"A Z F J ` ` Z Z ` ` O.O.` Y ` Y Y ` Y Y Y Y O O                         Y Y Y Y Y Y Y Y Y Y     ` ` Y Y Y Y ` ` ` ` A ` A A A A ",
"A C C A ` ` ` V ` ` ` A ` Y ` Y Y Y ` Y Y Y . O                         Y Y Y Y Y Y ` ` Y Y     ` Y Y Y Y ` ` ` ` < m Z A A A A ",
"A V V A ` ` ` B ` ` ` ` ` Y Y ` Y Y ` ` ` Y                                     Y ` Y ` Y Y w.w.%.%.Y Y Y ` ` ` R 1 n C A A A A ",
"A V V A ` ` ` ` ` ` ` Y ` Y Y Y Y Y ` Y Y Y                                     Y Y Y ` Y Y w.w.%.%.Y Y Y ` Y Y Y D D A A A A A ",
"A C C ` ` ` R ` ` ` ` Y Y Y Y Y Y Y ` Y                                           X P P =.%.w.w.%.$.Y Y Y Y ` Y S ` F A A A A A ",
"C B V V ` ` Y ` ` ` ` ` ` Y Y Y Y ` Y Y                                           . P P =.$.w.w.%.%.Y Y ` Y Y Y Z ` G A A A A A ",
"< m C Z ` ` Y Y ` ` ` Y ` Y Y ` Y ` Y Y                                         Y ` Y Y ` Y =.$.%.$.Y Y ` Y Y Y ` ` ` F A A Z A ",
"n B A A ` ` Y Y Y ` ` ` ` Y R ` ` ` Y Y                                         ` Y Y Y ` Y =.$.=.$.Y Y Y Y Y ` ` ` V A A A C A ",
"A A A A ` Y R ` Y Y Y Y ` _ Y ` Y R Y Y                                         Y Y Y Y _ Y     Y Y Y Y Y Y Y ` ` ` n Z A A V A ",
"A A A A ` Y Y Y Y Y Y Y ` Y ` ` Y R Y Y                                         Y Y Y Y / `     Y ` Y Y Y Y ` ` Y ` n m V B B A ",
"A A A A ` Y Y ` Y Y ! / Y Y ` ` Y Y                                             Y Y Y Y E R o   ` Y Y Y Y Y ` ` R ` V M V B B A ",
"A A A A ` Y Y Y Y Y ) Y Y Y Y Y Y Y                                             Y Y Y Y T Y     Y Y Y Y Y Y ` ` Y ` ` A A h C A ",
"A A A A ` Y Y Y Y Y 6.Y Y Y Y Y Y Y                                             Y Y Y Y Y Y     Y Y Y Y ` Y Y ` Y ` ` A h h A A ",
"A A A A ` A Y Y Y Y Y Y Y ` Y Y Y Y                                             Y Y Y Y Y Y     Y Y Y Y ` Y ` ` ` ` ` A h h A A ",
"A A A A A ` ` A Y Y Y Y Y ~ + O O O 7.7.                                        O % Y Y ` Y     Y Y Y ` Y ` ` Y ` ` A A h h A A ",
"A A A A A A Y Y Y Y Y Y ) /         w.w.                                            Y Y ` Y     Y Y Y ` Y ` ` Y ` ` A A h h A A ",
"A A A A A A ~ Y Y Y { } ' ' 2 3     } |                                           . | | Y Y     Y Y Y Y ` ` ` ` ` A A A h h A A ",
"A A A A A A ` ` Y Y Y Y Y / ` Y                                                       . Y Y   + P Y Y Y ` Y ` ` A A A A A A A A ",
"A A A C B V V Y ^ Y Y Y Y ~ ` Y . .                                                     Y Y     E Y Y Y Y Y ` V B B m N A A A A ",
"A A A C B V V Y Y Y Y Y ` ` Y Y Y Y                                                     _ (     Y Y Y Y Y Y ` B B B m n V A A A ",
"A A A A A A A Y Y Y Y Y W W Y Y Y Y                                                 Y Y Q W o   Y Y Y Y Y Y B Z A A A V B Z A A ",
"D D S A A A A Y o           Y Y                                                     Y Y o           Y Y Y M N A A A A A Z B N C ",
"D D F G G D A Y             I Y                                                     U R o           Y Y Y B N V V C V V V 1 , B ",
"A A D G o.K A Y Y Y           .                                                     o       Y Y         Y A Z V V C V V V M M C ",
"A A A A o.o.A A Y Y                                                                                     Y A A A A A A A A A A A ",
"A A A S J H A A                                                                                           A A A G K H F F F D D ",
"G H D F F S A A A .                                                                                       A A A G K H F F F D D "
};
