/* XPM */
static char *result[] = {
/* columns rows colors chars-per-pixel */
"64 64 148 2 ",
"   c #010001",
".  c #090203",
"X  c #000B05",
"o  c #040309",
"O  c #080508",
"+  c #060B0A",
"@  c #09090A",
"#  c #0B0411",
"$  c #080A10",
"%  c #0E0E1B",
"&  c #120D1D",
"*  c #0D1217",
"=  c #101010",
"-  c #11111A",
";  c #2D0000",
":  c #300001",
">  c #130C21",
",  c #171324",
"<  c #191425",
"1  c #1C1429",
"2  c #2D005A",
"3  c #350069",
"4  c #3D0078",
"5  c #1D4A56",
"6  c #164F58",
"7  c #534C4C",
"8  c gray33",
"9  c #A51F2E",
"0  c #8C283B",
"q  c #9F2634",
"w  c #9C2934",
"e  c #922538",
"r  c #B0202F",
"t  c #A32635",
"y  c #A92635",
"u  c #A22934",
"i  c #A32639",
"p  c #FD023C",
"a  c #BF0F41",
"s  c #963846",
"d  c #973E48",
"f  c #AF3E5E",
"g  c #FD0344",
"h  c #F30B45",
"j  c #FF0149",
"k  c #DE3E43",
"l  c #E43C44",
"z  c #E93748",
"x  c #E63848",
"c  c #B14662",
"v  c #D04A54",
"b  c #E3424B",
"n  c #E24E4C",
"m  c #E74B51",
"M  c #450087",
"N  c #4D0096",
"B  c #5500A5",
"V  c #5C0AA8",
"C  c #5D00B4",
"Z  c #6500C3",
"A  c #6D00D2",
"S  c #7500E1",
"D  c #7D00F0",
"F  c #8500FF",
"G  c #8C0FFF",
"H  c #931EFF",
"J  c #9A2DFF",
"K  c #A13CFF",
"L  c #A84BFF",
"P  c #AF5AFF",
"I  c #B669FF",
"U  c #BD78FF",
"Y  c #5AB5B8",
"T  c #0097D6",
"R  c #0896D4",
"E  c #0499D6",
"W  c #0296DB",
"Q  c #0997DF",
"!  c #039ADB",
"~  c #0A99DA",
"^  c #1097D7",
"/  c #1896D5",
"(  c #248EC8",
")  c #239CC8",
"_  c #0B97E1",
"`  c #049AE0",
"'  c #38D9D8",
"]  c #2CDEEA",
"[  c #30DFEB",
"{  c #3DDFEF",
"}  c #35DBF4",
"|  c #36DEFC",
" . c #0FE6ED",
".. c #0DE6F5",
"X. c #13E2F1",
"o. c #3CE4EA",
"O. c #2BE6F4",
"+. c #25E9F4",
"@. c #2EEAF6",
"#. c #2EE7FA",
"$. c #25EAFA",
"%. c #34E5F4",
"&. c #38E7F3",
"*. c #35E4FB",
"=. c #38E8FF",
"-. c #67D4DC",
";. c #79D0DE",
":. c #46D5E0",
">. c #7ADBE2",
",. c #45E6EF",
"<. c #41E1FF",
"1. c #869AB7",
"2. c #8C9BB5",
"3. c #909CB9",
"4. c #A8ABAA",
"5. c #AFB3AB",
"6. c #B2B2B2",
"7. c #AEB7CA",
"8. c #B0B6CE",
"9. c #DABAC8",
"0. c #C487FF",
"q. c #CC96FF",
"w. c #D3A5FF",
"e. c #BBC8D7",
"r. c #BDC7D8",
"t. c #BFCADC",
"y. c #A7DDEC",
"u. c #C1CBDD",
"i. c #CED4DF",
"p. c #C2CDE2",
"a. c #C9D5E5",
"s. c #D0D6E4",
"d. c #D5DAE6",
"f. c #DBDCE7",
"g. c #D3DBE9",
"h. c #E1DEE2",
"j. c #E9D2FF",
"k. c #DFE1EE",
"l. c #DAFFFC",
"z. c gray88",
"x. c #E0E3ED",
"c. c #E4FEFD",
"v. c #F6F6F6",
"b. c #FFF7F7",
"n. c #F3F9F5",
"m. c #F5F6FA",
"M. c #FEF6FC",
"N. c #FEFEFE",
/* pixels */
"F F F F F F F F F F F F F F F F F F F F F F F F F F F F F F F F F F F F F F F F F F F F F F F F F F F F F F F F F F F F F F F F ",
"F F F F F F F F F F F Z B A S F D A A A A A S S S A M N D F F F F F F F F F F F F F F F F F F F F F F F F F F F F F F F F F F F ",
"F F F F F F F F F F F Z B A S D S D D A A A S S S A M M S F F F F F F F F F F F F F F F F F F F F F F F D A A S S S A A A A D F ",
"F F F F F F F F F F F F F F F D S F H H J H F F F F F D S S D F F F F F F F F F F F F F F F F F G J H F G F D F D S A A A A Z A ",
"F F F F F F F F F F F F F F F F S N Z H J J J J H G F F D Z A F F F F F F F F F F F F F F F F K L G F F H H G H H H G F F F C C ",
"F F F S A S A A Z Z D F F F F F D C C D F G J J H J J H J F A D F F F F F F F F F F F F F F F L U G S F F D S D G H H H G F A A ",
"F F S Z A S A A Z Z D F D D F F F F Z 3 M A D Z C D F D F G A S G F F F G J J H H H J J G F F S G J F F F F S A D F G H H F S D ",
"F F Z Z F F F F F F F F S S F F F F A 4 M A S B M B B M M Z A D G F F F G J J H H H J J G F F A A F F F F F D S S S S S F F D F ",
"F F A A F F F F F F F S A D F F F F F F F F D S A A A B N Z D F F F F F F F F F F F F F F F F F F F F F F F F F D S S S D F F F ",
"F F S S F F F F F D S A S F F F F F F F F F F F F F F D A A S S S S A B Z F F F F F o . o . o X o . X O F F F F F F F F F F F F ",
"F F S S F F F F S A S D F F F F F F F F F F F F F F F F D S S S S S A B Z F F F F F                     F F F F F F F F F F F F ",
"F F S S F F F D A S F F F F F F F F F F F F F F F F                     F F       + N.N.d d m.N.d s i.i.O   F F F F F F F F F F ",
"F F S S F F S A D F F F S Z A S S D F F F F F F F F                     F F         N.N.e q x.f.t w 8.7.    F F F F F F F F F F ",
"F F D A A S A S F F S A A Z A S S F F F F F F F F F     o     o o       F F ; :   o N.N.t q h.h.u q 9.9.o   F F F F F F F F F F ",
"F F F S A S D F F F C B D F F F F F F F F F             , < < < < 1         b l o < < , 9 q N.N.t t i i d.d.    t u F F F F F F ",
"F F F F F F F F F F A A F F F F F F F F F F           o > > > > & > o o     v v O - - % r 9 M.b.0 s i t d.k.. . e 0 F F F F F F ",
"F F F F F F F F F F F F F F F F F F F F         , , u.u.r.u.t.u.u.u.u.u.      . F F F F l l h p N.b.q i     h.z.g.d.    F F F F ",
"F F F F F F F F F F F F F F F F F F F F         , < i.e.u.r.r.u.u.r.u.u.  .     F F F F z b g g N.N.q q O   h.z.d.d.    F F F F ",
"F F F F F F F F F F F F F F F F F F F F         p.t.p.t.N.N.N.N.N.N.N.N.N.N.    F F F F     u q     l l     N.N.N.N.    F F F F ",
"F F F F F F F F F F F F F F F F F F F F       O t.t.r.t.N.N.N.N.N.N.N.N.N.N.  o F F F F     9 w   * l k X   N.N.m.n.O . F F F F ",
"F F F F D D F F F F F F F F F F F F         < 1 u.e..       N.N.        N.N.  . F F F F F F     F F     .       n n g.s.    F F ",
"F F F F D D F F F F F F F F F F F F         1 1 p.r..       N.N.      o N.N.    F F F F F F     F F . .       O m m d.s.    F F ",
"F F F F F F F F F F F F F F F F F F         < 1 u.r.o   2.2.N.N.  O 3.2.N.N.    F F F F F F     F F F F u u F F u t g.a.    F F ",
"F F F F F F F F F F F F F F F F F F         < 1 u.e.O   2.2.N.N.  O 1.2.N.N.    F F F F F F     F F F F y u F F y u k.s.    F F ",
"F F F F F F F F F F F F F F F F F F         < 1 u.u.a.p.N.b.N.N.N.b.N.N.N.N.    F F F F F F     F F F F F F F F F F     .   F F ",
"F F F F F F F D D F F F F F F F F F         < 1 u.u.t.u.N.N.N.N.N.N.N.N.N.N.    F F F F F F     F F F F F F F F F F         F F ",
"F F F F F F F S S F F F F F F F             < % . X u.t.N.N.N.N.N.N.N.N.< ,   . F F F F F F     F F F F F F F F F F F F x l F F ",
"F F F F F F D S D F F F F F F F             < ,     u.t.N.N.N.N.N.N.N.N.1 <   o F F F F F F     F F F F F F F F F F F F b x F F ",
"F F F F F F A A F F F F F F F F                     t.p.    N.N.    N.N.    F F F F F F F F     F F F F F F F F F F F F   . F F ",
"F F F F F F A A F F F F F F F F                     r.u.    N.N..   N.N.    F F F F F F F F     F F F F F F F F F F F F     F F ",
"F F F D A A Z Z D F F F F F F F                       o                     F F F F F F F F     F F F F F F F F F F F F F F F F ",
"F F D S A A C C A S F F F F F F                                             F F F F F F F F     F F F F F F F F F F F F F F F F ",
"F F A A F F A B C B Z F F F F F         V V V V V V .                   V V F F F F ;.;.F F     F F F F F F F F F F F F c f F F ",
"F F A A F F A M C Z Z F F F F F         F F F F F F                     F F F F F F @.$.F F     F D A S F F F F F F F F j g F F ",
"F F A A F F A N Z F F F F F F F     O   F F F F F F O                   F F F F F F :.' F F     F D Z Z D F F F F F F F r a F F ",
"F F A A F F M 3 F L K G F F F       F F F F F F                 F F F F F F F F F F F F +.+.    F F D P P D F F F F F F F F F F ",
"F F J L J H B B J L j.w.F F F .   . F F F F F F O               F F F F F F F F F F F F ,.o..   F F F 0.U S D F F F F F F F F F ",
"F D J P J J D D G F q.q.F F F F F F F F F F O +                         F F F F F F &.&.F F     F F F G H D D H G F F F F F F F ",
"F S S F F F A A S S F F F F F F F F F F F F O O                         F F F F F F =.$.F F     F F F F H G S G S 3 N F F F F F ",
"F A A F F F S Z Z S F F F F %.%.F F F F F F                                     F F     F F N.N.u.t.F F G H S S S 4 M S F F F F ",
"F A A F F F Z B S F F F F F +.%.F F F F F F                                     F F X . F F N.N.u.u.F F F G S F H H H F F F F F ",
"F S S S A S N B F F F F F F ~ ` o   F F                                           @ T T p.p.N.N.u.e.F F F F F S G J J K G S F F ",
"S Z A A A S Z A F F F F F F ! ^     F F                                             W T t.t.N.N.u.r.F F F F F Z F J K P G S F F ",
"3 N S D F F F F F F F F F F . o F F F F                                         F F F F F F p.t.u.r.F F F F F F C S K J F A F F ",
"M Z F F F F F F F F F F F F     F F F F                                         F F F F F F u.t.p.t.F F F F F F A B Z F F S S F ",
"F F F F F F F F F F     F F F F ~ ~ F F                                         F F _ W @.%.    F F F F F F F F F N M F F Z A F ",
"F F F F F F F F F F     F F F F ! ~ F F                                         F F ` Q @.@.    F F F F F F F F F Z M N A Z Z F ",
"F F F F F F F F F F } @.O   F F F F                                                 . O / ~ o   Z C Z S %.&.F F F F A B A Z Z F ",
"F F F F F F F F F F $.*.    F F F F                                                   . ! ~     Z C Z S %.#.F F F F F F F S S F ",
"F F F F F F F F F F c.l.( ( F F F F                                             F F     F F     F F F F X $ F F F F F F F F F F ",
"F F F F F F F F F F F F Q Q F F F F                                             F F     F F     F F F F     F F F F F F F F F F ",
"F F F F F F F F + @ F F | | $ @ @ @ v.v.                                        @ = F F F F     F F -.-.F F F F F F F F F F F F ",
"F F F F F F F F     F F O.O.        N.N.                                            F F F F     F F @.#.F F F F F F F F F F F F ",
"F F F F F F F F 6 5 4.5.>.>.7 8     4.6.                                          . 6.6.F F     y.y.Y Y F F F F F F F F F F F F ",
"F F F F F F F F *.O.o   F F F F                                                         F F   $ E T     F F F F F F F F F F F F ",
"F F F S Z A A A ..X.    F F F F O .                                                   X F F     / ) @ . F F D A Z Z N C F F F F ",
"F F F S Z A A A  ...A S %.%.    F F                                                     #.@.    F F F F F S Z Z Z Z N M A F F F ",
"F F F F F F F F <.[ F F [ ] # @ F F                                                 o . { ] o   F F F F D Z Z D F F F A Z D F F ",
"H H G D F F F F o           ! !                                                     ~ ` o           F F D B C F F F F F D Z C S ",
"H H J K K J F F             ~ R                                                     T ~ o           F F F Z C A A S A A A 4 2 Z ",
"F F H K 0.I F F F F           o                                                       o     F F         F F D A A S A A A B B S ",
"F F F F 0.0.F F F F                                                                                     F F F F F F F F F F F F ",
"F F F G P L F F                                                                                           F F F K I L J J J H H ",
"K L H J J G F F F .                                                                                       F F F K I L J J J H H "
};
