/* XPM */
static char *result[] = {
/* columns rows colors chars-per-pixel */
"64 64 136 2 ",
"   c #000000",
".  c #090303",
"X  c #0B0905",
"o  c #040309",
"O  c #090909",
"+  c #080A10",
"@  c #0E0E1B",
"#  c #120D1D",
"$  c #101010",
"%  c #11111A",
"&  c #2D0000",
"*  c #300001",
"=  c #130C21",
"-  c #171324",
";  c #191425",
":  c #1C1429",
">  c #2D005A",
",  c #350069",
"<  c #3D0078",
"1  c #1D4A56",
"2  c #164F58",
"3  c #534C4C",
"4  c gray33",
"5  c #A51F2E",
"6  c #8C283B",
"7  c #9F2634",
"8  c #9C2934",
"9  c #922538",
"0  c #B0202F",
"q  c #A32635",
"w  c #A92635",
"e  c #A22934",
"r  c #A32639",
"t  c #A02A39",
"y  c #C0063B",
"u  c #FD023C",
"i  c #BF0F41",
"p  c #963846",
"a  c #973E48",
"s  c #FF0443",
"d  c #F30B45",
"f  c #DE3E43",
"g  c #E33B43",
"h  c #E93748",
"j  c #E63848",
"k  c #D04A54",
"l  c #E3424B",
"z  c #E24E4C",
"x  c #E74B51",
"c  c #450087",
"v  c #4D0096",
"b  c #5500A5",
"n  c #5C0AA8",
"m  c #5D00B4",
"M  c #6500C3",
"N  c #6D00D2",
"B  c #7500E1",
"V  c #7D00F0",
"C  c #8500FF",
"Z  c #8C0FFF",
"A  c #931EFF",
"S  c #9A2DFF",
"D  c #A13CFF",
"F  c #A84BFF",
"G  c #AF5AFF",
"H  c #B669FF",
"J  c #BD78FF",
"K  c #58B3B6",
"L  c #0097D6",
"P  c #0896D4",
"I  c #0499D6",
"U  c #0696DE",
"Y  c #0997DF",
"T  c #029BDA",
"R  c #0A99DA",
"E  c #1896D5",
"W  c #238DC7",
"Q  c #239CC8",
"!  c #0198E0",
"~  c #38D9D8",
"^  c #2CDEEA",
"/  c #35DBF4",
"(  c #36DEFC",
")  c #0FE6ED",
"_  c #0CE8F8",
"`  c #13E2F1",
"'  c #3CE4EA",
"]  c #2BE6F4",
"[  c #2EEAF6",
"{  c #2FE7FB",
"}  c #25E9F9",
"|  c #35E5F2",
" . c #38E7F3",
".. c #34E4FB",
"X. c #38E8FF",
"o. c #67D6DA",
"O. c #46D5E0",
"+. c #73D7E0",
"@. c #7ADBE2",
"#. c #45E6EF",
"$. c #869AB7",
"%. c #8C9BB5",
"&. c #909CB9",
"*. c #A8ABAA",
"=. c #AFB3AB",
"-. c #B2B2B2",
";. c #AEB7CA",
":. c #B0B6CE",
">. c #DBBBC9",
",. c #C487FF",
"<. c #CC96FF",
"1. c #D3A5FF",
"2. c #BBC8D7",
"3. c #BDC7D8",
"4. c #BFCADC",
"5. c #A8DCEB",
"6. c #C1CBDD",
"7. c #CED4DF",
"8. c #C2CDE2",
"9. c #C9D5E5",
"0. c #D0D6E4",
"q. c #D5DAE6",
"w. c #DDDFE5",
"e. c #D3DBE9",
"r. c #E1DEE2",
"t. c #E9D2FF",
"y. c #DFE1EE",
"u. c gray88",
"i. c #E0E3ED",
"p. c #E4FEFD",
"a. c #F6F6F6",
"s. c #FFF7F7",
"d. c #F3F9F5",
"f. c #F5F6FA",
"g. c #FEF6FC",
"h. c #FEFEFE",
/* pixels */
"C C C C C C C C C C C C C C C C C C C C C C C C C C C C C C C C C C C C C C C C C C C C C C C C C C C C C C C C C C C C C C C C ",
"C C C C C C C C C C C M b N B C V N N N N N B B B N c v V C C C C C C C C C C C C C C C C C C C C C C C C C C C C C C C C C C C ",
"C C C C C C C C C C C M b N B V B V V N N N B B B N c c B C C C C C C C C C C C C C C C C C C C C C C C V N N B B B N N N N V C ",
"C C C C C C C C C C C C C C C V B C A A S A C C C C C V B B V C C C C C C C C C C C C C C C C C Z S A C Z C V C V B N N N N M N ",
"C C C C C C C C C C C C C C C C B v M A S S S S A Z C C V M N C C C C C C C C C C C C C C C C F F Z C C A A Z A A A Z C C C m m ",
"C C C B N B N N M M V C C C C C V m m V C Z S S A S S A S C N V C C C C C C C C C C C C C C C F J Z B C C V B V Z A A A Z C N N ",
"C C B M N B N N M M V C V V C C C C M , c N V M m V C V C Z N B Z C C C Z S S A A A S S Z C C B Z S C C C C B N V C Z A A C B V ",
"C C M M C C C C C C C C B B C C C C N < c N B b c b b c c M N V Z C C C Z S S A A A S S Z C C N N C C C C C V B B B B B C C V C ",
"C C N N C C C C C C C B N V C C C C C C C C V B N N N b v M V C C C C C C C C C C C C C C C C C C C C C C C C C V B B B V C C C ",
"C C B B C C C C C V B N B C C C C C C C C C C C C C C V N N B B B B N b M C C C C C . o O o .     X o o C C C C C C C C C C C C ",
"C C B B C C C C B N B V C C C C C C C C C C C C C C C C V B B B B B N b M C C C C C                     C C C C C C C C C C C C ",
"C C B B C C C V N B C C C C C C C C C C C C C C C C                     C C       O h.h.a a f.f.a p 7.7.O   C C C C C C C C C C ",
"C C B B C C B N V C C C B M N B B V C C C C C C C C                     C C         h.h.8 8 i.y.q 8 :.;.    C C C C C C C C C C ",
"C C V N N B N B C C B N N M N B B C C C C C C C C C         o   o       C C & *   o h.h.7 7 r.r.q 7 >.>.o   C C C C C C C C C C ",
"C C C B N B V C C C m b V C C C C C C C C C             ; ; ; ; ; :         l g   ; : - 5 7 g.h.q q t r q.0.    7 t C C C C C C ",
"C C C C C C C C C C N N C C C C C C C C C C           o = = # # # =   o     k k + # % @ 0 5 g.s.6 p r q q.y.. o 9 6 C C C C C C ",
"C C C C C C C C C C C C C C C C C C C C         - - 6.6.6.6.4.6.6.6.6.6.  .   i C C C C j g d u g.g.t t     u.w.e.q.    C C C C ",
"C C C C C C C C C C C C C C C C C C C C         - ; 9.2.6.3.3.6.6.3.6.6.      g C C C C j g s s h.h.7 7 O   u.u.q.q.    C C C C ",
"C C C C C C C C C C C C C C C C C C C C         6.4.6.4.h.h.h.h.h.h.h.h.h.h.  . C C C C     8 t     g g     h.h.h.h.    C C C C ",
"C C C C C C C C C C C C C C C C C C C C       . 6.4.2.4.h.h.h.h.h.h.h.h.h.h.    C C C C     5 7 . $ g f     h.h.a.d.O o C C C C ",
"C C C C V V C C C C C C C C C C C C         : : 6.3.o       h.h.        h.h.  o C C C C C C i   C C .           z z e.0.    C C ",
"C C C C V V C C C C C C C C C C C C         : : 8.3..       h.h.      o h.h.    C C C C C C i   C C   o   . . o x x q.0.    C C ",
"C C C C C C C C C C C C C C C C C C         : : 6.3.o   %.%.h.h.  O &.%.h.h.    C C C C C C g   C C C C e e C C t w e.e.    C C ",
"C C C C C C C C C C C C C C C C C C         ; : 6.2.O   %.%.h.h.  . $.%.h.h.    C C C C C C     C C C C w e C C w 7 e.0.    C C ",
"C C C C C C C C C C C C C C C C C C         : : 6.6.9.8.h.s.h.h.g.h.h.h.h.h.    C C C C C C     C C C C i y C C C g         C C ",
"C C C C C C C V V C C C C C C C C C         - : 6.6.4.6.h.h.h.h.h.h.h.h.h.h.    C C C C C C     C C C C i C C C C C         C C ",
"C C C C C C C B B C C C C C C C             ; @ O   6.4.h.h.h.h.h.h.h.h.- :   o C C C C C C     C C C C l C C C C C C C h g C C ",
"C C C C C C V B V C C C C C C C             ; -     6.4.h.h.h.h.h.h.h.h.: :     C C C C C C     C C C C C C C C C C C C l h C C ",
"C C C C C C N N C C C C C C C C                     4.6.    h.h.    h.h.    C C C C C C C C     C C C C C C C C C C C C y i C C ",
"C C C C C C N N C C C C C C C C                     4.6.    h.h.o   h.h.    C C C C C C C |     C C C C C C C C C C C C   i C C ",
"C C C V N N M M V C C C C C C C                     o       o               C C C C C C C  .    C C C C C C C C C C C C C l C C ",
"C C V B N N m m N B C C C C C C                                             C C C | C | | C     C C C C C C C C C C C C C C C C ",
"C C N N C C N b n b | C C C C C         n n n n n n o                   n n C C C C +.| ..C     C C C C C C C C C C C C C C C C ",
"C C N N C C N c m M ' | C | C C         C C C | C C                     C | C C C C ..} C |     C V N B C C C C C C C C C C C C ",
"C C N N C C N v M C C | C C C C     X   C C C  .C C O                   U C C C C C O.~ C C     C V M M V C C C C C C C y i C C ",
"C C N N C C c , C F D |  . .C       C C C C | C                 C C C C  .U C C C C C C } ]     C C V G G V C C C C C C g g C C ",
"C C S F S Z b b S F t.1.| | C   o . C C  .C C U o               C C C C C U C C C C C C #.' .   C C C ,.J B V C C C C C g g C C ",
"C V S G S S V V Z C <.<.C | | C C C C C C U X O                         C U C C C C  .| C C     C C C Z A V V A Z C C C i g C C ",
"C B B C C C N N B B C C C | | C C C C C U C o O                         C C C C C C X.} C C     C C C C A Z B Z B , v V i i C C ",
"C N N C C C B M M B C C C C | | C C C C U U                                     C C Y | C C h.h.6.4.C C Z A B B B < c B C i C C ",
"C N N C C C M b B  .C C | C U U C | C | C U                                     C C U | C C h.h.6.4.C C C | V V A A A C V C C C ",
"C B B B N B v b C C C C C C U U    .C C                                           X L L 8.8.h.h.6.2.C C C C  .B Z S S D Z V C C ",
"B M N N N B M N C C C C | C I U U  .| C                                             L L 4.4.h.h.6.4.C C C C C N V S D G Z B C C ",
", v B V C C C C C  .C C | C I o U C | C                                         C | C ..| C 8.4.6.4.C C C C C V M B D S V B V C ",
"c M C C C C C C C | C C | C U U C C C C                                          .U U U | C 6.4.4.4.C C C | C C N b N C C B B C ",
"C C C C C C C C C C |   | | C U Y R C C                                         C U U Y [ ]     C C C C C / ..C C v c V C N N C ",
"C C C C C C C C C  . . .U | C C U R C C                                         C C U Y [ ..    C C C C C | | C C M c v N M M C ",
"C C C C | C C C C C / ] ! ! C | C C                                                 . o E R o   M m M B ....C C C C N b N M M C ",
"C C C C C C C C C C } U | U U C U C                                                   . T I o   M m M B | ] C C C C C C C B B C ",
"C C C C C C  .C C C p.U U W U C U C                                             C C     C C     C C C C |  .C C C C C C C C C C ",
"C C C C C C C  .C C C C U U C C U C                                             C C     C C     C C C C U U C C C C C C C C C C ",
"C C C C C C C C L U C C ( ( + O O O a.a.                                        O $ C C  .C     C C o.U U C C C C C C C C C C C ",
"C C C C C C C C U U U C ] ]         h.h.                                            C C  .C     C U U U C C C C C C C C C C C C ",
"C C C C C C / ] 2 1 *.=.@.@.3 4     =.-.                                          . -.-.C C     5.U U K C C C C C C C C C C C C ",
"C C C C C C ..| { ] U U C | | C                                                       . C C   o I I  .U C C C C C C C C C C C C ",
"C C C B M N N N _ ` U U C | U C o o                                                     C C     E Q U U C C V N M M v m C C C C ",
"C C C B M N N N ) U U B | ..U U U C                                                     ..] o   U U C C C B M M M M v c N C C C ",
"C C C C C C C C ( U Y C ^ ^ U U Y !                                               . U U  .^ o   U U U C V M M V C C C N M V C C ",
"A A Z C C C C C             U U                                                     ! !             U C V b m C C C C C V M m B ",
"A A S D D S C C o           P P                                                     P R o           U U C M m N N B N N N < > M ",
"C C A D ,.H C C C C                                                                 o       C C         C C V N N B N N N b b B ",
"C C C C ,.,.C C C C                                                                                     C C C C C C C C C C C C ",
"C C C Z G F C C                                                                                           C C C D H F S S S A A ",
"D F A S S Z C C C .                                                                                       C C C D H F S S S A A "
};
