/* XPM */
static char *result[] = {
/* columns rows colors chars-per-pixel */
"64 64 116 2 ",
"   c #000000",
".  c #080304",
"X  c #0B0905",
"o  c #030309",
"O  c #090909",
"+  c #080A10",
"@  c #0E0E1B",
"#  c #120D1D",
"$  c #0D1217",
"%  c #101010",
"&  c #11111A",
"*  c #2D0000",
"=  c #300001",
"-  c #130C21",
";  c #171324",
":  c #191425",
">  c #1C1429",
",  c #2D005A",
"<  c #350069",
"1  c #3D0078",
"2  c #534C4C",
"3  c gray33",
"4  c #A51F2E",
"5  c #8C273B",
"6  c #8B283B",
"7  c #9F2634",
"8  c #9C2934",
"9  c #922538",
"0  c #B0202F",
"q  c #A32635",
"w  c #A92635",
"e  c #A22934",
"r  c #A32639",
"t  c #A02A39",
"y  c #FD023C",
"u  c #BF0F41",
"i  c #903645",
"p  c #983143",
"a  c #943D46",
"s  c #973E48",
"d  c #9B3C4A",
"f  c #FF0443",
"g  c #F30B45",
"h  c #DE3E43",
"j  c #E33B43",
"k  c #E93844",
"l  c #E6364B",
"z  c #E93748",
"x  c #E43B48",
"c  c #D04A54",
"v  c #E3424B",
"b  c #E24E4C",
"n  c #E44C50",
"m  c #EA4A51",
"M  c #450087",
"N  c #4D0096",
"B  c #5500A5",
"V  c #5D00B4",
"C  c #6500C3",
"Z  c #6D00D2",
"A  c #7500E1",
"S  c #7D00F0",
"D  c #8500FF",
"F  c #8C0FFF",
"G  c #931EFF",
"H  c #9A2DFF",
"J  c #A13CFF",
"K  c #A84BFF",
"L  c #AF5AFF",
"P  c #B669FF",
"I  c #BD78FF",
"U  c #0096D6",
"Y  c #0896D4",
"T  c #0499D6",
"R  c #0696DE",
"E  c #0A99DA",
"W  c #1A96D1",
"Q  c #2ADFEB",
"!  c #3DDFEF",
"~  c #37DEFC",
"^  c #0CE8F8",
"/  c #2AE7F5",
"(  c #2FE7FB",
")  c #36E7F0",
"_  c #7ADBE2",
"`  c #A3A9A7",
"'  c #ACACAC",
"]  c #B2B2B2",
"[  c #AEB7CA",
"{  c #B0B6CE",
"}  c #D9B9C7",
"|  c #DBBBC9",
" . c #C487FF",
".. c #BDC7D8",
"X. c #BFCADC",
"o. c #C1CBDD",
"O. c #CED4DF",
"+. c #DFDFDF",
"@. c #C2CDE2",
"#. c #C6D3E2",
"$. c #CDD8E4",
"%. c #C9D4E8",
"&. c #D0D6E4",
"*. c #D5DAE6",
"=. c #DDDFE5",
"-. c #D3DBE9",
";. c #D9D8E8",
":. c #E1DEE2",
">. c #DFE1EE",
",. c #E0E3ED",
"<. c #F6F6F6",
"1. c #FFF7F7",
"2. c #F3F9F5",
"3. c #F5F6FA",
"4. c #FEF6FC",
"5. c #FEFEFE",
/* pixels */
"D D D D D D D D D D D D D D D D D D D D D D D D D D D ) D D D D D D D D D D D D D D D D D D D D D D D D D D D D D D D D D D D D ",
"D D D D D D D D D D D C B Z A D S Z Z Z Z Z A A A Z M ) ) D D D D ) D D D D D D D D D D D D D D D D D D D D D D D D D D D D D D ",
"D D D D D D D D D D D C B Z A S A S S Z Z Z A A A Z M ) ) D D ) D ) D D D D D D D D D D D D D D D D D D S Z Z A A A Z Z Z Z S D ",
"D D D D D D D D D D D D D D D S A D G G H G ) D D D D ) ) A ) ) D ) D D D D D D D D D D D D D D F H G D F D S D S A Z Z Z Z C Z ",
"D D D D D D D D D D D D D D D D A N C G H H ) H H F ) ) ) ) ) ) D ) D D ) D D D D D D D D D D J K F D D G G F G G G F D D D V V ",
"D D D A Z A Z Z C C S D D D D D S V V S D F ) ) G ) ) ) ) ) ) ) D ) ) ) ) D D D D D D D D D D K I F A D D S A S F G G G F D Z Z ",
"D D A C Z A Z Z C C S D S S D D D ) C < M Z ) ) ) ) ) ) ) ) ) ) ) ) ) ) ) ) ) G G Q H H F D D A F H D D D D A Z S D F G G D A S ",
"D D C C D D D D D D D D A A D D D ) ) 1 M ) ) ) ) ) ) ) ) R ) ) ) ) ) ) ) ) ) ) G H H H F D D Z Z D D D D D S A A A A A D D S D ",
"D D Z Z D D D D D D D A Z S D D D D ) D ) ) ) ) ) ) ) ) R R R ) ) ) ) ) ) R ) ) D D D D D D D D D D D D D D D D S A A A S D D D ",
"D D A A D D D D D S A Z A D D D D ) ) ) ) ) R ) ) ) ) R R R R ) R ) R ) R R ) ) D D   O O o . o .   o O D D D D D D D D D D D D ",
"D D A A D D D D A Z A S D D D D D ) ) ) ) ) R R ) R R R R R R R R R R R R R ) ) ) )                     D D D D D D D D D D D D ",
"D D A A D D D S Z A D D D D D D D ) ) ) ) R R R R R                     R R       O 5.5.a s 3.5.d i O.O.O   D D D D D D D D D D ",
"D D A A D D A Z S D D D A C Z A ) ) ) ) ) R R R R R                     R R         5.5.9 7 ,.:.e 8 { [     D D D D D D D D D D ",
"D D S Z Z A Z A D D A ) Z C Z ) ) ) ) ) ) R R R R R       .   o o       ) R * = . o 5.5.q 7 =.:.e q } | o   D D D D D D D D D D ",
"D D D A Z A S D D D V B S D D ) ) ) ) ) ) R             : : ; ; : >         v j   : : ; q q 1.5.e q t r ;.*.    q e D D D D D D ",
"D D D D D D D D D D Z Z D D D ) ) ) ) R R R       .   o - - # # # - . o     c c o & & @ 0 4 4.1.6 p r q *.>.  O 9 5 D D D D D D ",
"D D D D D D D D ) D D D D D ) ) ) R ) R         ; ; o.o.o.o.X.o.o.o.o.o.  . . 0 ) ) ) ) j x g y 5.4.7 t o   >.+.>.O.    D D D D ",
"D D D D D D D D ) D D D D D ) ) ) R ) R         ; : #.X.o.....o...o.o.X.    . j ) ) ) ) l x f f 5.5.7 7 .   +.+.*.*.    D D D D ",
"D D D D D D D D ) D ) D D ) ) ) ) R R R         o.X.X.X.5.5.5.5.5.5.5.5.5.5.  o ) ) R )     e 7   . j j     5.5.5.5.    D D D D ",
"D D D D D D D D ) D ) D D ) ) ) ) R R R     . . o.X.o.X.5.5.5.5.5.5.5.5.5.5.    ) ) R )     4 8   $ j h     5.5.<.2.O . D D D D ",
"D D D D S S D D ) D ) ) ) ) ) ) ) R         : > o...o.X.5.5.5.5.5.5.5.5.5.5.  . ) ) R ) ) )     ) D .   .       b n ;.&.    D D ",
"D D D D S S D D ) D ) E ) ) ) R ) R         : > @....       5.5..     o 5.5.    ) R R ) ) )     ) )   O       O n m *.$.    D D ",
"D D D D D D D ) ) D ) R R ) ) R ) R         : > o...        5.5.  o     5.5.    R R R ) ) )     ) ) D ) e q ) D 8 q *.-.    D D ",
"D D D D D D ) D ) ) ) R R ) ) R ) R       . > > @...O   o   5.5.  o     5.5.    R R R ) ) )     ) ) ) D w e ) D w e -.$.    D D ",
"D D D D ) D ) D ) ) ) R R R ) R R R         : > o.o.%.#.5.1.5.5.5.3.5.5.5.5.    R R R R ) )     ) ) ) ) 0 D ) ) D j   . .   D D ",
"D D D D ) D ) ) ) ) ) R R R ) R R R         : > o.o.X.X.5.5.5.5.5.5.5.5.5.5.    R R R R ) )     ) ) ) ) ~ ) ) ) ) D         D D ",
"D D D D ) D ) ) ) ) ) R R R R R             : @ O   o.X.5.5.5.5.5.5.5.5.; ;   O R R R R ) )     ) R ) ) ) ) ) ) ) D D D z h D D ",
"D D D D ) D ) ) ) ) ) R R R R R             : ;     X.X.5.5.5.5.5.5.5.5.> >     R R R R R R     ) R ) ) ) ) ) ) ) ) D D v k D D ",
"D D D D ) ) ) ) ) ) ) R R R R R                     X.o.    5.5.    5.5.    ) R R R R R R R     R R R ) ) R ) ) ) D D D   u D D ",
"D D D D ) ) ) R ) ) ) ) R R R R                     ..o.    5.5.O   5.5.    R R R R R R R R     R R R R ) R ) ) ) D ) D     D D ",
"D D D S ) ) ) R ) ) ) R R R R R                       o     O               R R R R R R R R     R R R R R R ) ) ) ) ) D D D D D ",
"D D ) A ) ) ) R ) ) ) R R R R R                                             R R R R R R R R . . R R R R R R ) R ) R ) ) D D D D ",
"D D Z Z ) ) ) R R ) ) ) R R R R         R R R R R R O                   R R R R R R R R ) R     ) R R R R R ) R R R ) ) ) D D D ",
"D D Z ) ) ) ) R R R R ) R R R R         R R R R R R                     R R R R R R R R R R     R R R R R R R R R ) ) ) ) D D D ",
"D D Z ) ) ) ) ) R ) R R R R R R     O   R R R R R R O                 R R R R R R R R R R R     R R R R R R R R R ) ) ) ) D D D ",
"D D Z ) ) R ) ) R R R R R R R       R R R R R R                 R R R R R R R R R R R R R /     R R R R R R R R R R ) ) D j D D ",
"D D H ) ) R ) ) R R ) R R R R   O   R R R R R R O               R R R R R R R R R R R R R R .   R R R R R R R R R R ) ) ) D D D ",
"D S H ) ) R ) ) ) R ) R R R ) R R ) R R R R O O                         R R R R R R R R R R     R R R R R R R R R R ) ) D ) D D ",
"D ) A ) ) ) ) ) R R R ) R R ) R R R R R R R O O                         R R R R R R R ) R R     ) R R R R R R R R R ) ) ) ) D D ",
"D ) Z ) ) ) R R R R R R R R R ) R R R R R R                                     R R R ) R R 5.5.o.X.R R R R R R R ) ) ) ) D ) D ",
"D ) ) ) ) ) R R R R R R R R R R R R R R R R                                     R R R ) R R 5.5.o.o.R R R R R R R ) ) ) ) D D D ",
"D ) ) ) ) R R R R R R R R R R R R R R R                                           X U U @.X.5.5.o.o.R R R R R R R ) R ) ) S ) D ",
"A ) ) ) R R R ) R ) R R R R R R R R R R                                           . U U @.X.5.5.o.X.R R R R R R R R R ) ) j ) D ",
"< N ) ) R R R R R ) R R R R R R R R R R                                         R ) R R ) R o.X.o.X.R R R R R R R R R ) ) ) ) D ",
"M C ) ) R R R R R R R R R R R ) R R R R                                         ) R R R ) R @.X.@.X.R R R R R R R R R ) ) ) ) D ",
"D ) ) ) R R R R R R R R R R R R R R R R                                         R R R R ( R     R R ) R R R R R R R ) ) ) ) ) D ",
"D D ) ) R R R R R R R R ) R ) R R R R R                                         R R R R R )     R ) R R R R R R R R ) R ) ) ) D ",
"D D D ) R R R ) R R R R R R R R R R .                                           R R R R R R o   ) R R R R R R R R R R R ) ) C D ",
"D ) D ) R R R R R R R R R R R R R R                                             R R R R R T o   R R R R R R R R R R R ) ) A A D ",
"D ) ) ) ) R R R R R R R R R R R R R                                             R R R R R R     R R R R R R R R R ) R ) ) D D D ",
"D ) ) ) ) R R R R R R R R ) R R R R                                             R R R R R R     R R R R R R R R R R R ) D D D D ",
"D D ) ) ) ) ) ) R R R R R ~ + O O O <.<.                                        O % R R ) R     R R R R R R R R R R R ) D ) D D ",
"D D D ) ) ) R R R R R R / R         5.5.                                            R R ) R     R R R R R R R R R R ) ) ) ) D D ",
"D D D D ) ) ) R R R ` R R _ 2 3     ' ]                                           O ] ] R R     R R R R R R R R R R ) ) ) ) D D ",
"D D D D D D ) ) R R R R R ~ ) R                                                       . R R   o U R R R ) R R R R ) ) ) ) D D D ",
"D D D A C Z Z R ^ R R R R R ( R O O                                                     R R .   W R R R R R R R R ) ) ) D D D D ",
"D D D A C ) Z R R R R R R R R R R R                                                     ( / o   R R R R R R R R ) ) ) M Z D D D ",
"D D D D D ) ) R R R R R R R R R R R                                                 R R ! Q o   R R R R R ) R ) ) ) D Z C S D D ",
"G G F D D D ) R             R R                                                     R R             R R R R R ) ) D D D S C V A ",
"G G H J J G ) R             E Y                                                   . U E o           R R R R ) Z Z A Z Z Z 1 , C ",
"D D G J  .P ) ) R R           .                                                     o       R R         R ) S Z Z A Z Z B B B A ",
"D D D D  . .D ) R R                                                                                     ) ) D D D D D D j j D D ",
"D D D F L K D D                                                                                           D D D J P K H j j G G ",
"J K G H H F D D D O                                                                                       D D D J P K H H H G G "
};
