/* XPM */
static char *result[] = {
/* columns rows colors chars-per-pixel */
"64 64 39 1 ",
"  c black",
". c #0F0000",
"X c #1E0000",
"o c #2D0000",
"O c #3C0000",
"+ c #4B0000",
"@ c #5A0000",
"# c #690000",
"$ c #780000",
"% c #25004B",
"& c #005A54",
"* c #006962",
"= c #007870",
"- c #870000",
"; c #960000",
": c #A50000",
"> c #B40000",
", c #C30000",
"< c #D20000",
"1 c #E10000",
"2 c #F00000",
"3 c red",
"4 c #00877E",
"5 c #440087",
"6 c #5400A5",
"7 c #5C00B4",
"8 c #6400C3",
"9 c #6C00D2",
"0 c #7400E1",
"q c #7C00F0",
"w c #8400FF",
"e c #00968C",
"r c #00A59A",
"t c #00B4A8",
"y c #00C3B6",
"u c #00D2C4",
"i c #00E1D2",
"p c #00F0E0",
"a c #00FFEE",
/* pixels */
"wwwwwwwqw00q00wwwwwwwwwwwwwwww33wwwwwwwwwwwwwwwwwwwwwwwwaa3wwwww",
"wwwwwq9q9wwww0wwwa3wwwi0q30q0q3wwwwwwww3wwwwwwwwwwwwaww3awwwwwww",
"wwwq0333ww33qwwwwaa3qqiw33www39wwwwwwww3wwwwwwwwwwaaaq3aq03q0qq0",
"wwqqwqw33w3qwwwwwwaaqwi33wwww3wwwwwwwww3wwwwwww890aai3awww33wwww",
"wwqwqwqw333wwwwwwwaaaii33www33iwwwwwwwqq0q0wwwwwww5aiaawwww3awww",
"wwqw700q333wwwwwwwwaaii3wwwq33iiwwwww8q3ww0qwwwwww6aaa70qq0aa3qw",
"wq0qwwqw33wwwwwwww8aaai30qqq33wiiwww9waawwq0wwwwwwiaaa3wwawa333q",
"w%qww0aw33wwwwwwwwwwaaiiwww333wiii3w9aa3wqqwwwwwwwaaaa3wwaaaw33w",
"w6qwwqa333wwwwwwwwwwaaaiwww333wwii3waa3333wwwwwwwwaaaa33waaaw333",
"w6ww0wa333wwwwwwwwwia3aiww3333wwii4aaww333wwwwwwwaaiaa33wwaaw333",
"w8wwqaa333wwwwwwwwwaa3aiww333wwwwiraa003333wwwwwwaaaaa33wwaaw333",
"qqw0waa333wwwwwwwwia33aaw3333wwwaia=aaw3-333wwwww*aai3333waaww33",
"0qqwaia333w3wwwwwwup33iaw3333wwwaaayaaw31233wwwwwt3ii3333iaawww3",
"q0qwaia333wwwwwwwwua33iap3333wwwaai3aaw33133wwwwwi33pu3233aawww3",
"q9wwaiai333wwwwwwwui333au33333wwa&33ia333<3333wwya33ay3333waaww3",
"q0waaiai3133wwwwwwu33-3iaa3123w3pu333aa;313333wwya33api333waaaw3",
"90waaiaa3<;33www33u33<33au33133333-33yaO>123333iya333ii,333aaau3",
"09waa33aa31233ww3p333<33a333<333331<2pt<12<33ep4a33>1aii23a=aau3",
"9waap33aa33<33333p3322133333,1213<1:3ae,2,133apa333223ip<auaaaa3",
"wwaa3333aa,223333p3313133121131233<312223<21upa3333213ii1ip33p&a",
"waaa3333ia231133ua3<23<32332<<32<,:1>$32311pua33333223pp1ua333ea",
"waai3:33aa<12323332133<23><2:>><,>:# +:#213up123313213aut1<333yi",
"wwap3;13aa232123332,22-,>$<2;><<12+,>111-<ti2:233<<<2134r<1333up",
"war,3<,3<3231231331<1;$1:,-11+;,<O ;##->oo1:,<<332>3312ir2<2333i",
"wai,3111223332:3212#<3><>:@11<;<2O:23,<1>$-><1;>3212323ui2<1333y",
"wau<3<3<213331>3:2;;231><,1132#>>>>1312,2<,,<>>#321,32<333<2333&",
"3aa12<3>123332<31:>>32<;1:2<311o:1<23<2<2,<2<>::,12311;<23>23333",
"3ua1213<123332,<@,<<2$:+>2,132,2 $:->22<11,2;1>@<>32,<13211<3333",
"3pu22<3<3<333111<,,<<<<,,,:<1222#11@232,3<>;,<,$;<<1<123131<3333",
"33322::>1223311;1,<#<1##$>:><:>2$<1,33<>;:X  .,:O1>1;<13231>3333",
"33<,3,211<123<1,,12>$;@#,:o21-;1@1>,2$;; @o@o@@- 2O2:,<3323>2333",
"333,<13<22321,2>:2<>+.+>-@$><,>1.,1,3@O+ .O:$-->$$>,>,33313:2333",
"3332<11122312,1-:12-$@O .OO-O<$3<<>1: #@>#++o@:21:,-1,13332<<333",
"33311,12,333$>2$<3,: @@$-# --1,3>1-21@oo   O.$>;<1<$1-32332<-333",
"3323<2>1<13131:-,212 OO@#-Xo@<13-,<3<+ O #@ o$:;21>><<21333::333",
"33132<<2123232+$,121 X+o;-;@+<112,111@ @ @  O:+>22>-:2:3233,:233",
"33231<<221322<<>$<13> @#o >; 21,,<3,$@ O  .-X@>,<3:+;233323<,133",
"332322:22112111:-<13>+oXo    @,<:23;- .  ;-@;;#,<2>3>133313<#233",
"331321><322<<12;;1<2>1,$$:O## 31:3,1 -<<X@;,11<,<2>2;133332<2233",
"3232321>322<12;::132;1>1>>,>$@<<,3,< >$>1<32<,<>21@1-:13331<3233",
"31313<2>312,22<>-<32 ,>,<<>@ @;>1:22 ,;..;33->3<,,-1,,22332<3133",
"3232221:3<2<13,2$221:+:<-21< 2-<3112;2<22 ##,:2,>1 2<12<<32<3233",
"3123212,<22<11,1;,<,, o;;11<3<>@32<2,<12,;:,XO2<>> 1122213123233",
"321232#:>131,213O,2<@>12;23,211222,22X31;11X+1,<$# ,,311<3;33133",
"322131:+2>3-113<X->-;1<<,<313<:,,1,13,1$2:, @12,>#@:,33131,33233",
"22233>>-3,:>223<#,+o<3<1+<123<,31,<<312->3<1+23,#;:,;;322<233133",
"21231,2<2<:,223<>,1;X#->>:212,<3<11<311,22,2 1,:>,,2112221133233",
",1211,2<111#22;<:1<2<1,3;2<1-,32122>23<>3>O$31.1<21<,1213,233233",
",:323>11<3>11<,#o1<<2-#21<21$1311112<31<<;#23><2<<<2,2122,313<33",
"33312<131,,32,13#2<12>:2-<<1o,2>12>21<1,1>>3,+111>2222>113<32:23",
"33322;12<<133<233<<11,>3>3<X$22<>312:,$<o>>21>-12<21121133<31322",
"33313$2:<2<33,333,121<#2131-;,;2o1111>-,:O;2>>,12222222<33212332",
"33221<2:1313<2332233<;>212<>-<12X13:<:;>,;-23212<<232211233<2333",
"32232<112,33<31321332.O2<2,;::33+1<<@+11+;,1>2212311322223321233",
"32231,11223<333212331#$21<#$:;33X,1<>#11# ,<@23332<3311332312233",
"2213,1122312333123331@,11, .o133 >231;1<; ;$>3321313331231232223",
"23<1;:23221333321333>:;111o 1232#:33,@3,>.>-<<,2332132213<2331<3",
"132<,<331123333<2333,:>,21#X2231 1,21$2<O ,>1333333<32223-2332,3",
"<32332322133333132311,##,:+#>$$;+1$o:;;,X#,<;33333<<133<333333;3",
"<13332321333333331232> :$;X><<21:<1o:,33>-:><33333,3333233333323",
"33333<2<33333333313313$3<3-11332133;@3332:$#33333333333333333333",
"33333<:1333333333,3323X3<1 23331333;;333<1.333333333333333333333",
"333333,333333333,33311$222313333333>$333333333333333333333333333",
"3333333333333333333333311323333333333333333333333333333333333333"
};
