/* XPM */
static char *result[] = {
/* columns rows colors chars-per-pixel */
"64 64 252 2 ",
"   c black",
".  c #000100",
"X  c #010100",
"o  c #010101",
"O  c #020000",
"+  c #030100",
"@  c #030001",
"#  c #000201",
"$  c #030301",
"%  c #000002",
"&  c #010103",
"*  c #020002",
"=  c #030003",
"-  c #020202",
";  c gray1",
":  c #050001",
">  c #060000",
",  c #050301",
"<  c #040102",
"1  c #030400",
"2  c #000700",
"3  c #010403",
"4  c #000503",
"5  c #070503",
"6  c #000004",
"7  c #010005",
"8  c #030005",
"9  c #000204",
"0  c #010305",
"q  c #020204",
"w  c #010007",
"e  c #000107",
"r  c #020106",
"t  c #000206",
"y  c #060004",
"u  c #070105",
"i  c #060006",
"p  c #060306",
"a  c #000405",
"s  c #040404",
"d  c gray2",
"f  c #060606",
"g  c #070707",
"h  c #090200",
"j  c #0B0905",
"k  c #000009",
"l  c #030209",
"z  c #040008",
"x  c #000409",
"c  c #010609",
"v  c #060608",
"b  c #04060A",
"n  c #03030E",
"m  c gray3",
"M  c gray4",
"N  c #0B0B0B",
"B  c #080A10",
"V  c #0E0C1A",
"C  c #0D0F1C",
"Z  c #0D1217",
"A  c #101010",
"S  c #10111A",
"D  c #12111A",
"F  c #300001",
"G  c #130A20",
"H  c #171324",
"J  c #171627",
"K  c #181324",
"L  c #1B1325",
"P  c #191026",
"I  c #191326",
"U  c #1E1326",
"Y  c #191425",
"T  c #191328",
"R  c #1A132A",
"E  c #181428",
"W  c #1F1428",
"Q  c #1E152B",
"!  c #2D005A",
"~  c #3D0078",
"^  c #534C4C",
"/  c gray33",
"(  c #A51F2E",
")  c #8C273B",
"_  c #8B283B",
"`  c #9E2333",
"'  c #9E2431",
"]  c #9D2533",
"[  c #9F2733",
"{  c #9F2735",
"}  c #9F2637",
"|  c #9B2930",
" . c #9C2937",
".. c #922538",
"X. c #B0202F",
"o. c #A52330",
"O. c #A52531",
"+. c #A42335",
"@. c #A12635",
"#. c #A22734",
"$. c #A22736",
"%. c #A42735",
"&. c #A52436",
"*. c #AA2533",
"=. c #A82636",
"-. c #A02932",
";. c #A32933",
":. c #A02834",
">. c #A32837",
",. c #A32538",
"<. c #A2263A",
"1. c #A02A39",
"2. c red",
"3. c #FD023C",
"4. c #BF0F41",
"5. c #903645",
"6. c #983143",
"7. c #943D46",
"8. c #973E48",
"9. c #9B3C4A",
"0. c #FE0242",
"q. c #FF0643",
"w. c #F30B45",
"e. c #DE3E43",
"r. c #E03B42",
"t. c #E33B43",
"y. c #E63B42",
"u. c #E43F41",
"i. c #E33A45",
"p. c #E43B46",
"a. c #E53D45",
"s. c #E93844",
"d. c #E6364B",
"f. c #E93748",
"g. c #E43B48",
"h. c #D04853",
"j. c #D04B55",
"k. c #E3424B",
"l. c #E14D4A",
"z. c #E24E4E",
"x. c #E44C50",
"c. c #EA4A51",
"v. c #E9F036",
"b. c #450087",
"n. c #5500A5",
"m. c #5D00B4",
"M. c #6500C3",
"N. c #6D00D2",
"B. c #7500E1",
"V. c #7D00F0",
"C. c #8500FF",
"Z. c #8C0FFF",
"A. c #931EFF",
"S. c #9A2DFF",
"D. c #A13CFF",
"F. c #A84BFF",
"G. c #AF5AFF",
"H. c #B669FF",
"J. c #0197D6",
"K. c #0896D4",
"L. c #0299D4",
"P. c #0598D7",
"I. c #0696DE",
"U. c #0899D8",
"Y. c #0999DA",
"T. c #0D9ADB",
"R. c #1A96D1",
"E. c #2ADFEB",
"W. c #3DDFEF",
"Q. c #37DEFC",
"!. c #0CE8F8",
"~. c #29E7F3",
"^. c #2AE6F5",
"/. c #2CE7F6",
"(. c #2FEAF6",
"). c #2FE7FB",
"_. c #36E7F0",
"`. c #33E2F5",
"'. c #32E6F6",
"]. c #7ADBE2",
"[. c #6BFFF5",
"{. c #A3A9A7",
"}. c #B1B1B1",
"|. c gray70",
" X c #AEB7CA",
".X c #B0B6CE",
"XX c #D9B9C7",
"oX c #DBBBC9",
"OX c #C487FF",
"+X c #BCC8DA",
"@X c #BECBDA",
"#X c #BDCCDB",
"$X c #BFCCDB",
"%X c #BFCBDD",
"&X c #BFCADE",
"*X c #BECDDC",
"=X c #BECCDF",
"-X c #C0CADB",
";X c #C0CDDB",
":X c #C0C9DC",
">X c #C1CADD",
",X c #C0C9DE",
"<X c #C1CADF",
"1X c #C0CBDF",
"2X c #C2CBDE",
"3X c #C0CDDC",
"4X c #C3CCDF",
"5X c #CED3DF",
"6X c #CDD5DE",
"7X c #DFDFDF",
"8X c #C0CDE3",
"9X c #C3CEE4",
"0X c #CDD8E4",
"qX c #D0D5E1",
"wX c #D0D7E7",
"eX c #D2DAE7",
"rX c #D6D8E5",
"tX c #D7DAE4",
"yX c #D4D9E7",
"uX c #D6DBE7",
"iX c #DDDFE5",
"pX c #D1D8E8",
"aX c #D7D9E8",
"sX c #D6DBE9",
"dX c #D2DDE9",
"fX c #D1DEEA",
"gX c #D9D8E8",
"hX c #E1DEE1",
"jX c #E0DDE2",
"kX c #DFE1EE",
"lX c gray88",
"zX c #E0E3ED",
"xX c #FFF7F7",
"cX c #F3F9F5",
"vX c #F2F7FA",
"bX c #F7F4F9",
"nX c #FEF4FF",
"mX c #FFF9FB",
"MX c #FFFDFB",
"NX c #FFFFFB",
"BX c #F8FAFC",
"VX c #FBFBFD",
"CX c #FEFBFC",
"ZX c #F8FDFF",
"AX c #FBFDFF",
"SX c #FDFDFD",
"DX c #FEFEFC",
"FX c #FFFFFD",
"GX c #FFFDFF",
"HX c #FCFEFF",
"JX c #FEFEFE",
"KX c white",
/* pixels */
"C.C.C.C.C.C.C.C.C.C._.C.C.C.C.C.C.v.v.v.C.C.C.C.C._.C._.C.C.C.C.C.C.C.v.v.C.C.C.C.C.C.C.C.C.C.C.C._._.C.C.C.C.C.C.C.C.C.C.C.C.C.",
"C.C.C.C.C.C.C.C.C.C._.M.n.N.B.C.V.v.v.v.v.N.B.B.B._.b._._.C.C.C.C._.C.v.v.v.C.C.C.C.C.C.C.C.C.C.C._._.C.C.C.C.C.C.C.C.C.C.C.C.C.",
"C.C.C._.C.C.C.C.C.C._._.n.N.B._.[.v.v.v.v.N.B.B.B._._._._.C.C._.C._.C.v.2.v.v.C.C.C.C._.C.C.C.C.C._._.C.V.N._.B.B.B.N.N.N.N.V.C.",
"C.C.C._._.C._.C.C._._._.C.C.C._.[.v.v.2.v.v._.C.C._._._._.B._._.C._.C.v.2.2.v.C.C.C.C._.C.C.C.C._._._.C.Z.C._.C.V.B.N.N.N.N.M.N.",
"C.C.C.C._._._.C.C._._._.C.C.C._.[.v.v.2.v.v.v.S.A._._._._._._._.C._.C.v.2.2.v.v.C.C.C._.C.C.C.D._._.C._.A.A._.A.A.A.Z.C.C.C.m.m.",
"C._.C.B._._.N.N.M._._._.C.C.C._.[.v.2.2.v.v.v._.A._._._._._._._.C._.v.v.2.2.2.v.C.C.C._._.C.C.F._.Z.B._.C.V._.V.Z.A.A.A.Z.C.N.N.",
"C._.B.M.N._._.N.M._._._._.V.C._.[.v.2.2.2.v.v._._._._._._._._._._._.v.v.2.2.2.v.v.A._.S._.C.C._._.S.C._.C.C._.N.V.C.Z.A._.C.B.V.",
"C._.M.M.C._.C._.C._._._._.B._.C.[.v.2.2.2.2.v.v._._._._._.I._._._._.v.v.2.2.2.v.v._._.S._.C.C._.N.C.C.C._.C._.B.B.B.B.B._.C.V.C.",
"C._.N.N.C._._.C._._._._._.V._.C.[.v.2.2.2.2.v.v.v._._._.I.I.I._._._.v.2.2.2.2.2.v._.C.C._.C._._.C.C.C.C._.C._.C.V.B.B.B._._.C.C.",
"C._.B.B.C._._.C._._._._._.C._._.[.v.v.2.2.2.2.v._._._.I.I.I.I._.I.v.2.2.2.2.2.2.v.C.s d _.d d d d d d d _.C._.C.C.C.C.C._._.C.C.",
"C._.B._._._._.C._._._._._.C._.C.[.[.v.2.2.2.2.v.v.I.I.I.I.I.I.I.I.I.2.2.v.2.2.2.v._.-   O @ o   @   % 9 C.C._.C.C.C.C.C._._.C.C.",
"C._._._._._._.V._._._._._.C._.C.[.[.v.2.2.2.2.2.v.v.v.          v.  2.2.v.2.2.2.  m KXAX7.8.vXBX9.5.5X6Xf   _._.C.C.C.C._._._.C.",
"C._._._._._._.N._.I._._._._._.B.[._.v.v.2.2.2.2.2.2.v.          v.  2.  v.2.2.2.    SXHX' { zXkX%. ..X X% o _._.C.C.C.C._._._.C.",
"C._._._._._._._._.I._._._._._.[.[._.[.v.2.2.2.2.2.2.v.v.8 8 8 v.v.v.    v.2.2.F y k VXZX+.{ jXhX>.' XXoXx r C._.C.C.C.C._._._.C.",
"C.C._._._._._._._.I._._._._.C.[.[._.[.v.2.2.2.2.  v.v.v.I L v.v.v.v.  v.v.v.2.p.i Y Y J O.{ CXMX$.$.$.,.gXeX  o $.$.C.C._._._.C.",
"C.C._._._._._._._.I._._._._._.[.[._._.v.2.2.2.@ 7 v.2.v.v.G v.v.2.v.v.v.2.v.h.j.b S D C X.( nXxX_ 6.<.@.aXiXs d ..) C.C._._._._.",
"C.C._._._._._._._.I.I._._._._.[.[.I._.I.  2.  v.E v.2.2.v.v.v.v.2.v.v.v.2.v.v.4._._._._.i.g.w.3.SXmX1.$.w & 7X7XfXtX-   _._._._.",
"C.C._._._._._._._.I.I._._.I.I.[.[.I._.I.      v.v.v.2.2.v.v.v.2.2.v.2.2.2.2.v.t._._._._.d.a.q.0.SXGX] ` u o 7XlXyXrXo   _._._._.",
"C._._._._._._._._.I._.I._.I.I.[.[.I.I.I.      v.2.v.2.2.v.2.v.2.2.v.2.2.2.2.v.- _._.[._.  o { } o @ y.t.@ o KXKXKXKXo   _._._._.",
"C._._._._._._._._.I._.I._.I.I.I.[.I.I.I.    @ v.2.2.2.2.v.2.2.2.2.2.2.2.2.2.v.- _._.I._.    o.| ; Z u.e.2 o JXJXbXcXv 5 _._._._.",
"C._._._._._.I.I.I._._._.I.I.[.I.[.I.      o Y Q v.2.2.2.2.2.2.2.2.2.2.2.2.2.v.- _._.I._._._.  @ _._.> @ >       l.z.sXqX.   _._.",
"C._._._._._.I.I.I._._._.I.I.[.I.[.I.      o Y W v.2.2.2.2.2.2.KX2.2.2.2.2.v.v.- _.I.I.I._._.    _._.s d - - s d x.c.uXwX%   _._.",
"C._._._._._.I.I.I._._._.I.I.[.I.[.I.      o Y W v.v.2.2.2.2.2.JX2.2.2.2.2.v.o - I.I.I.I._._.    [.[._._.;.#._._.:.&.uXpX%   _._.",
"C._._._._._.I._.I._._.[.[.I.[.I._.I.      o Y W 4Xv.v.2.2.2.2.KX2.2.2.2.v.v.o - I.I.I.I._._.    _.[._._.=.[ _._.*.-.dX0X@   _._.",
"C._._._._.I.I._.I._._.[.[.I.[.I.I.I.      o Y W 4X*Xv.v.v.v.v.v.v.v.v.v.v.JXo - I.I.I.I.I._.    _.[.I._.4._._._._.t.O * ,   _._.",
"C._._._._.I.I._.I._._.[.I.[.[.I.I.I.      o Y U 2X2X$X@Xv.v.KXKXv.v.v.v.KXJXo - I.I.I.I.I._.    _.[.I._._._._.[._._.  % o O _._.",
"C._._._._.I.I._.I._._.[.I.[.[.I.          o Y V p q :X$XDXKXKXKXKXKXKXSXP K   - I.I.[.I.I._.    _.[.I._._.I._.[._._._._.f.r._._.",
"C._._._._.I.I._.I._._.[.I.[.[.I.          o Y H   % ;X$XDXKXKXKXKXKXKXSXR T o - I.I.[.I.I.I.    _.[.I._.I.I._.[._._._._.k.s._._.",
"C._._._.I.I.I._.I._._.[.I.[.[.I.            %     % 3X>XX o KXKX-   KXKX% & _.I.I.I.[.I.I.I.    I.[.I._.I.I._.[._.I.I._.  4._._.",
"C._._._.I._.I.I._._._.[.I.[.[.I.                  % +X>X  o KXKX; o KXKX  o I.I.[.[.[.I.I.I.    I.[.I.I._.I._.[.[.I.I._.    _._.",
"C._._._.I._.I.I._._._._.I.[.[.I.                    r r O o ; - o o - -   o I.I.[.[.I.I.I.I.    I.[.I.I.I.I._.[.[._.I._._._._._.",
"C._._._.I._._.I._._._.FXI.I.[.I.                  o o                     o I.I.[.I.I.I.I.I.    I.[.I.[.I.I._.[.[.I.I._.I._._._.",
"C._._._.I._._.I.I._._.FXI.I.I.I.        I.I.I.I.I.I.f                   I.I.I.I.[.I.I.I._.I.    _.[.I.[.I.I.[.I.[.I.I._.I.I._.C.",
"C._._._.I.[._.I.I.I.FXFXFXFXI.I.        I.[.I.I.I.I.o                   I.I.[.I.[.I.I.I.I.I.@   I.[.I.I.[.I.[.I.[._.I.I.I.I._.C.",
"C._._._.I._.[._.I._.FXFXFXFXI.I.    f   I.[.I.I.I.I.m           o     I.I.I.[.I.[.I.I.I.I.I.+   I.[.I.I.[.I.[.I.[._.I.I.I._.I.C.",
"C._._._.I.I.[._.I.I.FXFXFXFXI.      I.I.I.[.I.I.                I.I.I.I.I.I.[.I.[.[.I.I.I.~.#   I.[.I.I.[.I.[.I.[.I.I.I.I.t.I.C.",
"C._._._.I.I._.[.I.I._.      I.s s s I.I.I.[.I.I.d               I.I.I.I.I.I.[.I.I.[.I.I.I.I.h   I.[.I.I.I.I.[.I.[.I._._.I._.I.C.",
"C._._._.I.I._.[._.I._.[.      I.I._.I.I.I.[.m m                         I.I.[.I.I.I.I.I.I.I.6   I.I.I.I.I.I.[.I.[.I._._.I._.I.C.",
"C._._._.I._._.[.I.I.I.[.I.      I.I.I.I.I.I.g m                         I.I.I.I.I.I.I._.I.I.    _.I.I.I.I.I.[.I.[.I._._.I._.I.C.",
"_._._._.I._.I.[.I.I.I.[.I.            I.I.I.                                  - I.I.I._.I.I.KXDX:X&XI.I.I.[.I.I.I.[._.I.I._.I.C.",
"_._._._.I.[.I.[.I.I.I.[.I.I.          I.I.I.                                    I.I.I._.I.I.NXFX>X&XI.I.I.[.I.I.I.[._.I.I.I._.C.",
"_._._._.I.[.I.I.[.I.I.[.I.I.I.                                                -   j     9X>XDXFX>X&XI.I.I.[.I.I.[.[.I.I.I.I._.C.",
"_._._._.I.I.I._.[._.I.[.I.I.I.I.                                              o   :     8X-XSXFX>X&XI.I.I.I.I.I.[.[.I._.I.I._.C.",
"_._._._.I.I.I.I.I.[.I.[.I.I.I.I.I.                                      v.    o I._.I.I.`.I.<X#X>X&XI.I.I.I.I.I.[.[.I._.I.I._.C.",
"_._._._.I.I.[.I.I.I.[.[.I.I.I._.I.[.I.                                  v.v.  - _.I.I.I.`.I.,X%X1X=XI.I.I.I.I.I.[.I.[._.I.I._.C.",
"_._._._.I.I.[.I.I.I.[.[.I.I.I.I.I.[.I.I.                              v.v.v.  - I.I.I.[.(.I.;   I.I._.I.I.I.I.I.[.I.[._.I._._.C.",
"_._._._.I.I.[.I.I.I.[.[.`.I._.I.I.[.I.I.                            v.v.2.v.  o I.I.I.[.I.'.3   I._.I.I.I.I.I.I.[.[.[.I.I._._.C.",
"_._._._.I.I.[._.I.I.I.[.I.I.I.I.I.[.< ;                               2.2.v.    I.I.I.[.I.Y.0   _.I.I.I.I.I.I.I.[.[.[.I._._._.C.",
"_._._._.I.I.I.[.I.I.I.I.I.I.I.I.I.I.                                2.2.2.v.    I.I.I.[.I.P.7   I.I.I.I.I.I.I.I.[.[.[.I._._._.C.",
"C._._._._.I.I.[.I.I.I.I.I.I.I.I.I.I.                                2.2.2.v.  o I.I.I.[.I.I.=   I.I.I.I.I.I.I.I.[.[.I.I._._._.C.",
"C._._._._.I.I.I.[.I.I.I.I._.I.I.I.I.                              2.2.2.2.v.  - I.I.I.I.I.I.%   I.I.I.I.I.I.I.I.[.I.I.I._._.C.C.",
"C._._._._._._._.[.I.I.I.I.Q.B M M                               2.2.2.2.2.    - N A I.I._.I.    I.I.I.I.I.I.I.I.I.I.I._.C._.C.C.",
"_.C._._._._.I.I.I.[.I.I.^.I.-                                 2.2.2.2.2.2.          I.I._.I.    I.I.I.I.I.I.I.I.I.[._._._._.C.C.",
"_.C._._._._._.I.I.[.{.I.I.].^ / o                           2.2.2.2.2.2.          ; |.}.I.I.  ; I.I.I.I.I.I.I.I.[.[._._._._.C.C.",
"C._._._._._._.`.I.[.I.I.I.`.`.I.                            2.2.2.2.2.2.              : I.I.O n L.I.I.I._.I.I.I.[._._._._.C.C.C.",
"C.C._._._._._.I.!.[.I.I.I.I.`.I.f                           2.2.2.2.2.                4 I.I.1 $ R.I.I.I.I.I.I.I.[._._._.C.C.C.C.",
"C.C.C._._._._._.I.I.[.I.I.I.I.I.I.I.                          2.2.2.                    )./.# o I.I.I.I.I.I.I.I._._._.b.N.C.C.C.",
"C.C.C._._._._._.I.I.I.I.I.I.I.I.I.I.                            2.2.              @ I.I.W.E.c   I.I.I.I.I._.I._._._.C.N.M.V.C.C.",
"A.A.Z.C._._._._.a     .   % I.I.%                                                 O I.I.e   o       I.I.I.I.I._._.C.C.C.V.M.m.B.",
"A.A.S.D.D.A._.I.;           U.K.6                                                 1 J.T.l o - o     I.I.I.I._.N.N.B.N.N.N.~ ! M.",
"C.C.A.D.OXH._._.I.I.-       = i                                                     z t o o I.I.o     o I._.V.N.N.B.N.N.n.n.n.B.",
"C.C.C.C.OXOXC._.I.I.-                                                                       o o       o _._.C.C.C.C.C.C.t.t.C.C.",
"C.C.C.Z.G.F.C.C.-                                                                                         C.C.C.D.H.F.S.t.t.A.A.",
"D.F.A.S.S.Z.C.C.C.-                                                                                       C.C.C.D.H.F.S.S.S.A.A."
};
