/* XPM */
static char *result[] = {
/* columns rows colors chars-per-pixel */
"64 64 113 2 ",
"   c #000000",
".  c #080304",
"X  c #0B0905",
"o  c #030309",
"O  c #090909",
"+  c #080A10",
"@  c #0E0E1B",
"#  c #120D1D",
"$  c #0D1217",
"%  c #101010",
"&  c #11111A",
"*  c #2D0000",
"=  c #300001",
"-  c #130C21",
";  c #171324",
":  c #191425",
">  c #1C1429",
",  c #2D005A",
"<  c #350069",
"1  c #3D0078",
"2  c #534C4C",
"3  c gray33",
"4  c #A51F2E",
"5  c #8B283B",
"6  c #9F2634",
"7  c #9C2934",
"8  c #922538",
"9  c #B0202F",
"0  c #A32635",
"q  c #A92635",
"w  c #A22934",
"e  c #A32639",
"r  c #FD023C",
"t  c #BF0F41",
"y  c #983143",
"u  c #943D46",
"i  c #973E48",
"p  c #9B3C4A",
"a  c #FF0443",
"s  c #F30B45",
"d  c #DE3E43",
"f  c #E33B43",
"g  c #E93844",
"h  c #E6364B",
"j  c #E93748",
"k  c #E43B48",
"l  c #D04A54",
"z  c #E3424B",
"x  c #E24E4C",
"c  c #EA4A51",
"v  c #450087",
"b  c #4D0096",
"n  c #5500A5",
"m  c #5D00B4",
"M  c #6500C3",
"N  c #6D00D2",
"B  c #7500E1",
"V  c #7D00F0",
"C  c #8500FF",
"Z  c #8C0FFF",
"A  c #931EFF",
"S  c #9A2DFF",
"D  c #A13CFF",
"F  c #A84BFF",
"G  c #AF5AFF",
"H  c #B669FF",
"J  c #BD78FF",
"K  c #0096D6",
"L  c #0896D4",
"P  c #0499D6",
"I  c #0696DE",
"U  c #0A99DA",
"Y  c #1A96D1",
"T  c #2ADFEB",
"R  c #37DEFC",
"E  c #0CE8F8",
"W  c #2AE7F5",
"Q  c #2FEAF6",
"!  c #2FE7FB",
"~  c #36E7F0",
"^  c #7ADBE2",
"/  c #A3A9A7",
"(  c #ACACAC",
")  c #B2B2B2",
"_  c #AEB7CA",
"`  c #B0B6CE",
"'  c #D9B9C7",
"]  c #DBBBC9",
"[  c #C487FF",
"{  c #BBC8D7",
"}  c #BDC7D8",
"|  c #BFCADC",
" . c #C1CBDD",
".. c #CED4DF",
"X. c #DFDFDF",
"o. c #C2CDE2",
"O. c #C6D3E2",
"+. c #CDD8E4",
"@. c #C9D4E8",
"#. c #D0D6E4",
"$. c #D5DAE6",
"%. c #DDDFE5",
"&. c #D3DBE9",
"*. c #D9D8E8",
"=. c #E1DEE2",
"-. c #DFE1EE",
";. c gray88",
":. c #F6F6F6",
">. c #FFF7F7",
",. c #F3F9F5",
"<. c #F5F6FA",
"1. c #FEF6FC",
"2. c #FEFEFE",
/* pixels */
"C C C C C C C C C C C C C C C C C C C C C C C C C C C C C C C C C C C C ~ C C C C C C C C C C C C C C C C C C C C C C C C C C C ",
"C C C C C C C C C C C C C C C C C C C C C C C C C C C C C C ~ C C C C ~ ~ v N B B B N N N N N V C B N n M C C C C C C C C C C C ",
"C V N N N N B B B N N V C C C C C C C C C C C C C C C C C C ~ C ~ C C ~ ~ v N B B B N N N V V B V B N n M C C C C C C C C C C C ",
"N M N N N N B V C V C Z C A S Z C C C C C C C C C C C C C C ~ C ~ ~ B ~ ~ C C C C ~ A S A A C B V C C C C C C C C C C C C C C C ",
"m m C C C Z A A A Z A A C C Z F D C C C C C C C C C C ~ C C ~ C ~ ~ ~ ~ ~ ~ Z A S ~ S S A M b B C C C C C C C C C C C C C C C C ",
"N N C Z A A A Z V B V C C B Z J F C C C C C C C C C C ~ ~ ~ ~ C ~ ~ ~ ~ ~ ~ ~ A ~ ~ Z C V m m C C C C C C V M M N N B N B C C C ",
"V B C A A Z C V N B C C C C S Z B C C Z S S ~ A A ~ ~ ~ ~ ~ ~ ~ ~ ~ ~ ~ ~ ~ ~ ~ ~ ~ N v < M ~ C C C V V C V M M N N B N M B C C ",
"C V C C B B B B B V C C C C C N N C C Z S S A S ~ ~ ~ ~ ~ ~ ~ ~ ~ ~ I ~ ~ ~ ~ ~ ~ ~ ~ v 1 ~ ~ C C C B B C C C C C C C C M M C C ",
"C C C V B B B V C C C C C C C C C C C C C C C C ~ ~ I ~ ~ ~ ~ ~ ~ I I I ~ ~ ~ ~ ~ ~ ~ ~ C ~ C C C C V N B C C C C C C C N N C C ",
"C C C C C C C C C C C C . o o . . O o . . . C C ~ ~ I I ~ I ~ I ~ I I I I ~ ~ ~ ~ I ~ ~ ~ ~ ~ C C C C B N B V C C C C C B B C C ",
"C C C C C C C C C C C C                     ~ ~ ~ ~ I I I I I I I I I I I I I ~ I I ~ ~ ~ ~ ~ C C C C C V B N B C C C C B B C C ",
"C C C C C C C C C C   . +...u i <.<.p u 2.2.O       I I                     I I I I I ~ ~ ~ ~ C C C C C C C B N V C C C B B C C ",
"C C C C C C C C C C     _ ` 7 0 %.-.e 6 2.2.        I I                     I I I I I ~ ~ ~ ~ ~ B N M B C C C V N B C C B B C C ",
"C C C C C C C C C C   o ] ' 6 e =.=.6 0 <.1.o . = * I ~       o .   o       I I I I I ~ ~ ~ ~ ~ ~ N M N ~ B C C B N B N N V C C ",
"C C C C C C w w     &.*.e 0 0 w 2.2.w 0 ; ; : . f z         > : ; : : >             I ~ ~ ~ ~ ~ ~ C C V n m C C C V B N B C C C ",
"C C C C C C 5 8 o . %.&.0 e y 5 >.1.4 q & & & o l l     o . - # - - - - o           I I I ~ ~ ~ ~ C C C N N C C C C C C C C C C ",
"C C C C     $.&.X.X.  o 0 6 >.2.r s k f ~ ~ ~ ~ 9 . .   o. . . .} }  . . . .; :         I ~ I ~ ~ ~ C C C C C ~ C C C C C C C C ",
"C C C C     $.&.;.X.  . 6 6 2.2.a a f h ~ ~ ~ ~ f o .    . . .}  . .}  . .O.; ;         I ~ I ~ ~ ~ C C C C C ~ C C C C C C C C ",
"C C C C     2.2.2.2.    k f     6 6     ~ I ~ ~     2.2.2.2.2.2.2.2.2.2.|  . . .        I I I ~ ~ ~ ~ C C ~ C ~ C C C C C C C C ",
"C C C C . O ,.<.2.2.  X d f $ . 7 w     ~ I ~ ~     2.2.2.2.2.2.2.2.2.2.|  .|  ..       I I I ~ ~ ~ ~ C C ~ C ~ C C C C C C C C ",
"C C     #.&.x x             C ~     ~ ~ ~ I ~ ~ o   2.2.2.2.2.2.2.2.2.2. .| {  .> >         I ~ ~ ~ ~ ~ ~ ~ C ~ C C V V C C C C ",
"C C     #.$.c x . .     O . ~ ~     ~ ~ ~ I I ~ .   2.2.o       2.2.        }  .> >         I ~ L ~ ~ ~ I ~ C ~ C C V V C C C C ",
"C C     &.&.q 0 C ~ w w ~ C ~ ~     ~ ~ ~ I I I     2.2.    . o 2.2.      .  . .> :         I ~ I ~ ~ I I ~ C ~ ~ C C C C C C C ",
"C C     +.&.w q C ~ w q C ~ ~ ~     ~ ~ ~ I I I     2.2.        2.2.o     O }  .> :         I ~ I ~ ~ I I ~ ~ ~ C ~ C C C C C C ",
"C C         f C ~ ~ C t ~ ~ ~ ~     ~ ~ I I I I     2.2.2.2.<.2.2.2.>.2.o.@.|  .> :         I I I ~ I I L ~ ~ ~ C ~ C ~ C C C C ",
"C C         C ~ ~ ~ ~ ~ ~ ~ ~ ~     ~ ~ I I I I     2.2.2.2.2.2.2.2.2.2.| |  . .> :         I I I ~ I I I ~ ~ ~ ~ ~ C ~ C C C C ",
"C C f j C C C ~ ~ ~ ~ ~ ~ ~ I ~     ~ ~ I I I I     : : 2.2.2.2.2.2.2.2.|  .o . @ :             I I I I I ~ ~ ~ ~ ~ C ~ C C C C ",
"C C g z C C ~ ~ ~ ~ ~ ~ ~ ~ I ~     I I I I I I     > > 2.2.2.2.2.2.2.2.| |     ; :             I I I I I ~ ~ ~ ~ ~ C ~ C C C C ",
"C C t   C C C ~ ~ ~ I ~ ~ I I I     I I I I I I I ~     2.2.  o 2.2.     . .                    I I I I I ~ ~ ~ ~ ~ ~ ~ C C C C ",
"C C     C ~ C ~ ~ ~ I ~ I I I I     I I I I I I I I     2.2.  . 2.2.     .{                     I I I I ~ ~ ~ ~ I ~ ~ ~ C C C C ",
"C C C C C ~ ~ ~ ~ ~ I I I I I I     I I I I I I I I               .     o o                     I I I I I ~ ~ ~ I ~ ~ ~ V C C C ",
"C C C C ~ ~ I ~ I ~ I I I I I I     I I I I I I I I                                             I I I I I ~ ~ ~ I ~ ~ ~ B ~ C C ",
"C C C ~ ~ ~ I I I ~ I I I I I ~     I ~ I I I I I I I I                   . I I I I I I         I I I I ~ ~ ~ I I ~ ~ ~ N N C C ",
"C C C ~ ~ ~ ~ I I I I I I I I I     I I I I I I I I I I                     I I I I I I         I I I I ~ I I I I ~ ~ ~ ~ N C C ",
"C C C ~ ~ ~ ~ I I I I I I I I I     I I I I I I I I I I I                 O I I I I I I   .     I I I I I I ~ I ~ ~ ~ ~ ~ N C C ",
"C C f C ~ ~ I I I I I I I I I I     W I I I I I I I I I I I I I                 I I I I I I       I I I I I I I ~ ~ I ~ ~ N C C ",
"C C C ~ ~ ~ I I I I I I I I I I   . I I I I I I I I I I I I I I               . I I I I I I . . . I I I I ~ I I ~ ~ I ~ ~ S C C ",
"C C ~ C ~ ~ I I I I I I I I I I     I I I I I I I I I I                         O O I I I I ~ I I ~ I I I ~ I ~ ~ ~ I ~ ~ S V C ",
"C C ~ ~ ~ ~ I I I I I I I I I ~     I I ~ I I I I I I I                         O O I I I I I I I ~ I I ~ I I I ~ ~ ~ ~ ~ B ~ C ",
"C ~ C ~ ~ ~ ~ I I I I I I I | } 2.2.I I ~ I I I                                     I I I I I I ~ I I I I I I I I I ~ ~ ~ N ~ C ",
"C C C ~ ~ ~ ~ I I I I I I I | o.2.2.I I ~ I I I                                     I I I I I I I I I I I I I I I I ~ ~ ~ ~ ~ C ",
"C ~ V ~ ~ I ~ I I I I I I I | o.2.2.| o.K K X                                           I I I I I I I I I I I I I I I ~ ~ ~ ~ C ",
"C ~ f ~ ~ I I I I I I I I I | o.2.2. .o.K K                                             I I I I I I I I I I ~ I ~ I I I ~ ~ ~ B ",
"C ~ ~ ~ ~ I I I I I I I I I | | }  .I ~ I I ~ I                                         I I I I I I I I I I ~ I I I I I ~ ~ b < ",
"C ~ ~ ~ ~ I I I I I I I I I | o.| | I ~ I I I ~                                         I I I I ~ I I I I I I I I I I I ~ ~ M v ",
"C ~ ~ ~ ~ ~ I I I I I I I ~ I I   . I Q I I I I                                         I I I I I I I I I I I I I I I I ~ ~ ~ C ",
"C ~ ~ ~ I ~ I I I I I I I I ~ I     ! I I I I I                                         I I I I I ~ I ~ I I I I I I I I ~ ~ C C ",
"C M ~ ~ I I I I I I I I I I I ~   o U I I I I I                                             I I I I I I I I I I ~ I I I ~ C C C ",
"C B B ~ ~ I I I I I I I I I I I     I I I I I I                                             I I I I I I I I I I I I I I ~ C ~ C ",
"C C C ~ ~ I ~ I I I I I I I I I     I I I I I I                                             I I I I I I I I I I I I I ~ ~ ~ ~ C ",
"C C C C ~ I I I I I I I I I I I     I I I I I I                                             I I I I ~ I I I I I I I I ~ ~ ~ ~ C ",
"C C ~ C ~ I I I I I I I I I I I     I ~ I I % O                                         :.:.O O O + R I I I I I ~ ~ ~ ~ ~ ~ C C ",
"C C ~ ~ ~ ~ I I I I I I I I I I     I ~ I I                                             2.2.        I W I I I I I I ~ ~ ~ C C C ",
"C C ~ ~ ~ ~ I I I I I I I I I I o   I I ) )                                             ) (     3 2 ^ I I / I I I ~ ~ ~ C C C C ",
"C C C ~ ~ ~ ~ I I I I ~ I I I P o   I I                                                         I ! R I I I I I ~ ~ C C C C C C ",
"C C C C ~ ~ ~ U I I I I I I I Y .   I I .                                                   . o I ~ I I I I I E I N N M B C C C ",
"C C C N v ~ ~ ~ I I I I I I I I o   W !                                                     I I I I I I I I I I I N ~ M B C C C ",
"C C V M N C ~ ~ ~ I ~ I I I I I   o T ~ I I .                                               I I I I I I I I I I I ~ ~ C C C C C ",
"B m M V C C C ~ ~ I I I I I             I I                                                     I I           o I ~ C C C Z A A ",
"M , 1 N N N B N N ~ I I I I           o U P                                                     L U           . I ~ A D D S A A ",
"B n n n N N B N N V ~ I         I I       o                                                     .           I I ~ ~ H [ D A C C ",
"C C f f C C C C C C ~ ~                                                                                     I I ~ C [ [ C C C C ",
"A A f f S F H D C C C                                                                                           C C F G Z C C C ",
"A A S S S F H D C C C                                                                                         C C C Z S S A F D "
};
