/* XPM */
static char *result[] = {
/* columns rows colors chars-per-pixel */
"64 64 120 2 ",
"   c #000000",
".  c #090304",
"X  c #0B0905",
"o  c #030309",
"O  c #090909",
"+  c #080A10",
"@  c #0E0E1B",
"#  c #120D1D",
"$  c #0D1217",
"%  c #11111A",
"&  c #2D0000",
"*  c #300001",
"=  c #130C21",
"-  c #171324",
";  c #191425",
":  c #1C1429",
">  c #2D005A",
",  c #350069",
"<  c #3D0078",
"1  c #534C4C",
"2  c gray33",
"3  c #8C273B",
"4  c #9F2634",
"5  c #9C2934",
"6  c #922538",
"7  c #A32635",
"8  c #A92635",
"9  c #A22934",
"0  c #A32639",
"q  c #A02A39",
"w  c #FD023C",
"e  c #BF0F41",
"r  c #903645",
"t  c #983143",
"y  c #943D46",
"u  c #973E48",
"i  c #FF0443",
"p  c #F30B45",
"a  c #DE3E43",
"s  c #E33B43",
"d  c #E93844",
"f  c #E6364B",
"g  c #E93748",
"h  c #E43B48",
"j  c #D04A54",
"k  c #E3424B",
"l  c #E24E4C",
"z  c #E44C50",
"x  c #EA4A51",
"c  c #450087",
"v  c #4D0096",
"b  c #5500A5",
"n  c #5D00B4",
"m  c #6500C3",
"M  c #6D00D2",
"N  c #7500E1",
"B  c #7D00F0",
"V  c #8500FF",
"C  c #8C0FFF",
"Z  c #931EFF",
"A  c #9A2DFF",
"S  c #A13CFF",
"D  c #A84BFF",
"F  c #AF5AFF",
"G  c #B669FF",
"H  c #BD78FF",
"J  c #0096D6",
"K  c #0896D4",
"L  c #0499D6",
"P  c #0696DE",
"I  c #039CDA",
"U  c #0A99DA",
"Y  c #1A96D1",
"T  c #1695D8",
"R  c #2CDEEA",
"E  c #35DBF4",
"W  c #37DEFC",
"Q  c #0CE8F8",
"!  c #2BE6F5",
"~  c #2EEAF6",
"^  c #24E6F8",
"/  c #2FE7FB",
"(  c #36E7F0",
")  c #7ADBE2",
"_  c #869AB7",
"`  c #8B9AB6",
"'  c #A3A9A7",
"]  c #ACACAC",
"[  c #AFB3AB",
"{  c #B2B2B2",
"}  c #AEB7CA",
"|  c #DBBBC9",
" . c #C487FF",
".. c #CC96FF",
"X. c #D3A5FF",
"o. c #BBC8D7",
"O. c #BDC7D8",
"+. c #BECADB",
"@. c #C1CBDD",
"#. c #CED4DF",
"$. c #DFDFDF",
"%. c #C2CDE2",
"&. c #C6D3E2",
"*. c #CDD8E4",
"=. c #C9D4E8",
"-. c #D0D6E4",
";. c #D5DAE6",
":. c #DDDFE5",
">. c #D3DBE9",
",. c #D9D8E8",
"<. c #E1DEE2",
"1. c #E9D2FF",
"2. c #DFE1EE",
"3. c #E4FEFD",
"4. c #F6F6F6",
"5. c #FFF7F7",
"6. c #F3F9F5",
"7. c #F5F6FA",
"8. c #FEF6FC",
"9. c #FEFEFE",
/* pixels */
"V V V V V V V V V V V V V V V V V V V V V V V V V V V V V V V V V V V V V V V V V V V V V V V V V V V V V V V V V V V V V V V V ",
"V V V V V V V V V V V V V V V V V V V V V V V V V V V V V V V V V V V B v c M N N N M M M M M B V N M b m V V V V V V V V V V V ",
"V B M M M M N N N M M B V V V V V V V V V V V V V V V V V V V V V V V N c c M N N N M M M B B N B N M b m V V V V V V V V V V V ",
"M m M M M M N B V B V C V Z A C V V V V V V V V V V V V V V V V V B N N B V V V V V Z A Z Z V N B V V V V V V V V V V V V V V V ",
"n n V V V C Z Z Z C Z Z V V C D S V V V V V V V V V V V V V V V V M m B V V C Z A A A A Z m v N V V V V V V V V V V V V V V V V ",
"M M V C Z Z Z C B N B V V N C H D V V V V V V V V V V V V V V V B M V A Z A A Z A A C V B n n B V V V V V B m m M M N M N V V V ",
"B N V Z Z C V B M N V V V V A C N V V C A A Z Z Z A A C V V V C N M C V B V B n m B M c , m V V V V B B V B m m M M N M m N V V ",
"V B V V N N N N N B V V V V V M M V V C A A Z A Z ( A C V V V C B ( m c c b b c b N M c < M V V V V N N V V V V V V V V m m V V ",
"V V V B N N N B V V V V V V V V V V V V V V V V V V V V V V V V V ( ( v ( M M M N ( V V V V V V V V B M N V V V V V V V M M V V ",
"V V V V V V V V V V V V o . o . . . o . o . V V V V V m ( ( ( ( N ( ( M B V V ( V V V V V V V V V V V N M N B V V V V V N N V V ",
"V V V V V V V V V V V V o           .       V V V V V ( ( ( ( ( ( ( ( ( ( V V ( V V V V V V V V V V V V B N M N V V V V N N V V ",
"V V V V V V V V V V   . #.#.r u 7.7.y y 9.9.O       V (                     V ( V V V V V V V V V V V V V V N M B V V V N N V V ",
"V V V V V V V V V V     } } 5 7 <.2.4 4 9.9.        ( (                     ( ( ( V V V ( V B N N M m N V V V B M N V V N N V V ",
"V V V V V V V V V V o o | | 7 q <.:.q 0 7.8.o . * & ( (       o     o       ( ( ( ( ( V ( V B N N M m M M N V V N M N M M B V V ",
"V V V V V V 9 9     -.,.0 9 9 9 5.9.5 8 - - -   s k         : ; : ; ; ;             ( ( ( V ( V V V V B b n V V V B N M N V V V ",
"V V V V V V 3 6 . o :.,.9 0 t 3 5.8.8 8 % % % O j j     o   = # = = = = o   .       ( ( ( ( ( V V V V V M M V V V V V V V V V V ",
"V V V V     ;.>.$.$.    0 q 5.9.w p h s V ( V V e .     @.@.@.@.@.o.@.@.@.@.- -         ( ( ( V V V V V V V V V V V V V V V V V ",
"V V V V     ;.>.2.$.  . 4 4 9.9.i i s f V ( ( ( s     . @.+.@.+.@.@.O.@.@.&.; -         ( ( ( V V V V V V V V V V V V V V V V V ",
"V V V V     9.9.9.9.    s s .   4 4     V ( ( ( o   9.9.9.9.9.9.9.9.9.9.+.@.@.@..       ( ( ( ( V V ( V V ( V V V V V V V V V V ",
"V V V V . O 6.7.9.9.  . a s $   5 7     V ( ( (     9.9.9.9.9.9.9.9.9.9.+.o.+.@..       ( ( ( ( V V V V V ( V V V V V V V V V V ",
"V V     -.>.l l       .   . V V . e ( ( V ( ( (     9.9.o.+.o.o.9.9.o.o.+.o.o.@.: ;         ( ( V V V V ( ( V V V V V N V V V V ",
"V V     -.;.x z o .     X   V V     ( ( V ( ( ( .   9.9.      o 9.9.        +.@.: ;         ( ( V V V ( ( ( V V V V N V V V V V ",
"V V     ;.>.8 5 V V 9 9 V V V V     ( ( ( V ( (     9.9.    .   9.9.      . @.@.: ;         ( ( V V V ( ( ( V V V V V V V V V V ",
"V V     *.>.9 8 V V 5 8 V ( ( V     V ( ( V ( (     9.9.` _ .   9.9.` `   O O.%.: ;         ( ( V V ( ( ( ( ( V V V V V V V V V ",
"V V   .     s V V V V e V ( V V     V ( ( V ( (     9.9.9.9.8.9.9.9.5.9.%.=.+.@.: ;         ( ( ( V ( ( ( ( ( V V V V V V V V V ",
"V V         V V V V V V V ( ( V     ( ( ( ( ( ( .   9.9.9.9.9.9.9.9.9.9.+.+.&.@.: ;         ( ( ( ( ( P ( ( ( B V V V V V V V V ",
"V V s g V V V V ( V V V V ( ( V     ( ( ( ( ( (     - ; 9.9.9.9.9.9.9.9.+.+.  . @ ;             ( ( ( P ( ( ( N M V V V V V V V ",
"V V d k V V V V V V V V V ( ( (     ( P ( ( ( (     ; : 9.9.9.9.9.9.9.9.+.@.    - ;             ( ( P U ( ( ( B N V V V V V V V ",
"V V e   V V V V ( V ( V V ( V (     ( P P ( ( ( ( (     9.9.  o 9.9.    %.+.                    ( P P P ( ( ( V M ( V V V V V V ",
"V V     V V V ( ( V V s V ( ( (     ( P P ( P ( ( (     9.9.  . 9.9.    @.+.                    ( P P P ( ( ( V M M V V V V V V ",
"V V V V V V V ( ( V ( d V ( ( (     ( ( P P P P ( (               .     o                       ( P P P P ( V V m m M M V V V V ",
"V V V V V V ( ( ( V V V V ( ( (     ( ( P P P P P (                                             P P P P U ( M M ( n M ( M N V V ",
"V V V V V V ( ( ( ( V V ( ( ( (     P P ( P P P P P P P                   . ( P P P P (         P P P P ( ( b n b M V ( M M V V ",
"V V V V V V ( ( ( ( V V ( ( ( (   . P P P P P P P P P P                     P P P P P (         P P P P ( ( m n c M V ( ( M V V ",
"V V V V V V ( ( ( ( ( B m ( ( (     P P P P P P P P P P P                 O P P P P P P   .     P P P P ( V V ( v M V ( ( M V V ",
"V V s V V V ( ( ( ( ( ( ( ( ( (     P P P ( P P P P P P P P P P                 P P P P P P       P P P ( S D ( , c ( ( ( M V V ",
"V V V V V V ( ( ( ( P H P ( ( (   . P P P P P P P P P P P P P P               . P P P P P P   o . P P P X.1.( ( b b ( ( ( A V V ",
"V V V V ( V ( ( ( ( P P P P ( (     P P P P P P P P P P                         X O P P P P ( P P ( P ( ....( ( B B ( ( F A B V ",
"V V V V B v , ( ( ( ( P P P P (     P P ( ( P P P P P P                         O X P P P ( P P P ( P ( V ( ( ( M ( ( ( V N N V ",
"V V V V N c < P ( ( ( P P P @.+.9.9.P P ( P ( P                                     P ( ( ( P P ( P P ( ( ( ( ( m ( ( ( V M M V ",
"V V V V V A Z J P P ( P P P @.@.9.9.P P ( P P P                                     P P P ( P P P P U ( P ( ( ( ( ( ( ( V M M V ",
"V V V V V A ( C P ( P P P P @.@.9.9.@.%.J P O                                           P ( P P P P P P P ( ( ( ( U ( ( ( N N V ",
"V V V V V S ( B P P P ( P P @.@.9.9.o.%.J L .                                           P P ( P P P P ( ( ( ( ( ( P ( ( M M m N ",
"V B V V A ( ( ( P P P ( P P +.@.+.@.U ( P P ( P                                         P P ( P ( P P ( P ( ( ( P P ( ( B N v , ",
"V N V V V M ( ( ( P P P P P %.%.@.@.P ( P P P (                                         P P ( ( ( P P ( ( ( ( P P P ( ( V V m c ",
"V M V V B c ( ( ( P P P P P P P     P / P P P P                                         P P U P ( P ! ( P P P P ( P P ( V V V V ",
"V m m M v c ( P ( ! P P P P ( P     ( ! P P P P                                         P P U P ( ( P ( P P P P P P P ( V V V V ",
"V m m M b M ( P ( ( P P P P P (   o U T P P P P                                           . P P ( ( P P ! E P P ( P U ( V V V V ",
"V N s V V ( ( P ( ( U P P P P P     U I P P P P                                             P P P P P P P ^ P P P P P ( V V V V ",
"V V s s V ( ( P ( P P ( P P P P     P P P P P P                                             P P P P P P P 3.P P P P P ( V V V V ",
"V V s s V ( ( ( ( ( P ( P P P P     P P P P P P                                             P P P P ( P P P P P P P V ( V V V V ",
"V V s s V V ( ( P ( ( P ( P P P     P ( P P $ O                                         4.4.O O O + W P P P P P V ( ( V V V V V ",
"V V s s V V ( ( P ( ( P ( P P P     P ( P P                                             9.9.        ! ! P P P P P P V V V V V V ",
"V V s s V V V ( ( ( ( ( P P P P o   P P { {                                             { ]     2 1 ) ) [ ' P P P ( V V V V V V ",
"V V V V V V V V ( ( P ( P P P J o   P P .                                                       P E ( P P P P P E ( V V V V V V ",
"V V V V n v m m M ( P P P P P Y .   P P                                                     . o P / / P P P P Q P M M m N V V V ",
"V V V M c v m m m ( P P P P P P     ~ /                                                     P P P P / ( P P P P P M M m N V V V ",
"V V B m M V V V B m P P P P P P o o R ( P P                                                 P P P P R R P P P P P V V V V V V V ",
"N n m B V V V V V n b P P P             P P                                                     P P           o P V V V V C Z Z ",
"m > < M M M N M M n m U P P           o U L .                                                   K U           . P V Z S S A Z Z ",
"N b b M M M N M M B V P         P P       o                                                       .         P P P V G  .S Z V V ",
"V V V V V V V V V V V P                                                                                     P P V V  . .V V V V ",
"Z Z A A A D G S V V V                                                                                           V V D F C V V V ",
"Z Z A A A D G S V V V                                                                                         V V V C A A Z D S "
};
