/* XPM */
static char *result[] = {
/* columns rows colors chars-per-pixel */
"64 64 113 2 ",
"   c #000000",
".  c #090304",
"X  c #0B0905",
"o  c #030309",
"O  c #090909",
"+  c #080A10",
"@  c #0E0E1B",
"#  c #120D1D",
"$  c #0D1217",
"%  c #101010",
"&  c #11111A",
"*  c #2D0000",
"=  c #300001",
"-  c #130C21",
";  c #171324",
":  c #191425",
">  c #1C1429",
",  c #2D005A",
"<  c #350069",
"1  c #3D0078",
"2  c #534C4C",
"3  c gray33",
"4  c #A51F2E",
"5  c #8C273B",
"6  c #9F2634",
"7  c #9C2934",
"8  c #922538",
"9  c #A32635",
"0  c #A92635",
"q  c #A22934",
"w  c #A32639",
"e  c #A02A39",
"r  c #FD023C",
"t  c #BF0F41",
"y  c #903645",
"u  c #983143",
"i  c #943D46",
"p  c #973E48",
"a  c #FF0443",
"s  c #F30B45",
"d  c #DE3E43",
"f  c #E33B43",
"g  c #E93844",
"h  c #E6364B",
"j  c #E93748",
"k  c #E43B48",
"l  c #D04A54",
"z  c #E3424B",
"x  c #E24E4C",
"c  c #E44C50",
"v  c #EA4A51",
"b  c #450087",
"n  c #4D0096",
"m  c #5500A5",
"M  c #5D00B4",
"N  c #6500C3",
"B  c #6D00D2",
"V  c #7500E1",
"C  c #7D00F0",
"Z  c #8500FF",
"A  c #8C0FFF",
"S  c #931EFF",
"D  c #9A2DFF",
"F  c #A13CFF",
"G  c #A84BFF",
"H  c #AF5AFF",
"J  c #B669FF",
"K  c #BD78FF",
"L  c #0096D6",
"P  c #0896D4",
"I  c #0499D6",
"U  c #0696DE",
"Y  c #0A99DA",
"T  c #1A96D1",
"R  c #2ADFEB",
"E  c #37DEFC",
"W  c #0CE8F8",
"Q  c #2AE7F5",
"!  c #2FE7FB",
"~  c #36E7F0",
"^  c #7ADBE2",
"/  c #869AB7",
"(  c #8B9AB6",
")  c #A3A9A7",
"_  c #ACACAC",
"`  c #B2B2B2",
"'  c #AEB7CA",
"]  c #DBBBC9",
"[  c #C487FF",
"{  c #BBC8D7",
"}  c #BDC7D8",
"|  c #BECADC",
" . c #C1CBDD",
".. c #CED4DF",
"X. c #DFDFDF",
"o. c #C2CDE2",
"O. c #C6D3E2",
"+. c #CDD8E4",
"@. c #C9D4E8",
"#. c #D0D6E4",
"$. c #D5DAE6",
"%. c #DDDFE5",
"&. c #D3DBE9",
"*. c #D9D8E8",
"=. c #E1DEE2",
"-. c gray88",
";. c #E0E3ED",
":. c #F6F6F6",
">. c #FFF7F7",
",. c #F3F9F5",
"<. c #F5F6FA",
"1. c #FEF6FC",
"2. c #FEFEFE",
/* pixels */
"Z Z Z Z Z Z Z Z Z Z Z Z Z Z Z Z Z Z Z Z Z Z Z Z Z Z Z Z Z Z Z Z Z Z Z Z ~ Z Z Z Z Z Z Z Z Z Z Z Z Z Z Z Z Z Z Z Z Z Z Z Z Z Z Z ",
"Z Z Z Z Z Z Z Z Z Z Z Z Z Z Z Z Z Z Z Z Z Z Z Z Z Z Z Z Z Z ~ Z Z Z Z ~ ~ b B V V V B B B B B C Z V B m N Z Z Z Z Z Z Z Z Z Z Z ",
"Z C B B B B V V V B B C Z Z Z Z Z Z Z Z Z Z Z Z Z Z Z Z Z Z ~ Z ~ Z Z ~ ~ b B V V V B B B C C V C V B m N Z Z Z Z Z Z Z Z Z Z Z ",
"B N B B B B V C Z C Z A Z S D A Z Z Z Z Z Z Z Z Z Z Z Z Z Z ~ Z ~ ~ V ~ ~ Z Z Z Z ~ S D S S Z V C Z Z Z Z Z Z Z Z Z Z Z Z Z Z Z ",
"M M Z Z Z A S S S A S S Z Z A G F Z Z Z Z Z Z Z Z Z Z ~ Z Z ~ Z ~ ~ ~ ~ ~ ~ A S D ~ D D S ~ n V Z Z Z Z Z Z Z Z Z Z Z Z Z Z Z Z ",
"B B Z A S S S A C V C Z Z V A K G Z Z Z Z Z Z Z Z Z Z ~ ~ ~ ~ Z ~ ~ ~ ~ ~ ~ ~ S ~ ~ A Z C M M Z Z Z Z Z Z C N N B B V B V Z Z Z ",
"C V Z S S A Z C B V Z Z Z Z D A V Z Z A D ~ S S S ~ ~ ~ ~ ~ ~ ~ ~ ~ ~ ~ ~ ~ ~ ~ ~ ~ B b < N ~ Z Z Z C C Z C N N B B V B N V Z Z ",
"Z C Z Z V V V V V C Z Z Z Z Z B B Z Z A D D S D ~ ~ ~ ~ ~ ~ ~ ~ ~ ~ U ~ ~ ~ ~ ~ ~ ~ ~ b 1 ~ ~ Z Z Z V V Z Z Z Z Z Z Z Z N N Z Z ",
"Z Z Z C V V V C Z Z Z Z Z Z Z Z Z Z Z Z Z Z Z Z ~ ~ U ~ ~ ~ ~ ~ ~ U U U ~ ~ ~ ~ ~ ~ ~ ~ Z ~ Z Z Z Z C B V Z Z Z Z Z Z Z B B Z Z ",
"Z Z Z Z Z Z Z Z Z Z Z Z o . o . X o   o   X Z Z ~ ~ U U ~ U ~ U ~ U U U U ~ ~ ~ ~ U ~ ~ ~ ~ ~ Z ~ Z Z V B V C Z Z Z Z Z V V Z Z ",
"Z Z Z Z Z Z Z Z Z Z Z Z o                   ~ ~ ~ ~ U U U U U U U U U U U U U ~ U U ~ ~ ~ ~ ~ Z Z Z Z Z C V B V Z Z Z Z V V Z Z ",
"Z Z Z Z Z Z Z Z Z Z   . ....y p 1.<.p i 2.2.O       U U                     U U U U U ~ ~ ~ ~ Z Z Z Z Z Z Z V B C Z Z Z V V Z Z ",
"Z Z Z Z Z Z Z Z Z Z     ' ' 7 9 ;.;.q 6 2.2.        U U                     U U U U U ~ ~ ~ ~ ~ V B N V Z Z Z C B V Z Z V V Z Z ",
"Z Z Z Z Z Z Z Z Z Z o o ] ] 9 e -.=.6 w <.1.o . = * U ~       o .   o       U U U U U ~ ~ ~ ~ ~ ~ B N B B V Z Z V B V B B C Z Z ",
"Z Z Z Z Z Z q q     #.*.w q q q 2.1.q q ; ; ; . f z         : : ; : > ;             U ~ ~ ~ ~ ~ ~ Z Z C m M Z Z ~ C V B V Z Z Z ",
"Z Z Z Z Z Z 5 8 . o %.*.q w u 5 >.1.4 0 @ & & O l l     o . - # - - - - o           U U U ~ ~ ~ ~ Z Z Z B B Z Z Z Z Z Z Z Z Z Z ",
"Z Z Z Z     $.&.X.X.  o q 6 1.2.r s k k ~ ~ ~ ~ t        . . . . .{  . . . .; :         U ~ U ~ ~ ~ Z Z Z Z Z ~ Z Z Z Z Z Z Z Z ",
"Z Z Z Z     $.&.-.-.  . 6 6 2.2.a a f h ~ ~ ~ ~ f   .    . . .|  . .}  . .O.: -         U ~ U ~ ~ ~ Z Z Z Z Z ~ Z Z Z Z Z Z Z Z ",
"Z Z Z Z     2.2.2.2.    k f     6 9     ~ U ~ ~ o   2.2.2.2.2.2.>.2.2.2. . .|  .        U U U ~ ~ ~ ~ Z Z ~ Z ~ Z Z Z Z Z Z Z Z ",
"Z Z Z Z . O ,.<.2.2.  X d f $   7 9     ~ U ~ ~     2.2.2.2.2.2.2.2.2.2.| { |  ..       U U U ~ ~ ~ ~ Z Z ~ Z ~ Z Z Z Z Z Z Z Z ",
"Z Z     #.&.x x             Z ~     ~ ~ ~ U ~ ~ o   2.2.| | | | 2.2.| | | | { o.> >         U ~ ~ ~ ~ ~ ~ ~ Z ~ Z Z C C Z Z Z Z ",
"Z Z     #.$.v c . .     O . ~ ~     ~ ~ ~ U U ~ .   2.2.o     o 2.2.o     . } o.> >         U ~ P ~ ~ ~ U ~ Z ~ Z Z C C Z ~ Z Z ",
"Z Z     &.&.0 6 Z ~ 9 q Z Z ~ ~     ~ ~ ~ U U U     2.2.    .   2.2.         . .> :         U ~ U ~ ~ U U ~ Z ~ Z Z Z Z Z Z Z Z ",
"Z Z     +.&.q 0 Z ~ q 0 Z ~ ~ ~     ~ ~ ~ U U U     2.2.( / .   2.2.( (   O }  .> :         U ~ U ~ ~ U U ~ ~ ~ Z ~ Z ~ Z Z Z Z ",
"Z Z         f Z ~ ~ Z t ~ ~ ~ ~     ~ ~ U U U U     2.2.2.2.1.2.2.2.>.2.o.@.|  .> :         U U U ~ U U P ~ ~ ~ Z ~ Z ~ Z Z Z Z ",
"Z Z         Z ~ ~ ~ ~ ~ ~ ~ ~ ~     ~ ~ U U U U     2.2.2.2.2.2.2.2.2.2.| |  . .> :         U U U ~ U U U ~ ~ ~ ~ ~ Z ~ Z Z Z Z ",
"Z Z f j Z Z Z ~ ~ ~ ~ ~ ~ ~ U ~     ~ ~ U U U U     : : 2.2.2.2.2.2.2.2.| | . o @ :             U U U U U ~ ~ ~ ~ ~ Z ~ Z Z Z Z ",
"Z Z g z Z Z Z ~ ~ ~ ~ ~ ~ ~ U ~     U U U U U U     > > 2.2.2.2.2.2.2.2.|  .    ; :             U U U U U ~ ~ ~ ~ ~ Z ~ Z Z Z Z ",
"Z Z t   Z Z Z ~ ~ ~ U ~ ~ U U U     U U U U U U U ~     2.2.  o 2.2.     .|                     U U U U U ~ ~ ~ ~ ~ ~ ~ Z Z Z Z ",
"Z Z     Z ~ Z ~ ~ ~ U ~ U U U U     U U U U U U U U     2.2.  . 2.2.     .|                     U U U U ~ ~ ~ ~ U ~ ~ ~ Z Z Z Z ",
"Z Z ~ Z Z ~ ~ ~ ~ ~ U U U U U U     U U U U U U U U               .     o o                     U U U U U ~ ~ ~ U ~ ~ ~ C Z Z Z ",
"Z Z Z Z ~ ~ U ~ U ~ U U U U U U     U U U U U U U U                                             U U U U U ~ ~ ~ U ~ ~ ~ V C Z Z ",
"Z Z Z ~ ~ ~ U U U ~ U U U U U ~     U ~ U U U U U U U U                   . U U U U U U         U U U U ~ ~ ~ U U ~ ~ ~ B B Z Z ",
"Z Z Z ~ ~ ~ ~ U U U U U U U U U     U U U U U U U U U U                     U U U U U U         U U U U ~ U U U U ~ ~ ~ ~ B Z Z ",
"Z Z Z ~ ~ ~ ~ U U U U U U U U U     U U U U U U U U U U U                 O U U U U U U   .     U U U U U U ~ U ~ ~ ~ ~ ~ B Z Z ",
"Z ~ f Z ~ ~ U U U U U U U U U U     Q U U U U U U U U U U U U U                 U U U U U U       U U U U U U U ~ ~ U ~ ~ B Z Z ",
"Z Z Z ~ ~ ~ U U U U U U U U U U   . U U U U U U U U U U U U U U               . U U U U U U . . . U U U U ~ U U ~ ~ U ~ ~ D Z Z ",
"Z Z ~ Z ~ ~ U U U U U U U U U U     U U U U U U U U U U                         O O U U U U ~ U U ~ U U U ~ U ~ ~ ~ U ~ ~ D C Z ",
"Z Z ~ ~ ~ ~ U U U U U U U U U ~     U U ~ U U U U U U U                         O O U U U U U U U ~ U U ~ U U U ~ ~ ~ ~ ~ V ~ Z ",
"Z Z Z ~ ~ ~ ~ U U U U U U U |  .2.2.U U ~ U U U                                     U U U U U U ~ U U U U U U U U U ~ ~ ~ B ~ Z ",
"Z Z Z ~ ~ ~ ~ U U U U U U U | o.2.2.U U ~ U U U                                     U U U U U U U U U U U U U U U U ~ ~ ~ ~ ~ Z ",
"Z ~ C ~ ~ U ~ U U U U U U U | | 2.2.| o.L L X                                           U U U U U U U U U U U U U U U ~ ~ ~ ~ Z ",
"Z ~ f ~ ~ U U U U U U U U U |  .2.2. .o.L L                                             U U U U U U U U U U ~ U ~ U U U ~ ~ ~ V ",
"Z ~ ~ ~ ~ U U U U U U U U U | | {  .U ~ U U ~ U                                         U U U U U U U U U U ~ U U U U U ~ ~ n < ",
"Z ~ ~ ~ ~ U U U U U U U U U o.o.| o.U ~ U U U ~                                         U U U U ~ U U U U U U U U U U U ~ ~ N b ",
"Z ~ ~ ~ ~ ~ U U U U U U U ~ U U     U ! U U U U                                         U U U U U U U U U U U U U U U U ~ ~ Z Z ",
"Z ~ ~ ~ U ~ U U U U U U U U ~ U     ~ U U U U U                                         U U U U U ~ U ~ U U U U U U U U ~ ~ Z Z ",
"Z N ~ ~ U U U U U U U U U U U ~   o U U U U U U                                             U U U U U U U U U U ~ U U U ~ Z Z Z ",
"Z V V ~ ~ U U U U U U U U U U U     U U U U U U                                             U U U U U U U U U U U U U U ~ Z ~ Z ",
"Z ~ Z ~ ~ U ~ U U U U U U U U U     U U U U U U                                             U U U U U U U U U U U U U ~ ~ ~ ~ Z ",
"Z Z Z Z ~ U U U U U U U U U U U     U U U U U U                                             U U U U ~ U U U U U U U U ~ ~ ~ ~ Z ",
"Z Z ~ Z ~ U U U U U U U U U U U     U ~ U U % O                                         :.:.O O O + E U U U U U ~ ~ ~ ~ ~ ~ Z Z ",
"Z Z ~ ~ ~ ~ U U U U U U U U U U     U ~ U U                                             2.2.        U Q U U U U U U ~ ~ ~ Z Z Z ",
"Z Z ~ ~ ~ ~ U U U U U U U U U U     U U ` `                                             ` _     3 2 ^ U U ) U U U ~ ~ ~ Z Z Z Z ",
"Z Z Z ~ ~ ~ ~ U U U U ~ U U U I +   U U                                                         U ! E U U U U U ~ ~ Z Z Z Z Z Z ",
"Z Z Z Z ~ ~ ~ U U U U U U U Y T     U U .                                                   . O U ~ U U U U U W U B B N ~ Z Z Z ",
"Z Z Z B b ~ ~ ~ U U U U U U U U o   Q !                                                     U U U U U U U U U U U B ~ N V Z Z Z ",
"Z Z C N B Z ~ ~ ~ U ~ U U U U U   o R ~ U U .                                               U U U U U U U U U U U ~ ~ Z Z Z Z Z ",
"V M N C Z Z Z ~ ~ U U U U U             U U                                                     U U           o U ~ Z Z Z A S S ",
"N , 1 B B B V B B ~ U U U U           o Y I                                                     P Y           . U ~ S F F D S S ",
"V m m m B B V B B C ~ U         U U       o                                                     .           U U ~ ~ J [ F S Z Z ",
"Z Z f f Z Z Z Z Z Z ~ ~                                                                                     U U ~ Z [ [ Z Z Z Z ",
"S S f f D G J F Z Z Z                                                                                           Z Z G H A Z Z Z ",
"S S D D D G J F Z Z Z                                                                                         Z Z Z A D D S G F "
};
