/* XPM */
static char *result[] = {
/* columns rows colors chars-per-pixel */
"64 64 134 2 ",
"   c #000000",
".  c #090304",
"X  c #030309",
"o  c #090909",
"O  c #080A10",
"+  c #0E0E1B",
"@  c #120D1D",
"#  c #0D1217",
"$  c #11111A",
"%  c #2D0000",
"&  c #300001",
"*  c #130C21",
"=  c #171324",
"-  c #191425",
";  c #1C1429",
":  c #2D005A",
">  c #350069",
",  c #3D0078",
"<  c #534C4C",
"1  c gray33",
"2  c #A51F2E",
"3  c #8C273B",
"4  c #9F2634",
"5  c #9C2934",
"6  c #922538",
"7  c #A32635",
"8  c #A92635",
"9  c #A22934",
"0  c #A32639",
"q  c #A02A39",
"w  c #FD023C",
"e  c #BF0F41",
"r  c #903645",
"t  c #983143",
"y  c #973E48",
"u  c #983D48",
"i  c #FF0443",
"p  c #F30B45",
"a  c #DE3E43",
"s  c #E33B43",
"d  c #E93844",
"f  c #E93748",
"g  c #E43B48",
"h  c #D04A54",
"j  c #E3424B",
"k  c #E24E4C",
"l  c #E44C50",
"z  c #EA4A51",
"x  c #450087",
"c  c #4D0096",
"v  c #5500A5",
"b  c #5C0AA8",
"n  c #5D00B4",
"m  c #6500C3",
"M  c #6D00D2",
"N  c #7500E1",
"B  c #7D00F0",
"V  c #8500FF",
"C  c #8C0FFF",
"Z  c #931EFF",
"A  c #9A2DFF",
"S  c #A13CFF",
"D  c #A84BFF",
"F  c #AF5AFF",
"G  c #B669FF",
"H  c #BD78FF",
"J  c #0097D6",
"K  c #0896D4",
"L  c #0299D4",
"P  c #0696DE",
"I  c #0997DF",
"U  c #039BDC",
"Y  c #0A99DA",
"T  c #1A96D1",
"R  c #1695D8",
"E  c #238DC7",
"W  c #239CC8",
"Q  c #38D9D8",
"!  c #2CDEEA",
"~  c #35DBF4",
"^  c #37DEFC",
"/  c #0FE6ED",
"(  c #13E2F1",
")  c #3CE4EA",
"_  c #2BE6F4",
"`  c #2EEAF6",
"'  c #24E6F8",
"]  c #2FE7FB",
"[  c #34E6F4",
"{  c #38E7F3",
"}  c #32E6F8",
"|  c #67D6DA",
" . c #46D5E0",
".. c #73D7E0",
"X. c #45E6EF",
"o. c #8C99AF",
"O. c #869AB7",
"+. c #8C9BB5",
"@. c #909CB9",
"#. c #ACACAC",
"$. c #AFB3AB",
"%. c #B2B2B2",
"&. c #AEB7CA",
"*. c #DBBBC9",
"=. c #C487FF",
"-. c #CC96FF",
";. c #D3A5FF",
":. c #BBC8D7",
">. c #BDC7D8",
",. c #BECADB",
"<. c #A8DCEB",
"1. c #C1CBDD",
"2. c #CED4DF",
"3. c #DFDFDF",
"4. c #C2CDE2",
"5. c #C6D3E2",
"6. c #CDD8E4",
"7. c #C9D4E8",
"8. c #D0D6E4",
"9. c #D5DAE6",
"0. c #DDDFE5",
"q. c #D3DBE9",
"w. c #D9D8E8",
"e. c #E1DEE2",
"r. c #E9D2FF",
"t. c #DFE1EE",
"y. c #E0E3ED",
"u. c #E4FEFD",
"i. c #F6F6F6",
"p. c #FFF7F7",
"a. c #F3F9F5",
"s. c #F5F6FA",
"d. c #FEF6FC",
"f. c #FEFEFE",
/* pixels */
"V V V V V V V V V V V V V V V V V V V V V V V V V V V V V V V V V V V V V V V V V V V V V V V V V V V V V V V V V V V V V V V V ",
"V V V V V V V V V V V V V V V V V V V V V V V V V V V V V V V V V V V B c x M N N N M M M M M B V N M v m V V V V V V V V V V V ",
"V B M M M M N N N M M B V V V V V V V V V V V V V V V V V V V V V V V N x x M N N N M M M B B N B N M v m V V V V V V V V V V V ",
"M m M M M M N B V B V C V Z A C V V V V V V V V V V V V V V V V V B N N B V V V V V Z A Z Z V N B V V V V V V V V V V V V V V V ",
"n n V V V C Z Z Z C Z Z V V C D S V V V V V V V V V V V V V V V V M m B V V C Z A A A A Z m c N V V V V V V V V V V V V V V V V ",
"M M V C Z Z Z C B N B V V N C H D V V V V V V V V V V V V V V V B M V A Z A A Z A A C V B n n B V V V V V B m m M M N M N V V V ",
"B N V Z Z C V B M N V V V V A C N V V C A A Z Z Z A A C V V V C N M C V B V B n m B M x > m V V V V B B V B m m M M N M m N V V ",
"V B V V N N N N N B V V V V V M M V V C A A Z A Z A A C V V V C B M m x x v v x v N M x , M V V V V N N V V V V V V V V m m V V ",
"V V V B N N N B V V V V V V V V V V V V V V V V V V V V V V V V V B m c v M M M N B V V V V V V V V B M N V V V V V V V M M V V ",
"V V V V V V V V V V V V X . X .   o o     o V V V V V m v M N N N N M M B V V V V V V V V V V V V V V N M N B V V V V V N N V V ",
"V V V V V V V V V V V V X                   V V V V V m v M N N N N N B V V V V V V V V V V V V V V V V B N M N V V V V N N V V ",
"V V V V V V V V V V   . 2.2.r y d.s.u u f.f.o       V V                     V V V V V V V V V V V V V V V V N M B V V V N N V V ",
"V V V V V V V V V V     &.&.5 7 y.y.4 4 f.f.        V V                     V V V V V V V V B N N M m N V V V B M N V V N N V V ",
"V V V V V V V V V V X X *.*.7 q e.e.4 7 s.d.X . & % V V       X     X       V V V V V V V V V N N M m M M N V V N M N M M B V V ",
"V V V V V V 9 9     8.w.0 9 9 9 d.f.4 8 = = =   s j         ; - ; - - -             V V V V V V V V V B v n V V V B N M N V V V ",
"V V V V V V 3 6 . X 0.w.9 0 t 3 p.d.7 8 $ $ $ o h h     X   * @ * * * * X           V V V V V V V V V V M M V V V V V V V V V V ",
"V V V V     9.q.3.3.    0 q d.f.w p g g V V V V e       1.1.1.1.1.>.1.1.1.1.= =         V V V V V V V V V V V V V V V V V V V V ",
"V V V V     9.q.t.3.  . 4 4 f.f.i i g g V V V V s   .   1.1.1.,.>.1.>.1.1.5.- =         V V V V V V V V V V V V V V V V V V V V ",
"V V V V     f.f.f.f.    s s     4 4     V V V V X   f.f.f.f.f.f.f.f.f.f.,.1.1.1.        V V V V V V V V V V V V V V V V V V V V ",
"V V V V . o a.s.f.f.  . a s #   5 2     V V V V     f.f.f.f.f.f.f.f.f.f.,.:.,.1..       V V V V V V V V V V V V V V V V V V V V ",
"V V     8.q.k k       .     V V   e V V V V V V .   f.f.:.,.:.:.f.f.,.>.,.>.:.1.; ;         V V V V V V V V V V V V B B V V V V ",
"V V     8.9.z l   .     o . V V     V V V V V V     f.f.o     X f.f.      . >.1.; ;         V V V V V V V V V V V V B B V V V V ",
"V V     q.q.8 4 V V 9 9 V V V V     V V V V V V     f.f.o.@..   f.f.+.+.    1.1.; -         V V V V V V V V V V V V V V V V V V ",
"V V     6.q.9 8 V V 7 8 V V V V     V V V V V V     f.f.+.O..   f.f.+.+.  o >.1.; -         V V V V V V V V V V V V V V V V V V ",
"V V         s V V V V e V V V V     V V V V V V     f.f.f.f.d.f.f.f.d.f.1.7.,.1.; -         V V V V V V V V V V V V V V V V V V ",
"V V         V V V V V V V V V V     V V V V V V .   f.f.f.f.f.f.f.f.f.f.,.1.1.1.; -         V V V V V V V V V B B V V V V V V V ",
"V V s f V V V V V V V V V V V V     V V V V V V     = - f.f.f.f.f.f.f.f.,.1.X o + -             V V V V V V V N N V V V V V V V ",
"V V d j V V V V V V V V V V V V   s V V V V V V     ; ; f.f.f.f.f.f.f.f.,.,.    = -             V V V V V V V B N B V V V V V V ",
"V V e   V V V V V V V V V V V V   s V V V V [ V V V     f.f.  X f.f.    1.,.                    V V V V V V V V M M V V V V V V ",
"V V     V V V V V V V s V V V V     [ V V V V V V V     f.f.  . f.f.    1.,.                    V V V V V V V V M M V V V V V V ",
"V V V V V V V V V V V s V V V V     { V V V V V V V               .     X X                     V V V V V V V B m m M M B V V V ",
"V V V V V V V V V V V V V V V V     V [ [ V [ V V V                                             V V V ) V V N M n n M M N B V V ",
"V V V V V V V V V V V V V V V V     V [ } ..V V [ V b b                   . b b b b b b         V V V V V [ v n v M V V M M V V ",
"V V V V V V V V V V V V N M B V     { V ( ` V V { V { V                     V V ) V [ V         V V { V [ ) m n x M V V M M V V ",
"V V V V V V V V V V V B m m B V     V ` Q  .V ) ) V V P                   o V V { { { V   o     V V V V [ V V m c M V V M M V V ",
"V V s V V V V V V V B F F B V V     ` } { V V [ [ [ P P V V V V                 V { J [ V V       V { [ ) S D V > x V V M M V V ",
"V V V V V V V V V B N H =.V V V   . ) X.} } V { ) P P P P P P P               . P P P { V V   X   V [ [ ;.r.D A v c A A D A V V ",
"V V V V V V V C Z B B Z C V V V     V V { { [ ) U U P P                         o o P P P V U V V [ [ V -.-.V C B B Z A F A B V ",
"V V V V B c > N C N C { V V V V     V V P P [ { P P P P                         o . } P P P P V V [ ~ } V V N N M M V V V N N V ",
"V V V V N x , N N N Z C V V ,.,.f.f.} V P P _ {                                     P P P P P V [ { } } V V N m { N V V V M M V ",
"V V V B V Z Z Z B B [ V V V ,.1.f.f.} V P P I P                                     P P P P V V P P } } V V V N v m V V V M M V ",
"V V B s S A A C N { V V V V ,.1.f.f.4.4.J J o                                           P P P P P P } [ V V V V v c N M N N N V ",
"V V s s F S A B M V V [ { V ,.1.f.f.1.,.J J                                             P { P P P } [ { V V [ V M m N M M M m N ",
"V B s s A S N m B V V } V V ,.1.:.1.[ [ I P [ I                                         P P P P P P J [ V V } V V V V V B N c > ",
"V N s s V M v M V V { [ V V ,.1.1.1.[ [ P P P P                                         P P I P P J [ { V } } V { V V V V V m x ",
"V M s V B x c V V [ [ _ { V V V     _ ` P P P P                                         P P I U P } [ [ I [ V V V V V V V V V V ",
"V m m M c x m V V [ [ [ { V V V     } ` I P P P                                         P I Y U P P ~ } J I [ V V V V V V V V V ",
"V m m M v M V V V V [ [ ` [ n m   X P R P P P                                               P P P P P P _ ~ V V _ V V [ V V V V ",
"V N N V V V V V V V P } } [ ) m     I U P P I                                               P [ P P P P P ' V } [ V V V V V V V ",
"V V V V V V V V V V P P [ } V V     I I P P U I                                             P } P P E P P u.V } [ [ V V V V V V ",
"V V V V V V V V V V J I } V U V     } P P P P I                                             } } P P P P } [ } } [ V V V V V V V ",
"V V V V V V V V [ V V I } | P P     } P P P O o                                         i.i.o o o O ^ P [ } [ } V V V V V V V V ",
"V V V V V V V V V V } V } P P P     I } P I                                             f.f.        _ P P _ P P V V V V V V V V ",
"V V V V V V V V V V [ } J I P <..   I _ %.%.                                            %.#.    1 < } P $.P P P [ [ V V V V V V ",
"V V V V V V V V V V P } P P J L X   I U                                                         I P } P P P P P [ ~ V V V V V V ",
"V V V V n c m m M B P P P P W T     I I                                                     . X I P } P P P ( P M M M m N V V V ",
"V V V M x c m m m m N P P P P P X   ` ]                                                     P P P [ } P P P P / M M M m N V V V ",
"V V B m M V V V B m m P P P P P   X ! { P P                                                 I I P } ! ! P P P P V V V V V V V V ",
"N n m B V V V V V n v P P P             P I                                                     } }           X V V V V V C Z Z ",
"m : , M M M N M M n m V P P           X Y J .                                                   K K             V V Z S S A Z Z ",
"N v v M M M N M M B V V         V P       X                                                                 U I V V G =.S Z V V ",
"V V V V V V V V V V V V                                                                                     I I V V =.=.V V V V ",
"Z Z A A A D G S V V V                                                                                           V V D F C V V V ",
"Z Z A A A D G S V V V                                                                                         V V V C A A Z D S "
};
