/* XPM */
static char *result[] = {
/* columns rows colors chars-per-pixel */
"64 64 145 2 ",
"   c #000001",
".  c #080303",
"X  c #000B05",
"o  c #0B0905",
"O  c #030309",
"+  c #080508",
"@  c #090909",
"#  c #080A10",
"$  c #0E0E1B",
"%  c #120D1D",
"&  c #0D1217",
"*  c #101010",
"=  c #11111A",
"-  c #2D0000",
";  c #300001",
":  c #130C21",
">  c #171324",
",  c #191425",
"<  c #1C1429",
"1  c #2D005A",
"2  c #350069",
"3  c #3D0078",
"4  c #1D4A56",
"5  c #164F58",
"6  c #534C4C",
"7  c gray33",
"8  c #A51F2E",
"9  c #8C283B",
"0  c #9F2634",
"q  c #9C2934",
"w  c #922538",
"e  c #B0202F",
"r  c #A32635",
"t  c #A92635",
"y  c #A22934",
"u  c #A32639",
"i  c #A02A39",
"p  c #C0063B",
"a  c #FD023C",
"s  c #BF0F41",
"d  c #963846",
"f  c #973E48",
"g  c #AF3E5E",
"h  c #FD0344",
"j  c #F30B45",
"k  c #FF0149",
"l  c #DE3E43",
"z  c #E43C44",
"x  c #E93748",
"c  c #E63848",
"v  c #B14662",
"b  c #D04A54",
"n  c #E3424B",
"m  c #E24E4C",
"M  c #E74B51",
"N  c #450087",
"B  c #4D0096",
"V  c #5500A5",
"C  c #5C0AA8",
"Z  c #5D00B4",
"A  c #6500C3",
"S  c #6D00D2",
"D  c #7500E1",
"F  c #7D00F0",
"G  c #8500FF",
"H  c #8C0FFF",
"J  c #931EFF",
"K  c #9A2DFF",
"L  c #A13CFF",
"P  c #A84BFF",
"I  c #AF5AFF",
"U  c #B669FF",
"Y  c #BD78FF",
"T  c #58B3B6",
"R  c #0097D6",
"E  c #0896D4",
"W  c #0499D6",
"Q  c #0696DE",
"!  c #0997DF",
"~  c #039BDB",
"^  c #0A99DA",
"/  c #1097D7",
"(  c #1896D5",
")  c #238DC7",
"_  c #239CC8",
"`  c #0198E0",
"'  c #38D9D8",
"]  c #2CDEEA",
"[  c #35DBF4",
"{  c #36DEFC",
"}  c #0FE6ED",
"|  c #0CE8F8",
" . c #13E2F1",
".. c #3CE4EA",
"X. c #2BE6F4",
"o. c #2EEAF6",
"O. c #2EE7FB",
"+. c #25E9F9",
"@. c #34E4F3",
"#. c #38E7F3",
"$. c #34E4FB",
"%. c #38E8FF",
"&. c #67D4DC",
"*. c #46D5E0",
"=. c #73D7E0",
"-. c #7ADBE2",
";. c #45E6EF",
":. c #8C99AF",
">. c #869AB7",
",. c #8C9BB5",
"<. c #909CB9",
"1. c #A8ABAA",
"2. c #AFB3AB",
"3. c #B2B2B2",
"4. c #AEB7CA",
"5. c #B0B6CE",
"6. c #DABAC8",
"7. c #C487FF",
"8. c #CC96FF",
"9. c #D3A5FF",
"0. c #BBC8D7",
"q. c #BDC7D8",
"w. c #BFCADC",
"e. c #A8DCEB",
"r. c #C1CBDD",
"t. c #CED4DF",
"y. c #DFDFDF",
"u. c #C2CDE2",
"i. c #C9D5E5",
"p. c #D0D6E4",
"a. c #D5DAE6",
"s. c #DDDFE5",
"d. c #D3DBE9",
"f. c #D9D8E8",
"g. c #E1DEE2",
"h. c #E9D2FF",
"j. c gray88",
"k. c #E0E3ED",
"l. c #E4FEFD",
"z. c #F6F6F6",
"x. c #FFF7F7",
"c. c #F3F9F5",
"v. c #F5F6FA",
"b. c #FEF6FC",
"n. c #FEFEFE",
/* pixels */
"G G G G G G G G G G G G G G G G G G G G G G G G G G G G G G G G G G G G G G G G G G G G G G G G G G G G G G G G G G G G G G G G ",
"G G G G G G G G G G G G G G G G G G G G G G G G G G G G G G G G G G G F B N S D D D S S S S S F G D S V A G G G G G G G G G G G ",
"G F S S S S D D D S S F G G G G G G G G G G G G G G G G G G G G G G G D N N S D D D S S S F F D F D S V A G G G G G G G G G G G ",
"S A S S S S D F G F G H G J K H G G G G G G G G G G G G G G G G G F D D F G G G G G J K J J G D F G G G G G G G G G G G G G G G ",
"Z Z G G G H J J J H J J G G H P L G G G G G G G G G G G G G G G G S A F G G H J K K K K J A B D G G G G G G G G G G G G G G G G ",
"S S G H J J J H F D F G G D H Y P G G G G G G G G G G G G G G G F S G K J K K J K K H G F Z Z F G G G G G F A A S S D S D G G G ",
"F D G J J H G F S D G G G G K H D G G H K K J J J K K H G G G H D S H G F G F Z A F S N 2 A G G G G F F G F A A S S D S A D G G ",
"G F G G D D D D D F G G G G G S S G G H K K J J J K K H G G G H F S A N N V V N V D S N 3 S G G G G D D G G G G G G G G A A G G ",
"G G G F D D D F G G G G G G G G G G G G G G G G G G G G G G G G G F A B V S S S D F G G G G G G G G F S D G G G G G G G S S G G ",
"G G G G G G G G G G G G +   + X   + +   + X G G G G G A V S D D D D S S F G G G G G G G G G G G G G G D S D F G G G G G D D G G ",
"G G G G G G G G G G G G                     G G G G G A V S D D D D D F G G G G G G G G G G G G G G G G F D S D G G G G D D G G ",
"G G G G G G G G G G   + p.t.d f n.v.f d n.n.@       G G                     G G G G G G G G G G G G G G G G D S F G G G D D G G ",
"G G G G G G G G G G     4.5.q r k.k.0 0 n.n.        G G                     G G G G G G G G F D D S A D G G G F S D G G D D G G ",
"G G G G G G G G G G O O 6.6.0 u g.j.i r v.n.O . ; - G G       O     O       G G G G G G G G F D D S A S S D G G D S D S S F G G ",
"G G G G G G y y     p.f.u r r r n.b.i r > > ,   z n         < , < , , ,             G G G G G G G G G F V Z G G G F D S D G G G ",
"G G G G G G 9 w . O s.a.r u d 9 x.b.8 e $ = = O b b     O   : % : : : : O   .       G G G G G G G G G G S S G G G G G G G G G G ",
"G G G G     a.d.y.y.  O r 0 b.n.a j c z G G G G s .     r.r.r.r.r.0.r.r.r.r.> ,         G G G G G G G G G G G G G G G G G G G G ",
"G G G G     a.d.j.j.  . 0 0 n.n.h h z c G G G G     .   w.r.r.w.0.r.q.r.0.i., >         G G G G G G G G G G G G G G G G G G G G ",
"G G G G     n.n.n.n.    z z     y q     G G G G O   n.n.n.n.n.n.n.n.n.n.r.r.w.r..       G G G G G G G G G G G G G G G G G G G G ",
"G G G G . + c.v.n.n.  X l z &   q 8     G G G G     n.n.n.n.n.n.n.n.n.n.w.0.r.r..       G G G G G G G G G G G G G G G G G G G G ",
"G G     p.a.m m       .   . G G   s G G G G G G     n.n.        n.n.      O 0.r.< ,         G G G G G G G G G G G G F F G G G G ",
"G G     p.d.M M   .     + + G G     G G G G G G .   n.n.O O     n.n.      O 0.r.< <         G G G G G G G G G G G G F F G G G G ",
"G G     p.d.t y G G y y G G G G     G G G G G G     n.n.:.<.+   n.n.,.,.  . r.u.< ,         G G G G G G G G G G G G G G G G G G ",
"G G     p.d.y t G G y r G G G G     G G G G G G     n.n.,.>..   n.n.,.,.  . 0.r.< ,         G G G G G G G G G G G G G G G G G G ",
"G G   .     G G G G G s G G G G     G G G G G G     n.n.n.n.b.n.n.n.x.n.u.i.w.u.< ,         G G G G G G G G G G G G G G G G G G ",
"G G         G G G G G G G G G G     G G G G G G     n.n.n.n.n.n.n.n.n.n.w.w.r.r.< ,         G G G G G G G G G F F G G G G G G G ",
"G G l x G G G G G G G G G G G G     G G G G G G     , , n.n.n.n.n.n.n.n.w.r.O . $ ,             G G G G G G G D D G G G G G G G ",
"G G c n G G G G G G G G G G G G     G G G G G G     , < n.n.n.n.n.n.n.n.w.w.    > ,             G G G G G G G F D F G G G G G G ",
"G G s . G G G G G G G G G G G G     G G G G G G G G     n.n.    n.n.    r.r.                    G G G G G G G G S S G G G G G G ",
"G G     G G G G G G G G G G G G     G G G G G G G G     n.n.  + n.n.    r.0.                    G G G G G G G G S S G G G G G G ",
"G G G G G G G G G G G G G G G G     G G G G G G G G               +     O O                     G G G G G G G F A A S S F G G G ",
"G G G G G G G G G G G G G G G G     G @.@.G G G G G                                             G G G G G G D S Z Z S S D F G G ",
"G G g v G G G G G G G G G G G G     G @.@.=.G G G G C C                   + C C C C C C         G G G G G A V Z V S G G S S G G ",
"G G k k G G G G G G G G D S F G     G G +.o.G G G G G G                     G G G G G G         G G G G G A A Z N S G G S S G G ",
"G G s p G G G G G G G F A A F G     G G ' *.G G G G G G                 . X G G G G G G   +     G G G G G G G A B S G G S S G G ",
"G G s s G G G G G G F I I F G G     X.+.G G G G G #.G G G G G G                 #.G G G G G       G G G H L P G 2 N G G S S G G ",
"G G s G G G G G G F D Y 7.G G G   . ..;.G G G G G G G G G G G G               + #.G G G G G   + . G G G 9.h.P K V V J K P K G G ",
"G G G G G G G H J F F J H G G G     G G #.#.G G G G Q G                         + @ G G G G G G G @.@.G 8.8.G H F F J K I K F G ",
"G G G G F B 2 D H D H J G G G G     G G +.%.G G G #.G G                         X @ G G G G G G G @.X.G G G D D S S G G G D D G ",
"G G G G D N 3 D D D J H G G w.w.n.n.G G #.  G G                                     G #.G G G G @.@.G G G G D A A D G G G S S G ",
"G G G F G J J J F F H G G G w.u.n.n.G G . X G G                                     #.Q G G G G Q Q G G G G G D V A G G G S S G ",
"G G F H L K K H D F G G G G w.r.n.n.r.u.W R o                                           G G     Q Q G G G G G G V B D S D D D G ",
"G G D H I L K F S G G G G G w.r.n.n.r.w.W R .                                           G G     / ~ G G G G G G S A D S S S A D ",
"G F D F K L D A F G G G G G w.u.0.r.G @.@.G G G                                         G G G G   . G G G G G G G G G G F D B 2 ",
"G D D G G S V S G G G G G G w.w.r.r.G @.` Q G G                                         G G G G     G G G G G G G G G G G G A N ",
"G S S G F N B G G @.@.G G G G G     X.o.Q Q G G                                         Q G ^ ~ G G @.@.  #.G G G G G G G G G G ",
"G A A S B N A G G @.@.G G G G G   O @.o.` Q G #.                                        G G ^ ~ G G @.{   #.G G G G G G G G G G ",
"G A A S V S G G G G $.$.D A Z A     ^ ( #..                                               . G G G G   O X.[ G G G G G G G G G G ",
"G D D G G G G G G G X.@.D A Z A     ~ ~ #.                                                  G G G G   Q ! X.G G G G G G G G G G ",
"G G G G G G G G G G #.X G G G G     G G     Q G                                             G #.G G ) Q ! l.G G G G G G G G G G ",
"G G G G G G G G G G   . G G G G     G G   . G G                                             #.G G G Q Q G G G G G G G G G G G G ",
"G G G G G G G G G G G G &.&.G G     G G G G * @                                         z.z.@ @ @ # { { G G @ @ G G G G G G G G ",
"G G G G G G G G G G G G O.Q Q G     G #.G G                                             n.n.        X.X.G G   O G G G G G G G G ",
"G G G G G G G G G G G G T Q Q e.    G G 3.3.                                            3.1.    7 6 -.-.2.1.4 5 X.@.G G G G G G ",
"G G G G G G G G G G G G   #.W R #   G #..                                                       G @.@.G     X.$.@.[ G G G G G G ",
"G G G G Z B A A S F G G . + _ (     G G                                                     + + G @.$.G      .| S S S A D G G G ",
"G G G S N B A A A A D G G G G G O   o.O.                                                    G G     @.@.D Q Q } S S S A D G G G ",
"G G F A S G G G F A A F G G G G   O ] #.Q Q                                                 G G Q Q ] ] G Q ! %.G G G G G G G G ",
"D Z A F G G G G G Z V F G G             Q Q                                                     Q Q           O G G G G G H J J ",
"A 1 3 S S S D S S Z A G G G           O ^ W .                                                   E ^           . G G J L L K J J ",
"D V V S S S D S S F G G         G G     O                                                                   G G G G U 7.L J G G ",
"G G G G G G G G G G G G                                                                                     G G G G 7.7.G G G G ",
"J J K K K P U L G G G                                                                                           G G P I H G G G ",
"J J K K K P U L G G G                                                                                         G G G H K K J P L "
};
