/* XPM */
static char *result[] = {
/* columns rows colors chars-per-pixel */
"64 64 130 2 ",
"   c #000000",
".  c #090304",
"X  c #030309",
"o  c #090909",
"O  c #080A10",
"+  c #0E0E1B",
"@  c #120D1D",
"#  c #0D1217",
"$  c #101010",
"%  c #11111A",
"&  c #2D0000",
"*  c #300001",
"=  c #130C21",
"-  c #171324",
";  c #191425",
":  c #1C1429",
">  c #2D005A",
",  c #350069",
"<  c #3D0078",
"1  c #534C4C",
"2  c gray33",
"3  c #A51F2E",
"4  c #8C273B",
"5  c #9F2634",
"6  c #9C2934",
"7  c #922538",
"8  c #A32635",
"9  c #A92635",
"0  c #A22934",
"q  c #A32639",
"w  c #A02A39",
"e  c #FD023C",
"r  c #BF0F41",
"t  c #903645",
"y  c #983143",
"u  c #943D46",
"i  c #973E48",
"p  c #9B3C4A",
"a  c #FF0443",
"s  c #F30B45",
"d  c #DE3E43",
"f  c #E33B43",
"g  c #E93844",
"h  c #E6364B",
"j  c #E93748",
"k  c #E43B48",
"l  c #D04A54",
"z  c #E3424B",
"x  c #E24E4C",
"c  c #E44C50",
"v  c #EA4A51",
"b  c #450087",
"n  c #4D0096",
"m  c #5500A5",
"M  c #5C0AA8",
"N  c #5D00B4",
"B  c #6500C3",
"V  c #6D00D2",
"C  c #7500E1",
"Z  c #7D00F0",
"A  c #8500FF",
"S  c #8C0FFF",
"D  c #931EFF",
"F  c #9A2DFF",
"G  c #A13CFF",
"H  c #A84BFF",
"J  c #AF5AFF",
"K  c #B669FF",
"L  c #BD78FF",
"P  c #0096D6",
"I  c #0896D4",
"U  c #0499D6",
"Y  c #0696DE",
"T  c #039CDA",
"R  c #0A99DA",
"E  c #1A96D1",
"W  c #1695D8",
"Q  c #2CDEEA",
"!  c #37DEFC",
"~  c #0CE8F8",
"^  c #3CE4EA",
"/  c #2AE6F5",
"(  c #25E8F6",
")  c #2EEAF6",
"_  c #2EE7FB",
"`  c #22EBF8",
"'  c #35E6F2",
"]  c #38E7F3",
"[  c #34E4FB",
"{  c #67D1DD",
"}  c #46D5E0",
"|  c #73D7E0",
" . c #7ADBE2",
".. c #45E6EF",
"X. c #8C99AF",
"o. c #869AB7",
"O. c #8C9BB5",
"+. c #909CB9",
"@. c #ACACAC",
"#. c #B2B2B2",
"$. c #AEB7CA",
"%. c #DBBBC9",
"&. c #C487FF",
"*. c #CC96FF",
"=. c #D3A5FF",
"-. c #BBC8D7",
";. c #BDC7D8",
":. c #BECADB",
">. c #C1CBDD",
",. c #CED4DF",
"<. c #DFDFDF",
"1. c #C2CDE2",
"2. c #C6D3E2",
"3. c #CDD8E4",
"4. c #C9D4E8",
"5. c #D0D6E4",
"6. c #D5DAE6",
"7. c #DDDFE5",
"8. c #D3DBE9",
"9. c #D9D8E8",
"0. c #E1DEE2",
"q. c #E9D2FF",
"w. c gray88",
"e. c #E0E3ED",
"r. c #F6F6F6",
"t. c #FFF7F7",
"y. c #F3F9F5",
"u. c #F5F6FA",
"i. c #FEF6FC",
"p. c #FEFEFE",
/* pixels */
"A A A A A A A A A A A A A A A A A A A A A A A A A A A A A A A A A A A A A A A A A A A A A A A A A A A A A A A A A A A A A A A A ",
"A A A A A A A A A A A A A A A A A A A A A A A A A A A A A A A A A A A Z n b V C C C V V V V V Z A C V m B A A A A A A A A A A A ",
"A Z V V V V C C C V V Z A A A A A A A A A A A A A A A A A A A A A A A C b b V C C C V V V Z Z C Z C V m B A A A A A A A A A A A ",
"V B V V V V C Z A Z A S A D F S A A A A A A A A A A A A A A A A A Z C C Z A A A A A D F D D A C Z A A A A A A A A A A A A A A A ",
"N N A A A S D D D S D D A A S H G A A A A A A A A A A A A A A A A V B Z A A S D F F F F D B n C A A A A A A A A A A A A A A A A ",
"V V A S D D D S Z C Z A A C S L H A A A A A A A A A A A A A A A Z V A F D F F D F F S A Z N N Z A A A A A Z B B V V C V C A A A ",
"Z C A D D S A Z V C A A A A F S C A A S F F D D D F F S A A A S C V S A Z A Z N B Z V b , B A A A A Z Z A Z B B V V C V B C A A ",
"A Z A A C C C C C Z A A A A A V V A A S F F D F D F F S A A A S Z V B b b m m b m C V b < V A A A A C C A A A A A A A A B B A A ",
"A A A Z C C C Z A A A A A A A A A A A A A A A A A A A A A A A A A Z B n m V V V C Z A A A A A A A A Z V C A A A A A A A V V A A ",
"A A A A A A A A A A A A X . X .   o o     o A A A A A B m V C ' C C V V Z A A A A A A A A A A A A A A C V C Z A A A A A C C A A ",
"A A A A A A A A A A A A X                   A A A A A B m V C C C C C ' A A A A A A A A A A A A A A A A Z C V C A A A A C C A A ",
"A A A A A A A A A A   . ,.,.t i i.u.p u p.p.o       A A                     A A A A A A A A A A A A A A A A C V Z A A A C C A A ",
"A A A A A A A A A A     $.$.6 8 e.e.5 5 p.p.        A A                     A A ' A A A A A Z C C V B C A A A Z V C A A C C A A ",
"A A A A A A A A A A X X %.%.8 w 0.0.5 8 u.i.X . * & A '       X .   X       A ] A A A A A A Z C C V B V V C A A C V C V V Z A A ",
"A A A A A A 0 0     5.9.q 0 0 0 p.p.0 8 - - ; . f z         : ; ; - : -             A A A A A A A A A Z m N A A A Z C V C A A A ",
"A A A A A A 4 7 . X 7.9.0 q y 4 t.i.3 9 + % # o l l     X . = @ = = = = X           ] A A A A A A A A A V V A A A A A A A A A A ",
"A A A A     6.8.<.<.  X 0 5 i.p.e s k f A A A A r       >.>.>.>.>.;.>.>.>.>.- ;         A A A A A A A A A A A A A A A A A A A A ",
"A A A A     6.8.w.<.  . 5 5 p.p.a a f h A A A A f   .   >.>.>.:.;.>.;.>.>.2.- -         ' A A A A A A A A A A A A A A A A A A A ",
"A A A A     p.p.p.p.    k f     5 8     A A A ' X   p.p.p.p.p.p.p.p.p.p.:.>.>.>.        ' A A A A A A A A A A A A A A A A A A A ",
"A A A A . o y.u.p.p.  . d f #   6 8     A A A A     p.p.p.p.p.p.p.p.p.p.:.-.:.>..       ' ' A A A A A A A A A A A A A A A A A A ",
"A A     5.8.x x       .     A A   r A A A A A A .   p.p.-.:.-.-.p.p.:.;.:.;.-.>.: :         A A A A A A A A A A A A Z Z A A A A ",
"A A     5.6.v c   .     o . A A   f A A ' A A '     p.p.o     X p.p.        ;.>.: :         A A A A A A A A A A A A Z Z A A A A ",
"A A     8.8.9 5 A A 8 0 A A A A     A A A A A A     p.p.X.+..   p.p.O.O.  . >.>.: ;         A ^ A A A A A A A A A A A A A A A A ",
"A A     3.8.0 9 A A 0 9 A A A A     A A A A ' A     p.p.O.o..   p.p.O.O.  o ;.>.: ;         ' ' A A A A A A A A A A A A A A A A ",
"A A         f A A A A r A A A A     A A ' A ' ^ .   p.p.p.p.i.p.p.p.t.p.1.4.:.>.: ;         ' ' A A ' A A A A A A A A A A A A A ",
"A A         A A A A A f A A A A     A A ' ' ' '     p.p.p.p.p.p.p.p.p.p.:.:.2.>.: ;         ' ' A ' ' A A A A A Z A A A A A A A ",
"A A f j A A A A A A A A A A A A     A ' A ' ' '     - ; p.p.p.p.p.p.p.p.:.:.  . + ;             A ^ ' A ^ A A V C A A A A A A A ",
"A A g z A A A A A A A A A A A A   f A [ ' ' A ^     ; : p.p.p.p.p.p.p.p.:.>.    - ;             ' ' ' A A A A A C Z A A A A A A ",
"A A r   A A A A A A A A A A A A     A A ' [ ' A ] '     p.p.  X p.p.    1.:.                    ' ' Z A A A A A V V A A A A A A ",
"A A     A A A A A A A f A A A A     ' A ' ) ' ' ' A     p.p.  . p.p.    >.:.                    ' ^ A A ' A A A V V A A A A A A ",
"A A A A A A A A A A A f A A A A     ' A [ [ ' Y ' A               .     X                       ' A A ' ' A A Z B B V V Z A A A ",
"A A A A A A A A A A A A A A ' A     A ' / ' ' Y ' ' .                                           ' A S ' ' A C V N N V V C Z A A ",
"A A A A A A A A A A A f ' A A A     A ' ' | ' Y Y ' M M                   . ' ' ' ' ' ^         ' A A ' ' ^ m N m V A A V V A A ",
"A A A A A A A A A A A A ' ^ Z A     ' A ` ' ' Y Y Y ' A                     Y Y ' Y ' '         A A ' ' ' ' B N b V A A V V A A ",
"A A A A A A A A A A A Z B ' ' A     A A ' } Y Y Y Y Y Y                   o Y Y Y Y Y '   o     A A ' ^ ' A A B n V A A V V A A ",
"A A f A A A A A A A Z J K ' ' '     / ( ] ' Y Y Y Y Y Y A Y Y A                 Y Y Y Y A Y       A ' ' ' G H A , b A A V V A A ",
"A A A A A A A A A Z C L &.' ' '   . ^ ..' ' R Y Y Y Y Y Y Y Y Y               . Y Y Y ' Y Y . . . A ' ' =.q.H ' m m F F H F A A ",
"A A A A A A A S D Z Z D S ' ' '     A Y ' ] Y Y Y Y Y Y                         o o Y Y Y Y ' Y Y ' ' ' *.*.A S Z Z D F J F Z A ",
"A A A A Z n , C S C S ^ A ' ' '     A Y Y ' Y Y Y Y Y Y                         o o Y Y Y Y Y Y Y ' ' ' A A C ' V V A A A C C A ",
"A A A A C b < C C V D S A A >.>.p.p.A Y Y Y Y Y                                     Y Y Y Y Y Y ' T ' ' ' A C ' ' C A A A V V A ",
"A A A Z A D D D Z Z ' A A A 1.:.p.p.Y Y Y Y Y Y                                     Y Y Y Y Y Y Y Y ' ' ' A A ' m B ' A A V V A ",
"A A Z f G F F S C ' A ' A A :.>.p.p.:.1.U P o                                           Y ] Y Y Y Y ' ' ' A ) A m ' C V C C C A ",
"A A f f J G F Z V A A ' ' A :.>.p.p.>.1.P Y                                             Y Y Y Y Y Y ' ' ' ' ' A V ' C V V V B C ",
"A Z f f F G C B Z A A A ' ^ :.>.-.>.Y ' Y Y ] Y                                         Y Y Y Y Y Y ) Y A ' A A A ' A A Z C n , ",
"A C f f A V m V A A ' A ' ' 1.:.:.1.Y ' Y Y Y '                                         Y Y Y Y Y Y Y Y A _ ' A A ' A A A A B b ",
"A V f A Z b n A A ' ) A ' ' A A     Y _ ' Y Y Y                                         Y Y R Y Y Y Y Y ' ) A A ' ' A A A A A A ",
"A B B V n b B A A ' ' A ' ' A A     ' / ' Y Y Y                                         Y Y R Y Y Y Y Y ' [ ' Y ^ A A A A A A A ",
"A B B V m V A A A A ' [ ' ' N B   X T W Y Y Y Y                                             Y Y Y Y Y Y / ' T U ' A A ' A A A A ",
"A C C A A A A A ' A _ [ ' _ Y Y     T T Y Y Y Y                                             Y Y Y Y Y Y Y Y Y Y ' A A A A A A A ",
"A A A A A A A A A A ' _ ' ' Y Y     Y Y Y Y Y Y .                                           Y Y Y Y Y Y Y Y Y Y Y ' A A A A A A ",
"A A A A A A A A Y A ' ' [ ' ' Y     Y Y Y Y Y Y                                             Y Y Y Y Y Y Y Y Y Y Y A A A A A A A ",
"A A A A A A A A Y A A ) { Y Y Y     Y ' Y Y $ o                                         r.r.o o O O ! Y Y Y Y Y A A A A A A A A ",
"A A A A A A A A Y Y A _ / Y Y Y     Y ' Y Y                                             p.p.        / / Y Y Y Y Y A A A A A A A ",
"A A A A A A A A Y Y Y ' Y Y Y Y X   Y Y #.#.                                            #.@.    2 1  . .Y Y Y Y ' ' A A A A A A ",
"A A A A A A A A Y Y Y Y Y Y Y U X   Y Y .                                                       Y ' ! Y Y Y Y [ ! ' A A A A A A ",
"A A A A N n B B V Y Y Y Y Y Y E .   Y Y                                                     . X Y ' / Y Y Y Y ~ Y V V B C A A A ",
"A A A V b n B B B Y Y Y Y Y Y Y X   ) _                                                     Y Y Y Y ' ' Y Y Y Y Y V V B C A A A ",
"A A Z B V A A A Z B Y Y Y Y Y Y   X Q ] Y Y                                                 Y Y Y Y Q Q Y Y Y Y Y A A A A A A A ",
"C N B Z A A A A A N Y Y Y Y             Y Y                                                     Y Y           X Y A A A A S D D ",
"B > < V V V C V V N B Y Y Y           X R U                                                     I T           . Y A D G G F D D ",
"C m m V V V C V V Z A Y         Y Y       X                                                     X           Y Y Y A K &.G D A A ",
"A A A A A A A A A A A Y                                                                                     Y Y A A &.&.A A A A ",
"D D F F F H K G A A A                                                                                           A A H J S A A A ",
"D D F F F H K G A A A                                                                                         A A A S F F D H G "
};
