/* XPM */
static char *result[] = {
/* columns rows colors chars-per-pixel */
"64 64 148 2 ",
"   c #010001",
".  c #090203",
"X  c #000B05",
"o  c #040309",
"O  c #080508",
"+  c #060B0A",
"@  c #09090A",
"#  c #0B0411",
"$  c #080A10",
"%  c #0E0E1B",
"&  c #120D1D",
"*  c #0D1217",
"=  c #101010",
"-  c #11111A",
";  c #2D0000",
":  c #130C21",
">  c #171324",
",  c #191425",
"<  c #1C1429",
"1  c #2D005A",
"2  c #350069",
"3  c #3D0078",
"4  c #1D4A56",
"5  c #164F58",
"6  c #534C4C",
"7  c gray33",
"8  c #A51F2E",
"9  c #8C283B",
"0  c #9F2634",
"q  c #9C2934",
"w  c #922538",
"e  c #B0202F",
"r  c #A32635",
"t  c #A92635",
"y  c #A22934",
"u  c #A32639",
"i  c #A02A39",
"p  c #FD023C",
"a  c #BF0F41",
"s  c #963846",
"d  c #973E48",
"f  c #AF3E5E",
"g  c #FD0344",
"h  c #F30B45",
"j  c #FF0149",
"k  c #DE3E43",
"l  c #E43C44",
"z  c #E63848",
"x  c #B14662",
"c  c #D04A54",
"v  c #E3424B",
"b  c #E24E4C",
"n  c #E74B51",
"m  c #450087",
"M  c #4D0096",
"N  c #5500A5",
"B  c #5C0AA8",
"V  c #5D00B4",
"C  c #6500C3",
"Z  c #6D00D2",
"A  c #7500E1",
"S  c #7D00F0",
"D  c #8500FF",
"F  c #8C0FFF",
"G  c #931EFF",
"H  c #9A2DFF",
"J  c #A13CFF",
"K  c #A84BFF",
"L  c #AF5AFF",
"P  c #B669FF",
"I  c #BD78FF",
"U  c #5AB5B8",
"Y  c #0097D6",
"T  c #0896D4",
"R  c #0499D6",
"E  c #0296DB",
"W  c #0997DF",
"Q  c #039ADB",
"!  c #0A99DA",
"~  c #1097D7",
"^  c #1896D5",
"/  c #248EC8",
"(  c #239CC8",
")  c #0B97E1",
"_  c #049AE0",
"`  c #38D9D8",
"'  c #2CDEEA",
"]  c #30DFEB",
"[  c #35DBF4",
"{  c #36DEFC",
"}  c #0FE6ED",
"|  c #0DE6F5",
" . c #13E2F1",
".. c #3CE4EA",
"X. c #2BE6F4",
"o. c #25E9F4",
"O. c #2EEAF6",
"+. c #2EE7FA",
"@. c #25EAFA",
"#. c #34E5F4",
"$. c #38E7F3",
"%. c #35E4FB",
"&. c #38E8FF",
"*. c #67D4DC",
"=. c #79D0DE",
"-. c #46D5E0",
";. c #7ADBE2",
":. c #45E6EF",
">. c #41E1FF",
",. c #8C99AF",
"<. c #869AB7",
"1. c #8C9BB5",
"2. c #909CB9",
"3. c #A8ABAA",
"4. c #AFB3AB",
"5. c #B2B2B2",
"6. c #AEB7CA",
"7. c #B0B6CE",
"8. c #DABAC8",
"9. c #C487FF",
"0. c #CC96FF",
"q. c #D3A5FF",
"w. c #BBC8D7",
"e. c #BDC7D8",
"r. c #BFCADC",
"t. c #A7DDEC",
"y. c #C1CBDD",
"u. c #CED4DF",
"i. c #DFDFDF",
"p. c #C2CDE2",
"a. c #C9D5E5",
"s. c #D0D6E4",
"d. c #D5DAE6",
"f. c #DBDCE7",
"g. c #D3DBE9",
"h. c #E1DEE2",
"j. c #E9D2FF",
"k. c #DFE1EE",
"l. c #DAFFFC",
"z. c gray88",
"x. c #E0E3ED",
"c. c #E4FEFD",
"v. c #F6F6F6",
"b. c #FFF7F7",
"n. c #F3F9F5",
"m. c #F5F6FA",
"M. c #FEF6FC",
"N. c #FEFEFE",
/* pixels */
"D D D D D D D D D D D D D D D D D D D D D D D D D D D D D D D D D D D D D D D D D D D D D D D D D D D D D D D D D D D D D D D D ",
"D D D D D D D D D D D D D D D D D D D D D D D D D D D D D D D D D D D S M m Z A A A Z Z Z Z Z S D A Z N C D D D D D D D D D D D ",
"D S Z Z Z Z A A A Z Z S D D D D D D D D D D D D D D D D D D D D D D D A m m Z A A A Z Z Z S S A S A Z N C D D D D D D D D D D D ",
"Z C Z Z Z Z A S D S D F D G H F D D D D D D D D D D D D D D D D D S A A S D D D D D G H G G D A S D D D D D D D D D D D D D D D ",
"V V D D D F G G G F G G D D F K J D D D D D D D D D D D D D D D D Z C S D D F G H H H H G C M A D D D D D D D D D D D D D D D D ",
"Z Z D F G G G F S A S D D A F I K D D D D D D D D D D D D D D D S Z D H G H H G H H F D S V V S D D D D D S C C Z Z A Z A D D D ",
"S A D G G F D S Z A D D D D H F A D D F H H G G G H H F D D D F A Z F D S D S V C S Z m 2 C D D D D S S D S C C Z Z A Z C A D D ",
"D S D D A A A A A S D D D D D Z Z D D F H H G G G H H F D D D F S Z C m m N N m N A Z m 3 Z D D D D A A D D D D D D D D C C D D ",
"D D D S A A A S D D D D D D D D D D D D D D D D D D D D D D D D D S C M N Z Z Z A S D D D D D D D D S Z A D D D D D D D Z Z D D ",
"D D D D D D D D D D D D O   O X O X O . X   D D D D D C N Z A A A A Z Z S D D D D D D D D D D D D D D A Z A S D D D D D A A D D ",
"D D D D D D D D D D D D                     D D D D D C N Z A A A A A S D D D D D D D D D D D D D D D D S A Z A D D D D A A D D ",
"D D D D D D D D D D   O s.u.s d m.m.d s N.N.@       D D                     D D D D D D D D D D D D D D D D A Z S D D D A A D D ",
"D D D D D D D D D D     6.7.q r k.x.0 0 N.N.        D D                     D D D D D D D D S A A Z C A D D D S Z A D D A A D D ",
"D D D D D D D D D D   o 8.8.0 u h.h.r r N.M.o   ; ; D D       o o   o       D D D D D D D D D A A Z C Z Z A D D A Z A Z Z S D D ",
"D D D D D D y y     g.d.u r r r M.N.y r > > , O l v         < , , , , ,             D D D D D D D D D S N V D D D S A Z A D D D ",
"D D D D D D 9 w   O f.d.r u s 9 b.M.8 t % - - o c c     o o : & : : & : o           D D D D D D D D D D Z Z D D D D D D D D D D ",
"D D D D     f.g.i.i.    u i M.N.p h z l D D D D O .     y.y.y.y.y.e.y.y.y.y.> >         D D D D D D D D D D D D D D D D D D D D ",
"D D D D     d.g.z.z.  O 0 0 N.N.g g l z D D D D         y.y.e.y.e.y.e.y.y.p., >         D D D D D D D D D D D D D D D D D D D D ",
"D D D D     N.N.N.N.    l l     y 0     D D D D X   N.N.N.N.N.N.N.N.N.N.y.y.y.y.        D D D D D D D D D D D D D D D D D D D D ",
"D D D D . O n.m.N.N.  X k l *   q 8     D D D D     N.N.N.N.N.N.N.N.N.N.w.w.y.y.O       D D D D D D D D D D D D D D D D D D D D ",
"D D     s.d.b b       .     D D     D D D D D D     N.N.        N.N.      o e.y.< <         D D D D D D D D D D D D S S D D D D ",
"D D     g.d.n b . .     O O D D     D D D D D D .   N.N.o   X   N.N.      X w.y.< <         D D D D D D D D D D D D S S D D D D ",
"D D     g.g.t r D D y y D D D D     D D D D D D     N.N.,.2.O   N.N.1.1.  . y.y.< ,         D D D D D D D D D D D D D D D D D D ",
"D D     a.g.0 t D D y t D D D D     D D D D D D     N.N.1.<..   N.N.1.1.  O e.y.< ,         D D D D D D D D D D D D D D D D D D ",
"D D   .     D D D D D D D D D D     D D D D D D     N.N.N.N.M.N.N.N.M.N.y.a.r.y.< ,         D D D D D D D D D D D D D D D D D D ",
"D D         D D D D D D D D D D     D D D D D D     N.N.N.N.N.N.N.N.N.N.r.y.y.y.< ,         D D D D D D D D D S S D D D D D D D ",
"D D l z D D D D D D D D D D D D     D D D D D D     , , N.N.N.N.N.N.N.N.r.r.X O % ,             D D D D D D D A A D D D D D D D ",
"D D z v D D D D D D D D D D D D     D D D D D D     < < N.N.N.N.N.N.N.N.r.y.    > ,             D D D D D D D S A S D D D D D D ",
"D D   . D D D D D D D D D D D D     D D D D D D D D     N.N.    N.N.    y.r.                    D D D D D D D D Z Z D D D D D D ",
"D D     D D D D D D D D D D D D     D D D D D D D D     N.N.  O N.N.    y.r.                    D D D D D D D D Z Z D D D D D D ",
"D D D D D D D D D D D D D D D D     D D D D D D D D               O     o                       D D D D D D D S C C Z Z S D D D ",
"D D D D D D D D D D D D D D D D     D D D D D D D D                                             D D D D D D A Z V V Z Z A S D D ",
"D D f x D D D D D D D D D D D D     D D =.=.D D D D B B                   O B B B B B B         D D D D D C N V N Z D D Z Z D D ",
"D D j j D D D D D D D D A Z S D     D D @.%.D D D D D D                     D D D D D D         D D D D D C C V m Z D D Z Z D D ",
"D D a e D D D D D D D S C C S D     D D ` -.D D D D D D                   X D D D D D D   O     D D D D D D D C M Z D D Z Z D D ",
"D D D D D D D D D D S L L S D D     o.o.D D D D D D D D D D D D                 D D D D D D       D D D F J K D 2 m D D Z Z D D ",
"D D D D D D D D D S A I 9.D D D   . ..:.D D D D D D D D D D D D               O D D D D D D   O   D D D q.j.K H N N G H K H D D ",
"D D D D D D D F G S S G F D D D   X D D $.$.D D D D D D                         @ @ D D D D D D D D D D 0.0.D F S S G H L H S D ",
"D D D D S M 2 A F A F G D D D D     D D @.&.D D D D D D                         @ X D D D D D D D D D D D D A A Z Z D D D A A D ",
"D D D D A m 3 A A A G F D D r.y.N.N.D D     D D                                     D D D D D D #.$.D D D D A C C A D D D Z Z D ",
"D D D S D G G G S S F D D D r.p.N.N.D D   X D D                                     D D D D D D $.o.D D D D D A N C D D D Z Z D ",
"D D S F J H H F A S D D D D r.y.N.N.y.p.R E @                                           D D     ) ! D D D D D D N M A Z A A A D ",
"D D A F L J H S Z D D D D D y.y.N.N.y.y.Y E                                             D D   o ~ Q D D D D D D Z C A Z Z Z C A ",
"D S A S H J A C S D D D D D r.y.w.y.D D D D D D                                         D D D D   . D D D D D D D D D D S A M 2 ",
"D A A D D Z N Z D D D D D D r.y.y.y.D D D D D D                                         D D D D     D D D D D D D D D D D D C m ",
"D Z Z D S m M D D D D D D D D D     X.O.Q ! D D                                         D D ! Q D D D D     D D D D D D D D D D ",
"D C C Z M m C D D D D D D D D D     #.O.) E D D                                         D D ! Q D D D D     D D D D D D D D D D ",
"D C C Z N Z D D D D #.%.A C V C   X W ^ O O                                                 D D D D   O X.[ D D D D D D D D D D ",
"D A A D D D D D D D X.%.A C V C     Q Q .                                                   D D D D     %.X.D D D D D D D D D D ",
"D D D D D D D D D D + X D D D D     D D     D D                                             D D D D / / l.c.D D D D D D D D D D ",
"D D D D D D D D D D   . D D D D     D D     D D                                             D D D D E W D D D D D D D D D D D D ",
"D D D D D D D D D D D D *.*.D D     D D D D = @                                         v.v.@ @ @ $ { { D D @ @ D D D D D D D D ",
"D D D D D D D D D D D D X.X.D D     D D D D                                             N.N.        X.X.D D   X D D D D D D D D ",
"D D D D D D D D D D D D U U t.t.X   D D 5.5.                                            5.3.    7 6 ;.;.4.3.4 5 D D D D D D D D ",
"D D D D D D D D D D D D     Y R +   D D .                                                       D D D D   o X.%.D D D D D D D D ",
"D D D D V M C C Z S D D O O ( ^   . D D                                                     O O D D D D      .| Z Z Z C A D D D ",
"D D D Z m M C C C C A D D D D D     +.+.                                                    D D     #.#.A Z | } Z Z Z C A D D D ",
"D D S C Z D D D S C C S D D D D   + ' $.. o                                                 D D @ # ' ' D D ] >.D D D D D D D D ",
"A V C S D D D D D V N S D D             _ Q                                                     Q Q           X D D D D D F G G ",
"C 1 3 Z Z Z A Z Z V C D D D           o ! R                                                     T !           . D D G J J H G G ",
"A N N Z Z Z A Z Z S D D         D D     o                                                       o           D D D D P 9.J G D D ",
"D D D D D D D D D D D D                                                                                     D D D D 9.9.D D D D ",
"G G H H H K P J D D D                                                                                           D D K L F D D D ",
"G G H H H K P J D D D                                                                                         D D D F H H G K J "
};
