/* XPM */
static char *result[] = {
/* columns rows colors chars-per-pixel */
"64 64 136 2 ",
"   c #000000",
".  c #090303",
"X  c #0B0905",
"o  c #040309",
"O  c #090909",
"+  c #080A10",
"@  c #0E0E1B",
"#  c #120D1D",
"$  c #0D1217",
"%  c #101010",
"&  c #11111A",
"*  c #2D0000",
"=  c #300001",
"-  c #130C21",
";  c #171324",
":  c #191425",
">  c #1C1429",
",  c #2D005A",
"<  c #350069",
"1  c #3D0078",
"2  c #1D4A56",
"3  c #164F58",
"4  c #534C4C",
"5  c gray33",
"6  c #A51F2E",
"7  c #8C283B",
"8  c #9F2634",
"9  c #9C2934",
"0  c #922538",
"q  c #B0202F",
"w  c #A32635",
"e  c #A92635",
"r  c #A22934",
"t  c #A32639",
"y  c #A02A39",
"u  c #C0063B",
"i  c #FD023C",
"p  c #BF0F41",
"a  c #963846",
"s  c #973E48",
"d  c #FF0443",
"f  c #F30B45",
"g  c #DE3E43",
"h  c #E33B43",
"j  c #E93748",
"k  c #E63848",
"l  c #D04A54",
"z  c #E3424B",
"x  c #E24E4C",
"c  c #E74B51",
"v  c #450087",
"b  c #4D0096",
"n  c #5500A5",
"m  c #5C0AA8",
"M  c #5D00B4",
"N  c #6500C3",
"B  c #6D00D2",
"V  c #7500E1",
"C  c #7D00F0",
"Z  c #8500FF",
"A  c #8C0FFF",
"S  c #931EFF",
"D  c #9A2DFF",
"F  c #A13CFF",
"G  c #A84BFF",
"H  c #AF5AFF",
"J  c #B669FF",
"K  c #BD78FF",
"L  c #58B3B6",
"P  c #0097D6",
"I  c #0896D4",
"U  c #0499D6",
"Y  c #0696DE",
"T  c #0997DF",
"R  c #029BDA",
"E  c #0A99DA",
"W  c #1896D5",
"Q  c #238DC7",
"!  c #239CC8",
"~  c #0198E0",
"^  c #38D9D8",
"/  c #2CDEEA",
"(  c #3DDFEF",
")  c #35DBF4",
"_  c #36DEFC",
"`  c #0FE6ED",
"'  c #0CE8F8",
"]  c #3CE4EA",
"[  c #2BE6F4",
"{  c #2EEAF6",
"}  c #2FE7FB",
"|  c #25E9F9",
" . c #35E5F2",
".. c #38E7F3",
"X. c #34E4FB",
"o. c #38E8FF",
"O. c #67D6DA",
"+. c #46D5E0",
"@. c #73D7E0",
"#. c #7ADBE2",
"$. c #45E6EF",
"%. c #869AB7",
"&. c #8C9BB5",
"*. c #A8ABAA",
"=. c #AFB3AB",
"-. c #B2B2B2",
";. c #AEB7CA",
":. c #D9B9C7",
">. c #C487FF",
",. c #CC96FF",
"<. c #D3A5FF",
"1. c #BBC8D7",
"2. c #BDC7D8",
"3. c #BFCADC",
"4. c #A8DCEB",
"5. c #C1CBDD",
"6. c #CED4DF",
"7. c #DFDFDF",
"8. c #C2CDE2",
"9. c #C9D5E5",
"0. c #D0D6E4",
"q. c #D5DAE6",
"w. c #DDDFE5",
"e. c #D3DBE9",
"r. c #D9D8E8",
"t. c #E9D2FF",
"y. c #DFE1EE",
"u. c gray88",
"i. c #E0E3ED",
"p. c #E4FEFD",
"a. c #F6F6F6",
"s. c #FFF7F7",
"d. c #F3F9F5",
"f. c #F5F6FA",
"g. c #FEF6FC",
"h. c #FEFEFE",
/* pixels */
"Z Z Z Z Z Z Z Z Z Z Z Z Z Z Z Z Z Z Z Z Z Z Z Z Z Z Z Z Z Z Z Z Z Z Z Z Z Z Z Z Z Z Z Z Z Z Z Z Z Z Z Z Z Z Z Z Z Z Z Z Z Z Z Z ",
"Z Z Z Z Z Z Z Z Z Z Z Z Z Z Z Z Z Z Z Z Z Z Z Z Z Z Z Z Z Z Z Z Z Z Z C b v B V V V B B B B B C Z V B n N Z Z Z Z Z Z Z Z Z Z Z ",
"Z C B B B B V V V B B C Z Z Z Z Z Z Z Z Z Z Z Z Z Z Z Z Z Z Z Z Z Z Z V v v B V V V B B B C C V C V B n N Z Z Z Z Z Z Z Z Z Z Z ",
"B N B B B B V C Z C Z A Z S D A Z Z Z Z Z Z Z Z Z Z Z Z Z Z Z Z Z C V V C Z Z Z Z Z S D S S Z V C Z Z Z Z Z Z Z Z Z Z Z Z Z Z Z ",
"M M Z Z Z A S S S A S S Z Z A G F Z Z Z Z Z Z Z Z Z Z Z Z Z Z Z Z B N C Z Z A S D D D D S N b V Z Z Z Z Z Z Z Z Z Z Z Z Z Z Z Z ",
"B B Z A S S S A C V C Z Z V A K G Z Z Z Z Z Z Z Z Z Z Z Z Z Z Z C B Z D S D D S D D A Z C M M C Z Z Z Z Z C N N B B V B V Z Z Z ",
"C V Z S S A Z C B V Z Z Z Z D A V Z Z A D D S S S D D A Z Z Z A V B A Z C Z C M N C B v < N Z Z Z Z C C Z C N N B B V B N V Z Z ",
"Z C Z Z V V V V V C Z Z Z Z Z B B Z Z A D D S D S D D A Z Z Z A C B N v v n n v n V B v 1 B Z Z Z Z V V Z Z Z Z Z Z Z Z N N Z Z ",
"Z Z Z C V V V C Z Z Z Z Z Z Z Z Z Z Z Z Z Z Z Z Z Z Z Z Z Z Z Z Z C N b n B B B V C Z Z Z Z Z Z Z Z C B V Z Z Z Z Z Z Z B B Z Z ",
"Z Z Z Z Z Z Z Z Z Z Z Z . O O     O O     O Z Z Z Z Z N n B V V V V B B C Z Z Z Z Z Z Z Z Z Z Z Z Z Z V B V C Z Z Z Z Z V V Z Z ",
"Z Z Z Z Z Z Z Z Z Z Z Z                     Z Z Z Z Z N n B V V V V V C Z Z Z Z Z Z Z Z Z Z Z Z Z Z Z Z C V B V Z Z Z Z V V Z Z ",
"Z Z Z Z Z Z Z Z Z Z   o 0.6.a s g.f.s a h.h.O       Z Z                     Z Z Z Z Z Z Z Z Z Z Z Z Z Z Z Z V B C Z Z Z V V Z Z ",
"Z Z Z Z Z Z Z Z Z Z     ;.;.9 t y.i.y 8 h.h.        Z Z                     Z Z Z Z Z Z Z Z C V V B N V Z Z Z C B V Z Z V V Z Z ",
"Z Z Z Z Z Z Z Z Z Z   o :.:.8 t u.u.8 t h.g.o   = * Z Z       o o   o       Z Z Z Z Z Z Z Z Z V V B N B B V Z Z V B V B B C Z Z ",
"Z Z Z Z Z Z w w     e.r.t w w w s.g.r w ; ; ; o h z         > : : : : :             Z Z Z Z Z Z Z Z Z C n M Z Z Z C V B V Z Z Z ",
"Z Z Z Z Z Z 7 0 . o w.r.w t a 7 s.g.6 e @ & & O l l     o o - # - - # - o           Z Z Z Z Z Z Z Z Z Z B B Z Z Z Z Z Z Z Z Z Z ",
"Z Z Z Z     q.y.7.7.  o t 9 g.h.i f k h Z Z Z Z p       5.5.5.5.5.1.5.5.5.5.; :         Z Z Z Z Z Z Z Z Z Z Z Z Z Z Z Z Z Z Z Z ",
"Z Z Z Z     q.0.u.u.  . 8 8 h.h.d d h k Z Z Z Z h   .   5.5.2.5.5.5.2.5.1.9.: ;         Z Z Z Z Z Z Z Z Z Z Z Z Z Z Z Z Z Z Z Z ",
"Z Z Z Z     h.h.h.h.    h h     8 8     Z Z Z Z o   h.h.h.h.h.h.h.h.h.h.5.5.3.5.        Z Z Z Z Z Z Z Z Z Z Z Z Z Z Z Z Z Z Z Z ",
"Z Z Z Z . o d.f.h.h.    g h $   8 w     Z Z Z Z     h.h.h.h.h.h.h.h.h.h.1.1.5.5..       Z Z Z Z Z Z Z Z Z Z Z Z Z Z Z Z Z Z Z Z ",
"Z Z     0.e.x x       .     Z Z   p Z Z Z Z Z Z     h.h.        h.h.      o 1.8.> >         Z Z Z Z Z Z Z Z Z Z Z Z C C Z Z Z Z ",
"Z Z     0.q.c x o .     X . Z Z   p Z Z Z Z Z Z .   h.h.O       h.h.        1.5.> >         Z Z Z Z Z Z Z Z Z Z Z Z C C Z Z Z Z ",
"Z Z     e.0.e w Z Z r r Z Z Z Z   h Z Z Z Z Z Z     h.h.&.&.o . h.h.&.&.  . 5.8.> :         Z Z Z Z Z Z Z Z Z Z Z Z Z Z Z Z Z Z ",
"Z Z     9.y.r e Z Z 8 e Z Z Z Z     Z Z Z Z Z Z     h.h.&.%..   h.h.&.&.  . 2.5.> :         Z Z Z Z Z Z Z Z Z Z Z Z Z Z Z Z Z Z ",
"Z Z   .     j Z Z Z u p Z Z Z Z     Z Z Z Z Z Z     h.h.h.h.f.h.h.h.s.h.8.9.3.8.> :         Z Z Z Z Z Z Z Z Z Z Z Z Z Z Z Z Z Z ",
"Z Z       . Z Z Z Z Z p Z Z Z Z     Z Z Z Z Z Z     h.h.h.h.h.h.h.h.h.h.3.3.5.5.> :         Z Z Z Z Z Z Z Z Z C C Z Z Z Z Z Z Z ",
"Z Z g j Z Z Z Z Z Z Z z Z Z Z Z     Z Z Z Z Z Z     : : h.h.h.h.h.h.h.h.3.5.o . @ :             Z Z Z Z Z Z Z V V Z Z Z Z Z Z Z ",
"Z Z j z Z Z Z Z Z Z Z Z Z Z Z Z     Z Z Z Z Z Z     > > h.h.h.h.h.h.h.h.3.3.    ; :             Z Z Z Z Z Z Z C V C Z Z Z Z Z Z ",
"Z Z p p Z Z Z Z Z Z Z Z Z Z Z Z     Z Z Z Z Z Z Z Z     h.h.  . h.h.    5.5.                    Z Z Z Z Z Z Z Z B B Z Z Z Z Z Z ",
"Z Z q   Z Z Z Z Z Z Z Z Z Z Z Z      .Z Z Z Z Z Z Z     h.h.  o h.h.    5.1.                    Z Z Z Z Z Z Z Z B B Z Z Z Z Z Z ",
"Z Z h Z Z Z Z Z Z Z Z Z Z Z Z Z      .Z Z Z Z Z Z Z               o     o o                     Z Z Z Z Z Z Z C N N B B C Z Z Z ",
"Z Z Z Z Z Z Z Z Z Z Z Z Z Z Z Z     Z  . .Z  .Z Z Z                                             Z Z Z Z Z Z V B M M B B V C Z Z ",
"Z Z Z Z Z Z Z Z Z Z Z Z Z Z Z Z     Z  . .@.Z Z Z Z m m                   o m m m m m m         Z Z Z Z Z ] n M n B Z Z B B Z Z ",
"Z Z Z Z Z Z Z Z Z Z Z Z V B C Z      .Z | { Z Z Z Z  .Z                     Z Z  .Z Z Z         Z Z  .Z  . .N M v B Z Z B B Z Z ",
"Z Z p u Z Z Z Z Z Z Z C N N C Z     Z Z ^ +.Z Z Z Z Z Y                   X Z Z ] Z Z Z   O     Z Z Z Z  .Z Z N b B Z Z B B Z Z ",
"Z Z h h Z Z Z Z Z Z C H H C Z Z     [ | Z Z Z Z Z Z Y  .Z Z Z Z                 Z  .Z Z Z Z       Z  . . .F G Z < v Z Z B B Z Z ",
"Z Z h h Z Z Z Z Z C V K >.Z Z Z   . ] $.Z Z Z Z Z Z T Z Z Z Z Z               o Y Z Z  .Z Z   O . Z  . .<.t.G D n n D D G D Z Z ",
"Z Z h p Z Z Z A S C C S A Z Z Z     Z Z ....Z Z Z Z Y Z                         O O Y Z Z Z Z Z Z  . .Z ,.,.Z A C C S D H D C Z ",
"Z Z p p C b < V A V A S Z Z Z Z     Z Z | o.Z Z Z Z Z Z                         O O Z T Z Z Z Z Z  .} Z Z Z V V B B Z Z Z V V Z ",
"Z Z p Z V v 1 V V V S A Z Z 3.3.h.h.Z Z  .T Z Z                                     T R Z Z Z Z  . .Z Z Z Z V N N B Z Z Z B B Z ",
"Z Z Z C Z S S S C C  .Z Z Z 3.8.h.h.Z Z ..Y Z Z                                     Y Z  .Z ] Z E R Z ..Z Z  .V n N Z Z Z B B Z ",
"Z Z C A F D D A V  .Z Z Z Z 3.5.h.h.5.8.P Y X                                           Z Z  .  Y U Z Z Z Z Z Z n b V B V V V Z ",
"Z Z V A H F D C B Z Z Z Z Z 3.5.h.h.5.3.P P                                             Z  ...Y Y R Z ..Z Z Z Z B N V B B B N V ",
"Z C V C D F V N C Z Z Z Z Z 3.5.1.5.Z  . .Z  .Z                                         Z  .Z Y   Y Z ..Z Z  .Z Z Z Z Z C V b < ",
"Z V V Z Z B n B Z Z  .Z Z Z 3.3.3.8.Z  .Y Y Y  .                                        Z Z Z Z ~ T Z ..Z Z  .Z Z Z Z Z Z Z N v ",
"Z B B Z C v b Z Z  . .Z Z Z Z Z      .{ Y Y Y Z                                         Z Z E Y ~ Z  . .   .Z Z Z Z Z Z Z Z Z Z ",
"Z N N B b v N Z Z  . .Z Z Z Z Z     X.{ ~ ~ Z Z                                         Z Z E T Z Z ) ~  . . .Z Z Z Z Z Z Z Z Z ",
"Z N N B n B Z Z Z Z X.X.V N M N   o T W . .                                                 Z Z  .Z Y T [ ) Z Z Z Z Z  .Z Z Z Z ",
"Z V V Z Z Z Z Z Z Z [  .V N M N   o U R .                                                   Z Y Z T Y  .Y | Z Z Z Z Z Z Z Z Z Z ",
"Z Z Z Z Z Z Z Z Z Z  . .Z Z Z Z     Z Z     Z Z                                             Z Y Z Y Q Y Y p.Z Z Z  .Z Z Z Z Z Z ",
"Z Z Z Z Z Z Z Z Z Z Y Y Z Z Z Z     Z Z   . Z Z                                             Z Y Z Z Y Y Z Z Z Z  .Z Z Z Z Z Z Z ",
"Z Z Z Z Z Z Z Z Z Z Z Y Y O.Z Z     Z  .Z Z % O                                         a.a.O O X + _ _ Z Z Y Y Z Z Z Z Z Z Z Z ",
"Z Z Z Z Z Z Z Z Z Z Z Z Y Y Y Z     Z  .Z Z                                             h.h.        [ [ Z Y Y Y Z Z Z Z Z Z Z Z ",
"Z Z Z Z Z Z Z Z Z Z Z Z L Y Y 4.o   Z Z -.-.                                            -.=.    5 4 #.#.=.*.2 3  . .Z Z Z Z Z Z ",
"Z Z Z Z Z Z Z Z Z Z Z Z R  .P U o   Z Z .                                                       Z  . .Z Y Y [ X. .) Z Z Z Z Z Z ",
"Z Z Z Z M b N N B C Z Z T Y ! W .   Z Z                                                     o o Z T } Z Y Y ` ' B B B N V Z Z Z ",
"Z Z Z B v b N N N N V Z Z Z Y Y     { }                                                     Z Y Y Y } ..V Y Y ` B B B N V Z Z Z ",
"Z Z C N B Z Z Z C N N C Z T Y Y   + / ( ~ Y                                                 T ~ Y Y / / Z T Y o.Z Z Z Z Z Z Z Z ",
"V M N C Z Z Z Z Z M n C Z Y             T T                                                     Y Y           o Z Z Z Z Z A S S ",
"N , 1 B B B V B B M N Z Y Y           o E P                                                     I I           . Z Z S F F D S S ",
"V n n B B B V B B C Z Z         Z Z       o                                                     o           Z Z Z Z J >.F S Z Z ",
"Z Z Z Z Z Z Z Z Z Z Z Z                                                                                     Z Z Z Z >.>.Z Z Z Z ",
"S S D D D G J F Z Z Z                                                                                           Z Z G H A Z Z Z ",
"S S D D D G J F Z Z Z                                                                                         Z Z Z A D D S G F "
};
