/* XPM */
static char *result[] = {
/* columns rows colors chars-per-pixel */
"64 64 23 1 ",
"  c black",
". c #2D005A",
"X c #350069",
"o c #3D0078",
"O c #FF0600",
"+ c #450087",
"@ c #4D0096",
"# c #5500A5",
"$ c #5D00B4",
"% c #6500C3",
"& c #6D00D2",
"* c #7500E1",
"= c #7D00F0",
"- c #8500FF",
"; c #8C0FFF",
": c #931EFF",
"> c #9A2DFF",
", c #A13CFF",
"< c #A84BFF",
"1 c #AF5AFF",
"2 c #B669FF",
"3 c #BD78FF",
"4 c #C487FF",
/* pixels */
"----------------------------------------------------------------",
"-----------------------------------=@+&***&&&&&=-*&#%-----------",
"-=&&&&***&&=-----------------------*++&***&&&==*=*&#%-----------",
"&%&&&&*=-=-;-:>------------------=**=-----:>::-*=---------------",
"$$---;:::;::--;------------------&%=--;:>>>>:%@*----------------",
"&&-;:::;=*=--*;-----------------=&->:>>:>>;-=$$=-----=%%&&*&*---",
"=*-::;-=&*---------;>>:::>>;---;*&;-=-=$%=&+X%----==-=%%&&*&%*--",
"-=--*****=---------;>>:::>>;---;=&%++##+#*&+o&----**--------%%--",
"---=***=-------------------------=%@#&&&*=--------=&*-------&&--",
"---------------------------%#----*&&=--------------*&*=-----**--",
"----------------------------------------------------=*&*----**--",
"------------------------------------------------------*&=---**--",
"----------------------------------------------=**&%*---=&*--**--",
"----------------------------------------------=**&%&&*--*&*&&=--",
"---------------------------------------------------=#$---=*&*---",
"----------------------------------------------------&&----------",
"----------------------------------------------------------------",
"----------------------------------------------------------------",
"----------------------------------------------------------------",
"----------------------------------------------------------------",
"----------------------------------------------------------==----",
"----------------------------------------------------------==----",
"----------------------------------------------------------------",
"----------------------------------------------------------------",
"----------------------------------------------------------------",
"-------------------------------------------------------==-------",
"-------------------------------------------------------**-------",
"-------------------------------------------------------=*=------",
"--------------------------------------------------------&&------",
"--------------------------------------------------------&&------",
"--------------------------------       ----------------=%%&&=---",
"--------------------------                 -----------*&$$&&*=--",
"-----------------------                      --------%#$#&--&&--",
"------------*&=-----                           ------%%$+&--&&--",
"-----------=%%=--                                 -----%@&--&&--",
"----------=11=--                                    ;,<-X+--&&--",
"---------=*34-                                        <>##:><>--",
"-------;:==:;-                                         ;==:>1>=-",
"----=@X*;*;:-                                           &&---**-",
"----*+o***:-                                             *---&&-",
"---=-:::==;             O           O                     ---&&-",
"--=;,>>;*=                                                *&***-",
"--*;1,>=&-                                                *&&&%*",
"-=*=>,*%=-                                                --=*@X",
"-**--&#&-----                                             ----%+",
"-&&-=+@--------                                          -------",
"-%%&@+%----------                                       --------",
"-%%&#&-------------                                    ---------",
"-**--------------------                             ------------",
"-------------------------                      -----------------",
"----------------------------------------------------------------",
"----------------------------------------------------------------",
"----------------------------------------------------------------",
"----------------------------------------------------------------",
"----------------------------------------------------------------",
"----$@%%&-----------------------------------------------&&&%*---",
"---&+@%%%-----------------------------------------------&&&%*---",
"--=%&---=%%-----------------------------------------------------",
"*$%=-----$#--------------------------------------------------;::",
"%.o&&&*&&$%-----------------------------------------------:,,>::",
"*##&&&*&&=------------------------------------------------24,:--",
"----------------------------------------------------------44----",
"::>>><2,--------------------------------------------------<1;---",
"::>>><2,--------------------------------------------------;>>:<,"
};
