/* XPM */
static char *result[] = {
/* columns rows colors chars-per-pixel */
"64 64 40 1 ",
"  c #1A052E",
". c #1D003C",
"X c #2C005A",
"o c #3C0078",
"O c #003378",
"+ c #006369",
"@ c #A50000",
"# c #B40000",
"$ c #C30000",
"% c #D20000",
"& c #E10000",
"* c #F00000",
"= c red",
"- c #003A87",
"; c #4C0096",
": c #5400A5",
"> c #5C00B4",
", c #004196",
"< c #0048A5",
"1 c #004FB4",
"2 c #6400C3",
"3 c #6C00D2",
"4 c #7400E1",
"5 c #7C00F0",
"6 c #0056C3",
"7 c #005DD2",
"8 c #0064E1",
"9 c #006BF0",
"0 c #0072FF",
"q c #8400FF",
"w c #A545FF",
"e c #008187",
"r c #009096",
"t c #009FA5",
"y c #00AEB4",
"u c #00BDC3",
"i c #00CCD2",
"p c #00DBE1",
"a c #00EAF0",
"s c #00F9FF",
/* pixels */
"qqqqqqqqqqqqqqqq33qq44qqqqqqss    rr55qqqqqqqqqq33qqqqqqqq55qqqq",
"qqqqqqqqqqqqqqqq33qq44qqqqqqss    rr55qqqqqqqqqq33qqqqqqqq55qqqq",
"qqqqqqqq>>qqqqqq55qqqq55qqssOO    77iiqqqqqqqqqq55qqqq55qq55qqqq",
"qqqqqqqq>>qqqqqq55qqqq55qqssOO    77iiqqqqqqqqqq55qqqq55qq55qqqq",
"qqqqqqqq>>qqqqqq55qqqq55iirr        uupp55qqqqqq3344335555qqqqqq",
"qqqqqqqq>>qqqqqq55qqqq55i&rr        uupp55qqqqqq3344335555qqqqqq",
"qqqqqqqqqq4455qq55qq55s&00qq        qq99++qqqq4444qqqqqq55qqqqqq",
"qqqqqqqqqq4455qq55qq55s&0&qq        qq&9++qqqq4444qqqqqq55qqqqqq",
"qqqqqqqq..qqqq>>>>44ss00&&qq        qq&&9&pp445555qqqq22qqqqqqqq",
"qqqqqqqq..qqqq>>>>44ss00&qqq        qqq&99pp445555qqqq22qqqqqqqq",
"qqqqqqqq33qq5533>>ss00q*&q99        00q&qq77rrqq44qqqq44qqqqqqqq",
"qqqqqqqq33qq5533>>ss00q&qq99        00q&qq77rrqq44qqqq44qqqqqqqq",
"qqqqqqqq44qq55>>ss,,qq**88qq        qq11@qqq&8ii22qqqq44qqqqqqqq",
"qqqqqqqq44qq55&>ss,,qq**88qq        qq11=@qq&8ii22qqqq44qqqqqqqq",
"qqqqqqqq3355qq22ss66qq**qq            qq==q&&8pp55qq33qqqqqq::qq",
"qqqqqqqq3355qq22ss66*q*qqq            qqq=q&88pp55qq33qqqqqq::qq",
"qqqqqq5544qq55y&00qq**00qq            qq00&&qq99tt445522qqqq>>qq",
"qqqqqq5544qq55yy00qq**00qq            qq00&qqq99tt445522qqqq>>qq",
"qqqq4444qqqq&&ss00qq00qq                qq88qq88&+aaqq22qqqq44qq",
"qqqq4444qqqq&ass00qq00qq                qq&8qq88++aaqq22qqqq44qq",
"qq553355qqss&a00--qq00qq          w     qq&6qq--77aa&s22XXqq22qq",
"qq553355qqss&&00--qq00q&     w wwww     qq&6qq--77a&&s22XXqq22qq",
"qq::2244ss00 &         &      wwwww       &    & * &&0yy335555qq",
"qq::2244ss00 & &       &     wwwwww       &    &   &00yy335555qq",
"qq::44ppss001&*&q&00   &     wwwwww         66q&&=8&00ttaa4444qq",
"qq::44ppss0*11**q&00          wwww          66qq&=8&00ttaa4444qq",
"qqqqiiii0000$$<<q&0088       wwww w      &,,00qq&&&*8899ppiiqqqq",
"qqqqiiii0000$q<<q&0088 *      w          &,,00qq&&**8899ppiiqqqq",
"qqqqii770000<<99=&qq88==                ##99&q=&&*00888866uuqqqq",
"qqqqii770000<<*9=&qq88q=                ##99&q==0*0088&866uuqqqq",
"qqqqpp66000066%%&&qq8800                1100qq00==88117766ppqqqq",
"qqqqpp66000066q%&0qq8800                1100q&00==88117766ppqqqq",
"qq55iiee00007777*8qqqq99qq            qq00qqq&88990088<<ttaaqqqq",
"qq55iiee00007777*8qqqq99*q            qq00qqq&&*990088<<ttaaqqqq",
"qq5533iipp007700&&&,qq0000            0000qq99&=000099yy++55qqqq",
"qq5533iipp007700&&&,qq00*0            0*00q&99==000099yy++55qqqq",
"qqqq33qqiipp7700==7&qqqq==            ==qq&q&9=q0088uuss22qqqqqq",
"qqqq33qqiipp7700q=7&q*qqq=            =qqq&=&9=q0088uuss22qqqqqq",
"qqqq44qqqquuaa888811&#qq00qq        qq00q&q*&78888ssaaqq22qqqqqq",
"qqqq44qqqquuaa888811#q&q00qq        qq00&&q&&78888ssaaqq22qqqqqq",
"qqqqqq33qq22iiuu006699&q&0qq        qq&0&q000000sspp22oo55qqqqqq",
"qqqqqq33qq22iiuu006699q&00=q        q&&0qq000000sspp22oo55qqqqqq",
"qqqqqq5544qq;;22--9988q&&&=q        q&99qq00000055224422qqqqqqqq",
"qqqqqq5544qq;;22--9988qq88=q        q&=9qq00000055224422qqqqqqqq",
"qqqqqqqq5544qqqq>>887700qq==qq    qq&=qq0000005555445533qqqqqqqq",
"qqqqqqqq5544qqqq>>887700qq==&q    qq==qq0000005555445533qqqqqqqq",
"qqqqqqqq44qq555533qqpp9900==&q    q&=q0000ss444444qq33qqqqqqqqqq",
"qqqqqqqq44qq555533qqpp9900q==&    ==&q0000ss444444qq33qqqqqqqqqq",
"qqqqqqqqqq4444qq3355449900qq==    =&qq0000555555qq5544qqqqqqqqqq",
"qqqqqqqqqq4444qq3355449900qqq&    &&qq0000555555qq5544qqqqqqqqqq",
"qqqqqqqqqqqq225544qq::>>aa66qq    &q00ss554444qqqq44qqqqqqqqqqqq",
"qqqqqqqqqqqq225544qq::>>aa66qq    qq00ss554444qqqq44qqqqqqqqqqqq",
"qqqqqqqqqqqqqq33;;44qqqq33pp00qqqq66ss>>2244qqqq5555qqqqqqqqqqqq",
"qqqqqqqqqqqqqq33;;44qqqq33pp00qqqq66ss>>2244qqqq5555qqqqqqqqqqqq",
"qqqqqqqqqqqqqqqqqq4455qqqquuaa9988iippqqqqqqqqqq55qqqqqqqqqqqqqq",
"qqqqqqqqqqqqqqqqqq4455qqqquuaa9988iippqqqqqqqqqq55qqqqqqqqqqqqqq",
"qqqqqqqqqqqqqqqqqqqq>>33qqqqttOO11tt55qq>>334444qqqqqqqqqqqqqqqq",
"qqqqqqqqqqqqqqqqqqqq>>33qqqqttOO11tt55qq>>334444qqqqqqqqqqqqqqqq",
"qqqqqqqqqqqqqqqqqqqqqq4433220066--,,qqqqqqqqqqqqqqqqqqqqqqqqqqqq",
"qqqqqqqqqqqqqqqqqqqqqq4433220066--,,qqqqqqqqqqqqqqqqqqqqqqqqqqqq",
"qqqqqqqqqqqqqqqqqqqqqqqqqqqq00ttaa88qqqqqqqqqqqqqqqqqqqqqqqqqqqq",
"qqqqqqqqqqqqqqqqqqqqqqqqqqqq00ttaa88qqqqqqqqqqqqqqqqqqqqqqqqqqqq",
"qqqqqqqqqqqqqqqqqqqqqqqqqqqqqqppaa22qqqqqqqqqqqqqqqqqqqqqqqqqqqq",
"qqqqqqqqqqqqqqqqqqqqqqqqqqqqqqppaa22qqqqqqqqqqqqqqqqqqqqqqqqqqqq"
};
