/* XPM */
static char *result[] = {
/* columns rows colors chars-per-pixel */
"64 64 106 2 ",
"   c #000000",
".  c #090200",
"X  c #030309",
"o  c #090909",
"O  c #080A10",
"+  c #0E0E1B",
"@  c #120D1D",
"#  c #0D1217",
"$  c #101010",
"%  c #11111A",
"&  c #300001",
"*  c #130C21",
"=  c #171324",
"-  c #191425",
";  c #1D1429",
":  c #2D005A",
">  c #3D0078",
",  c #534C4C",
"<  c gray33",
"1  c #8B283B",
"2  c #9F2634",
"3  c #9C2934",
"4  c #922538",
"5  c #A32635",
"6  c #A92635",
"7  c #A22934",
"8  c #A32639",
"9  c red",
"0  c #FD023C",
"q  c #BF0F41",
"w  c #903645",
"e  c #983143",
"r  c #943D46",
"t  c #973E48",
"y  c #9B3C4A",
"u  c #FF0443",
"i  c #F30B45",
"p  c #DE3E43",
"a  c #E33B43",
"s  c #E93844",
"d  c #E93748",
"f  c #E43B48",
"g  c #D04A54",
"h  c #E3424B",
"j  c #E24E4C",
"k  c #E44C50",
"l  c #EA4A51",
"z  c #E9F036",
"x  c #450087",
"c  c #5500A5",
"v  c #5D00B4",
"b  c #6500C3",
"n  c #6D00D2",
"m  c #7500E1",
"M  c #7D00F0",
"N  c #8500FF",
"B  c #8C0FFF",
"V  c #931EFF",
"C  c #9A2DFF",
"Z  c #A13CFF",
"A  c #A84BFF",
"S  c #AF5AFF",
"D  c #B669FF",
"F  c #BD78FF",
"G  c #0197D6",
"H  c #0896D4",
"J  c #0499D6",
"K  c #0696DE",
"L  c #0A99DA",
"P  c #1A96D1",
"I  c #2ADFEB",
"U  c #37DEFC",
"Y  c #0CE8F8",
"T  c #2AE7F5",
"R  c #2FEAF6",
"E  c #2FE7FB",
"W  c #36E7F0",
"Q  c #7ADBE2",
"!  c #6BFFF5",
"~  c #A3A9A7",
"^  c #B2B2B2",
"/  c #AEB7CA",
"(  c #D9B9C7",
")  c #DBBBC9",
"_  c #C487FF",
"`  c #BDC7D8",
"'  c #BECBDC",
"]  c #C1CBDD",
"[  c #CED4DF",
"{  c #DFDFDF",
"}  c #C2CEE4",
"|  c #C6D3E2",
" . c #CDD8E4",
".. c #D0D6E4",
"X. c #D5DAE6",
"o. c #DDDFE5",
"O. c #D3DBE9",
"+. c #D9D8E8",
"@. c #DFE1EE",
"#. c gray88",
"$. c #E0E3ED",
"%. c #FFF7F7",
"&. c #F3F9F5",
"*. c #F5F6FA",
"=. c #FEF6FC",
"-. c #FEFEFE",
/* pixels */
"N N N N N N N N N N N N N N N N N N N N N N N N N N N N N z N N N N N N W N W N N N N N z z N N N N N N N N N N N N N N N N N N ",
"N N N N N N N N N N N N N N N N N N N N N N N N N N N N z z W N N N N W W x W m m m n n z z z M N m n c b N N N N N N N N N N N ",
"N M n n n n m m m W n M N N N N N N N N W N N N N N N z z N W N W N N W W W W m m m n 9 n z z ! ! m n c W N N N N N N N W N N N ",
"n b n n n n m M N W N B N V C B N N N N W N N N N N z z z N W N W W m W W W W N N W V 9 z z z ! ! N N N W N N N N N N W W N N N ",
"v v N N N B V V V W V V N N B A Z N N N W N N N N z z 9 z N W N W W W W W W W V C W C 9 9 z z ! N N N N W N N N N N W W N N N N ",
"n n N B V V V B M W M N ! m B F A N N W W N N N N z 9 9 z W W N W W W W W W W V W W B 9 9 z v ! N N N ! W M b b n n W W m N N N ",
"M m N W V B N M n W N N ! ! C B m N N W C W V V C 9 9 9 z W W W W W W W W W W W W W n 9 9 z W ! N N M ! W M b b n W W n b m N N ",
"N M N W m m m m m W N ! N ! ! n n N N W C W W V W 9 9 9 z W W W W W K W W W W W W W W 9 9 z ! ! N N m ! W N N N W N W N b b N N ",
"N N W W m m m M N W N ! N N ! ! ! ! ! W N N W W W 9 9 9 z W W W W K K K W W W W W W 9 9 z z ! ! N N M ! W N N W ! W N N n n N N ",
"N N W W N N N N N W N N   o o   X o   W o   N N W 9 9 9 9 K W K W K K K K W W W W K 9 9 z W ! ! W N N ! n m M W ! W N N m m N N ",
"N N W W N N ! N N W N N             .       W W W 9 9 9 9 K K K K K K K K K K W K 9 9 9 z W ! ! N N N ! M m n m ! W N N m m W N ",
"N W W W N N ! ! W W   o ..[ w y *.*.t r -.-.o     9 9 9 9 9                 K K 9 9 9 9 z W ! ! N N ! ! N N m n ! ! N N m m W N ",
"N W W W N N ! ! W W     / / 3 8 @.$.3 2 -.-.      9 9 9   9                 9 9 9 9 9 9 z ! W ! m n ! W ! N N M n ! N N m W W N ",
"N W ! W N N ! ! W N X X ) ( 2 8 #.#.5 8 *.=.X   & 9 9 9     X       X     9 9 9 9 9 9 9 z ! W ! ! n W ! ! m N N m ! m n n W W N ",
"N W ! W N ! 5 5     ..+.8 5 5 5 =.=.3 6 = = - o f 9 9 z     ; = ; - - -         9 9 9 9 W ! W ! ! N W ! ! v N N W ! m n m W W N ",
"W W ! W N ! 1 4 o   @.O.5 8 e 1 %.=.6 6 % % % X g g   z X   * @ * * * * X   . z   9 9 K K W W ! ! W W ! ! n N N N ! N N N W W N ",
"W ! ! W     +.@.o.{   X 5 3 =.-.0 i f f W W W W q   z z [ z z ' ' ] ] z z ] = z z       K W K ! ! W N ! ! N N W N ! N N W W W N ",
"W ! ! W     .. .#.#.  . 2 2 -.-.u u f d W W W W a z 9   ' z z z 9 ` 9 z 9 | - * z       K W K ! ! W N ! ! ! N W N ! N N W W W N ",
"W ! ! W     -.-.-.-.    f a .   2 7     W ! W W z z 9 9 z 9 z 9 9 9 9 z 9 ] ' 9 z       K K K ! ! W W ! N ! N W N ! N N W W W N ",
"W ! N N   o &.*.-.-.    p a #   3 5     W ! W W   z 9 9 z 9 9 9 9 9 9 9 9 ` 9 z z       K K K ! ! ! W ! N ! ! W N ! N W W W W N ",
"! !     ..O.j j       .   . N W     W W W ! W W     9 9 9 9 9 9 9 9 9 9 9 9 9 z ; -         K ! W ! W ! W ! N W ! W ! W N W W N ",
"W !     X.X.l k o       o   W W     W W W K K W     9 9 9 9 9 9 z 9 9 9 9 9 9 ] ; -         K ! K ! W ! K W ! W ! W W M N W W N ",
"W !     O.X.6 5 N W 7 7 ! ! ! !     W W W K K K X z 9 9 9 9 9 9 z 9 9 9 9 9 ] } ; - .       K ! K ! W ! ! W ! ! ! W W N W W W N ",
"! !      .O.3 6 N W 2 6 ! ! ! W     W W W K K K   z z 9 9 9 9 9 z z 9 9 9 z z ] ; -         K W K ! W ! ! K W ! N W ! W W N W N ",
"! !   .     s N ! ! N q ! W ! W     W W K K K K     z z z -.z z z z =.-.z z ' ] ; -         K K K ! K ! ! K K W N W ! W W ! W N ",
"! !         ! W ! W W W W W ! W     W W K K K K     -.-.-.-.-.-.-.-.-.-.' ' ] ] ; -         K K K ! ! K ! K K W W W ! W ! ! W N ",
"W ! a d W ! ! ! ! W W W W W ! W     W W K K K K     - - -.-.-.-.-.-.-.-.' ]   o + -             K ! ! K ! K K W W W ! W ! ! W N ",
"W ! s h W W ! ! ! W W W W ! ! W     K K K K K K     ; ; -.-.-.-.-.-.-.-.' ]     = -             K ! ! K ! K K W W W ! W ! ! W N ",
"W ! q   N W ! ! ! W K W W ! ! K     K K K K K K K W     -.-.    -.-.    ] '                     K ! ! K ! K W K W W ! W ! ! W N ",
"W !     ! W ! ! ! W K W K ! ! K     K K K K ! ! K K     -.-.  o -.-.    ] `                     K ! ! K ! W K K J W ! W ! ! W N ",
"W ! ! ! ! W W ! ! W K K K ! ! K     K K K K ! ! K K               o       X                     K ! ! K W K W W K W W ! ! N W N ",
"W N ! ! W W K ! ! W K K ! K ! K     K K K K K ! K K                                             K ! K K K K W W K W H ! ! N W N ",
"N W ! W W W K ! K ! K K ! K ! W     K W K K K ! K K K K                   o K K K K K K         K K K K K K W K K K K W ! ! W N ",
"N W ! W W W K K K ! K ! K K ! K     K K K K K ! K ! K K                     K K K K ! K         K K K K K K K K K K K W ! ! W N ",
"N W ! ! W W K K K ! K ! K K ! K     K K K K K ! K ! K K K                 o K K K K ! K   o     K K K K K K W K K K K W ! ! W ! ",
"N W ! ! W W K K K ! K ! K K ! K     T K K K ! ! K ! K K K K K K                 K K ! K K K       K K K K K K K K ! K K W ! W ! ",
"N W ! ! W W K K K ! K K K K ! K   . K K K K ! K K ! K K K K K K               o K K ! K K K   o o K -.-.-.K K K K W K K W ! W ! ",
"N W ! ! W K K K K ! K K K K K K     K K K K K K K ! K K                         o o ! K K K W K K -.-.-.-.K K W K W K K W ! ! ! ",
"N W ! ! W K ! K K K K K K K K W     K K W K K K K K K K                         o o K K K K K K     -.-.-.K K K K W W K W ! ! ! ",
"N W ! ! W K ! K K K K K K K ] ` -.-.K K W K K K                                     K K K             K ! K K K K K W K W ! ! ! ",
"N W ! ! W K ! K K K K K K K ' } -.-.K K W K K K                                     K K K           K K ! K K K K K K K W ! ! ! ",
"N W ! W W K ! K K K K K K K ' ] -.-.] }     o                                                     K K K ! K K ! K K K K W W ! ! ",
"N W W W K K ! K K K K K K K ' ] -.-.` }     .                                                   K K K K ! K W ! K K ! K W W W ! ",
"N W W W K ! ! K K K K K K K ' ] ' ] K W K K W K                                               K K K K K ! K ! K K K ! K K W W ! ",
"N W W W K ! ! K K K K K K K } ' ' ] K E K K K W                                           K ! K W K K K ! ! K K K ! K K K W W W ",
"N W W W K K ! K K K K K K W K K     K R ! K K K                                         K K ! K K K K K ! ! K K K ! K K K W N W ",
"N W W W K K ! K K K K K K K W K     W K ! K K K                                         K K ! K K W K W ! ! K K K ! K K H W N W ",
"N W W W K K K K K K K K K K K W   X L K ! K K K                                           . ! K K K K K ! K K K K ! K K K W W W ",
"N W W W W K K K K K K K K K K K     K K ! K K K                                             K K K K K K K K K K K K K K K W W W ",
"N W W W W ! K K K K K K K K K K     K K ! K K K                                             K K K K K K K K K K K K K W K W W N ",
"N N W W W ! K ! K K K K K K K K     K K K K K K     9 9 9 z                                 K K K K W K K K K ! K K K W W W W N ",
"N N W N W K K K K K K K K K K K     K W K K $ o     9 9 9 9 9                                 o o O U K K K K ! W W W W W W N N ",
"N N W W W W ! K K K K K K K K K     K W K K         z 9 9 9 9 9                                     K T K K ! K K K W W W W N W ",
"N N W W W W ! ! K K K K K K K K o   K K ^ ^         z z 9 9 9 9 9                               < , Q K K ~ ! K K W W W W W N W ",
"N N N W W W W ! K K K W K K K J X   K K .             z 9 9 9 9 9                               K U W K K K ! K W W N W W W W N ",
"N N N N W W W ! K K K K K K K P     K K X                 9 9 9 9 9                           X K E K K K K ! Y K W W b W W N N ",
"N N N n x W W W K K K K K K K K     T E .                   9 9 9                           K K K K K K K ! K K W W W b W N N N ",
"N N M b n N W W W K W K K K K K   O I W K K                 9 9                             K K K K K K K K K K W W W W W N N N ",
"m v b M N N N W W K K K K K             K K                 9                                   K K           X W W W W N B V V ",
"b : > n n n m n n W K K K K           X L G .                                                   H L           o K W V Z Z C V V ",
"m c c c n n m n n M W K         K K       X                                                                 K K W W D _ Z V N N ",
"N N a a N N N N N N W W                                                                                     K K W N _ _ N N N N ",
"V V a a C A D Z N N N                                                                                           N N A S B N N N ",
"V V C C C A D Z N N N                                                                                         N N N B C C V A Z "
};
