/* XPM */
static char *result[] = {
/* columns rows colors chars-per-pixel */
"64 64 111 2 ",
"   c #000000",
".  c #090203",
"X  c #0B0905",
"o  c #030309",
"O  c #090909",
"+  c #080A10",
"@  c #0E0E1B",
"#  c #120D1D",
"$  c #0D1217",
"%  c #101010",
"&  c #11111A",
"*  c #300001",
"=  c #130C21",
"-  c #171324",
";  c #191425",
":  c #1C1429",
">  c #2D005A",
",  c #3D0078",
"<  c #534C4C",
"1  c gray33",
"2  c #8B283B",
"3  c #9F2634",
"4  c #9C2934",
"5  c #922538",
"6  c #B0202F",
"7  c #A32635",
"8  c #A92635",
"9  c #A22934",
"0  c #A32639",
"q  c #A02A39",
"w  c red",
"e  c #FD023C",
"r  c #BF0F41",
"t  c #903645",
"y  c #983143",
"u  c #943D46",
"i  c #9B3C4A",
"p  c #FF0443",
"a  c #F30B45",
"s  c #DE3E43",
"d  c #E33B43",
"f  c #E93844",
"g  c #E6364B",
"h  c #E93748",
"j  c #E43B48",
"k  c #D04A54",
"l  c #E3424B",
"z  c #E24E4C",
"x  c #E44C50",
"c  c #EA4A51",
"v  c #450087",
"b  c #4D0096",
"n  c #5500A5",
"m  c #5D00B4",
"M  c #6500C3",
"N  c #6D00D2",
"B  c #7500E1",
"V  c #7D00F0",
"C  c #8500FF",
"Z  c #8C0FFF",
"A  c #931EFF",
"S  c #9A2DFF",
"D  c #A13CFF",
"F  c #A84BFF",
"G  c #AF5AFF",
"H  c #B669FF",
"J  c #BD78FF",
"K  c #0197D6",
"L  c #0896D4",
"P  c #0499D6",
"I  c #0696DE",
"U  c #0A99DA",
"Y  c #1A96D1",
"T  c #2ADFEB",
"R  c #3DDFEF",
"E  c #37DEFC",
"W  c #0CE8F8",
"Q  c #2AE7F5",
"!  c #2FEAF6",
"~  c #2FE7FB",
"^  c #36E7F0",
"/  c #7ADBE2",
"(  c #6BFFF5",
")  c #A3A9A7",
"_  c #B2B2B2",
"`  c #AEB7CA",
"'  c #D9B9C7",
"]  c #DBBBC9",
"[  c #C487FF",
"{  c #BBC8D7",
"}  c #BDC7D8",
"|  c #BFCADC",
" . c #C2CBDD",
".. c #CED4DF",
"X. c #DFDFDF",
"o. c #C2CEE3",
"O. c #C6D3E2",
"+. c #CDD8E4",
"@. c #C9D4E8",
"#. c #D0D6E4",
"$. c #D5DAE6",
"%. c #DDDFE5",
"&. c #D3DBE9",
"*. c #D9D8E8",
"=. c #E1DEE2",
"-. c #DFE1EE",
";. c #FFF7F7",
":. c #F3F9F5",
">. c #F5F6FA",
",. c #FEF6FC",
"<. c #FEFEFE",
/* pixels */
"C C C C C C C C C C C C C C C C C C C C C C C C C C C C C C C C C C C C ^ C ^ C C C C C C C C C C C C C C C C C C C C C C C C C ",
"C C C C C C C C C C C C C C C C C C C C C C C C C C C C C C ^ C C C C ^ ^ v ^ B B B N N N N N V C B N n M C C C C C C C C C C C ",
"C V N N N N B B B ^ N V C C C C C C C C ^ C C C C C C w C C ^ C ^ C C ^ ^ ^ ^ B B B N w N V V ( ( B N n ^ C C C C C C C ^ C C C ",
"N M N N N N B V C ^ C Z C A S Z C C C C ^ C C C C C w w C C ^ C ^ ^ B ^ ^ ^ ^ C C ^ A w w A C ( ( C C C ^ C C C C C C ^ ^ C C C ",
"m m C C C Z A A A ^ A A C C Z F D C C C ^ C C C C C w w C C ^ C ^ ^ ^ ^ ^ ^ ^ S S ^ S w w ^ b ( C C C C ^ C C C C C ^ ^ C C C C ",
"N N C Z A A A Z V ^ V C C B Z J F C C ^ ^ C C C C w w w ^ ^ ^ C ^ ^ ^ ^ ^ ^ ^ A ^ ^ Z w w m m ( C C C C ^ V M M N N ^ ^ B C C C ",
"V B C ^ A Z C V N ^ C C C C S Z B C C ^ S ^ A A A w w w ^ ^ ^ ^ ^ ^ ^ ^ ^ ^ ^ ^ ^ ^ N w w M ^ ( C C V ^ ^ V M M N ^ ^ N M B C C ",
"C V C ^ B B B B B ^ C C C C C N N C C ^ S ^ ^ A ^ w w w ^ ^ ^ ^ ^ ^ I ^ ^ ^ ^ ^ ^ ^ ^ w w ^ ( ( C C B ^ ^ C C C ^ C ^ C M M C C ",
"C C ^ ^ B B B V C ^ C C C C C C C C C ^ C C ^ ^ ^ w w w ^ ^ ^ ^ ^ I I I ^ ^ ^ ^ ^ ^ w w w ^ ( ( C C V ^ ^ C C ^ C ^ C C N N C C ",
"C C ^ ^ C C C C C ^ C C . o X   o O . ^ o . C C ^ w w w w I ^ I ^ I I I I ^ ^ ^ ^ I w w w ^ ( ( ^ C C ^ N B V ^ C ^ C C B B C C ",
"C C ^ ^ C C C C C ^ C C o           .   . . Q ^ ^ w w w w I I I I I I I I I I ^ I w w w w ^ ( ( C C C ^ V B N B C ^ C C B B C C ",
"C ^ ^ ^ C C C C ^ ^   O ....t i >.>.u u <.<.X     w w w w w                 I I w w w w w ^ ( ( C C C ^ C C B N V ^ C C B B C C ",
"C ^ ^ ^ C C C C ^ ^     ` ` 4 7 %.-.0 7 <.<.      w w w   w                 w w w w w w ^ ( ^ ( B N ^ ^ C C C V N ^ C C B B C C ",
"C ^ C ^ C C C C ^ C o o ] ' 3 q =.=.4 0 >.,.o . * w w w     o     o o o   w w w w w w w ^ ( ^ ( ( N ^ ^ N B C C B ^ B N N V C C ",
"C ^ C ^ C C 7 9     #.*.0 7 7 7 ;.<.4 8 - - - . j w w       : ; ; ; ; ;         w w w w ^ ( ^ ( ( C ^ ^ n m C C ^ ^ B N B C C C ",
"^ ^ C ^ C C 2 5 o . -.&.7 0 y 2 ;.,.7 8 & & $ o k k .   . o = # = = # = o     o   w w I I ^ ^ ( ( ^ ^ ( N N C C C ^ C C C C C C ",
"^ ^ C ^ . . $.&.X.X.  o 3 4 ;.<.e a j h ^ ^ ^ ^ r     . |  . . .| |  . . . .- :         I ^ I ( ( ^ C ( C C C ^ C ^ C C C ^ C C ",
"^ C C ^     $.+.X.X.  . 3 3 <.<.p p d g ^ ^ ^ ^ d   w . | w | | w | w  .w O.; = o       I ^ I ( ( ^ C ( C C C ^ C ^ C C C ^ C C ",
"^ C C ^     <.<.<.<.. . j d .   3 3     ^ ( ^ ^ .   w w <.w <.w w w w <.w  .| w         I I I ( ( ^ ^ ( C ^ C ^ C ^ C C C ^ C C ",
"^ C C C . O :.>.<.<..   s d $   4 7     ^ ( ^ ^ . . w w <.w w w w w w w w } w w .       I I I ( ( ( ^ ( C ^ C ^ C ^ C C C ^ C C ",
"^ C     #.&.z z         . . C ^     ^ ^ ^ ( ^ ^ .   w w w w w w w w w w w w w o.: ;         I ( ^ ( ^ ( ^ ^ C ^ C ^ V V C ^ C C ",
"^ C     +.$.c x o . . . . . ^ ^     ^ ^ ^ ( I ^ o   w w w w w w <.w w w w w w  .: :         I ( I ( ^ ( I ^ C ^ C ^ V V C ^ C C ",
"^ C     &.$.8 7 C ^ 9 9 C C ( (     ^ ^ ^ ( I I     w w w w w w <.w w w w w  . .: ;         I ( I ( ^ ( ( ^ C ^ C ^ C C ^ ^ C C ",
"^ C     +.&.4 8 C ^ 3 8 C ^ ( ^     ^ ^ ^ ( I I     <.w w w w w <.w w w w w }  .: ;         I ^ I ( ^ ( ( ^ ^ ^ C ^ C ^ ^ C ^ C ",
"^ C   .     h C ^ ^ C 6 ^ ^ ( ^     ^ ^ I ( I I     <.<.<.<.,.<.<.<.;.<.o.@.|  .: ;         I I I ( I ( ( ^ ^ ^ C ^ C ^ ^ C ^ C ",
"^ C         C ^ ( ^ ^ E ^ ^ ( ^     ^ ^ I ( I I     <.<.<.<.<.<.<.<.<.<.| |  . .: ; .       I I I ( ( I ( ^ ^ ^ ^ ^ C ^ ^ C ^ C ",
"^ C d h ^ C C ^ ( ^ ^ ^ ^ ^ ( ^     ^ ^ I ( I I     ; ; <.<.<.<.<.<.<.<.|  .O O @ ;             I ( ( I ( ^ ^ ^ ^ ^ C ^ ^ C ^ C ",
"^ C f l ^ ^ C ^ ( ^ ^ ^ ^ ( ( ^     I I I ( I I o   : : <.<.<.<.<.<.<.<.| |     - ;             I ( ( I ( ^ ^ ^ ^ ^ C ^ C C ^ C ",
"^ C r   C ^ C ^ ( ^ I ^ ^ ( ( I     I I I ( I I I ^     <.<.    <.<.     .|                     I ( ( I ( ^ ^ ^ ^ ^ ^ ^ ( C ^ C ",
"^ C     C ^ C ( ( ^ I ^ I ( ( I     I I I ( ( ( I I     <.<.  O <.<.     .{                     I ( ( I ( ^ ^ ^ U ^ ^ ^ ( C ^ C ",
"^ C ^ C C ^ ^ ( ( ^ I I I ( ( I     I I I I ( ( I I               O     o o                     I ( ( I ^ ^ ^ ^ I ^ ^ ( ( C ^ C ",
"^ C C C ^ ^ I ( ( ^ I I ( I ( I     I I I I I ( I I                                             I ( I I I ^ ^ ^ I ^ ^ ( ( V ^ C ",
"C ^ C ^ ^ ^ I ( I ( I I ( I ( ^     I ^ I I I ( I I I I                   O I I I I I I         I I I I I I ^ I I ^ ( ^ ( N ^ C ",
"C ^ C ^ ^ ^ ^ ( I ( I ( I I ( I     I I I I I ( I ( I I                     I I I I ( I         I I I I I I I I I ^ ( ^ ( N ^ C ",
"C ^ C ^ ^ ^ ^ ( I ( I ( I I ( I     I I I I I ( I ( I I I                 X I I I I ( I   O     I I I I I I ^ I ^ ( ^ ^ ( N ^ C ",
"C ^ j C ^ ^ I ( I ( I ( I I ( I     Q I I I ( ( I ( I I I I I I                 I I ( I I I       I I I I I I I ^ ( I ( ^ N ^ C ",
"C ^ C ^ ^ ^ I ( I ( I I I I ( I   . I I I I ( I I ( I I I I I I               O I I ( I I I   O O I I I I ^ I I ( ^ I ( ^ S ^ C ",
"C ^ ^ C ^ ^ ( ( I ( I I I I I I   o I I I I I I I ( I I                         O O ( I I I ^ I I I I I I ^ I ^ ( ^ I ( ^ S ^ C ",
"C ^ ^ ^ ^ ^ ( ( I ( I I I I I ^     I I ^ I I I I I I I                         X O I I I I I I I I I I ( I I I ( ^ ^ ( ^ B ^ C ",
"C ^ C ^ ^ ^ ( ( I I ( I I I  .| <.<.I I ^ I I I                                     I I I I I I I I I I ( I I I ( I ^ ( ^ N ^ ^ ",
"C ^ C ^ ^ ^ ( ( I I ( I I I |  .<.<.I I ^ I I I                                     I I I I I I I I I I ( I I I ( I ( ^ ^ ^ ^ ^ ",
"C ^ V ^ ^ I ( ( I I ( I I I | o.<.<.| o.    X                                                     I I I ( I I ( I I ( ^ ^ ^ ^ ^ ",
"C ^ ^ ^ ^ I ( ( I I I I I I | | <.<. .o.    .                                                   I I I I ( I ^ ( ^ I ( I ^ ^ ^ ^ ",
"C ^ ^ ^ ^ ( ( ( I I I I I I |  .{  .I ^ I I ^ I                                                 I I I I ( I ( I I I ( I ^ ^ ^ ^ ",
"C ^ ^ ^ ^ ( ( ( I I I I I I o.| |  .I ~ I I I ^                                                 I I I I ( ( I I I ( I I ^ ^ ^ ^ ",
"C ^ ^ ^ ^ ( ( ( I I I I I ^ I I     I ! ( I I I                                         I I   I I I I I ( ( I I I ( I I ^ ^ C ^ ",
"C ^ ^ ^ I ( ( ( I I I I I I ^ I   o ^ I ( I I I                                         I I ( I I I I ^ ( ( I I I ( I I ^ ^ C ^ ",
"C ^ ^ ^ I ( ( ( I I I I I I I ^     U I ( I I I                                           . ( I I I I I ( I I I ^ ( I I ^ ^ ^ ^ ",
"C ^ ^ ^ ^ ( ( ( I I I I I I I I   o P I ( I I I                                             I I I I I I I I I I ( I I I ^ ^ ^ ^ ",
"C ^ ^ ^ ^ ( ( ( I I I I I I I I     I I ( I I I                                             I I I I I I I I I I ( I I ^ ^ ^ ^ C ",
"C C ^ ^ ^ ( I ( I I I I I I I I     I I I I I I                                             I I I I ^ I I I I ( I I I ^ ^ ^ ^ C ",
"C C ^ C ^ I ( ( I I I I I I I I     I ^ I I % O                                               O O + E I I I I ( ^ ^ ^ ^ ^ ^ C C ",
"C C ^ ^ ^ ^ ( ( I I I I I I I I .   I ^ I I                                                         I Q I I ( I I I ^ ^ ^ ^ C ^ ",
"C C ^ ^ ^ ^ ( ( I I I I I I I I .   I I _ _ .                                                   1 < / I I ) ( I I ^ ^ ^ ^ ^ C ^ ",
"C C C ^ ^ ^ ^ ( I I I ^ I I I P o . I I                     w w w                               I E Q I I I ( I ^ ^ C ^ ^ ^ ^ C ",
"C C C C ^ ^ ^ ( I I I I I I I Y . . I I .                 w w w w w                           O I ^ I I I I ( W I ^ ^ M ^ ^ C C ",
"C C C N v ^ ^ ^ I I I I I I I I . . Q Q                     w w w                           I I I I I I I ( I I ^ ^ ^ M ^ C C C ",
"C C V M N C ^ ^ ^ I ^ I I I I I   o T R I I                 w w                             I I I I I I I I I I ^ ^ ^ ^ ^ C C C ",
"B m M V C C C ^ ^ I I I I I           o I I                 w                                   I I           o ^ ^ ^ ^ C Z A A ",
"M > , N N N B N N ^ I I I I           o U K .                                                 o L U           . I ^ A D D S A A ",
"B n n n N N B N N V ^ I         I I     o o                                                     .         . I I ^ ^ H [ D A C C ",
"C C d d C C C C C C ^ ^                                                                                     I I ^ C [ [ C C C C ",
"A A d d S F H D C C C                                                                                           C C F G Z C C C ",
"A A S S S F H D C C C                                                                                         C C C Z S S A F D "
};
