/* XPM */
static char *result[] = {
/* columns rows colors chars-per-pixel */
"64 64 40 1 ",
"  c #1A052E",
". c #1D003C",
"X c #2C005A",
"o c #3C0078",
"O c #003378",
"+ c #006369",
"@ c #A50000",
"# c #B40000",
"$ c #C30000",
"% c #D20000",
"& c #E10000",
"* c #F00000",
"= c red",
"- c #003A87",
"; c #4C0096",
": c #5400A5",
"> c #5C00B4",
", c #004196",
"< c #0048A5",
"1 c #004FB4",
"2 c #6400C3",
"3 c #6C00D2",
"4 c #7400E1",
"5 c #7C00F0",
"6 c #0056C3",
"7 c #005DD2",
"8 c #0064E1",
"9 c #006BF0",
"0 c #0072FF",
"q c #8400FF",
"w c #A545FF",
"e c #008187",
"r c #009096",
"t c #009FA5",
"y c #00AEB4",
"u c #00BDC3",
"i c #00CCD2",
"p c #00DBE1",
"a c #00EAF0",
"s c #00F9FF",
/* pixels */
"qqqqqqqqqqqqqqqq33qq44qqqqqqss    rr55qqqqqqqqqq33qqqqqqqq55qqqq",
"qqqqqqqqqqqqqqqq33qq44qq&qqqss    rr55qqqqqqqqqq33qqqqqqqq55qqqq",
"qqqqqqqq>>qqqqqq55qqqq55&q&sOO    77iiq&qqqqqqqq55qqqq55qq55qqqq",
"qqqqqqqq>>qqqqqq&5qqqq55qq&sOO    77iiq&qqqqqqqq55qqqq55qq55qqqq",
"qqqqqqqq>>qqqqqq&5qq&q55ii&r        uup&55qqqqqq33&4335555qqqqqq",
"qqqqqqqq>>qqqqqq&5qq&q55i&&r        uup&55qqqqqq33&4335555qqqqqq",
"qqqqqqqqqq4455qq&5qq&5s&00qq        qq9&++qqqq4444&qqqqq55qqqqqq",
"qqqqqqqqqq4455qq&5qq&5s&0&qq        qq&9++qqqq4444&qqqqq55qqqqqq",
"qqqqqqqq..qqqq>>&>44&s00&&qq        qq&&9&pp4&5555&qqq22qqqqqqqq",
"qqqqqqqq..qqqq>>>>44&s00&qqq        q=q&99pp4&5555qqqq22qqqqqqqq",
"qqqqqqqq33qq5533>>ss00q*&q99        00q&qq77r&qq44qqqq44qqqqqqqq",
"qqqqqqqq33qq&533>>ss00q&qq99        0==&qq77r&qq&4qqqq44qqqqqqqq",
"qqqqqqqq44qq&5>>ss,,qq**88qq        qq=1@qqq&&ii&2qqqq44qqqqqqqq",
"qqqqqqqq44qq&5&>ss,,qq**88qq        qq=1=@qq&&ii&2qqqq44qqqqqqqq",
"qqqqqqqq3355&q22ss66qq**qq            qq==q&&&pp&5qq33qqqqqq::qq",
"qqqqqqqq3355&q22ss&6*q*q=q            qqq=q&88pp55qq33qqqqqq::qq",
"qqqqqq5544qq55y&00&q**00=q      w     qq00&&qq99tt445522qqqq>>qq",
"qqqqqq5544qq55yy00&q**0=qq      ww    qq00&qqq&9tt&45522qqqq>>qq",
"qqqq4444qqqq&&ss00&&00q=       www      qq88qq&8&+&aqq22qqqq44qq",
"qqqq4444qqqq&ass00&&00qq       wwww     qq88qq&8++&aqq22qqqq44qq",
"qq553355qqss&a00--q&&0qq    wwwwwwww    qq6=q&--77&a&s22XXqq22qq",
"qq553355qqss&&00--qq&0qq     wwwwwww    qq6=q&--77&&&s22XXqq22qq",
"qq::2244ss00 &               wwwwwww           & *&&&0yy335555qq",
"qq::2244ss00 & &             wwwwww            &   &00yy335555qq",
"qq::44ppss001&*&q&00         wwwwww         66q&&=8&00ttaa4444qq",
"qq::44ppss0*11**q&00&        wwwwwww        66qq&=8&00ttaa4444qq",
"qqqqiiii0000$$<<q&00&8       wwwwwww     &,,00qq&&&*88&9ppiiqqqq",
"qqqqiiii0000$q<<q&00&8 *    wwww  ww     &,,00qq&&**88&9ppiiqqqq",
"qqqqii770000<<99=&qq&8==     www        #&99&q=&&*00888866uuqqqq",
"qqqqii770000<<*9=&qq&8q=     www        #&99&q==0*0088&866uuqqqq",
"qqqqpp66000066%%&&qq&800      w         1&0&qq00==88117766ppqqqq",
"qqqqpp66000066q%&0qq&800      w         1&0&q&00==88117766ppqqqq",
"qq55iiee00007777*8qqqq99qq            qq0&q&q&88990088<<ttaaqqqq",
"qq55iiee00007777*8qqq=99*q            qq0&qqq&&*990088<<ttaaqqqq",
"qq5533iipp007700&&&,q=0000            000&qq99&=000099yy++55qqqq",
"qq5533iipp007700&&&,qq00*0            0*00q&99==000099yy++55qqqq",
"qqqq33qqiipp7700==7&qqqq&=            ==qq&q&9=q0088uuss22qqqqqq",
"qqqq33qqiipp7700q=7&q*qq&=            =qqq&=&9=q0088uuss22qqqqqq",
"qqqq44qqqquuaa888811&#qq&0qq        qq00q&q*&78888ssaaqq22qqqqqq",
"qqqq44qqqquuaa888811#q&q&0qq        qq00&&q&&78888ssaaqq22qqqqqq",
"qqqqqq33qq22iiuu006699&q&0qq        qq&0&q000000sspp22oo55qqqqqq",
"qqqqqq33qq22iiuu006699q&00qq        q&&0qq000000sspp22oo55qqqqqq",
"qqqqqq5544qq;;22--9988q&&&qq        q&99qq00000055224422qqqqqqqq",
"qqqqqq5544qq;;22--9988qq88&q        q&99qq00000055224422qqqqqqqq",
"qqqqqqqq5544qqqq>>887700qq&&qq    qq&&qq0000005555445533qqqqqqqq",
"qqqqqqqq5544qqqq>>887700qqqq&q    qq&&qq0000005555445533qqqqqqqq",
"qqqqqqqq44qq555533qqpp9900qq&q    q&&q0000ss444444qq33qqqqqqqqqq",
"qqqqqqqq44qq555533qqpp9900qqq&    qq&q0000ss444444qq33qqqqqqqqqq",
"qqqqqqqqqq4444qq3355449900qqq&    q&qq0000555555qq5544qqqqqqqqqq",
"qqqqqqqqqq4444qq3355449900qqq&    &&qq0000555555qq5544qqqqqqqqqq",
"qqqqqqqqqqqq225544qq::>>aa66qq    &q00ss554444qqqq44qqqqqqqqqqqq",
"qqqqqqqqqqqq225544qq::>>aa66qq    qq00ss554444qqqq44qqqqqqqqqqqq",
"qqqqqqqqqqqqqq33;;44qqqq33pp00qqqq66ss>>2244qqqq5555qqqqqqqqqqqq",
"qqqqqqqqqqqqqq33;;44qqqq33pp00qqqq66ss>>2244qqqq5555qqqqqqqqqqqq",
"qqqqqqqqqqqqqqqqqq4455qqqquuaa9988iippqqqqqqqqqq55qqqqqqqqqqqqqq",
"qqqqqqqqqqqqqqqqqq4455qqqquuaa9988iippqqqqqqqqqq55qqqqqqqqqqqqqq",
"qqqqqqqqqqqqqqqqqqqq>>33qqqqttOO11tt55qq>>334444qqqqqqqqqqqqqqqq",
"qqqqqqqqqqqqqqqqqqqq>>33qqqqttOO11tt55qq>>334444qqqqqqqqqqqqqqqq",
"qqqqqqqqqqqqqqqqqqqqqq4433220066--,,qqqqqqqqqqqqqqqqqqqqqqqqqqqq",
"qqqqqqqqqqqqqqqqqqqqqq4433220066--,,qqqqqqqqqqqqqqqqqqqqqqqqqqqq",
"qqqqqqqqqqqqqqqqqqqqqqqqqqqq00ttaa88qqqqqqqqqqqqqqqqqqqqqqqqqqqq",
"qqqqqqqqqqqqqqqqqqqqqqqqqqqq00ttaa88qqqqqqqqqqqqqqqqqqqqqqqqqqqq",
"qqqqqqqqqqqqqqqqqqqqqqqqqqqqqqppaa22qqqqqqqqqqqqqqqqqqqqqqqqqqqq",
"qqqqqqqqqqqqqqqqqqqqqqqqqqqqqqppaa22qqqqqqqqqqqqqqqqqqqqqqqqqqqq"
};
