/* XPM */
static char *result[] = {
/* columns rows colors chars-per-pixel */
"64 64 40 1 ",
"  c #1A052E",
". c #1D003C",
"X c #2C005A",
"o c #3C0078",
"O c #003378",
"+ c #006369",
"@ c #A50000",
"# c #B40000",
"$ c #C30000",
"% c #D20000",
"& c #E10000",
"* c #F00000",
"= c red",
"- c #003A87",
"; c #4C0096",
": c #5400A5",
"> c #5C00B4",
", c #004196",
"< c #0048A5",
"1 c #004FB4",
"2 c #6400C3",
"3 c #6C00D2",
"4 c #7400E1",
"5 c #7C00F0",
"6 c #0056C3",
"7 c #005DD2",
"8 c #0064E1",
"9 c #006BF0",
"0 c #0072FF",
"q c #8400FF",
"w c #A545FF",
"e c #008187",
"r c #009096",
"t c #009FA5",
"y c #00AEB4",
"u c #00BDC3",
"i c #00CCD2",
"p c #00DBE1",
"a c #00EAF0",
"s c #00F9FF",
/* pixels */
"qqqqqqqqqqqqqqqq33qq44qqqqqqss    rr5&qqqqqqqqqq33qqqqqqqq55qqqq",
"qqqqqqqqqqqqqq&&33qq44qq&qqqss    rr5&&qqqqqqqqq33qqqqqqqq55qqqq",
"qqqqqqqq>>qqqq&q55qqqq&5&q&sOO    77ii&&qqqqqq&q55qqqq55qq55qqqq",
"qqqqqqqq>>q=qq&q&5qqq&&5qq&sOO w  77ii&&qqqqqq&q55qqqq&5qq55qqqq",
"qqqqqqqq>>q=qq&q&5qq&&&5ii&r   w    uu&&55qqqq&&33&433&555qqqqqq",
"qqqqqqqq>>q=qq&q&5qq&&&5i&&=   ww   uu&&&5qqqq&&33&4335555qqqqqq",
"qqqqqqqq=q4=55&q&5qq&&&&00q=   ww   qq&&&+qqqq&&44&qqqqq55qqqqqq",
"qqqqqqqq=q4=55&q&5qq&&s&0&q=   ww   qq&9&+qqq&4&44&qqq&&55qqqqqq",
"qqqqqqqq=.q=qq&>&>44&&0&&&q=  www   qq&&9&pp4&5&&5&qqq&&qqqqqqqq",
"qqqqqqqq=.qqqq&&>>44&&00&qq=  www   qq&&9&pp4&5&&5qqqq&&qqqqqqqq",
"qqqqqqqq=3qq55&&>>ss0&q*&&99  www   0&q&qq&7r&q&&4qqqq&&qqqqqqqq",
"qqqqqqqq33qq&5&3>&ss0&q&q&99  wwww  0&q&qq&7r&q&&4=qqq&&qqqqqqqq",
"qqqqqqqq4=qq&&>>s&,,q&**8=qq wwwww  q=11@qq&&&i&&2=qqq&&qqqqqqqq",
"qqqqqqqq4=qq&&&>s&,,q&**8=qq wwwww  q=11=@q&&&i&&2=qqq&&&qqqqqqq",
"qqqqqqqq3=55&&22s&66q&**q=   wwwww    qq==q&&&p&&5q&33&&&qqq::qq",
"qqqqqqqq3=55&&22s&&6*&*qq=   wwwwww   qqq=q&88p&&5q&3&=&&qqq::qq",
"qqqqqq554=&q5&y&0&&q*&00qq   wwwwww   qq00&&&q9&&t4&&&=&&qqq>>qq",
"qqqqqq554=&q5&yy0&&q**00qq   wwwwwww  qq00&qqq&&&t&4&=2&qqqq>>qq",
"qqqq4444qq&q&&ss0&&&00qq    wwwwwwww    qq88q&&&&+&&&q2&qqqq44qq",
"qqqq4444qq&=&&ss0&&&00qq    wwwwwwwwww  qq88&q&&&&&a&q2&qqqq44qq",
"qq553355qq&=&&00-&q&&0qq    wwwwwwwww   qq&&q&&-&7&&&s2&XXqq22qq",
"qq553355qq&&&&&0-&qq&0qq    wwwwwwwww   qq6=q&--&&&&&s&2XXqq22qq",
"qq::2244ss&& &&  &        wwwwwwwwwwww         &&&&&&0&y335555qq",
"qq::2244ss&& &&&  &  wwwwwwwwwwwwwwwwwwwwww    &&& &&0&y335555qq",
"qq::44ppss&&&&&&q&&0       wwwwwwwwwwww     =6q&&&8&&0&taa4444qq",
"qq::44ppss0&1&&*q&&0&       wwwwwwww        =6qq&=8&&&&taa4444qq",
"qqqqiiii000&$&&<q&&0&8       wwwwwwww    &,,=0q&&&&&&&&9ppiiqqqq",
"qqqqiiii0000&&&<q&&&&8 *    wwwwwwww     &,,=0q&&&&&&&&9ppiiqqqq",
"qqqqii770000=&&9=&&&&8==  wwwwwwwwwww   #&99&q&&&*&&&88866uuqqqq",
"qqqqii770000<=*9=&&&&8q=     wwwwwwwww  #&99&&==&*&&88&866uuqqqq",
"qqqqpp66000066%%&&q&&800     wwwwww     1&0&&&0&==&8117766ppqqqq",
"qqqqpp66000066q%&0qq&&&0     wwwwww     1&&&&&0&=&&8117766ppqqqq",
"qq55iiee00007777*8qqqq&&qq    wwwww   qq0&&&q&&8&&0088<<ttaaqqqq",
"qq55iiee00007777*8qqqq&&*q    wwww    qq0&qqq&&*&90088<<ttaaqqqq",
"qq5533iipp007700&&&,qq00&0    wwww    000&qq9&&&&00099yy++55qqqq",
"qq5533iipp007700&&&,qq00*0    wwww    0*00q&&9=&000099yy++55qqqq",
"qqqq33qqiipp7700==7&qqqq&=     www    ==qq&q&9&&0088uuss22qqqqqq",
"qqqq33qqiipp7700q=7&q*qq&=     www    =qqq&&&&=q0088uuss22qqqqqq",
"qqqq44qqqquuaa888811&#qq&0qq   ww   qq00q&q&&78888ssaaqq22qqqqqq",
"qqqq44qqqquuaa888811#q&q&0qq   ww   qq00&&&&&78888ssaaqq22qqqqqq",
"qqqqqq33qq22iiuu006699&q&0qq    w   qq&0&&&00000sspp22oo55qqqqqq",
"qqqqqq33qq22iiuu006699q&00qq    w   q&&0&&000000sspp22oo55qqqqqq",
"qqqqqq5544qq;;22--9988q&&&qq    w   q&99&q00000055224422qqqqqqqq",
"qqqqqq5544qq;;22--9988qq88&q    w   q&9&&q00000055224422qqqqqqqq",
"qqqqqqqq5544qqqq>>887700qq&&qq  w qq&&&q&000005555445533qqqqqqqq",
"qqqqqqqq5544qqqq>>887700qqqq&q  w qq&&qq0000005555445533qqqqqqqq",
"qqqqqqqq44qq555533qqpp9900qq&q    q&&q0000ss444444qq33qqqqqqqqqq",
"qqqqqqqq44qq555533qqpp9900qqq&    qq&q0000ss444444qq33qqqqqqqqqq",
"qqqqqqqqqq4444qq3355449900qqq&    q&qq0000555555qq5544qqqqqqqqqq",
"qqqqqqqqqq4444qq3355449900qqq&    &&qq0000555555qq5544qqqqqqqqqq",
"qqqqqqqqqqqq225544qq::>>aa66qq    &q00ss554444qqqq44qqqqqqqqqqqq",
"qqqqqqqqqqqq225544qq::>>aa66qq    qq00ss554444qqqq44qqqqqqqqqqqq",
"qqqqqqqqqqqqqq33;;44qqqq33pp00qqqq66ss>>2244qqqq5555qqqqqqqqqqqq",
"qqqqqqqqqqqqqq33;;44qqqq33pp00qqqq66ss>>2244qqqq5555qqqqqqqqqqqq",
"qqqqqqqqqqqqqqqqqq4455qqqquuaa9988iippqqqqqqqqqq55qqqqqqqqqqqqqq",
"qqqqqqqqqqqqqqqqqq4455qqqquuaa9988iippqqqqqqqqqq55qqqqqqqqqqqqqq",
"qqqqqqqqqqqqqqqqqqqq>>33qqqqttOO11tt55qq>>334444qqqqqqqqqqqqqqqq",
"qqqqqqqqqqqqqqqqqqqq>>33qqqqttOO11tt55qq>>334444qqqqqqqqqqqqqqqq",
"qqqqqqqqqqqqqqqqqqqqqq4433220066--,,qqqqqqqqqqqqqqqqqqqqqqqqqqqq",
"qqqqqqqqqqqqqqqqqqqqqq4433220066--,,qqqqqqqqqqqqqqqqqqqqqqqqqqqq",
"qqqqqqqqqqqqqqqqqqqqqqqqqqqq00ttaa88qqqqqqqqqqqqqqqqqqqqqqqqqqqq",
"qqqqqqqqqqqqqqqqqqqqqqqqqqqq00ttaa88qqqqqqqqqqqqqqqqqqqqqqqqqqqq",
"qqqqqqqqqqqqqqqqqqqqqqqqqqqqqqppaa22qqqqqqqqqqqqqqqqqqqqqqqqqqqq",
"qqqqqqqqqqqqqqqqqqqqqqqqqqqqqqppaa22qqqqqqqqqqqqqqqqqqqqqqqqqqqq"
};
